M48
;GenerationSoftware,Autodesk,EAGLE,9.5.2*%
;CreationDate,2021-03-16T00:49:20Z*%
FMAT,2
ICI,OFF
METRIC,TZ,000.000
T2C0.350
T1C1.016
%
G90
M71
T1
X43358Y14529
X33452Y9398
X33452Y32258
X33452Y29718
X33452Y27178
X33452Y24638
X33452Y22098
X33452Y19558
X35992Y32258
X35992Y29718
X35992Y27178
X35992Y24638
X35992Y22098
X35992Y19558
X33452Y17018
X35992Y17018
X33452Y14478
X33452Y11938
X33452Y6858
X33452Y4318
X33452Y1778
X35992Y14478
X35992Y11938
X35992Y9398
X35992Y6858
X35992Y4318
X35992Y1778
X33452Y-762
X35992Y-762
X33452Y-3302
X33452Y-5842
X33452Y-8382
X35992Y-3302
X35992Y-5842
X35992Y-8382
X33452Y-10922
X35992Y-10922
X43358Y-10871
X43358Y-8331
X43358Y-5791
X43358Y-3251
X43358Y-711
X43358Y1829
X40818Y-10871
X40818Y-8331
X40818Y-5791
X40818Y-3251
X40818Y-711
X40818Y1829
X43358Y4369
X40818Y4369
X43358Y6909
X43358Y9449
X43358Y11989
X43358Y17069
X43358Y19609
X40818Y6909
X40818Y9449
X40818Y11989
X40818Y14529
X40818Y17069
X40818Y19609
X43358Y22149
X40818Y22149
X43358Y24689
X43358Y27229
X43358Y29769
X40818Y24689
X40818Y27229
X40818Y29769
X43358Y32309
X40818Y32309
T2
X20142Y22860
X20752Y23698
X53721Y5541
X23825Y25832
X64160Y11125
X64160Y5690
X56896Y15841
X56896Y24341
X61366Y15841
X61341Y24333
X20879Y11125
X20879Y5639
X16434Y11125
X16459Y5639
X16459Y15824
X16434Y24308
X53315Y42
X53340Y951
X53416Y2190
X53442Y3099
X24613Y25225
X53361Y4323
X52281Y4934
X53017Y6148
X53696Y6754
X53678Y7663
X53172Y8443
X53848Y9052
X64160Y12751
X56896Y17450
X56896Y22835
X20879Y9652
X20879Y4140
X19533Y18034
X20650Y21946
X16485Y1143
X16434Y25781
X17958Y14351
X17958Y12624
X56871Y4166
X56871Y9144
X60655Y14351
X61341Y25857
X60655Y12649
X61366Y1143
X21336Y32791
X20320Y31775
X19685Y30404
X56830Y10202
X57734Y10552
X52873Y12639
X54000Y12370
X64186Y9576
X64160Y4140
X61366Y17374
X61341Y22860
X16434Y9601
X61341Y4140
X16459Y4140
X16459Y17297
X16434Y22809
X61341Y9627
X17272Y1905
X60046Y1956
X24994Y14478
X24155Y15138
X20879Y16209
X20041Y16688
X20777Y18186
X23857Y18219
X23757Y19177
X24666Y19332
X24536Y20320
X24054Y21184
X28448Y20726
X28448Y22250
M30