G04 EAGLE Gerber RS-274X export*
G75*
%MOMM*%
%FSLAX34Y34*%
%LPD*%
%INTop Copper*%
%IPPOS*%
%AMOC8*
5,1,8,0,0,1.08239X$1,22.5*%
G01*
%ADD10R,3.429000X4.495800*%
%ADD11P,1.649562X8X292.500000*%
%ADD12P,1.649562X8X112.500000*%
%ADD13R,1.300000X0.300000*%
%ADD14R,2.200000X1.800000*%
%ADD15R,1.676400X0.279400*%
%ADD16R,0.600000X0.600000*%
%ADD17C,0.152400*%
%ADD18C,0.304800*%
%ADD19C,0.756400*%
%ADD20C,0.508000*%


D10*
X207391Y-68707D03*
X205613Y312293D03*
D11*
X334518Y322580D03*
X334518Y297180D03*
X334518Y271780D03*
X334518Y246380D03*
X334518Y220980D03*
X334518Y195580D03*
X359918Y322580D03*
X359918Y297180D03*
X359918Y271780D03*
X359918Y246380D03*
X359918Y220980D03*
X359918Y195580D03*
X334518Y170180D03*
X359918Y170180D03*
X334518Y144780D03*
X334518Y119380D03*
X334518Y93980D03*
X334518Y68580D03*
X334518Y43180D03*
X334518Y17780D03*
X359918Y144780D03*
X359918Y119380D03*
X359918Y93980D03*
X359918Y68580D03*
X359918Y43180D03*
X359918Y17780D03*
X334518Y-7620D03*
X359918Y-7620D03*
X334518Y-33020D03*
X334518Y-58420D03*
X334518Y-83820D03*
X359918Y-33020D03*
X359918Y-58420D03*
X359918Y-83820D03*
X334518Y-109220D03*
X359918Y-109220D03*
D12*
X433578Y-108712D03*
X433578Y-83312D03*
X433578Y-57912D03*
X433578Y-32512D03*
X433578Y-7112D03*
X433578Y18288D03*
X408178Y-108712D03*
X408178Y-83312D03*
X408178Y-57912D03*
X408178Y-32512D03*
X408178Y-7112D03*
X408178Y18288D03*
X433578Y43688D03*
X408178Y43688D03*
X433578Y69088D03*
X433578Y94488D03*
X433578Y119888D03*
X433578Y145288D03*
X433578Y170688D03*
X433578Y196088D03*
X408178Y69088D03*
X408178Y94488D03*
X408178Y119888D03*
X408178Y145288D03*
X408178Y170688D03*
X408178Y196088D03*
X433578Y221488D03*
X408178Y221488D03*
X433578Y246888D03*
X433578Y272288D03*
X433578Y297688D03*
X408178Y246888D03*
X408178Y272288D03*
X408178Y297688D03*
X433578Y323088D03*
X408178Y323088D03*
D13*
X100318Y212120D03*
X100318Y207120D03*
X100318Y202120D03*
X100318Y197120D03*
X100318Y192120D03*
X100318Y187120D03*
X100318Y182120D03*
X100318Y177120D03*
X100318Y172120D03*
X100318Y167120D03*
X100318Y162120D03*
X100318Y157120D03*
X100318Y152120D03*
X100318Y147120D03*
X100318Y142120D03*
X100318Y137120D03*
X100318Y132120D03*
X100318Y127120D03*
X100318Y122120D03*
X100318Y117120D03*
X100318Y112120D03*
X100318Y107120D03*
X100318Y102120D03*
X100318Y97120D03*
X100318Y92120D03*
X100318Y87120D03*
X100318Y82120D03*
X100318Y77120D03*
X100318Y72120D03*
X100318Y67120D03*
X100318Y62120D03*
X100318Y57120D03*
D14*
X67818Y38120D03*
X67818Y231120D03*
D13*
X692670Y53564D03*
X692670Y58564D03*
X692670Y63564D03*
X692670Y68564D03*
X692670Y73564D03*
X692670Y78564D03*
X692670Y83564D03*
X692670Y88564D03*
X692670Y93564D03*
X692670Y98564D03*
X692670Y103564D03*
X692670Y108564D03*
X692670Y113564D03*
X692670Y118564D03*
X692670Y123564D03*
X692670Y128564D03*
X692670Y133564D03*
X692670Y138564D03*
X692670Y143564D03*
X692670Y148564D03*
X692670Y153564D03*
X692670Y158564D03*
X692670Y163564D03*
X692670Y168564D03*
X692670Y173564D03*
X692670Y178564D03*
X692670Y183564D03*
X692670Y188564D03*
X692670Y193564D03*
X692670Y198564D03*
X692670Y203564D03*
X692670Y208564D03*
D14*
X725170Y227564D03*
X725170Y34564D03*
D15*
X627761Y143414D03*
X627761Y148414D03*
X627761Y153414D03*
X627761Y158414D03*
X627761Y163414D03*
X627761Y168414D03*
X627761Y173414D03*
X627761Y178414D03*
X627761Y183414D03*
X627761Y188414D03*
X627761Y193414D03*
X627761Y198414D03*
X627761Y203414D03*
X627761Y208414D03*
X627761Y213414D03*
X627761Y218414D03*
X627761Y223414D03*
X627761Y228414D03*
X627761Y233414D03*
X627761Y238414D03*
X627761Y243414D03*
X627761Y248414D03*
X627761Y253414D03*
X627761Y258414D03*
X554355Y258414D03*
X554355Y253414D03*
X554355Y248414D03*
X554355Y243414D03*
X554355Y238414D03*
X554355Y233414D03*
X554355Y228414D03*
X554355Y223414D03*
X554355Y218414D03*
X554355Y213414D03*
X554355Y208414D03*
X554355Y203414D03*
X554355Y198414D03*
X554355Y193414D03*
X554355Y188414D03*
X554355Y183414D03*
X554355Y178414D03*
X554355Y173414D03*
X554355Y168414D03*
X554355Y163414D03*
X554355Y158414D03*
X554355Y153414D03*
X554355Y148414D03*
X554355Y143414D03*
X149987Y258160D03*
X149987Y253160D03*
X149987Y248160D03*
X149987Y243160D03*
X149987Y238160D03*
X149987Y233160D03*
X149987Y228160D03*
X149987Y223160D03*
X149987Y218160D03*
X149987Y213160D03*
X149987Y208160D03*
X149987Y203160D03*
X149987Y198160D03*
X149987Y193160D03*
X149987Y188160D03*
X149987Y183160D03*
X149987Y178160D03*
X149987Y173160D03*
X149987Y168160D03*
X149987Y163160D03*
X149987Y158160D03*
X149987Y153160D03*
X149987Y148160D03*
X149987Y143160D03*
X223393Y143160D03*
X223393Y148160D03*
X223393Y153160D03*
X223393Y158160D03*
X223393Y163160D03*
X223393Y168160D03*
X223393Y173160D03*
X223393Y178160D03*
X223393Y183160D03*
X223393Y188160D03*
X223393Y193160D03*
X223393Y198160D03*
X223393Y203160D03*
X223393Y208160D03*
X223393Y213160D03*
X223393Y218160D03*
X223393Y223160D03*
X223393Y228160D03*
X223393Y233160D03*
X223393Y238160D03*
X223393Y243160D03*
X223393Y248160D03*
X223393Y253160D03*
X223393Y258160D03*
X627761Y11588D03*
X627761Y16588D03*
X627761Y21588D03*
X627761Y26588D03*
X627761Y31588D03*
X627761Y36588D03*
X627761Y41588D03*
X627761Y46588D03*
X627761Y51588D03*
X627761Y56588D03*
X627761Y61588D03*
X627761Y66588D03*
X627761Y71588D03*
X627761Y76588D03*
X627761Y81588D03*
X627761Y86588D03*
X627761Y91588D03*
X627761Y96588D03*
X627761Y101588D03*
X627761Y106588D03*
X627761Y111588D03*
X627761Y116588D03*
X627761Y121588D03*
X627761Y126588D03*
X554355Y126588D03*
X554355Y121588D03*
X554355Y116588D03*
X554355Y111588D03*
X554355Y106588D03*
X554355Y101588D03*
X554355Y96588D03*
X554355Y91588D03*
X554355Y86588D03*
X554355Y81588D03*
X554355Y76588D03*
X554355Y71588D03*
X554355Y66588D03*
X554355Y61588D03*
X554355Y56588D03*
X554355Y51588D03*
X554355Y46588D03*
X554355Y41588D03*
X554355Y36588D03*
X554355Y31588D03*
X554355Y26588D03*
X554355Y21588D03*
X554355Y16588D03*
X554355Y11588D03*
X149987Y126334D03*
X149987Y121334D03*
X149987Y116334D03*
X149987Y111334D03*
X149987Y106334D03*
X149987Y101334D03*
X149987Y96334D03*
X149987Y91334D03*
X149987Y86334D03*
X149987Y81334D03*
X149987Y76334D03*
X149987Y71334D03*
X149987Y66334D03*
X149987Y61334D03*
X149987Y56334D03*
X149987Y51334D03*
X149987Y46334D03*
X149987Y41334D03*
X149987Y36334D03*
X149987Y31334D03*
X149987Y26334D03*
X149987Y21334D03*
X149987Y16334D03*
X149987Y11334D03*
X223393Y11334D03*
X223393Y16334D03*
X223393Y21334D03*
X223393Y26334D03*
X223393Y31334D03*
X223393Y36334D03*
X223393Y41334D03*
X223393Y46334D03*
X223393Y51334D03*
X223393Y56334D03*
X223393Y61334D03*
X223393Y66334D03*
X223393Y71334D03*
X223393Y76334D03*
X223393Y81334D03*
X223393Y86334D03*
X223393Y91334D03*
X223393Y96334D03*
X223393Y101334D03*
X223393Y106334D03*
X223393Y111334D03*
X223393Y116334D03*
X223393Y121334D03*
X223393Y126334D03*
D16*
X524764Y23956D03*
X524764Y33956D03*
X514858Y23956D03*
X514858Y33956D03*
X237490Y240712D03*
X237490Y230712D03*
X247142Y240712D03*
X247142Y230712D03*
X238506Y160608D03*
X238506Y170608D03*
X248412Y160608D03*
X248412Y170608D03*
X531368Y107616D03*
X531368Y97616D03*
X521716Y107616D03*
X521716Y97616D03*
D17*
X554355Y26588D02*
X590550Y26588D01*
X590550Y11430D01*
X590550Y11176D01*
X590550Y11430D02*
X554355Y11430D01*
X554355Y11588D01*
X590550Y26588D02*
X627761Y26588D01*
X627761Y56588D02*
X554355Y56588D01*
X554355Y81588D02*
X627761Y81588D01*
X627761Y111588D02*
X554355Y111588D01*
X554355Y126588D02*
X590550Y126588D01*
X590550Y125730D01*
X590550Y119126D02*
X590550Y26588D01*
D18*
X590550Y11176D02*
X590550Y119126D01*
D19*
X641604Y111252D03*
D18*
X590550Y119126D02*
X590550Y125730D01*
D17*
X627761Y111588D02*
X641268Y111588D01*
X641604Y111252D01*
D19*
X641604Y56896D03*
D17*
X628069Y56896D02*
X627761Y56588D01*
X628069Y56896D02*
X641604Y56896D01*
X498252Y258414D02*
X433578Y323088D01*
X498252Y258414D02*
X554355Y258414D01*
X464312Y-77978D02*
X433578Y-108712D01*
X464312Y76708D02*
X531114Y143510D01*
X554259Y143510D01*
X554355Y143414D01*
X464312Y76708D02*
X464312Y-77216D01*
X464312Y-77978D01*
X541356Y111588D02*
X554355Y111588D01*
X541356Y111588D02*
X537718Y107950D01*
X531702Y107950D01*
X531368Y107616D01*
X521716Y107616D01*
X433578Y323088D02*
X408178Y323088D01*
X408178Y-108712D02*
X433578Y-108712D01*
X359918Y-109220D02*
X334518Y-109220D01*
X334518Y322580D02*
X359918Y322580D01*
X554355Y26588D02*
X554308Y26541D01*
X544772Y26541D01*
X540385Y22154D01*
X540385Y19282D01*
X536851Y15748D02*
X531622Y15748D01*
X524764Y22606D01*
X536851Y15748D02*
X540385Y19282D01*
X543814Y8890D02*
X543814Y2286D01*
X543814Y8890D02*
X546512Y11588D01*
X554355Y11588D01*
X543814Y2286D02*
X464312Y-77216D01*
X524764Y22606D02*
X524764Y23956D01*
X514858Y23956D01*
X237490Y240712D02*
X237490Y242906D01*
X237490Y240712D02*
X247142Y240712D01*
X237490Y240712D02*
X234522Y240712D01*
X232074Y243160D02*
X223393Y243160D01*
X232074Y243160D02*
X234522Y240712D01*
X238506Y160608D02*
X248412Y160608D01*
D18*
X590550Y143510D02*
X590550Y125730D01*
X590550Y143510D02*
X590550Y243332D01*
X590550Y255524D01*
X590550Y258572D01*
D17*
X590550Y258414D02*
X554355Y258414D01*
X590550Y258414D02*
X590550Y255524D01*
X627761Y243414D02*
X627761Y243332D01*
X613410Y243332D01*
X597662Y243332D01*
X590550Y243332D01*
X568960Y243414D02*
X554355Y243414D01*
X568960Y243414D02*
X597662Y243414D01*
X597662Y243332D01*
X627761Y213414D02*
X554355Y213414D01*
X554355Y188414D02*
X627761Y188414D01*
X627761Y158414D02*
X613664Y158414D01*
X568960Y158414D01*
X554355Y158414D01*
X554355Y143414D02*
X590550Y143414D01*
X590550Y143510D01*
D19*
X568960Y158414D03*
X568960Y243414D03*
X613664Y158414D03*
X613410Y243332D03*
X208788Y111252D03*
D17*
X223311Y111252D01*
X223393Y111334D01*
D19*
X208788Y56388D03*
D17*
X223339Y56388D01*
X223393Y56334D01*
X232283Y158160D02*
X234477Y160354D01*
X232283Y158160D02*
X223393Y158160D01*
X234477Y160354D02*
X238252Y160354D01*
X238506Y160608D01*
D19*
X164338Y111252D03*
D17*
X150069Y111252D01*
X149987Y111334D01*
D19*
X164592Y56388D03*
D17*
X150041Y56388D01*
X149987Y56334D01*
D19*
X164592Y158242D03*
D17*
X164256Y157906D01*
X150241Y157906D01*
X149987Y158160D01*
D19*
X164338Y243078D03*
D17*
X150876Y243078D01*
X150069Y243078D01*
X149987Y243160D01*
X315976Y-90678D02*
X334518Y-109220D01*
X315976Y-90678D02*
X315976Y-72644D01*
X231998Y11334D01*
X223393Y11334D01*
X223393Y126334D02*
X248824Y126334D01*
X248920Y126238D01*
X294386Y171704D01*
X294386Y282448D02*
X334518Y322580D01*
X294386Y282448D02*
X294386Y171704D01*
X359918Y322580D02*
X407670Y322580D01*
X408178Y323088D01*
X408178Y-108712D02*
X407670Y-109220D01*
X359918Y-109220D01*
X223393Y11334D02*
X186690Y11334D01*
X186690Y12192D01*
X186690Y259080D02*
X223393Y259080D01*
X223393Y258160D01*
D18*
X186690Y259080D02*
X186690Y143510D01*
X186690Y127000D01*
X186690Y12192D01*
D17*
X223393Y26334D02*
X149987Y26334D01*
X149987Y56334D02*
X223393Y56334D01*
X223393Y81334D02*
X149987Y81334D01*
X149987Y111334D02*
X223393Y111334D01*
X223393Y126334D02*
X186690Y126334D01*
X186690Y127000D01*
X186690Y143160D02*
X223393Y143160D01*
X186690Y143160D02*
X186690Y143510D01*
X223393Y188160D02*
X149987Y188160D01*
X149987Y213160D02*
X223393Y213160D01*
X223393Y243160D02*
X150876Y243160D01*
X150876Y243078D01*
X170561Y152064D02*
X207391Y152064D01*
X170561Y152064D02*
X164465Y158160D01*
X149987Y158160D01*
X213487Y158160D02*
X223393Y158160D01*
X213487Y158160D02*
X207391Y152064D01*
X236752Y241450D02*
X238228Y241450D01*
X236752Y241450D02*
X236752Y245112D01*
X238228Y245112D01*
X238228Y241450D01*
X542671Y81588D02*
X554355Y81588D01*
X554355Y81588D01*
X542671Y81588D01*
X542671Y79756D01*
X542703Y79636D01*
X542355Y79636D01*
X540587Y81404D01*
X542256Y81404D01*
X542671Y81819D01*
X542671Y81588D01*
X639692Y22096D02*
X642879Y22096D01*
X639692Y22096D02*
X638937Y22851D01*
X638705Y23083D01*
X638785Y23164D01*
X639220Y23916D01*
X639445Y24756D01*
X639445Y26588D01*
X627761Y26588D01*
X627761Y26588D01*
X639445Y26588D01*
X639445Y28420D01*
X639413Y28540D01*
X649324Y28540D01*
X642879Y22096D01*
X639195Y53874D02*
X649205Y53874D01*
X639220Y53916D02*
X639195Y53874D01*
X639220Y53916D02*
X639445Y54756D01*
X639445Y56588D01*
X627761Y56588D01*
X627761Y56588D01*
X639445Y56588D01*
X639445Y58420D01*
X639220Y59260D01*
X638819Y59954D01*
X638930Y60064D01*
X655395Y60064D01*
X649205Y53874D01*
X655185Y77096D02*
X639946Y77096D01*
X639191Y77851D01*
X638819Y78222D01*
X639220Y78916D01*
X639445Y79756D01*
X639445Y81588D01*
X627761Y81588D01*
X627761Y81588D01*
X639445Y81588D01*
X639445Y83286D01*
X661375Y83286D01*
X655185Y77096D01*
X639345Y211208D02*
X639445Y211582D01*
X639445Y213414D01*
X627761Y213414D01*
X627761Y213414D01*
X639445Y213414D01*
X639445Y215112D01*
X643923Y215112D01*
X647828Y211208D01*
X639345Y211208D01*
X639345Y186208D02*
X654032Y186208D01*
X639445Y186582D02*
X639345Y186208D01*
X639445Y186582D02*
X639445Y188414D01*
X627761Y188414D01*
X627761Y188414D01*
X639445Y188414D01*
X639445Y190246D01*
X639445Y190246D01*
X649993Y190246D01*
X654032Y186208D01*
X639445Y156582D02*
X639345Y156208D01*
X639445Y156582D02*
X639445Y158414D01*
X627761Y158414D01*
X627761Y158414D01*
X639445Y158414D01*
X639445Y160112D01*
X662855Y160112D01*
X666760Y156208D01*
X639345Y156208D01*
X639438Y108112D02*
X668443Y108112D01*
X639438Y108112D02*
X639005Y108544D01*
X639220Y108916D01*
X639445Y109756D01*
X639445Y111588D01*
X627761Y111588D01*
X627761Y111588D01*
X639445Y111588D01*
X639445Y113420D01*
X639220Y114260D01*
X639197Y114300D01*
X674632Y114300D01*
X668443Y108112D01*
X542703Y160366D02*
X537055Y160366D01*
X542671Y160246D02*
X542703Y160366D01*
X542671Y160246D02*
X542671Y158414D01*
X554355Y158414D01*
X554355Y158414D01*
X542671Y158414D01*
X542671Y156582D01*
X542716Y156415D01*
X533104Y156415D01*
X537055Y160366D01*
X235077Y109502D02*
X235045Y109382D01*
X235077Y109502D02*
X235077Y111334D01*
X223393Y111334D01*
X223393Y111334D01*
X235077Y111334D01*
X235077Y113166D01*
X235045Y113286D01*
X250962Y113286D01*
X247057Y109382D01*
X235045Y109382D01*
X223393Y11334D02*
X223393Y11334D01*
X235053Y11334D01*
X235054Y11334D01*
X223393Y11334D01*
X554355Y11588D02*
X554355Y11588D01*
X545653Y11588D01*
X545654Y11588D01*
X554355Y11588D01*
X524026Y24694D02*
X521160Y24694D01*
X524026Y24694D02*
X524026Y23218D01*
X515596Y23218D01*
X515596Y24694D01*
X521160Y24694D01*
X240840Y239974D02*
X238228Y239974D01*
X238228Y241450D01*
X246404Y241450D01*
X246404Y239974D01*
X240840Y239974D01*
X242110Y159870D02*
X239244Y159870D01*
X239244Y161346D01*
X247674Y161346D01*
X247674Y159870D01*
X242110Y159870D01*
X223393Y158160D02*
X223393Y158160D01*
X213437Y158160D01*
X213438Y158160D01*
X223393Y158160D01*
X528018Y108354D02*
X530630Y108354D01*
X530630Y106878D01*
X522454Y106878D01*
X522454Y108354D01*
X528018Y108354D01*
X606524Y22071D02*
X606524Y17045D01*
X606524Y22071D02*
X602969Y25626D01*
X597943Y25626D01*
X594388Y22071D01*
X594388Y17045D01*
X595630Y15803D01*
X595630Y3048D01*
X561979Y3048D01*
X561086Y2155D01*
X435487Y-123444D01*
X332101Y-123444D01*
X206879Y1778D01*
X191737Y1778D01*
X181737Y11778D01*
X181737Y11778D01*
X177883Y15632D01*
X178788Y16537D01*
X178788Y21563D01*
X175233Y25118D01*
X170207Y25118D01*
X166652Y21563D01*
X166652Y17498D01*
X162333Y17498D01*
X160655Y15820D01*
X160655Y18678D01*
X160499Y18834D01*
X160655Y18990D01*
X160655Y22553D01*
X161011Y22910D01*
X161446Y23662D01*
X161671Y24502D01*
X161671Y26334D01*
X149987Y26334D01*
X149987Y26334D01*
X161671Y26334D01*
X161671Y28166D01*
X161446Y29006D01*
X161011Y29758D01*
X160655Y30115D01*
X160655Y33678D01*
X160499Y33834D01*
X160655Y33990D01*
X160655Y36758D01*
X162079Y35334D01*
X167105Y35334D01*
X170660Y38889D01*
X170660Y43915D01*
X167105Y47470D01*
X162079Y47470D01*
X160655Y46046D01*
X160655Y48678D01*
X160499Y48834D01*
X160655Y48990D01*
X160655Y52553D01*
X161011Y52910D01*
X161446Y53662D01*
X161671Y54502D01*
X161671Y56334D01*
X149987Y56334D01*
X149987Y56334D01*
X161671Y56334D01*
X161671Y58166D01*
X161446Y59006D01*
X161011Y59758D01*
X160655Y60115D01*
X160655Y63678D01*
X160499Y63834D01*
X160655Y63990D01*
X160655Y68678D01*
X160499Y68834D01*
X160655Y68990D01*
X160655Y73678D01*
X160499Y73834D01*
X160655Y73990D01*
X160655Y77553D01*
X161011Y77910D01*
X161446Y78662D01*
X161671Y79502D01*
X161671Y81334D01*
X149987Y81334D01*
X149987Y81334D01*
X161671Y81334D01*
X161671Y83166D01*
X161446Y84006D01*
X161011Y84758D01*
X160655Y85115D01*
X160655Y88678D01*
X160499Y88834D01*
X160655Y88990D01*
X160655Y91114D01*
X161825Y89944D01*
X166851Y89944D01*
X170406Y93499D01*
X170406Y98525D01*
X166851Y102080D01*
X161825Y102080D01*
X160655Y100910D01*
X160655Y103678D01*
X160499Y103834D01*
X160655Y103990D01*
X160655Y107553D01*
X161011Y107910D01*
X161446Y108662D01*
X161671Y109502D01*
X161671Y111334D01*
X149987Y111334D01*
X149987Y111334D01*
X161671Y111334D01*
X161671Y113166D01*
X161446Y114006D01*
X161011Y114758D01*
X160655Y115115D01*
X160655Y118678D01*
X160499Y118834D01*
X160655Y118990D01*
X160655Y123286D01*
X173949Y123286D01*
X177065Y120170D01*
X182091Y120170D01*
X185646Y123725D01*
X185646Y128751D01*
X182091Y132306D01*
X177065Y132306D01*
X174141Y129382D01*
X159951Y129382D01*
X159316Y130017D01*
X140658Y130017D01*
X139319Y128678D01*
X139319Y125087D01*
X130334Y134072D01*
X132198Y134072D01*
X139319Y141193D01*
X139319Y140816D01*
X140658Y139477D01*
X159316Y139477D01*
X159951Y140112D01*
X174395Y140112D01*
X177065Y137442D01*
X182091Y137442D01*
X185646Y140997D01*
X185646Y146023D01*
X182091Y149578D01*
X177065Y149578D01*
X173695Y146208D01*
X160655Y146208D01*
X160655Y150504D01*
X160499Y150660D01*
X160655Y150816D01*
X160655Y154379D01*
X161011Y154736D01*
X161446Y155488D01*
X161671Y156328D01*
X161671Y158160D01*
X149987Y158160D01*
X149987Y158160D01*
X161671Y158160D01*
X161671Y159992D01*
X161446Y160832D01*
X161011Y161584D01*
X160655Y161941D01*
X160655Y165504D01*
X160499Y165660D01*
X160655Y165816D01*
X160655Y168330D01*
X162079Y166906D01*
X167105Y166906D01*
X170660Y170461D01*
X170660Y175487D01*
X167105Y179042D01*
X162079Y179042D01*
X160655Y177618D01*
X160655Y180504D01*
X160499Y180660D01*
X160655Y180816D01*
X160655Y184379D01*
X161011Y184736D01*
X161446Y185488D01*
X161671Y186328D01*
X161671Y188160D01*
X149987Y188160D01*
X149987Y188160D01*
X161671Y188160D01*
X161671Y189992D01*
X161446Y190832D01*
X161011Y191584D01*
X160655Y191941D01*
X160655Y195504D01*
X160499Y195660D01*
X160655Y195816D01*
X160655Y200504D01*
X160499Y200660D01*
X160655Y200816D01*
X160655Y205504D01*
X160499Y205660D01*
X160655Y205816D01*
X160655Y209379D01*
X161011Y209736D01*
X161446Y210488D01*
X161671Y211328D01*
X161671Y213160D01*
X149987Y213160D01*
X149987Y213160D01*
X161671Y213160D01*
X161671Y214992D01*
X161446Y215832D01*
X161011Y216584D01*
X160655Y216941D01*
X160655Y220504D01*
X160499Y220660D01*
X160655Y220816D01*
X160655Y223194D01*
X161825Y222024D01*
X166851Y222024D01*
X170406Y225579D01*
X170406Y230605D01*
X166851Y234160D01*
X161825Y234160D01*
X160655Y232990D01*
X160655Y235504D01*
X160499Y235660D01*
X160655Y235816D01*
X160655Y239379D01*
X161011Y239736D01*
X161446Y240488D01*
X161671Y241328D01*
X161671Y243160D01*
X149987Y243160D01*
X149987Y243160D01*
X161671Y243160D01*
X161671Y244992D01*
X161446Y245832D01*
X161011Y246584D01*
X160655Y246941D01*
X160655Y250504D01*
X160499Y250660D01*
X160655Y250816D01*
X160655Y252912D01*
X161825Y251742D01*
X166851Y251742D01*
X170406Y255297D01*
X170406Y260323D01*
X166851Y263878D01*
X161825Y263878D01*
X159553Y261606D01*
X159316Y261843D01*
X140658Y261843D01*
X139319Y260504D01*
X139319Y256208D01*
X137851Y256208D01*
X126492Y244849D01*
X126492Y229355D01*
X112305Y215168D01*
X108503Y215168D01*
X107765Y215906D01*
X92871Y215906D01*
X91532Y214567D01*
X91532Y209673D01*
X91585Y209620D01*
X91532Y209567D01*
X91532Y204673D01*
X91585Y204620D01*
X91532Y204567D01*
X91532Y199673D01*
X91585Y199620D01*
X91532Y199567D01*
X91532Y194673D01*
X91585Y194620D01*
X91532Y194567D01*
X91532Y189673D01*
X91585Y189620D01*
X91532Y189567D01*
X91532Y184673D01*
X91585Y184620D01*
X91532Y184567D01*
X91532Y179673D01*
X91585Y179620D01*
X91532Y179567D01*
X91532Y174673D01*
X91585Y174620D01*
X91532Y174567D01*
X91532Y169673D01*
X91585Y169620D01*
X91532Y169567D01*
X91532Y164673D01*
X91585Y164620D01*
X91532Y164567D01*
X91532Y159673D01*
X91585Y159620D01*
X91532Y159567D01*
X91532Y154673D01*
X91585Y154620D01*
X91532Y154567D01*
X91532Y149673D01*
X91585Y149620D01*
X91532Y149567D01*
X91532Y144673D01*
X91585Y144620D01*
X91532Y144567D01*
X91532Y139673D01*
X91585Y139620D01*
X91532Y139567D01*
X91532Y134673D01*
X91585Y134620D01*
X91532Y134567D01*
X91532Y129673D01*
X91585Y129620D01*
X91532Y129567D01*
X91532Y124673D01*
X91585Y124620D01*
X91532Y124567D01*
X91532Y119673D01*
X91585Y119620D01*
X91532Y119567D01*
X91532Y114673D01*
X91585Y114620D01*
X91532Y114567D01*
X91532Y109673D01*
X91585Y109620D01*
X91532Y109567D01*
X91532Y104673D01*
X91585Y104620D01*
X91532Y104567D01*
X91532Y99673D01*
X91585Y99620D01*
X91532Y99567D01*
X91532Y94673D01*
X91585Y94620D01*
X91532Y94567D01*
X91532Y89673D01*
X91585Y89620D01*
X91532Y89567D01*
X91532Y84673D01*
X91585Y84620D01*
X91532Y84567D01*
X91532Y79673D01*
X91585Y79620D01*
X91532Y79567D01*
X91532Y74673D01*
X91585Y74620D01*
X91532Y74567D01*
X91532Y69673D01*
X91585Y69620D01*
X91532Y69567D01*
X91532Y64673D01*
X91585Y64620D01*
X91532Y64567D01*
X91532Y59673D01*
X91585Y59620D01*
X91532Y59567D01*
X91532Y54673D01*
X92871Y53334D01*
X107478Y53334D01*
X121666Y39146D01*
X121666Y36598D01*
X123451Y34813D01*
X133223Y25041D01*
X133223Y20708D01*
X139319Y14612D01*
X139319Y13990D01*
X139475Y13834D01*
X139319Y13678D01*
X139319Y8990D01*
X140658Y7651D01*
X159316Y7651D01*
X159680Y8015D01*
X162333Y5362D01*
X167359Y5362D01*
X170914Y8917D01*
X170914Y8951D01*
X174912Y4953D01*
X174912Y4953D01*
X178087Y1778D01*
X155071Y1778D01*
X154178Y885D01*
X154178Y-133858D01*
X48768Y-133858D01*
X48768Y339598D01*
X744220Y339598D01*
X744220Y-133858D01*
X623570Y-133858D01*
X623570Y2155D01*
X622677Y3048D01*
X605282Y3048D01*
X605282Y15803D01*
X606524Y17045D01*
X713223Y23278D02*
X737117Y23278D01*
X738456Y24617D01*
X738456Y44511D01*
X737117Y45850D01*
X713223Y45850D01*
X711884Y44511D01*
X711884Y24617D01*
X713223Y23278D01*
X713223Y216278D02*
X737117Y216278D01*
X738456Y217617D01*
X738456Y237511D01*
X737117Y238850D01*
X713223Y238850D01*
X711884Y237511D01*
X711884Y217617D01*
X713223Y216278D01*
X432816Y312166D02*
X429054Y312166D01*
X432816Y312166D02*
X432816Y322326D01*
X434340Y322326D01*
X434340Y312166D01*
X438102Y312166D01*
X444500Y318564D01*
X444500Y322326D01*
X434340Y322326D01*
X434340Y323850D01*
X444500Y323850D01*
X444500Y327612D01*
X438102Y334010D01*
X434340Y334010D01*
X434340Y323850D01*
X432816Y323850D01*
X432816Y334010D01*
X429054Y334010D01*
X422656Y327612D01*
X422656Y323850D01*
X432816Y323850D01*
X432816Y322326D01*
X422656Y322326D01*
X422656Y318564D01*
X429054Y312166D01*
X418084Y301791D02*
X418084Y293585D01*
X418084Y301791D02*
X412281Y307594D01*
X404075Y307594D01*
X398272Y301791D01*
X398272Y293585D01*
X404075Y287782D01*
X412281Y287782D01*
X418084Y293585D01*
X418084Y276391D02*
X418084Y268185D01*
X418084Y276391D02*
X412281Y282194D01*
X404075Y282194D01*
X398272Y276391D01*
X398272Y268185D01*
X404075Y262382D01*
X412281Y262382D01*
X418084Y268185D01*
X418084Y250991D02*
X418084Y242785D01*
X418084Y250991D02*
X412281Y256794D01*
X404075Y256794D01*
X398272Y250991D01*
X398272Y242785D01*
X404075Y236982D01*
X412281Y236982D01*
X418084Y242785D01*
X418084Y225591D02*
X418084Y217385D01*
X418084Y225591D02*
X412281Y231394D01*
X404075Y231394D01*
X398272Y225591D01*
X398272Y217385D01*
X404075Y211582D01*
X412281Y211582D01*
X418084Y217385D01*
X418084Y200191D02*
X418084Y191985D01*
X418084Y200191D02*
X412281Y205994D01*
X404075Y205994D01*
X398272Y200191D01*
X398272Y191985D01*
X404075Y186182D01*
X412281Y186182D01*
X418084Y191985D01*
X418084Y174791D02*
X418084Y166585D01*
X418084Y174791D02*
X412281Y180594D01*
X404075Y180594D01*
X398272Y174791D01*
X398272Y166585D01*
X404075Y160782D01*
X412281Y160782D01*
X418084Y166585D01*
X418084Y149391D02*
X418084Y141185D01*
X418084Y149391D02*
X412281Y155194D01*
X404075Y155194D01*
X398272Y149391D01*
X398272Y141185D01*
X404075Y135382D01*
X412281Y135382D01*
X418084Y141185D01*
X418084Y123991D02*
X418084Y115785D01*
X418084Y123991D02*
X412281Y129794D01*
X404075Y129794D01*
X398272Y123991D01*
X398272Y115785D01*
X404075Y109982D01*
X412281Y109982D01*
X418084Y115785D01*
X418084Y98591D02*
X418084Y90385D01*
X418084Y98591D02*
X412281Y104394D01*
X404075Y104394D01*
X398272Y98591D01*
X398272Y90385D01*
X404075Y84582D01*
X412281Y84582D01*
X418084Y90385D01*
X418084Y73191D02*
X418084Y64985D01*
X418084Y73191D02*
X412281Y78994D01*
X404075Y78994D01*
X398272Y73191D01*
X398272Y64985D01*
X404075Y59182D01*
X412281Y59182D01*
X418084Y64985D01*
X418084Y47791D02*
X418084Y39585D01*
X418084Y47791D02*
X412281Y53594D01*
X404075Y53594D01*
X398272Y47791D01*
X398272Y39585D01*
X404075Y33782D01*
X412281Y33782D01*
X418084Y39585D01*
X418084Y22391D02*
X418084Y14185D01*
X418084Y22391D02*
X412281Y28194D01*
X404075Y28194D01*
X398272Y22391D01*
X398272Y14185D01*
X404075Y8382D01*
X412281Y8382D01*
X418084Y14185D01*
X418084Y-3009D02*
X418084Y-11215D01*
X418084Y-3009D02*
X412281Y2794D01*
X404075Y2794D01*
X398272Y-3009D01*
X398272Y-11215D01*
X404075Y-17018D01*
X412281Y-17018D01*
X418084Y-11215D01*
X418084Y-28409D02*
X418084Y-36615D01*
X418084Y-28409D02*
X412281Y-22606D01*
X404075Y-22606D01*
X398272Y-28409D01*
X398272Y-36615D01*
X404075Y-42418D01*
X412281Y-42418D01*
X418084Y-36615D01*
X418084Y-53809D02*
X418084Y-62015D01*
X418084Y-53809D02*
X412281Y-48006D01*
X404075Y-48006D01*
X398272Y-53809D01*
X398272Y-62015D01*
X404075Y-67818D01*
X412281Y-67818D01*
X418084Y-62015D01*
X418084Y-79209D02*
X418084Y-87415D01*
X418084Y-79209D02*
X412281Y-73406D01*
X404075Y-73406D01*
X398272Y-79209D01*
X398272Y-87415D01*
X404075Y-93218D01*
X412281Y-93218D01*
X418084Y-87415D01*
X429054Y-119634D02*
X432816Y-119634D01*
X432816Y-109474D01*
X434340Y-109474D01*
X434340Y-119634D01*
X438102Y-119634D01*
X444500Y-113236D01*
X444500Y-109474D01*
X434340Y-109474D01*
X434340Y-107950D01*
X444500Y-107950D01*
X444500Y-104188D01*
X438102Y-97790D01*
X434340Y-97790D01*
X434340Y-107950D01*
X432816Y-107950D01*
X432816Y-97790D01*
X429054Y-97790D01*
X422656Y-104188D01*
X422656Y-107950D01*
X432816Y-107950D01*
X432816Y-109474D01*
X422656Y-109474D01*
X422656Y-113236D01*
X429054Y-119634D01*
X333756Y-120142D02*
X329994Y-120142D01*
X333756Y-120142D02*
X333756Y-109982D01*
X335280Y-109982D01*
X335280Y-120142D01*
X339042Y-120142D01*
X345440Y-113744D01*
X345440Y-109982D01*
X335280Y-109982D01*
X335280Y-108458D01*
X345440Y-108458D01*
X345440Y-104696D01*
X339042Y-98298D01*
X335280Y-98298D01*
X335280Y-108458D01*
X333756Y-108458D01*
X333756Y-98298D01*
X329994Y-98298D01*
X323596Y-104696D01*
X323596Y-108458D01*
X333756Y-108458D01*
X333756Y-109982D01*
X323596Y-109982D01*
X323596Y-113744D01*
X329994Y-120142D01*
X369824Y-87923D02*
X369824Y-79717D01*
X364021Y-73914D01*
X355815Y-73914D01*
X350012Y-79717D01*
X350012Y-87923D01*
X355815Y-93726D01*
X364021Y-93726D01*
X369824Y-87923D01*
X369824Y-62523D02*
X369824Y-54317D01*
X364021Y-48514D01*
X355815Y-48514D01*
X350012Y-54317D01*
X350012Y-62523D01*
X355815Y-68326D01*
X364021Y-68326D01*
X369824Y-62523D01*
X369824Y-37123D02*
X369824Y-28917D01*
X364021Y-23114D01*
X355815Y-23114D01*
X350012Y-28917D01*
X350012Y-37123D01*
X355815Y-42926D01*
X364021Y-42926D01*
X369824Y-37123D01*
X344424Y-79717D02*
X344424Y-87923D01*
X344424Y-79717D02*
X338621Y-73914D01*
X330415Y-73914D01*
X329669Y-74660D01*
X237412Y17597D01*
X236722Y18286D01*
X253501Y18286D01*
X325358Y-53571D01*
X324612Y-54317D01*
X324612Y-62523D01*
X330415Y-68326D01*
X338621Y-68326D01*
X344424Y-62523D01*
X344424Y-54317D01*
X338621Y-48514D01*
X330415Y-48514D01*
X329669Y-49260D01*
X257812Y22597D01*
X256027Y24382D01*
X235045Y24382D01*
X235077Y24502D01*
X235077Y26334D01*
X223393Y26334D01*
X223393Y26334D01*
X235077Y26334D01*
X235077Y28166D01*
X235045Y28286D01*
X268901Y28286D01*
X325358Y-28171D01*
X324612Y-28917D01*
X324612Y-37123D01*
X330415Y-42926D01*
X338621Y-42926D01*
X344424Y-37123D01*
X344424Y-28917D01*
X338621Y-23114D01*
X330415Y-23114D01*
X329669Y-23860D01*
X273212Y32597D01*
X272522Y33286D01*
X289301Y33286D01*
X325358Y-2771D01*
X324612Y-3517D01*
X324612Y-11723D01*
X330415Y-17526D01*
X338621Y-17526D01*
X344424Y-11723D01*
X344424Y-3517D01*
X338621Y2286D01*
X330415Y2286D01*
X329669Y1540D01*
X293612Y37597D01*
X291827Y39382D01*
X234061Y39382D01*
X234061Y43286D01*
X304701Y43286D01*
X325358Y22629D01*
X324612Y21883D01*
X324612Y13677D01*
X330415Y7874D01*
X338621Y7874D01*
X344424Y13677D01*
X344424Y21883D01*
X338621Y27686D01*
X330415Y27686D01*
X329669Y26940D01*
X309012Y47597D01*
X308322Y48286D01*
X325101Y48286D01*
X325358Y48029D01*
X324612Y47283D01*
X324612Y39077D01*
X330415Y33274D01*
X338621Y33274D01*
X344424Y39077D01*
X344424Y47283D01*
X338621Y53086D01*
X330415Y53086D01*
X329669Y52340D01*
X329412Y52597D01*
X327627Y54382D01*
X235045Y54382D01*
X235077Y54502D01*
X235077Y56334D01*
X223393Y56334D01*
X223393Y56334D01*
X235077Y56334D01*
X235077Y58166D01*
X235045Y58286D01*
X328535Y58286D01*
X329669Y59420D01*
X330415Y58674D01*
X338621Y58674D01*
X344424Y64477D01*
X344424Y72683D01*
X338621Y78486D01*
X330415Y78486D01*
X324612Y72683D01*
X324612Y64477D01*
X324707Y64382D01*
X309230Y64382D01*
X309920Y65071D01*
X329669Y84820D01*
X330415Y84074D01*
X338621Y84074D01*
X344424Y89877D01*
X344424Y98083D01*
X338621Y103886D01*
X330415Y103886D01*
X324612Y98083D01*
X324612Y89877D01*
X325358Y89131D01*
X305609Y69382D01*
X288830Y69382D01*
X289520Y70071D01*
X329669Y110220D01*
X330415Y109474D01*
X338621Y109474D01*
X344424Y115277D01*
X344424Y123483D01*
X338621Y129286D01*
X330415Y129286D01*
X324612Y123483D01*
X324612Y115277D01*
X325358Y114531D01*
X285209Y74382D01*
X268430Y74382D01*
X269120Y75071D01*
X329669Y135620D01*
X330415Y134874D01*
X338621Y134874D01*
X344424Y140677D01*
X344424Y148883D01*
X338621Y154686D01*
X330415Y154686D01*
X324612Y148883D01*
X324612Y140677D01*
X325358Y139931D01*
X264809Y79382D01*
X235045Y79382D01*
X235077Y79502D01*
X235077Y81334D01*
X223393Y81334D01*
X223393Y81334D01*
X235077Y81334D01*
X235077Y83166D01*
X235045Y83286D01*
X251935Y83286D01*
X253720Y85071D01*
X329669Y161020D01*
X330415Y160274D01*
X338621Y160274D01*
X344424Y166077D01*
X344424Y174283D01*
X338621Y180086D01*
X330415Y180086D01*
X324612Y174283D01*
X324612Y166077D01*
X325358Y165331D01*
X320294Y160266D01*
X320294Y177045D01*
X329669Y186420D01*
X330415Y185674D01*
X338621Y185674D01*
X344424Y191477D01*
X344424Y199683D01*
X338621Y205486D01*
X330415Y205486D01*
X324612Y199683D01*
X324612Y191477D01*
X325358Y190731D01*
X315983Y181356D01*
X314452Y179824D01*
X314452Y196603D01*
X329669Y211820D01*
X330415Y211074D01*
X338621Y211074D01*
X344424Y216877D01*
X344424Y225083D01*
X338621Y230886D01*
X330415Y230886D01*
X324612Y225083D01*
X324612Y216877D01*
X325358Y216131D01*
X310141Y200914D01*
X308356Y199129D01*
X308356Y164077D01*
X307848Y163568D01*
X307848Y215400D01*
X329669Y237220D01*
X330415Y236474D01*
X338621Y236474D01*
X344424Y242277D01*
X344424Y250483D01*
X338621Y256286D01*
X330415Y256286D01*
X324612Y250483D01*
X324612Y242277D01*
X325358Y241531D01*
X303784Y219956D01*
X303784Y236735D01*
X329669Y262620D01*
X330415Y261874D01*
X338621Y261874D01*
X344424Y267677D01*
X344424Y275883D01*
X338621Y281686D01*
X330415Y281686D01*
X324612Y275883D01*
X324612Y267677D01*
X325358Y266931D01*
X300482Y242054D01*
X300482Y258833D01*
X329669Y288020D01*
X330415Y287274D01*
X338621Y287274D01*
X344424Y293077D01*
X344424Y301283D01*
X338621Y307086D01*
X330415Y307086D01*
X324612Y301283D01*
X324612Y293077D01*
X325358Y292331D01*
X296171Y263144D01*
X294386Y261359D01*
X294386Y168141D01*
X249689Y123444D01*
X234726Y123444D01*
X234852Y123662D01*
X235077Y124502D01*
X235077Y126334D01*
X223393Y126334D01*
X223393Y126334D01*
X235077Y126334D01*
X235077Y128166D01*
X234852Y129006D01*
X234417Y129758D01*
X233802Y130373D01*
X233050Y130808D01*
X232210Y131033D01*
X223393Y131033D01*
X223393Y126334D01*
X223393Y126334D01*
X223393Y131033D01*
X214576Y131033D01*
X213736Y130808D01*
X212984Y130373D01*
X212369Y129758D01*
X211934Y129006D01*
X211709Y128166D01*
X211709Y126334D01*
X223393Y126334D01*
X223393Y126334D01*
X211709Y126334D01*
X211709Y124502D01*
X211934Y123662D01*
X212369Y122910D01*
X212725Y122553D01*
X212725Y118990D01*
X212881Y118834D01*
X212725Y118678D01*
X212725Y115115D01*
X212369Y114758D01*
X211934Y114006D01*
X211709Y113166D01*
X211709Y111334D01*
X223393Y111334D01*
X223393Y111334D01*
X211709Y111334D01*
X211709Y109502D01*
X211934Y108662D01*
X212369Y107910D01*
X212725Y107553D01*
X212725Y103990D01*
X212881Y103834D01*
X212725Y103678D01*
X212725Y101164D01*
X211301Y102588D01*
X206275Y102588D01*
X202720Y99033D01*
X202720Y94007D01*
X206275Y90452D01*
X211301Y90452D01*
X212725Y91876D01*
X212725Y88990D01*
X212881Y88834D01*
X212725Y88678D01*
X212725Y85115D01*
X212369Y84758D01*
X211934Y84006D01*
X211709Y83166D01*
X211709Y81334D01*
X223393Y81334D01*
X223393Y81334D01*
X211709Y81334D01*
X211709Y79502D01*
X211934Y78662D01*
X212369Y77910D01*
X212725Y77553D01*
X212725Y73990D01*
X212881Y73834D01*
X212725Y73678D01*
X212725Y68990D01*
X212881Y68834D01*
X212725Y68678D01*
X212725Y63990D01*
X212881Y63834D01*
X212725Y63678D01*
X212725Y60115D01*
X212369Y59758D01*
X211934Y59006D01*
X211709Y58166D01*
X211709Y56334D01*
X223393Y56334D01*
X223393Y56334D01*
X211709Y56334D01*
X211709Y54502D01*
X211934Y53662D01*
X212369Y52910D01*
X212725Y52553D01*
X212725Y48990D01*
X212881Y48834D01*
X212725Y48678D01*
X212725Y46046D01*
X211301Y47470D01*
X206275Y47470D01*
X202720Y43915D01*
X202720Y38889D01*
X206275Y35334D01*
X211301Y35334D01*
X212725Y36758D01*
X212725Y33990D01*
X212881Y33834D01*
X212725Y33678D01*
X212725Y30115D01*
X212369Y29758D01*
X211934Y29006D01*
X211709Y28166D01*
X211709Y26334D01*
X223393Y26334D01*
X223393Y26334D01*
X211709Y26334D01*
X211709Y24502D01*
X211934Y23662D01*
X212369Y22910D01*
X212725Y22553D01*
X212725Y18990D01*
X212881Y18834D01*
X212725Y18678D01*
X212725Y15115D01*
X212369Y14758D01*
X211934Y14006D01*
X211709Y13166D01*
X211709Y11334D01*
X223393Y11334D01*
X223393Y11334D01*
X211709Y11334D01*
X211709Y9502D01*
X211934Y8662D01*
X212369Y7910D01*
X212984Y7295D01*
X213736Y6860D01*
X214576Y6635D01*
X223393Y6635D01*
X223393Y11334D01*
X223393Y11334D01*
X223393Y6635D01*
X232210Y6635D01*
X233050Y6860D01*
X233802Y7295D01*
X234417Y7910D01*
X234852Y8662D01*
X235077Y9502D01*
X235077Y11311D01*
X325358Y-78971D01*
X324612Y-79717D01*
X324612Y-87923D01*
X330415Y-93726D01*
X338621Y-93726D01*
X344424Y-87923D01*
X369824Y-11723D02*
X369824Y-3517D01*
X364021Y2286D01*
X355815Y2286D01*
X350012Y-3517D01*
X350012Y-11723D01*
X355815Y-17526D01*
X364021Y-17526D01*
X369824Y-11723D01*
X369824Y13677D02*
X369824Y21883D01*
X364021Y27686D01*
X355815Y27686D01*
X350012Y21883D01*
X350012Y13677D01*
X355815Y7874D01*
X364021Y7874D01*
X369824Y13677D01*
X369824Y39077D02*
X369824Y47283D01*
X364021Y53086D01*
X355815Y53086D01*
X350012Y47283D01*
X350012Y39077D01*
X355815Y33274D01*
X364021Y33274D01*
X369824Y39077D01*
X369824Y64477D02*
X369824Y72683D01*
X364021Y78486D01*
X355815Y78486D01*
X350012Y72683D01*
X350012Y64477D01*
X355815Y58674D01*
X364021Y58674D01*
X369824Y64477D01*
X369824Y89877D02*
X369824Y98083D01*
X364021Y103886D01*
X355815Y103886D01*
X350012Y98083D01*
X350012Y89877D01*
X355815Y84074D01*
X364021Y84074D01*
X369824Y89877D01*
X369824Y115277D02*
X369824Y123483D01*
X364021Y129286D01*
X355815Y129286D01*
X350012Y123483D01*
X350012Y115277D01*
X355815Y109474D01*
X364021Y109474D01*
X369824Y115277D01*
X369824Y140677D02*
X369824Y148883D01*
X364021Y154686D01*
X355815Y154686D01*
X350012Y148883D01*
X350012Y140677D01*
X355815Y134874D01*
X364021Y134874D01*
X369824Y140677D01*
X369824Y166077D02*
X369824Y174283D01*
X364021Y180086D01*
X355815Y180086D01*
X350012Y174283D01*
X350012Y166077D01*
X355815Y160274D01*
X364021Y160274D01*
X369824Y166077D01*
X369824Y191477D02*
X369824Y199683D01*
X364021Y205486D01*
X355815Y205486D01*
X350012Y199683D01*
X350012Y191477D01*
X355815Y185674D01*
X364021Y185674D01*
X369824Y191477D01*
X369824Y216877D02*
X369824Y225083D01*
X364021Y230886D01*
X355815Y230886D01*
X350012Y225083D01*
X350012Y216877D01*
X355815Y211074D01*
X364021Y211074D01*
X369824Y216877D01*
X369824Y242277D02*
X369824Y250483D01*
X364021Y256286D01*
X355815Y256286D01*
X350012Y250483D01*
X350012Y242277D01*
X355815Y236474D01*
X364021Y236474D01*
X369824Y242277D01*
X369824Y267677D02*
X369824Y275883D01*
X364021Y281686D01*
X355815Y281686D01*
X350012Y275883D01*
X350012Y267677D01*
X355815Y261874D01*
X364021Y261874D01*
X369824Y267677D01*
X369824Y293077D02*
X369824Y301283D01*
X364021Y307086D01*
X355815Y307086D01*
X350012Y301283D01*
X350012Y293077D01*
X355815Y287274D01*
X364021Y287274D01*
X369824Y293077D01*
X333756Y311658D02*
X329994Y311658D01*
X333756Y311658D02*
X333756Y321818D01*
X335280Y321818D01*
X335280Y311658D01*
X339042Y311658D01*
X345440Y318056D01*
X345440Y321818D01*
X335280Y321818D01*
X335280Y323342D01*
X345440Y323342D01*
X345440Y327104D01*
X339042Y333502D01*
X335280Y333502D01*
X335280Y323342D01*
X333756Y323342D01*
X333756Y333502D01*
X329994Y333502D01*
X323596Y327104D01*
X323596Y323342D01*
X333756Y323342D01*
X333756Y321818D01*
X323596Y321818D01*
X323596Y318056D01*
X329994Y311658D01*
X225044Y288867D02*
X225044Y335719D01*
X223705Y337058D01*
X187521Y337058D01*
X186182Y335719D01*
X186182Y288867D01*
X187521Y287528D01*
X223705Y287528D01*
X225044Y288867D01*
X355394Y311658D02*
X359156Y311658D01*
X359156Y321818D01*
X360680Y321818D01*
X360680Y311658D01*
X364442Y311658D01*
X370840Y318056D01*
X370840Y321818D01*
X360680Y321818D01*
X360680Y323342D01*
X370840Y323342D01*
X370840Y327104D01*
X364442Y333502D01*
X360680Y333502D01*
X360680Y323342D01*
X359156Y323342D01*
X359156Y333502D01*
X355394Y333502D01*
X348996Y327104D01*
X348996Y323342D01*
X359156Y323342D01*
X359156Y321818D01*
X348996Y321818D01*
X348996Y318056D01*
X355394Y311658D01*
X355394Y-120142D02*
X359156Y-120142D01*
X359156Y-109982D01*
X360680Y-109982D01*
X360680Y-120142D01*
X364442Y-120142D01*
X370840Y-113744D01*
X370840Y-109982D01*
X360680Y-109982D01*
X360680Y-108458D01*
X370840Y-108458D01*
X370840Y-104696D01*
X364442Y-98298D01*
X360680Y-98298D01*
X360680Y-108458D01*
X359156Y-108458D01*
X359156Y-98298D01*
X355394Y-98298D01*
X348996Y-104696D01*
X348996Y-108458D01*
X359156Y-108458D01*
X359156Y-109982D01*
X348996Y-109982D01*
X348996Y-113744D01*
X355394Y-120142D01*
X443484Y-87415D02*
X443484Y-79209D01*
X442738Y-78463D01*
X462019Y-59182D01*
X463804Y-57397D01*
X463804Y78493D01*
X530677Y145366D01*
X542703Y145366D01*
X542671Y145246D01*
X542671Y143414D01*
X554355Y143414D01*
X554355Y143414D01*
X542671Y143414D01*
X542671Y141582D01*
X542896Y140742D01*
X543331Y139990D01*
X543946Y139375D01*
X544698Y138940D01*
X545538Y138715D01*
X554355Y138715D01*
X554355Y143414D01*
X554355Y143414D01*
X554355Y138715D01*
X563172Y138715D01*
X564012Y138940D01*
X564764Y139375D01*
X565379Y139990D01*
X565814Y140742D01*
X566039Y141582D01*
X566039Y143414D01*
X554355Y143414D01*
X554355Y143414D01*
X566039Y143414D01*
X566039Y145246D01*
X565814Y146086D01*
X565379Y146838D01*
X565023Y147195D01*
X565023Y150758D01*
X564867Y150914D01*
X565023Y151070D01*
X565023Y154633D01*
X565379Y154990D01*
X565814Y155742D01*
X566039Y156582D01*
X566039Y158414D01*
X554355Y158414D01*
X554355Y158414D01*
X566039Y158414D01*
X566039Y160246D01*
X565814Y161086D01*
X565379Y161838D01*
X565023Y162195D01*
X565023Y165758D01*
X564867Y165914D01*
X565023Y166070D01*
X565023Y169854D01*
X566447Y168430D01*
X571473Y168430D01*
X575028Y171985D01*
X575028Y177011D01*
X571473Y180566D01*
X566447Y180566D01*
X565023Y179142D01*
X565023Y180758D01*
X564867Y180914D01*
X565023Y181070D01*
X565023Y184633D01*
X565379Y184990D01*
X565814Y185742D01*
X566039Y186582D01*
X566039Y188414D01*
X554355Y188414D01*
X554355Y188414D01*
X566039Y188414D01*
X566039Y190246D01*
X565814Y191086D01*
X565379Y191838D01*
X565023Y192195D01*
X565023Y195758D01*
X564867Y195914D01*
X565023Y196070D01*
X565023Y200758D01*
X564867Y200914D01*
X565023Y201070D01*
X565023Y205758D01*
X564867Y205914D01*
X565023Y206070D01*
X565023Y209633D01*
X565379Y209990D01*
X565814Y210742D01*
X566039Y211582D01*
X566039Y213414D01*
X554355Y213414D01*
X554355Y213414D01*
X566039Y213414D01*
X566039Y215246D01*
X565814Y216086D01*
X565379Y216838D01*
X565023Y217195D01*
X565023Y220758D01*
X564867Y220914D01*
X565023Y221070D01*
X565023Y223702D01*
X566447Y222278D01*
X571473Y222278D01*
X575028Y225833D01*
X575028Y230859D01*
X571473Y234414D01*
X566447Y234414D01*
X565023Y232990D01*
X565023Y235758D01*
X564867Y235914D01*
X565023Y236070D01*
X565023Y239633D01*
X565379Y239990D01*
X565814Y240742D01*
X566039Y241582D01*
X566039Y243414D01*
X554355Y243414D01*
X554355Y243414D01*
X566039Y243414D01*
X566039Y245246D01*
X565814Y246086D01*
X565379Y246838D01*
X565023Y247195D01*
X565023Y250758D01*
X564867Y250914D01*
X565023Y251070D01*
X565023Y254633D01*
X565379Y254990D01*
X565814Y255742D01*
X566039Y256582D01*
X566039Y258414D01*
X554355Y258414D01*
X554355Y258414D01*
X566039Y258414D01*
X566039Y260246D01*
X565814Y261086D01*
X565379Y261838D01*
X564764Y262453D01*
X564012Y262888D01*
X563172Y263113D01*
X554355Y263113D01*
X554355Y258414D01*
X554355Y258414D01*
X554355Y263113D01*
X545538Y263113D01*
X544698Y262888D01*
X543946Y262453D01*
X543331Y261838D01*
X542896Y261086D01*
X542671Y260246D01*
X542671Y258414D01*
X554355Y258414D01*
X554355Y258414D01*
X542671Y258414D01*
X542671Y256582D01*
X542703Y256462D01*
X479115Y256462D01*
X442738Y292839D01*
X443484Y293585D01*
X443484Y301791D01*
X437681Y307594D01*
X429475Y307594D01*
X423672Y301791D01*
X423672Y293585D01*
X429475Y287782D01*
X437681Y287782D01*
X438427Y288528D01*
X474804Y252151D01*
X475494Y251462D01*
X458715Y251462D01*
X442738Y267439D01*
X443484Y268185D01*
X443484Y276391D01*
X437681Y282194D01*
X429475Y282194D01*
X423672Y276391D01*
X423672Y268185D01*
X429475Y262382D01*
X437681Y262382D01*
X438427Y263128D01*
X454404Y247151D01*
X456189Y245366D01*
X542703Y245366D01*
X542671Y245246D01*
X542671Y243414D01*
X554355Y243414D01*
X554355Y243414D01*
X542671Y243414D01*
X542671Y241582D01*
X542703Y241462D01*
X443315Y241462D01*
X442738Y242039D01*
X443484Y242785D01*
X443484Y250991D01*
X437681Y256794D01*
X429475Y256794D01*
X423672Y250991D01*
X423672Y242785D01*
X429475Y236982D01*
X437681Y236982D01*
X438427Y237728D01*
X439004Y237151D01*
X440789Y235366D01*
X443146Y235366D01*
X442456Y234677D01*
X438427Y230648D01*
X437681Y231394D01*
X429475Y231394D01*
X423672Y225591D01*
X423672Y217385D01*
X429475Y211582D01*
X437681Y211582D01*
X443484Y217385D01*
X443484Y225591D01*
X442738Y226337D01*
X446767Y230366D01*
X543687Y230366D01*
X543687Y226462D01*
X459641Y226462D01*
X457856Y224677D01*
X438427Y205248D01*
X437681Y205994D01*
X429475Y205994D01*
X423672Y200191D01*
X423672Y191985D01*
X429475Y186182D01*
X437681Y186182D01*
X443484Y191985D01*
X443484Y200191D01*
X442738Y200937D01*
X462167Y220366D01*
X478946Y220366D01*
X478256Y219677D01*
X438427Y179848D01*
X437681Y180594D01*
X429475Y180594D01*
X423672Y174791D01*
X423672Y166585D01*
X429475Y160782D01*
X437681Y160782D01*
X443484Y166585D01*
X443484Y174791D01*
X442738Y175537D01*
X482567Y215366D01*
X542703Y215366D01*
X542671Y215246D01*
X542671Y213414D01*
X554355Y213414D01*
X554355Y213414D01*
X542671Y213414D01*
X542671Y211582D01*
X542703Y211462D01*
X495441Y211462D01*
X493656Y209677D01*
X438427Y154448D01*
X437681Y155194D01*
X429475Y155194D01*
X423672Y149391D01*
X423672Y141185D01*
X429475Y135382D01*
X437681Y135382D01*
X443484Y141185D01*
X443484Y149391D01*
X442738Y150137D01*
X497967Y205366D01*
X514746Y205366D01*
X514056Y204677D01*
X438427Y129048D01*
X437681Y129794D01*
X429475Y129794D01*
X423672Y123991D01*
X423672Y115785D01*
X429475Y109982D01*
X437681Y109982D01*
X443484Y115785D01*
X443484Y123991D01*
X442738Y124737D01*
X518367Y200366D01*
X535146Y200366D01*
X534456Y199677D01*
X438427Y103648D01*
X437681Y104394D01*
X429475Y104394D01*
X423672Y98591D01*
X423672Y90385D01*
X429475Y84582D01*
X437681Y84582D01*
X439420Y86321D01*
X439420Y79241D01*
X438427Y78248D01*
X437681Y78994D01*
X429475Y78994D01*
X423672Y73191D01*
X423672Y64985D01*
X429475Y59182D01*
X437681Y59182D01*
X442468Y63969D01*
X442468Y56888D01*
X438427Y52848D01*
X437681Y53594D01*
X429475Y53594D01*
X423672Y47791D01*
X423672Y39585D01*
X429475Y33782D01*
X437681Y33782D01*
X443484Y39585D01*
X443484Y47791D01*
X442738Y48537D01*
X445516Y51316D01*
X445516Y34537D01*
X438427Y27448D01*
X437681Y28194D01*
X429475Y28194D01*
X423672Y22391D01*
X423672Y14185D01*
X429475Y8382D01*
X437681Y8382D01*
X443484Y14185D01*
X443484Y22391D01*
X442738Y23137D01*
X448564Y28964D01*
X448564Y12185D01*
X438427Y2048D01*
X437681Y2794D01*
X429475Y2794D01*
X423672Y-3009D01*
X423672Y-11215D01*
X429475Y-17018D01*
X437681Y-17018D01*
X443484Y-11215D01*
X443484Y-3009D01*
X442738Y-2263D01*
X451612Y6612D01*
X451612Y-10167D01*
X438427Y-23352D01*
X437681Y-22606D01*
X429475Y-22606D01*
X423672Y-28409D01*
X423672Y-36615D01*
X429475Y-42418D01*
X437681Y-42418D01*
X443484Y-36615D01*
X443484Y-28409D01*
X442738Y-27663D01*
X454660Y-15740D01*
X454660Y-32519D01*
X438427Y-48752D01*
X437681Y-48006D01*
X429475Y-48006D01*
X423672Y-53809D01*
X423672Y-62015D01*
X429475Y-67818D01*
X437681Y-67818D01*
X443484Y-62015D01*
X443484Y-53809D01*
X442738Y-53063D01*
X457708Y-38092D01*
X457708Y-54871D01*
X438427Y-74152D01*
X437681Y-73406D01*
X429475Y-73406D01*
X423672Y-79209D01*
X423672Y-87415D01*
X429475Y-93218D01*
X437681Y-93218D01*
X443484Y-87415D01*
X407416Y-119634D02*
X403654Y-119634D01*
X407416Y-119634D02*
X407416Y-109474D01*
X408940Y-109474D01*
X408940Y-119634D01*
X412702Y-119634D01*
X419100Y-113236D01*
X419100Y-109474D01*
X408940Y-109474D01*
X408940Y-107950D01*
X419100Y-107950D01*
X419100Y-104188D01*
X412702Y-97790D01*
X408940Y-97790D01*
X408940Y-107950D01*
X407416Y-107950D01*
X407416Y-97790D01*
X403654Y-97790D01*
X397256Y-104188D01*
X397256Y-107950D01*
X407416Y-107950D01*
X407416Y-109474D01*
X397256Y-109474D01*
X397256Y-113236D01*
X403654Y-119634D01*
X403654Y312166D02*
X407416Y312166D01*
X407416Y322326D01*
X408940Y322326D01*
X408940Y312166D01*
X412702Y312166D01*
X419100Y318564D01*
X419100Y322326D01*
X408940Y322326D01*
X408940Y323850D01*
X419100Y323850D01*
X419100Y327612D01*
X412702Y334010D01*
X408940Y334010D01*
X408940Y323850D01*
X407416Y323850D01*
X407416Y334010D01*
X403654Y334010D01*
X397256Y327612D01*
X397256Y323850D01*
X407416Y323850D01*
X407416Y322326D01*
X397256Y322326D01*
X397256Y318564D01*
X403654Y312166D01*
X79765Y49406D02*
X55871Y49406D01*
X54532Y48067D01*
X54532Y28173D01*
X55871Y26834D01*
X79765Y26834D01*
X81104Y28173D01*
X81104Y48067D01*
X79765Y49406D01*
X79765Y242406D02*
X55871Y242406D01*
X54532Y241067D01*
X54532Y221173D01*
X55871Y219834D01*
X79765Y219834D01*
X81104Y221173D01*
X81104Y241067D01*
X79765Y242406D01*
X616302Y114260D02*
X616737Y115012D01*
X616302Y114260D02*
X616077Y113420D01*
X616077Y111588D01*
X627761Y111588D01*
X627761Y111588D01*
X616077Y111588D01*
X616077Y109756D01*
X616302Y108916D01*
X616737Y108164D01*
X617093Y107807D01*
X617093Y104244D01*
X617249Y104088D01*
X617093Y103932D01*
X617093Y101164D01*
X615923Y102334D01*
X610897Y102334D01*
X607342Y98779D01*
X607342Y93753D01*
X610897Y90198D01*
X615923Y90198D01*
X617093Y91368D01*
X617093Y89244D01*
X617249Y89088D01*
X617093Y88932D01*
X617093Y85369D01*
X616737Y85012D01*
X616302Y84260D01*
X616077Y83420D01*
X616077Y81588D01*
X627761Y81588D01*
X627761Y81588D01*
X616077Y81588D01*
X616077Y79756D01*
X616302Y78916D01*
X616737Y78164D01*
X617093Y77807D01*
X617093Y74244D01*
X617249Y74088D01*
X617093Y73932D01*
X617093Y69244D01*
X617249Y69088D01*
X617093Y68932D01*
X617093Y64244D01*
X617249Y64088D01*
X617093Y63932D01*
X617093Y60369D01*
X616737Y60012D01*
X616302Y59260D01*
X616077Y58420D01*
X616077Y56588D01*
X627761Y56588D01*
X627761Y56588D01*
X616077Y56588D01*
X616077Y54756D01*
X616302Y53916D01*
X616737Y53164D01*
X617093Y52807D01*
X617093Y49244D01*
X617249Y49088D01*
X617093Y48932D01*
X617093Y46300D01*
X615923Y47470D01*
X610897Y47470D01*
X607342Y43915D01*
X607342Y38889D01*
X610897Y35334D01*
X615923Y35334D01*
X617093Y36504D01*
X617093Y34244D01*
X617249Y34088D01*
X617093Y33932D01*
X617093Y30369D01*
X616737Y30012D01*
X616302Y29260D01*
X616077Y28420D01*
X616077Y26588D01*
X627761Y26588D01*
X627761Y26588D01*
X616077Y26588D01*
X616077Y24756D01*
X616302Y23916D01*
X616737Y23164D01*
X617093Y22807D01*
X617093Y19244D01*
X617249Y19088D01*
X617093Y18932D01*
X617093Y16582D01*
X616177Y17498D01*
X611151Y17498D01*
X607596Y13943D01*
X607596Y8917D01*
X611151Y5362D01*
X616177Y5362D01*
X618720Y7905D01*
X637090Y7905D01*
X638429Y9244D01*
X638429Y12778D01*
X646493Y12778D01*
X648279Y14563D01*
X648279Y14564D01*
X684231Y50516D01*
X684485Y50516D01*
X685223Y49778D01*
X700117Y49778D01*
X701456Y51117D01*
X701456Y56011D01*
X701403Y56064D01*
X701456Y56117D01*
X701456Y61011D01*
X701403Y61064D01*
X701456Y61117D01*
X701456Y66011D01*
X701403Y66064D01*
X701456Y66117D01*
X701456Y71011D01*
X701403Y71064D01*
X701456Y71117D01*
X701456Y76011D01*
X701403Y76064D01*
X701456Y76117D01*
X701456Y81011D01*
X701403Y81064D01*
X701456Y81117D01*
X701456Y86011D01*
X701403Y86064D01*
X701456Y86117D01*
X701456Y91011D01*
X701403Y91064D01*
X701456Y91117D01*
X701456Y96011D01*
X701403Y96064D01*
X701456Y96117D01*
X701456Y101011D01*
X701403Y101064D01*
X701456Y101117D01*
X701456Y106011D01*
X701403Y106064D01*
X701456Y106117D01*
X701456Y111011D01*
X701403Y111064D01*
X701456Y111117D01*
X701456Y116011D01*
X701403Y116064D01*
X701456Y116117D01*
X701456Y121011D01*
X701403Y121064D01*
X701456Y121117D01*
X701456Y126011D01*
X701403Y126064D01*
X701456Y126117D01*
X701456Y131011D01*
X701403Y131064D01*
X701456Y131117D01*
X701456Y136011D01*
X701403Y136064D01*
X701456Y136117D01*
X701456Y141011D01*
X701403Y141064D01*
X701456Y141117D01*
X701456Y146011D01*
X701403Y146064D01*
X701456Y146117D01*
X701456Y151011D01*
X701403Y151064D01*
X701456Y151117D01*
X701456Y156011D01*
X701403Y156064D01*
X701456Y156117D01*
X701456Y161011D01*
X701403Y161064D01*
X701456Y161117D01*
X701456Y166011D01*
X701403Y166064D01*
X701456Y166117D01*
X701456Y171011D01*
X701403Y171064D01*
X701456Y171117D01*
X701456Y176011D01*
X701403Y176064D01*
X701456Y176117D01*
X701456Y181011D01*
X701403Y181064D01*
X701456Y181117D01*
X701456Y186011D01*
X701403Y186064D01*
X701456Y186117D01*
X701456Y191011D01*
X701403Y191064D01*
X701456Y191117D01*
X701456Y196011D01*
X701403Y196064D01*
X701456Y196117D01*
X701456Y201011D01*
X701403Y201064D01*
X701456Y201117D01*
X701456Y206011D01*
X701403Y206064D01*
X701456Y206117D01*
X701456Y211011D01*
X700117Y212350D01*
X685223Y212350D01*
X684485Y211612D01*
X683477Y211612D01*
X638627Y256462D01*
X638429Y256462D01*
X638429Y260758D01*
X637090Y262097D01*
X618466Y262097D01*
X615923Y264640D01*
X610897Y264640D01*
X607342Y261085D01*
X607342Y256059D01*
X610897Y252504D01*
X615923Y252504D01*
X617093Y253674D01*
X617093Y251070D01*
X617249Y250914D01*
X617093Y250758D01*
X617093Y247195D01*
X616737Y246838D01*
X616302Y246086D01*
X616077Y245246D01*
X616077Y243414D01*
X627761Y243414D01*
X627761Y243414D01*
X616077Y243414D01*
X616077Y241582D01*
X616302Y240742D01*
X616737Y239990D01*
X617093Y239633D01*
X617093Y236070D01*
X617249Y235914D01*
X617093Y235758D01*
X617093Y233498D01*
X615923Y234668D01*
X610897Y234668D01*
X607342Y231113D01*
X607342Y226087D01*
X610897Y222532D01*
X615923Y222532D01*
X617093Y223702D01*
X617093Y221070D01*
X617249Y220914D01*
X617093Y220758D01*
X617093Y217195D01*
X616737Y216838D01*
X616302Y216086D01*
X616077Y215246D01*
X616077Y213414D01*
X627761Y213414D01*
X627761Y213414D01*
X616077Y213414D01*
X616077Y211582D01*
X616302Y210742D01*
X616737Y209990D01*
X617093Y209633D01*
X617093Y206070D01*
X617249Y205914D01*
X617093Y205758D01*
X617093Y201070D01*
X617249Y200914D01*
X617093Y200758D01*
X617093Y196070D01*
X617249Y195914D01*
X617093Y195758D01*
X617093Y192195D01*
X616737Y191838D01*
X616302Y191086D01*
X616077Y190246D01*
X616077Y188414D01*
X627761Y188414D01*
X627761Y188414D01*
X616077Y188414D01*
X616077Y186582D01*
X616302Y185742D01*
X616737Y184990D01*
X617093Y184633D01*
X617093Y181070D01*
X617249Y180914D01*
X617093Y180758D01*
X617093Y178888D01*
X616177Y179804D01*
X611151Y179804D01*
X607596Y176249D01*
X607596Y171223D01*
X611151Y167668D01*
X616177Y167668D01*
X617093Y168584D01*
X617093Y166070D01*
X617249Y165914D01*
X617093Y165758D01*
X617093Y162195D01*
X616737Y161838D01*
X616302Y161086D01*
X616077Y160246D01*
X616077Y158414D01*
X627761Y158414D01*
X627761Y158414D01*
X616077Y158414D01*
X616077Y156582D01*
X616302Y155742D01*
X616737Y154990D01*
X617093Y154633D01*
X617093Y151070D01*
X617249Y150914D01*
X617093Y150758D01*
X617093Y146462D01*
X612181Y146462D01*
X609065Y149578D01*
X604039Y149578D01*
X600484Y146023D01*
X600484Y140997D01*
X604039Y137442D01*
X609065Y137442D01*
X611989Y140366D01*
X617797Y140366D01*
X618432Y139731D01*
X637090Y139731D01*
X638429Y141070D01*
X638429Y145292D01*
X668539Y145292D01*
X682509Y131322D01*
X675569Y124382D01*
X647059Y124382D01*
X647672Y124995D01*
X647672Y130021D01*
X644117Y133576D01*
X639091Y133576D01*
X635786Y130271D01*
X618432Y130271D01*
X617797Y129636D01*
X611989Y129636D01*
X609065Y132560D01*
X604039Y132560D01*
X600484Y129005D01*
X600484Y123979D01*
X604039Y120424D01*
X609065Y120424D01*
X612181Y123540D01*
X617093Y123540D01*
X617093Y119244D01*
X617249Y119088D01*
X617093Y118932D01*
X617093Y115369D01*
X616737Y115012D01*
X520817Y39242D02*
X519811Y38236D01*
X518805Y39242D01*
X510911Y39242D01*
X509572Y37903D01*
X509572Y30009D01*
X509927Y29654D01*
X509831Y29598D01*
X509216Y28983D01*
X508781Y28231D01*
X508556Y27391D01*
X508556Y24694D01*
X514120Y24694D01*
X514120Y23218D01*
X508556Y23218D01*
X508556Y20521D01*
X508781Y19681D01*
X509216Y18929D01*
X509831Y18314D01*
X510583Y17879D01*
X511423Y17654D01*
X514120Y17654D01*
X514120Y23218D01*
X515596Y23218D01*
X515596Y17654D01*
X518293Y17654D01*
X519133Y17879D01*
X519811Y18271D01*
X520489Y17879D01*
X521329Y17654D01*
X524026Y17654D01*
X524026Y23218D01*
X525502Y23218D01*
X525502Y17654D01*
X528199Y17654D01*
X529039Y17879D01*
X529395Y18085D01*
X531649Y15832D01*
X536675Y15832D01*
X540230Y19387D01*
X540230Y23657D01*
X542671Y26099D01*
X542671Y24756D01*
X542832Y24156D01*
X542297Y23622D01*
X540512Y21837D01*
X540512Y19408D01*
X536297Y15194D01*
X535913Y15578D01*
X530887Y15578D01*
X527332Y12023D01*
X527332Y6997D01*
X529236Y5093D01*
X527078Y2935D01*
X527078Y-2091D01*
X530633Y-5646D01*
X535659Y-5646D01*
X539214Y-2091D01*
X539214Y2179D01*
X543433Y6398D01*
X543433Y8061D01*
X543946Y7549D01*
X544698Y7114D01*
X545538Y6889D01*
X554355Y6889D01*
X554355Y11588D01*
X554355Y11588D01*
X554355Y6889D01*
X563172Y6889D01*
X564012Y7114D01*
X564764Y7549D01*
X565379Y8164D01*
X565814Y8916D01*
X566039Y9756D01*
X566039Y11588D01*
X554355Y11588D01*
X554355Y11588D01*
X566039Y11588D01*
X566039Y13420D01*
X565814Y14260D01*
X565379Y15012D01*
X565023Y15369D01*
X565023Y18932D01*
X564867Y19088D01*
X565023Y19244D01*
X565023Y22807D01*
X565379Y23164D01*
X565814Y23916D01*
X566039Y24756D01*
X566039Y26588D01*
X554355Y26588D01*
X554355Y26588D01*
X566039Y26588D01*
X566039Y28420D01*
X565814Y29260D01*
X565379Y30012D01*
X565023Y30369D01*
X565023Y33932D01*
X564867Y34088D01*
X565023Y34244D01*
X565023Y36758D01*
X566193Y35588D01*
X571219Y35588D01*
X574774Y39143D01*
X574774Y44169D01*
X571219Y47724D01*
X566193Y47724D01*
X565023Y46554D01*
X565023Y48932D01*
X564867Y49088D01*
X565023Y49244D01*
X565023Y52807D01*
X565379Y53164D01*
X565814Y53916D01*
X566039Y54756D01*
X566039Y56588D01*
X554355Y56588D01*
X554355Y56588D01*
X566039Y56588D01*
X566039Y58420D01*
X565814Y59260D01*
X565379Y60012D01*
X565023Y60369D01*
X565023Y63932D01*
X564867Y64088D01*
X565023Y64244D01*
X565023Y68932D01*
X564867Y69088D01*
X565023Y69244D01*
X565023Y73932D01*
X564867Y74088D01*
X565023Y74244D01*
X565023Y77807D01*
X565379Y78164D01*
X565814Y78916D01*
X566039Y79756D01*
X566039Y81588D01*
X554355Y81588D01*
X554355Y81588D01*
X566039Y81588D01*
X566039Y83420D01*
X565814Y84260D01*
X565379Y85012D01*
X565023Y85369D01*
X565023Y86542D01*
X566193Y85372D01*
X571219Y85372D01*
X574774Y88927D01*
X574774Y93953D01*
X571793Y96935D01*
X574365Y99507D01*
X574365Y99916D01*
X574829Y99452D01*
X579855Y99452D01*
X583410Y103007D01*
X583410Y108033D01*
X579855Y111588D01*
X574829Y111588D01*
X574655Y111414D01*
X566039Y111414D01*
X566039Y111588D01*
X554355Y111588D01*
X554355Y111588D01*
X566039Y111588D01*
X566039Y113420D01*
X565814Y114260D01*
X565379Y115012D01*
X565023Y115369D01*
X565023Y118932D01*
X564867Y119088D01*
X565023Y119244D01*
X565023Y122807D01*
X565379Y123164D01*
X565814Y123916D01*
X566039Y124756D01*
X566039Y126588D01*
X554355Y126588D01*
X554355Y126588D01*
X566039Y126588D01*
X566039Y128420D01*
X565814Y129260D01*
X565379Y130012D01*
X564764Y130627D01*
X564012Y131062D01*
X563172Y131287D01*
X554355Y131287D01*
X554355Y126588D01*
X554355Y126588D01*
X554355Y131287D01*
X545538Y131287D01*
X544698Y131062D01*
X543946Y130627D01*
X543331Y130012D01*
X542943Y129341D01*
X542517Y129766D01*
X537491Y129766D01*
X534796Y127072D01*
X534796Y128906D01*
X531242Y132460D01*
X526215Y132460D01*
X522660Y128906D01*
X522660Y123879D01*
X526215Y120324D01*
X530486Y120324D01*
X535485Y115325D01*
X537270Y113540D01*
X542703Y113540D01*
X542671Y113420D01*
X542671Y111588D01*
X554355Y111588D01*
X554355Y111588D01*
X542671Y111588D01*
X542671Y109756D01*
X542896Y108916D01*
X543331Y108164D01*
X543687Y107807D01*
X543687Y104244D01*
X543843Y104088D01*
X543687Y103932D01*
X543687Y99636D01*
X540437Y99636D01*
X539409Y100664D01*
X536654Y100664D01*
X536654Y101563D01*
X536299Y101918D01*
X536395Y101974D01*
X537010Y102589D01*
X537445Y103341D01*
X537670Y104181D01*
X537670Y106878D01*
X532106Y106878D01*
X532106Y108354D01*
X537670Y108354D01*
X537670Y111051D01*
X537445Y111891D01*
X537010Y112643D01*
X536395Y113258D01*
X535643Y113693D01*
X534803Y113918D01*
X532106Y113918D01*
X532106Y108354D01*
X530630Y108354D01*
X530630Y113918D01*
X527933Y113918D01*
X527093Y113693D01*
X526542Y113375D01*
X525991Y113693D01*
X525151Y113918D01*
X522454Y113918D01*
X522454Y108354D01*
X520978Y108354D01*
X520978Y113918D01*
X518281Y113918D01*
X517441Y113693D01*
X516689Y113258D01*
X516074Y112643D01*
X515639Y111891D01*
X515414Y111051D01*
X515414Y108354D01*
X520978Y108354D01*
X520978Y106878D01*
X515414Y106878D01*
X515414Y104181D01*
X515639Y103341D01*
X516074Y102589D01*
X516689Y101974D01*
X516785Y101918D01*
X516430Y101563D01*
X516430Y93669D01*
X517769Y92330D01*
X525663Y92330D01*
X526542Y93209D01*
X527421Y92330D01*
X532412Y92330D01*
X532412Y90495D01*
X529207Y90495D01*
X525653Y86940D01*
X525653Y81913D01*
X529207Y78359D01*
X530710Y78359D01*
X530710Y74118D01*
X532830Y71999D01*
X530888Y70057D01*
X530888Y67544D01*
X527658Y67544D01*
X524104Y63989D01*
X524104Y58962D01*
X527658Y55408D01*
X531142Y55408D01*
X531142Y52894D01*
X531649Y52388D01*
X528339Y52388D01*
X525319Y55408D01*
X520292Y55408D01*
X516738Y51853D01*
X516738Y46826D01*
X520292Y43272D01*
X525319Y43272D01*
X527540Y45493D01*
X527540Y40712D01*
X528121Y40132D01*
X526629Y40132D01*
X525740Y39242D01*
X520817Y39242D01*
X290548Y219991D02*
X290548Y225017D01*
X286993Y228572D01*
X281967Y228572D01*
X278947Y225552D01*
X251215Y225552D01*
X252428Y226765D01*
X252428Y234659D01*
X252073Y235014D01*
X252169Y235070D01*
X252784Y235685D01*
X253219Y236437D01*
X253444Y237277D01*
X253444Y239974D01*
X247880Y239974D01*
X247880Y241450D01*
X253444Y241450D01*
X253444Y244147D01*
X253219Y244987D01*
X252784Y245739D01*
X252169Y246354D01*
X251417Y246789D01*
X250577Y247014D01*
X249471Y247014D01*
X252194Y249737D01*
X252194Y254763D01*
X248639Y258318D01*
X244320Y258318D01*
X244320Y260831D01*
X240765Y264386D01*
X235739Y264386D01*
X233644Y262291D01*
X233050Y262634D01*
X232210Y262859D01*
X223393Y262859D01*
X223393Y258160D01*
X223393Y258160D01*
X223393Y262859D01*
X214576Y262859D01*
X213736Y262634D01*
X212984Y262199D01*
X212369Y261584D01*
X211934Y260832D01*
X211709Y259992D01*
X211709Y258160D01*
X223393Y258160D01*
X223393Y258160D01*
X211709Y258160D01*
X211709Y256328D01*
X211934Y255488D01*
X212369Y254736D01*
X212725Y254379D01*
X212725Y250816D01*
X212881Y250660D01*
X212725Y250504D01*
X212725Y246941D01*
X212369Y246584D01*
X211934Y245832D01*
X211709Y244992D01*
X211709Y243160D01*
X223393Y243160D01*
X223393Y243160D01*
X211709Y243160D01*
X211709Y241372D01*
X210031Y243050D01*
X205005Y243050D01*
X201450Y239495D01*
X201450Y234668D01*
X198909Y234668D01*
X195354Y231113D01*
X195354Y226087D01*
X198909Y222532D01*
X200997Y222532D01*
X200434Y221969D01*
X200434Y216943D01*
X203989Y213388D01*
X209015Y213388D01*
X212570Y216943D01*
X212570Y221213D01*
X212725Y221369D01*
X212725Y220816D01*
X212881Y220660D01*
X212725Y220504D01*
X212725Y216941D01*
X212369Y216584D01*
X211934Y215832D01*
X211709Y214992D01*
X211709Y213160D01*
X223393Y213160D01*
X223393Y213160D01*
X211709Y213160D01*
X211709Y211328D01*
X211934Y210488D01*
X212369Y209736D01*
X212725Y209379D01*
X212725Y205816D01*
X212881Y205660D01*
X212725Y205504D01*
X212725Y200816D01*
X212881Y200660D01*
X212725Y200504D01*
X212725Y195816D01*
X212881Y195660D01*
X212725Y195504D01*
X212725Y191941D01*
X212369Y191584D01*
X211934Y190832D01*
X211709Y189992D01*
X211709Y188160D01*
X223393Y188160D01*
X223393Y188160D01*
X211709Y188160D01*
X211709Y186508D01*
X210285Y187932D01*
X205259Y187932D01*
X201704Y184377D01*
X201704Y179351D01*
X204847Y176208D01*
X199775Y176208D01*
X201394Y177827D01*
X201394Y182853D01*
X197839Y186408D01*
X192813Y186408D01*
X189258Y182853D01*
X189258Y177827D01*
X192278Y174807D01*
X192278Y171897D01*
X194063Y170112D01*
X195059Y170112D01*
X194338Y169391D01*
X194338Y164365D01*
X197893Y160810D01*
X202720Y160810D01*
X202720Y159579D01*
X206275Y156024D01*
X211301Y156024D01*
X211709Y156432D01*
X211709Y156328D01*
X211934Y155488D01*
X212369Y154736D01*
X212725Y154379D01*
X212725Y150816D01*
X212881Y150660D01*
X212725Y150504D01*
X212725Y146941D01*
X212369Y146584D01*
X211934Y145832D01*
X211709Y144992D01*
X211709Y143160D01*
X223393Y143160D01*
X223393Y143160D01*
X211709Y143160D01*
X211709Y141328D01*
X211934Y140488D01*
X212369Y139736D01*
X212984Y139121D01*
X213736Y138686D01*
X214576Y138461D01*
X223393Y138461D01*
X223393Y143160D01*
X223393Y143160D01*
X223393Y138461D01*
X232210Y138461D01*
X233050Y138686D01*
X233802Y139121D01*
X234417Y139736D01*
X234852Y140488D01*
X235077Y141328D01*
X235077Y143160D01*
X223393Y143160D01*
X223393Y143160D01*
X235077Y143160D01*
X235077Y144969D01*
X235993Y144054D01*
X235993Y144053D01*
X237778Y142268D01*
X243868Y142268D01*
X243868Y142267D01*
X247423Y138712D01*
X252449Y138712D01*
X256004Y142267D01*
X256004Y147293D01*
X252449Y150848D01*
X247622Y150848D01*
X247622Y153897D01*
X247213Y154306D01*
X247674Y154306D01*
X247674Y159870D01*
X249150Y159870D01*
X249150Y154306D01*
X251847Y154306D01*
X252687Y154531D01*
X253439Y154966D01*
X254054Y155581D01*
X254489Y156333D01*
X254714Y157173D01*
X254714Y159870D01*
X249150Y159870D01*
X249150Y161346D01*
X254714Y161346D01*
X254714Y164043D01*
X254489Y164883D01*
X254054Y165635D01*
X253439Y166250D01*
X253343Y166306D01*
X253698Y166661D01*
X253698Y174555D01*
X252359Y175894D01*
X244465Y175894D01*
X243459Y174888D01*
X242453Y175894D01*
X234559Y175894D01*
X234061Y175396D01*
X234061Y175504D01*
X233905Y175660D01*
X234061Y175816D01*
X234061Y178119D01*
X236061Y176119D01*
X241088Y176119D01*
X244643Y179673D01*
X244643Y184700D01*
X241864Y187479D01*
X242893Y188508D01*
X244148Y187253D01*
X249175Y187253D01*
X252729Y190808D01*
X252729Y195835D01*
X249655Y198909D01*
X251432Y200687D01*
X251432Y205713D01*
X247877Y209268D01*
X246551Y209268D01*
X246606Y209323D01*
X246606Y214349D01*
X245843Y215112D01*
X272321Y215112D01*
X278412Y209021D01*
X278412Y204751D01*
X281967Y201196D01*
X286993Y201196D01*
X290548Y204751D01*
X290548Y209777D01*
X286993Y213332D01*
X282723Y213332D01*
X276598Y219456D01*
X278947Y219456D01*
X281967Y216436D01*
X286993Y216436D01*
X290548Y219991D01*
X136657Y113286D02*
X125737Y124206D01*
X136657Y113286D02*
X138335Y113286D01*
X138303Y113166D01*
X138303Y111334D01*
X149987Y111334D01*
X149987Y111334D01*
X138303Y111334D01*
X138303Y109502D01*
X138335Y109382D01*
X137245Y109382D01*
X122420Y124206D01*
X125737Y124206D01*
X154178Y-132080D02*
X48768Y-132080D01*
X623570Y-132080D02*
X744220Y-132080D01*
X154178Y-127000D02*
X48768Y-127000D01*
X623570Y-127000D02*
X744220Y-127000D01*
X154178Y-121920D02*
X48768Y-121920D01*
X330577Y-121920D02*
X437011Y-121920D01*
X623570Y-121920D02*
X744220Y-121920D01*
X154178Y-116840D02*
X48768Y-116840D01*
X325497Y-116840D02*
X326692Y-116840D01*
X333756Y-116840D02*
X335280Y-116840D01*
X342344Y-116840D02*
X352092Y-116840D01*
X359156Y-116840D02*
X360680Y-116840D01*
X367744Y-116840D02*
X400860Y-116840D01*
X407416Y-116840D02*
X408940Y-116840D01*
X415496Y-116840D02*
X426260Y-116840D01*
X432816Y-116840D02*
X434340Y-116840D01*
X440896Y-116840D02*
X442091Y-116840D01*
X623570Y-116840D02*
X744220Y-116840D01*
X154178Y-111760D02*
X48768Y-111760D01*
X320417Y-111760D02*
X323596Y-111760D01*
X333756Y-111760D02*
X335280Y-111760D01*
X345440Y-111760D02*
X348996Y-111760D01*
X359156Y-111760D02*
X360680Y-111760D01*
X370840Y-111760D02*
X397256Y-111760D01*
X407416Y-111760D02*
X408940Y-111760D01*
X419100Y-111760D02*
X422656Y-111760D01*
X432816Y-111760D02*
X434340Y-111760D01*
X444500Y-111760D02*
X447171Y-111760D01*
X623570Y-111760D02*
X744220Y-111760D01*
X154178Y-106680D02*
X48768Y-106680D01*
X315337Y-106680D02*
X323596Y-106680D01*
X333756Y-106680D02*
X335280Y-106680D01*
X345440Y-106680D02*
X348996Y-106680D01*
X359156Y-106680D02*
X360680Y-106680D01*
X370840Y-106680D02*
X397256Y-106680D01*
X407416Y-106680D02*
X408940Y-106680D01*
X419100Y-106680D02*
X422656Y-106680D01*
X432816Y-106680D02*
X434340Y-106680D01*
X444500Y-106680D02*
X452251Y-106680D01*
X623570Y-106680D02*
X744220Y-106680D01*
X154178Y-101600D02*
X48768Y-101600D01*
X310257Y-101600D02*
X326692Y-101600D01*
X333756Y-101600D02*
X335280Y-101600D01*
X342344Y-101600D02*
X352092Y-101600D01*
X359156Y-101600D02*
X360680Y-101600D01*
X367744Y-101600D02*
X399844Y-101600D01*
X407416Y-101600D02*
X408940Y-101600D01*
X416512Y-101600D02*
X425244Y-101600D01*
X432816Y-101600D02*
X434340Y-101600D01*
X441912Y-101600D02*
X457331Y-101600D01*
X623570Y-101600D02*
X744220Y-101600D01*
X154178Y-96520D02*
X48768Y-96520D01*
X305177Y-96520D02*
X462411Y-96520D01*
X623570Y-96520D02*
X744220Y-96520D01*
X154178Y-91440D02*
X48768Y-91440D01*
X300097Y-91440D02*
X328129Y-91440D01*
X340907Y-91440D02*
X353529Y-91440D01*
X366307Y-91440D02*
X402297Y-91440D01*
X414059Y-91440D02*
X427697Y-91440D01*
X439459Y-91440D02*
X467491Y-91440D01*
X623570Y-91440D02*
X744220Y-91440D01*
X154178Y-86360D02*
X48768Y-86360D01*
X295017Y-86360D02*
X324612Y-86360D01*
X344424Y-86360D02*
X350012Y-86360D01*
X369824Y-86360D02*
X398272Y-86360D01*
X418084Y-86360D02*
X423672Y-86360D01*
X443484Y-86360D02*
X472571Y-86360D01*
X623570Y-86360D02*
X744220Y-86360D01*
X154178Y-81280D02*
X48768Y-81280D01*
X289937Y-81280D02*
X324612Y-81280D01*
X344424Y-81280D02*
X350012Y-81280D01*
X369824Y-81280D02*
X398272Y-81280D01*
X418084Y-81280D02*
X423672Y-81280D01*
X443484Y-81280D02*
X477651Y-81280D01*
X623570Y-81280D02*
X744220Y-81280D01*
X154178Y-76200D02*
X48768Y-76200D01*
X284857Y-76200D02*
X322588Y-76200D01*
X340907Y-76200D02*
X353529Y-76200D01*
X366307Y-76200D02*
X401281Y-76200D01*
X415075Y-76200D02*
X426681Y-76200D01*
X445000Y-76200D02*
X482731Y-76200D01*
X623570Y-76200D02*
X744220Y-76200D01*
X154178Y-71120D02*
X48768Y-71120D01*
X279777Y-71120D02*
X317508Y-71120D01*
X326128Y-71120D02*
X441460Y-71120D01*
X450080Y-71120D02*
X487811Y-71120D01*
X623570Y-71120D02*
X744220Y-71120D01*
X154178Y-66040D02*
X48768Y-66040D01*
X274697Y-66040D02*
X312428Y-66040D01*
X321048Y-66040D02*
X328129Y-66040D01*
X340907Y-66040D02*
X353529Y-66040D01*
X366307Y-66040D02*
X402297Y-66040D01*
X414059Y-66040D02*
X427697Y-66040D01*
X439459Y-66040D02*
X446540Y-66040D01*
X455160Y-66040D02*
X492891Y-66040D01*
X623570Y-66040D02*
X744220Y-66040D01*
X154178Y-60960D02*
X48768Y-60960D01*
X269617Y-60960D02*
X307348Y-60960D01*
X315968Y-60960D02*
X324612Y-60960D01*
X344424Y-60960D02*
X350012Y-60960D01*
X369824Y-60960D02*
X398272Y-60960D01*
X418084Y-60960D02*
X423672Y-60960D01*
X443484Y-60960D02*
X451620Y-60960D01*
X460240Y-60960D02*
X497971Y-60960D01*
X623570Y-60960D02*
X744220Y-60960D01*
X154178Y-55880D02*
X48768Y-55880D01*
X264537Y-55880D02*
X302268Y-55880D01*
X310888Y-55880D02*
X324612Y-55880D01*
X344424Y-55880D02*
X350012Y-55880D01*
X369824Y-55880D02*
X398272Y-55880D01*
X418084Y-55880D02*
X423672Y-55880D01*
X443484Y-55880D02*
X456700Y-55880D01*
X463804Y-55880D02*
X503051Y-55880D01*
X623570Y-55880D02*
X744220Y-55880D01*
X154178Y-50800D02*
X48768Y-50800D01*
X259457Y-50800D02*
X297188Y-50800D01*
X305808Y-50800D02*
X322588Y-50800D01*
X340907Y-50800D02*
X353529Y-50800D01*
X366307Y-50800D02*
X401281Y-50800D01*
X415075Y-50800D02*
X426681Y-50800D01*
X445000Y-50800D02*
X457708Y-50800D01*
X463804Y-50800D02*
X508131Y-50800D01*
X623570Y-50800D02*
X744220Y-50800D01*
X154178Y-45720D02*
X48768Y-45720D01*
X254377Y-45720D02*
X292108Y-45720D01*
X300728Y-45720D02*
X317508Y-45720D01*
X326128Y-45720D02*
X441460Y-45720D01*
X450080Y-45720D02*
X457708Y-45720D01*
X463804Y-45720D02*
X513211Y-45720D01*
X623570Y-45720D02*
X744220Y-45720D01*
X154178Y-40640D02*
X48768Y-40640D01*
X249297Y-40640D02*
X287028Y-40640D01*
X295648Y-40640D02*
X312428Y-40640D01*
X321048Y-40640D02*
X328129Y-40640D01*
X340907Y-40640D02*
X353529Y-40640D01*
X366307Y-40640D02*
X402297Y-40640D01*
X414059Y-40640D02*
X427697Y-40640D01*
X439459Y-40640D02*
X446540Y-40640D01*
X455160Y-40640D02*
X457708Y-40640D01*
X463804Y-40640D02*
X518291Y-40640D01*
X623570Y-40640D02*
X744220Y-40640D01*
X154178Y-35560D02*
X48768Y-35560D01*
X244217Y-35560D02*
X281948Y-35560D01*
X290568Y-35560D02*
X307348Y-35560D01*
X315968Y-35560D02*
X324612Y-35560D01*
X344424Y-35560D02*
X350012Y-35560D01*
X369824Y-35560D02*
X398272Y-35560D01*
X418084Y-35560D02*
X423672Y-35560D01*
X443484Y-35560D02*
X451620Y-35560D01*
X463804Y-35560D02*
X523371Y-35560D01*
X623570Y-35560D02*
X744220Y-35560D01*
X154178Y-30480D02*
X48768Y-30480D01*
X239137Y-30480D02*
X276868Y-30480D01*
X285488Y-30480D02*
X302268Y-30480D01*
X310888Y-30480D02*
X324612Y-30480D01*
X344424Y-30480D02*
X350012Y-30480D01*
X369824Y-30480D02*
X398272Y-30480D01*
X418084Y-30480D02*
X423672Y-30480D01*
X443484Y-30480D02*
X454660Y-30480D01*
X463804Y-30480D02*
X528451Y-30480D01*
X623570Y-30480D02*
X744220Y-30480D01*
X154178Y-25400D02*
X48768Y-25400D01*
X234057Y-25400D02*
X271788Y-25400D01*
X280408Y-25400D02*
X297188Y-25400D01*
X305808Y-25400D02*
X322588Y-25400D01*
X340907Y-25400D02*
X353529Y-25400D01*
X366307Y-25400D02*
X401281Y-25400D01*
X415075Y-25400D02*
X426681Y-25400D01*
X445000Y-25400D02*
X454660Y-25400D01*
X463804Y-25400D02*
X533531Y-25400D01*
X623570Y-25400D02*
X744220Y-25400D01*
X154178Y-20320D02*
X48768Y-20320D01*
X228977Y-20320D02*
X266708Y-20320D01*
X275328Y-20320D02*
X292108Y-20320D01*
X300728Y-20320D02*
X317508Y-20320D01*
X326128Y-20320D02*
X441460Y-20320D01*
X450080Y-20320D02*
X454660Y-20320D01*
X463804Y-20320D02*
X538611Y-20320D01*
X623570Y-20320D02*
X744220Y-20320D01*
X154178Y-15240D02*
X48768Y-15240D01*
X223897Y-15240D02*
X261628Y-15240D01*
X270248Y-15240D02*
X287027Y-15240D01*
X295648Y-15240D02*
X312428Y-15240D01*
X321048Y-15240D02*
X328129Y-15240D01*
X340907Y-15240D02*
X353529Y-15240D01*
X366307Y-15240D02*
X402297Y-15240D01*
X414059Y-15240D02*
X427697Y-15240D01*
X439459Y-15240D02*
X446540Y-15240D01*
X463804Y-15240D02*
X543691Y-15240D01*
X623570Y-15240D02*
X744220Y-15240D01*
X154178Y-10160D02*
X48768Y-10160D01*
X218817Y-10160D02*
X256548Y-10160D01*
X265168Y-10160D02*
X281947Y-10160D01*
X290568Y-10160D02*
X307348Y-10160D01*
X315968Y-10160D02*
X324612Y-10160D01*
X344424Y-10160D02*
X350012Y-10160D01*
X369824Y-10160D02*
X398272Y-10160D01*
X418084Y-10160D02*
X423672Y-10160D01*
X443484Y-10160D02*
X451612Y-10160D01*
X463804Y-10160D02*
X548771Y-10160D01*
X623570Y-10160D02*
X744220Y-10160D01*
X154178Y-5080D02*
X48768Y-5080D01*
X213737Y-5080D02*
X251468Y-5080D01*
X260088Y-5080D02*
X276867Y-5080D01*
X285488Y-5080D02*
X302268Y-5080D01*
X310888Y-5080D02*
X324612Y-5080D01*
X344424Y-5080D02*
X350012Y-5080D01*
X369824Y-5080D02*
X398272Y-5080D01*
X418084Y-5080D02*
X423672Y-5080D01*
X443484Y-5080D02*
X451612Y-5080D01*
X463804Y-5080D02*
X530067Y-5080D01*
X536225Y-5080D02*
X553851Y-5080D01*
X623570Y-5080D02*
X744220Y-5080D01*
X154178Y0D02*
X48768Y0D01*
X208657Y0D02*
X246388Y0D01*
X255008Y0D02*
X271787Y0D01*
X280408Y0D02*
X297188Y0D01*
X305808Y0D02*
X322588Y0D01*
X340907Y0D02*
X353529Y0D01*
X366307Y0D02*
X401281Y0D01*
X415075Y0D02*
X426681Y0D01*
X445000Y0D02*
X451612Y0D01*
X463804Y0D02*
X527078Y0D01*
X539214Y0D02*
X558931Y0D01*
X623570Y0D02*
X744220Y0D01*
X174785Y5080D02*
X48768Y5080D01*
X188435Y5080D02*
X241308Y5080D01*
X249928Y5080D02*
X266707Y5080D01*
X275328Y5080D02*
X292107Y5080D01*
X300728Y5080D02*
X317508Y5080D01*
X326128Y5080D02*
X441460Y5080D01*
X450080Y5080D02*
X451612Y5080D01*
X463804Y5080D02*
X529223Y5080D01*
X542115Y5080D02*
X595630Y5080D01*
X605282Y5080D02*
X744220Y5080D01*
X139319Y10160D02*
X48768Y10160D01*
X183355Y10160D02*
X211709Y10160D01*
X223393Y10160D02*
X223393Y10160D01*
X235077Y10160D02*
X236228Y10160D01*
X244848Y10160D02*
X261627Y10160D01*
X270248Y10160D02*
X287027Y10160D01*
X295648Y10160D02*
X312428Y10160D01*
X321048Y10160D02*
X328129Y10160D01*
X340907Y10160D02*
X353529Y10160D01*
X366307Y10160D02*
X402297Y10160D01*
X414059Y10160D02*
X427697Y10160D01*
X439459Y10160D02*
X446540Y10160D01*
X463804Y10160D02*
X527332Y10160D01*
X554355Y10160D02*
X554355Y10160D01*
X566039Y10160D02*
X595630Y10160D01*
X605282Y10160D02*
X607596Y10160D01*
X638429Y10160D02*
X744220Y10160D01*
X138691Y15240D02*
X48768Y15240D01*
X178275Y15240D02*
X212725Y15240D01*
X239768Y15240D02*
X256547Y15240D01*
X265168Y15240D02*
X281947Y15240D01*
X290568Y15240D02*
X307348Y15240D01*
X315968Y15240D02*
X324612Y15240D01*
X344424Y15240D02*
X350012Y15240D01*
X369824Y15240D02*
X398272Y15240D01*
X418084Y15240D02*
X423672Y15240D01*
X443484Y15240D02*
X448564Y15240D01*
X463804Y15240D02*
X530549Y15240D01*
X536251Y15240D02*
X536344Y15240D01*
X565152Y15240D02*
X595630Y15240D01*
X605282Y15240D02*
X608893Y15240D01*
X648955Y15240D02*
X744220Y15240D01*
X133611Y20320D02*
X48768Y20320D01*
X160655Y20320D02*
X166652Y20320D01*
X178788Y20320D02*
X212725Y20320D01*
X260088Y20320D02*
X276867Y20320D01*
X285488Y20320D02*
X302267Y20320D01*
X310888Y20320D02*
X324612Y20320D01*
X344424Y20320D02*
X350012Y20320D01*
X369824Y20320D02*
X398272Y20320D01*
X418084Y20320D02*
X423672Y20320D01*
X443484Y20320D02*
X448564Y20320D01*
X463804Y20320D02*
X508610Y20320D01*
X514120Y20320D02*
X515596Y20320D01*
X524026Y20320D02*
X525502Y20320D01*
X540230Y20320D02*
X540512Y20320D01*
X565023Y20320D02*
X594388Y20320D01*
X606524Y20320D02*
X617093Y20320D01*
X654035Y20320D02*
X744220Y20320D01*
X132864Y25400D02*
X48768Y25400D01*
X161671Y25400D02*
X211709Y25400D01*
X235077Y25400D02*
X271787Y25400D01*
X280408Y25400D02*
X297187Y25400D01*
X305808Y25400D02*
X322587Y25400D01*
X340907Y25400D02*
X353529Y25400D01*
X366307Y25400D02*
X401281Y25400D01*
X415075Y25400D02*
X426681Y25400D01*
X445000Y25400D02*
X448564Y25400D01*
X463804Y25400D02*
X508556Y25400D01*
X541972Y25400D02*
X542671Y25400D01*
X566039Y25400D02*
X597717Y25400D01*
X603195Y25400D02*
X616077Y25400D01*
X639445Y25400D02*
X646184Y25400D01*
X659115Y25400D02*
X711884Y25400D01*
X738456Y25400D02*
X744220Y25400D01*
X54532Y30480D02*
X48768Y30480D01*
X81104Y30480D02*
X127784Y30480D01*
X160655Y30480D02*
X212725Y30480D01*
X275328Y30480D02*
X292107Y30480D01*
X300728Y30480D02*
X317507Y30480D01*
X326128Y30480D02*
X441460Y30480D01*
X463804Y30480D02*
X509572Y30480D01*
X565023Y30480D02*
X617093Y30480D01*
X664195Y30480D02*
X711884Y30480D01*
X738456Y30480D02*
X744220Y30480D01*
X54532Y35560D02*
X48768Y35560D01*
X81104Y35560D02*
X122704Y35560D01*
X160655Y35560D02*
X161853Y35560D01*
X167331Y35560D02*
X206049Y35560D01*
X211527Y35560D02*
X212725Y35560D01*
X295648Y35560D02*
X312427Y35560D01*
X321048Y35560D02*
X328129Y35560D01*
X340907Y35560D02*
X353529Y35560D01*
X366307Y35560D02*
X402297Y35560D01*
X414059Y35560D02*
X427697Y35560D01*
X439459Y35560D02*
X445516Y35560D01*
X463804Y35560D02*
X509572Y35560D01*
X565023Y35560D02*
X610671Y35560D01*
X616149Y35560D02*
X617093Y35560D01*
X669275Y35560D02*
X711884Y35560D01*
X738456Y35560D02*
X744220Y35560D01*
X54532Y40640D02*
X48768Y40640D01*
X81104Y40640D02*
X120172Y40640D01*
X170660Y40640D02*
X202720Y40640D01*
X234061Y40640D02*
X307347Y40640D01*
X315968Y40640D02*
X324612Y40640D01*
X344424Y40640D02*
X350012Y40640D01*
X369824Y40640D02*
X398272Y40640D01*
X418084Y40640D02*
X423672Y40640D01*
X443484Y40640D02*
X445516Y40640D01*
X463804Y40640D02*
X527613Y40640D01*
X574774Y40640D02*
X607342Y40640D01*
X674355Y40640D02*
X711884Y40640D01*
X738456Y40640D02*
X744220Y40640D01*
X54532Y45720D02*
X48768Y45720D01*
X81104Y45720D02*
X115092Y45720D01*
X168855Y45720D02*
X204525Y45720D01*
X310888Y45720D02*
X324612Y45720D01*
X344424Y45720D02*
X350012Y45720D01*
X369824Y45720D02*
X398272Y45720D01*
X418084Y45720D02*
X423672Y45720D01*
X443484Y45720D02*
X445516Y45720D01*
X463804Y45720D02*
X517844Y45720D01*
X573223Y45720D02*
X609147Y45720D01*
X679435Y45720D02*
X713093Y45720D01*
X737247Y45720D02*
X744220Y45720D01*
X110012Y50800D02*
X48768Y50800D01*
X160655Y50800D02*
X212725Y50800D01*
X340907Y50800D02*
X353529Y50800D01*
X366307Y50800D02*
X401281Y50800D01*
X415075Y50800D02*
X426681Y50800D01*
X445000Y50800D02*
X445516Y50800D01*
X463804Y50800D02*
X516738Y50800D01*
X565023Y50800D02*
X617093Y50800D01*
X701139Y50800D02*
X744220Y50800D01*
X91532Y55880D02*
X48768Y55880D01*
X161671Y55880D02*
X211709Y55880D01*
X235077Y55880D02*
X441460Y55880D01*
X463804Y55880D02*
X527186Y55880D01*
X566039Y55880D02*
X616077Y55880D01*
X639445Y55880D02*
X651211Y55880D01*
X701456Y55880D02*
X744220Y55880D01*
X91532Y60960D02*
X48768Y60960D01*
X160655Y60960D02*
X212725Y60960D01*
X340907Y60960D02*
X353529Y60960D01*
X366307Y60960D02*
X402297Y60960D01*
X414059Y60960D02*
X427697Y60960D01*
X439459Y60960D02*
X442468Y60960D01*
X463804Y60960D02*
X524104Y60960D01*
X565023Y60960D02*
X617093Y60960D01*
X701456Y60960D02*
X744220Y60960D01*
X91532Y66040D02*
X48768Y66040D01*
X160655Y66040D02*
X212725Y66040D01*
X310888Y66040D02*
X324612Y66040D01*
X344424Y66040D02*
X350012Y66040D01*
X369824Y66040D02*
X398272Y66040D01*
X418084Y66040D02*
X423672Y66040D01*
X463804Y66040D02*
X526154Y66040D01*
X565023Y66040D02*
X617093Y66040D01*
X701427Y66040D02*
X744220Y66040D01*
X91532Y71120D02*
X48768Y71120D01*
X160655Y71120D02*
X212725Y71120D01*
X290568Y71120D02*
X307348Y71120D01*
X315968Y71120D02*
X324612Y71120D01*
X344424Y71120D02*
X350012Y71120D01*
X369824Y71120D02*
X398272Y71120D01*
X418084Y71120D02*
X423672Y71120D01*
X463804Y71120D02*
X531951Y71120D01*
X565023Y71120D02*
X617093Y71120D01*
X701456Y71120D02*
X744220Y71120D01*
X91532Y76200D02*
X48768Y76200D01*
X160655Y76200D02*
X212725Y76200D01*
X270248Y76200D02*
X287028Y76200D01*
X295648Y76200D02*
X312428Y76200D01*
X321048Y76200D02*
X328129Y76200D01*
X340907Y76200D02*
X353529Y76200D01*
X366307Y76200D02*
X401281Y76200D01*
X415075Y76200D02*
X426681Y76200D01*
X463804Y76200D02*
X530710Y76200D01*
X565023Y76200D02*
X617093Y76200D01*
X701456Y76200D02*
X744220Y76200D01*
X91532Y81280D02*
X48768Y81280D01*
X161671Y81280D02*
X211709Y81280D01*
X235077Y81280D02*
X266708Y81280D01*
X275328Y81280D02*
X292108Y81280D01*
X300728Y81280D02*
X317508Y81280D01*
X326128Y81280D02*
X439420Y81280D01*
X466591Y81280D02*
X526286Y81280D01*
X540711Y81280D02*
X542671Y81280D01*
X566039Y81280D02*
X616077Y81280D01*
X639445Y81280D02*
X659369Y81280D01*
X701456Y81280D02*
X744220Y81280D01*
X91532Y86360D02*
X48768Y86360D01*
X160655Y86360D02*
X212725Y86360D01*
X255008Y86360D02*
X271788Y86360D01*
X280408Y86360D02*
X297188Y86360D01*
X305808Y86360D02*
X322588Y86360D01*
X340907Y86360D02*
X353529Y86360D01*
X366307Y86360D02*
X402297Y86360D01*
X414059Y86360D02*
X427697Y86360D01*
X471671Y86360D02*
X525653Y86360D01*
X565023Y86360D02*
X565205Y86360D01*
X572207Y86360D02*
X617093Y86360D01*
X701456Y86360D02*
X744220Y86360D01*
X91532Y91440D02*
X48768Y91440D01*
X168347Y91440D02*
X205287Y91440D01*
X212289Y91440D02*
X212725Y91440D01*
X260088Y91440D02*
X276868Y91440D01*
X285488Y91440D02*
X302268Y91440D01*
X310888Y91440D02*
X324612Y91440D01*
X344424Y91440D02*
X350012Y91440D01*
X369824Y91440D02*
X398272Y91440D01*
X418084Y91440D02*
X423672Y91440D01*
X476751Y91440D02*
X532412Y91440D01*
X574774Y91440D02*
X609655Y91440D01*
X701456Y91440D02*
X744220Y91440D01*
X91532Y96520D02*
X48768Y96520D01*
X170406Y96520D02*
X202720Y96520D01*
X265168Y96520D02*
X281948Y96520D01*
X290568Y96520D02*
X307348Y96520D01*
X315968Y96520D02*
X324612Y96520D01*
X344424Y96520D02*
X350012Y96520D01*
X369824Y96520D02*
X398272Y96520D01*
X418084Y96520D02*
X423672Y96520D01*
X481831Y96520D02*
X516430Y96520D01*
X572207Y96520D02*
X607342Y96520D01*
X701456Y96520D02*
X744220Y96520D01*
X91532Y101600D02*
X48768Y101600D01*
X160655Y101600D02*
X161345Y101600D01*
X167331Y101600D02*
X205287Y101600D01*
X212289Y101600D02*
X212725Y101600D01*
X270248Y101600D02*
X287028Y101600D01*
X295648Y101600D02*
X312428Y101600D01*
X321048Y101600D02*
X328129Y101600D01*
X340907Y101600D02*
X353529Y101600D01*
X366307Y101600D02*
X401281Y101600D01*
X415075Y101600D02*
X426681Y101600D01*
X486911Y101600D02*
X516467Y101600D01*
X536617Y101600D02*
X543687Y101600D01*
X582003Y101600D02*
X610163Y101600D01*
X616657Y101600D02*
X617093Y101600D01*
X701456Y101600D02*
X744220Y101600D01*
X91532Y106680D02*
X48768Y106680D01*
X160655Y106680D02*
X212725Y106680D01*
X275328Y106680D02*
X292108Y106680D01*
X300728Y106680D02*
X317508Y106680D01*
X326128Y106680D02*
X441460Y106680D01*
X491991Y106680D02*
X515414Y106680D01*
X537670Y106680D02*
X543687Y106680D01*
X583410Y106680D02*
X617093Y106680D01*
X701456Y106680D02*
X744220Y106680D01*
X91532Y111760D02*
X48768Y111760D01*
X134866Y111760D02*
X138303Y111760D01*
X161671Y111760D02*
X211709Y111760D01*
X235077Y111760D02*
X249436Y111760D01*
X280408Y111760D02*
X297188Y111760D01*
X305808Y111760D02*
X322588Y111760D01*
X340907Y111760D02*
X353529Y111760D01*
X366307Y111760D02*
X402297Y111760D01*
X414059Y111760D02*
X427697Y111760D01*
X439459Y111760D02*
X446540Y111760D01*
X497071Y111760D02*
X515604Y111760D01*
X520978Y111760D02*
X522454Y111760D01*
X530630Y111760D02*
X532106Y111760D01*
X537480Y111760D02*
X542671Y111760D01*
X566039Y111760D02*
X616077Y111760D01*
X639445Y111760D02*
X672092Y111760D01*
X701456Y111760D02*
X744220Y111760D01*
X91532Y116840D02*
X48768Y116840D01*
X129786Y116840D02*
X133103Y116840D01*
X160655Y116840D02*
X212725Y116840D01*
X285488Y116840D02*
X302268Y116840D01*
X310888Y116840D02*
X324612Y116840D01*
X344424Y116840D02*
X350012Y116840D01*
X369824Y116840D02*
X398272Y116840D01*
X418084Y116840D02*
X423672Y116840D01*
X443484Y116840D02*
X451620Y116840D01*
X502151Y116840D02*
X533970Y116840D01*
X565023Y116840D02*
X617093Y116840D01*
X701456Y116840D02*
X744220Y116840D01*
X91532Y121920D02*
X48768Y121920D01*
X124706Y121920D02*
X128023Y121920D01*
X160655Y121920D02*
X175315Y121920D01*
X183841Y121920D02*
X212725Y121920D01*
X290568Y121920D02*
X307348Y121920D01*
X315968Y121920D02*
X324612Y121920D01*
X344424Y121920D02*
X350012Y121920D01*
X369824Y121920D02*
X398272Y121920D01*
X418084Y121920D02*
X423672Y121920D01*
X443484Y121920D02*
X456700Y121920D01*
X507231Y121920D02*
X524619Y121920D01*
X565023Y121920D02*
X602543Y121920D01*
X610561Y121920D02*
X617093Y121920D01*
X701456Y121920D02*
X744220Y121920D01*
X91532Y127000D02*
X48768Y127000D01*
X137406Y127000D02*
X139319Y127000D01*
X185646Y127000D02*
X211709Y127000D01*
X223393Y127000D02*
X223393Y127000D01*
X235077Y127000D02*
X253246Y127000D01*
X295648Y127000D02*
X312428Y127000D01*
X321048Y127000D02*
X328129Y127000D01*
X340907Y127000D02*
X353529Y127000D01*
X366307Y127000D02*
X401281Y127000D01*
X415075Y127000D02*
X426681Y127000D01*
X445000Y127000D02*
X461780Y127000D01*
X512311Y127000D02*
X522660Y127000D01*
X554355Y127000D02*
X554355Y127000D01*
X566039Y127000D02*
X600484Y127000D01*
X647672Y127000D02*
X678188Y127000D01*
X701456Y127000D02*
X744220Y127000D01*
X91532Y132080D02*
X48768Y132080D01*
X132326Y132080D02*
X176839Y132080D01*
X182317Y132080D02*
X258326Y132080D01*
X300728Y132080D02*
X317508Y132080D01*
X326128Y132080D02*
X441460Y132080D01*
X450080Y132080D02*
X466860Y132080D01*
X517391Y132080D02*
X525835Y132080D01*
X531622Y132080D02*
X603559Y132080D01*
X609545Y132080D02*
X637595Y132080D01*
X645613Y132080D02*
X681751Y132080D01*
X701456Y132080D02*
X744220Y132080D01*
X91532Y137160D02*
X48768Y137160D01*
X135286Y137160D02*
X263406Y137160D01*
X305808Y137160D02*
X322588Y137160D01*
X340907Y137160D02*
X353529Y137160D01*
X366307Y137160D02*
X402297Y137160D01*
X414059Y137160D02*
X427697Y137160D01*
X439459Y137160D02*
X446540Y137160D01*
X455160Y137160D02*
X471940Y137160D01*
X522471Y137160D02*
X676671Y137160D01*
X701456Y137160D02*
X744220Y137160D01*
X91532Y142240D02*
X48768Y142240D01*
X185646Y142240D02*
X211709Y142240D01*
X223393Y142240D02*
X223393Y142240D01*
X235077Y142240D02*
X243895Y142240D01*
X255977Y142240D02*
X268486Y142240D01*
X310888Y142240D02*
X324612Y142240D01*
X344424Y142240D02*
X350012Y142240D01*
X369824Y142240D02*
X398272Y142240D01*
X418084Y142240D02*
X423672Y142240D01*
X443484Y142240D02*
X451620Y142240D01*
X460240Y142240D02*
X477020Y142240D01*
X527551Y142240D02*
X542671Y142240D01*
X554355Y142240D02*
X554355Y142240D01*
X566039Y142240D02*
X600484Y142240D01*
X638429Y142240D02*
X671591Y142240D01*
X701456Y142240D02*
X744220Y142240D01*
X91532Y147320D02*
X48768Y147320D01*
X160655Y147320D02*
X174807Y147320D01*
X184349Y147320D02*
X212725Y147320D01*
X255977Y147320D02*
X273566Y147320D01*
X315968Y147320D02*
X324612Y147320D01*
X344424Y147320D02*
X350012Y147320D01*
X369824Y147320D02*
X398272Y147320D01*
X418084Y147320D02*
X423672Y147320D01*
X443484Y147320D02*
X456700Y147320D01*
X465320Y147320D02*
X482100Y147320D01*
X565023Y147320D02*
X601781Y147320D01*
X611323Y147320D02*
X617093Y147320D01*
X701456Y147320D02*
X744220Y147320D01*
X91532Y152400D02*
X48768Y152400D01*
X160655Y152400D02*
X212725Y152400D01*
X247622Y152400D02*
X278646Y152400D01*
X321048Y152400D02*
X328129Y152400D01*
X340907Y152400D02*
X353529Y152400D01*
X366307Y152400D02*
X401281Y152400D01*
X415075Y152400D02*
X426681Y152400D01*
X445000Y152400D02*
X461780Y152400D01*
X470400Y152400D02*
X487180Y152400D01*
X565023Y152400D02*
X617093Y152400D01*
X701456Y152400D02*
X744220Y152400D01*
X91532Y157480D02*
X48768Y157480D01*
X161671Y157480D02*
X204819Y157480D01*
X247674Y157480D02*
X249150Y157480D01*
X254714Y157480D02*
X283726Y157480D01*
X326128Y157480D02*
X441460Y157480D01*
X450080Y157480D02*
X466860Y157480D01*
X475480Y157480D02*
X492260Y157480D01*
X534169Y157480D02*
X542671Y157480D01*
X566039Y157480D02*
X616077Y157480D01*
X639445Y157480D02*
X665487Y157480D01*
X701456Y157480D02*
X744220Y157480D01*
X91532Y162560D02*
X48768Y162560D01*
X160655Y162560D02*
X196143Y162560D01*
X254714Y162560D02*
X288806Y162560D01*
X320294Y162560D02*
X322588Y162560D01*
X340907Y162560D02*
X353529Y162560D01*
X366307Y162560D02*
X402297Y162560D01*
X414059Y162560D02*
X427697Y162560D01*
X439459Y162560D02*
X446540Y162560D01*
X455160Y162560D02*
X471940Y162560D01*
X480560Y162560D02*
X497340Y162560D01*
X565023Y162560D02*
X617093Y162560D01*
X701456Y162560D02*
X744220Y162560D01*
X91532Y167640D02*
X48768Y167640D01*
X160655Y167640D02*
X161345Y167640D01*
X167839Y167640D02*
X194338Y167640D01*
X253698Y167640D02*
X293886Y167640D01*
X307848Y167640D02*
X308356Y167640D01*
X320294Y167640D02*
X324612Y167640D01*
X344424Y167640D02*
X350012Y167640D01*
X369824Y167640D02*
X398272Y167640D01*
X418084Y167640D02*
X423672Y167640D01*
X443484Y167640D02*
X451620Y167640D01*
X460240Y167640D02*
X477020Y167640D01*
X485640Y167640D02*
X502420Y167640D01*
X565023Y167640D02*
X617093Y167640D01*
X701456Y167640D02*
X744220Y167640D01*
X91532Y172720D02*
X48768Y172720D01*
X170660Y172720D02*
X192278Y172720D01*
X253698Y172720D02*
X294386Y172720D01*
X307848Y172720D02*
X308356Y172720D01*
X320294Y172720D02*
X324612Y172720D01*
X344424Y172720D02*
X350012Y172720D01*
X369824Y172720D02*
X398272Y172720D01*
X418084Y172720D02*
X423672Y172720D01*
X443484Y172720D02*
X456700Y172720D01*
X465320Y172720D02*
X482100Y172720D01*
X490720Y172720D02*
X507500Y172720D01*
X575028Y172720D02*
X607596Y172720D01*
X701456Y172720D02*
X744220Y172720D01*
X91532Y177800D02*
X48768Y177800D01*
X160655Y177800D02*
X160837Y177800D01*
X168347Y177800D02*
X189285Y177800D01*
X201367Y177800D02*
X203255Y177800D01*
X234061Y177800D02*
X234380Y177800D01*
X242769Y177800D02*
X294386Y177800D01*
X307848Y177800D02*
X308356Y177800D01*
X321048Y177800D02*
X328129Y177800D01*
X340907Y177800D02*
X353529Y177800D01*
X366307Y177800D02*
X401281Y177800D01*
X415075Y177800D02*
X426681Y177800D01*
X445000Y177800D02*
X461780Y177800D01*
X470400Y177800D02*
X487180Y177800D01*
X495800Y177800D02*
X512580Y177800D01*
X574239Y177800D02*
X609147Y177800D01*
X701456Y177800D02*
X744220Y177800D01*
X91532Y182880D02*
X48768Y182880D01*
X160655Y182880D02*
X189285Y182880D01*
X201367Y182880D02*
X201704Y182880D01*
X244643Y182880D02*
X294386Y182880D01*
X307848Y182880D02*
X308356Y182880D01*
X314452Y182880D02*
X317508Y182880D01*
X326128Y182880D02*
X441460Y182880D01*
X450080Y182880D02*
X466860Y182880D01*
X475480Y182880D02*
X492260Y182880D01*
X500880Y182880D02*
X517660Y182880D01*
X565023Y182880D02*
X617093Y182880D01*
X701456Y182880D02*
X744220Y182880D01*
X91532Y187960D02*
X48768Y187960D01*
X161671Y187960D02*
X211709Y187960D01*
X242345Y187960D02*
X243441Y187960D01*
X249881Y187960D02*
X294386Y187960D01*
X307848Y187960D02*
X308356Y187960D01*
X314452Y187960D02*
X322588Y187960D01*
X340907Y187960D02*
X353529Y187960D01*
X366307Y187960D02*
X402297Y187960D01*
X414059Y187960D02*
X427697Y187960D01*
X439459Y187960D02*
X446540Y187960D01*
X455160Y187960D02*
X471940Y187960D01*
X480560Y187960D02*
X497340Y187960D01*
X505960Y187960D02*
X522740Y187960D01*
X566039Y187960D02*
X616077Y187960D01*
X639445Y187960D02*
X652279Y187960D01*
X701456Y187960D02*
X744220Y187960D01*
X91532Y193040D02*
X48768Y193040D01*
X160655Y193040D02*
X212725Y193040D01*
X252729Y193040D02*
X294386Y193040D01*
X307848Y193040D02*
X308356Y193040D01*
X314452Y193040D02*
X324612Y193040D01*
X344424Y193040D02*
X350012Y193040D01*
X369824Y193040D02*
X398272Y193040D01*
X418084Y193040D02*
X423672Y193040D01*
X443484Y193040D02*
X451620Y193040D01*
X460240Y193040D02*
X477020Y193040D01*
X485640Y193040D02*
X502420Y193040D01*
X511040Y193040D02*
X527820Y193040D01*
X565023Y193040D02*
X617093Y193040D01*
X701456Y193040D02*
X744220Y193040D01*
X91532Y198120D02*
X48768Y198120D01*
X160655Y198120D02*
X212725Y198120D01*
X250444Y198120D02*
X294386Y198120D01*
X307848Y198120D02*
X308356Y198120D01*
X315968Y198120D02*
X324612Y198120D01*
X344424Y198120D02*
X350012Y198120D01*
X369824Y198120D02*
X398272Y198120D01*
X418084Y198120D02*
X423672Y198120D01*
X443484Y198120D02*
X456700Y198120D01*
X465320Y198120D02*
X482100Y198120D01*
X490720Y198120D02*
X507500Y198120D01*
X516120Y198120D02*
X532900Y198120D01*
X565023Y198120D02*
X617093Y198120D01*
X701456Y198120D02*
X744220Y198120D01*
X91532Y203200D02*
X48768Y203200D01*
X160655Y203200D02*
X212725Y203200D01*
X251432Y203200D02*
X279963Y203200D01*
X288997Y203200D02*
X294386Y203200D01*
X307848Y203200D02*
X312428Y203200D01*
X321048Y203200D02*
X328129Y203200D01*
X340907Y203200D02*
X353529Y203200D01*
X366307Y203200D02*
X401281Y203200D01*
X415075Y203200D02*
X426681Y203200D01*
X445000Y203200D02*
X461780Y203200D01*
X470400Y203200D02*
X487180Y203200D01*
X495800Y203200D02*
X512580Y203200D01*
X565023Y203200D02*
X617093Y203200D01*
X701456Y203200D02*
X744220Y203200D01*
X91532Y208280D02*
X48768Y208280D01*
X160655Y208280D02*
X212725Y208280D01*
X248865Y208280D02*
X278412Y208280D01*
X290548Y208280D02*
X294386Y208280D01*
X307848Y208280D02*
X317508Y208280D01*
X326128Y208280D02*
X441460Y208280D01*
X450080Y208280D02*
X466860Y208280D01*
X475480Y208280D02*
X492260Y208280D01*
X565023Y208280D02*
X617093Y208280D01*
X701456Y208280D02*
X744220Y208280D01*
X91532Y213360D02*
X48768Y213360D01*
X161671Y213360D02*
X211709Y213360D01*
X246606Y213360D02*
X274073Y213360D01*
X282694Y213360D02*
X294386Y213360D01*
X307848Y213360D02*
X322588Y213360D01*
X340907Y213360D02*
X353529Y213360D01*
X366307Y213360D02*
X402297Y213360D01*
X414059Y213360D02*
X427697Y213360D01*
X439459Y213360D02*
X446540Y213360D01*
X455160Y213360D02*
X471940Y213360D01*
X480560Y213360D02*
X542671Y213360D01*
X566039Y213360D02*
X616077Y213360D01*
X639445Y213360D02*
X645675Y213360D01*
X681728Y213360D02*
X744220Y213360D01*
X115578Y218440D02*
X48768Y218440D01*
X160655Y218440D02*
X200434Y218440D01*
X212570Y218440D02*
X212725Y218440D01*
X277614Y218440D02*
X279963Y218440D01*
X288997Y218440D02*
X294386Y218440D01*
X310888Y218440D02*
X324612Y218440D01*
X344424Y218440D02*
X350012Y218440D01*
X369824Y218440D02*
X398272Y218440D01*
X418084Y218440D02*
X423672Y218440D01*
X443484Y218440D02*
X451620Y218440D01*
X460240Y218440D02*
X477020Y218440D01*
X565023Y218440D02*
X617093Y218440D01*
X676648Y218440D02*
X711884Y218440D01*
X738456Y218440D02*
X744220Y218440D01*
X54532Y223520D02*
X48768Y223520D01*
X81104Y223520D02*
X120658Y223520D01*
X168347Y223520D02*
X197921Y223520D01*
X290548Y223520D02*
X294386Y223520D01*
X303784Y223520D02*
X307348Y223520D01*
X315968Y223520D02*
X324612Y223520D01*
X344424Y223520D02*
X350012Y223520D01*
X369824Y223520D02*
X398272Y223520D01*
X418084Y223520D02*
X423672Y223520D01*
X443484Y223520D02*
X456700Y223520D01*
X565023Y223520D02*
X565205Y223520D01*
X572715Y223520D02*
X609909Y223520D01*
X616911Y223520D02*
X617093Y223520D01*
X671568Y223520D02*
X711884Y223520D01*
X738456Y223520D02*
X744220Y223520D01*
X54532Y228600D02*
X48768Y228600D01*
X81104Y228600D02*
X125738Y228600D01*
X170406Y228600D02*
X195354Y228600D01*
X252428Y228600D02*
X294386Y228600D01*
X303784Y228600D02*
X312428Y228600D01*
X321048Y228600D02*
X328129Y228600D01*
X340907Y228600D02*
X353529Y228600D01*
X366307Y228600D02*
X401281Y228600D01*
X415075Y228600D02*
X426681Y228600D01*
X445000Y228600D02*
X543687Y228600D01*
X575028Y228600D02*
X607342Y228600D01*
X666488Y228600D02*
X711884Y228600D01*
X738456Y228600D02*
X744220Y228600D01*
X54532Y233680D02*
X48768Y233680D01*
X81104Y233680D02*
X126492Y233680D01*
X160655Y233680D02*
X161345Y233680D01*
X167331Y233680D02*
X197921Y233680D01*
X252428Y233680D02*
X294386Y233680D01*
X303784Y233680D02*
X317508Y233680D01*
X326128Y233680D02*
X441460Y233680D01*
X565023Y233680D02*
X565713Y233680D01*
X572207Y233680D02*
X609909Y233680D01*
X616911Y233680D02*
X617093Y233680D01*
X661408Y233680D02*
X711884Y233680D01*
X738456Y233680D02*
X744220Y233680D01*
X54532Y238760D02*
X48768Y238760D01*
X81104Y238760D02*
X126492Y238760D01*
X160655Y238760D02*
X201450Y238760D01*
X253444Y238760D02*
X294386Y238760D01*
X305808Y238760D02*
X322588Y238760D01*
X340907Y238760D02*
X353529Y238760D01*
X366307Y238760D02*
X402297Y238760D01*
X414059Y238760D02*
X427697Y238760D01*
X565023Y238760D02*
X617093Y238760D01*
X656328Y238760D02*
X713133Y238760D01*
X737207Y238760D02*
X744220Y238760D01*
X126492Y243840D02*
X48768Y243840D01*
X161671Y243840D02*
X211709Y243840D01*
X236752Y243840D02*
X238228Y243840D01*
X253444Y243840D02*
X294386Y243840D01*
X300482Y243840D02*
X302268Y243840D01*
X310888Y243840D02*
X324612Y243840D01*
X344424Y243840D02*
X350012Y243840D01*
X369824Y243840D02*
X398272Y243840D01*
X418084Y243840D02*
X423672Y243840D01*
X443484Y243840D02*
X542671Y243840D01*
X566039Y243840D02*
X616077Y243840D01*
X651248Y243840D02*
X744220Y243840D01*
X130564Y248920D02*
X48768Y248920D01*
X160655Y248920D02*
X212725Y248920D01*
X251377Y248920D02*
X294386Y248920D01*
X300482Y248920D02*
X307348Y248920D01*
X315968Y248920D02*
X324612Y248920D01*
X344424Y248920D02*
X350012Y248920D01*
X369824Y248920D02*
X398272Y248920D01*
X418084Y248920D02*
X423672Y248920D01*
X443484Y248920D02*
X452635Y248920D01*
X565023Y248920D02*
X617093Y248920D01*
X646168Y248920D02*
X744220Y248920D01*
X135644Y254000D02*
X48768Y254000D01*
X169109Y254000D02*
X212725Y254000D01*
X252194Y254000D02*
X294386Y254000D01*
X300482Y254000D02*
X312428Y254000D01*
X321048Y254000D02*
X328129Y254000D01*
X340907Y254000D02*
X353529Y254000D01*
X366307Y254000D02*
X401281Y254000D01*
X415075Y254000D02*
X426681Y254000D01*
X440475Y254000D02*
X447555Y254000D01*
X456176Y254000D02*
X472955Y254000D01*
X565023Y254000D02*
X609401Y254000D01*
X641088Y254000D02*
X744220Y254000D01*
X139319Y259080D02*
X48768Y259080D01*
X170406Y259080D02*
X211709Y259080D01*
X223393Y259080D02*
X223393Y259080D01*
X244320Y259080D02*
X294386Y259080D01*
X300728Y259080D02*
X317508Y259080D01*
X326128Y259080D02*
X442475Y259080D01*
X451096Y259080D02*
X467875Y259080D01*
X476496Y259080D02*
X542671Y259080D01*
X554355Y259080D02*
X554355Y259080D01*
X566039Y259080D02*
X607342Y259080D01*
X638429Y259080D02*
X744220Y259080D01*
X235513Y264160D02*
X48768Y264160D01*
X240991Y264160D02*
X297188Y264160D01*
X305808Y264160D02*
X322588Y264160D01*
X340907Y264160D02*
X353529Y264160D01*
X366307Y264160D02*
X402297Y264160D01*
X414059Y264160D02*
X427697Y264160D01*
X446016Y264160D02*
X462795Y264160D01*
X471416Y264160D02*
X610417Y264160D01*
X616403Y264160D02*
X744220Y264160D01*
X302268Y269240D02*
X48768Y269240D01*
X310888Y269240D02*
X324612Y269240D01*
X344424Y269240D02*
X350012Y269240D01*
X369824Y269240D02*
X398272Y269240D01*
X418084Y269240D02*
X423672Y269240D01*
X443484Y269240D02*
X457715Y269240D01*
X466336Y269240D02*
X744220Y269240D01*
X307348Y274320D02*
X48768Y274320D01*
X315968Y274320D02*
X324612Y274320D01*
X344424Y274320D02*
X350012Y274320D01*
X369824Y274320D02*
X398272Y274320D01*
X418084Y274320D02*
X423672Y274320D01*
X443484Y274320D02*
X452635Y274320D01*
X461256Y274320D02*
X744220Y274320D01*
X312428Y279400D02*
X48768Y279400D01*
X321048Y279400D02*
X328129Y279400D01*
X340907Y279400D02*
X353529Y279400D01*
X366307Y279400D02*
X401281Y279400D01*
X415075Y279400D02*
X426681Y279400D01*
X440475Y279400D02*
X447555Y279400D01*
X456176Y279400D02*
X744220Y279400D01*
X317508Y284480D02*
X48768Y284480D01*
X326128Y284480D02*
X442475Y284480D01*
X451096Y284480D02*
X744220Y284480D01*
X186182Y289560D02*
X48768Y289560D01*
X225044Y289560D02*
X322588Y289560D01*
X340907Y289560D02*
X353529Y289560D01*
X366307Y289560D02*
X402297Y289560D01*
X414059Y289560D02*
X427697Y289560D01*
X446016Y289560D02*
X744220Y289560D01*
X186182Y294640D02*
X48768Y294640D01*
X225044Y294640D02*
X324612Y294640D01*
X344424Y294640D02*
X350012Y294640D01*
X369824Y294640D02*
X398272Y294640D01*
X418084Y294640D02*
X423672Y294640D01*
X443484Y294640D02*
X744220Y294640D01*
X186182Y299720D02*
X48768Y299720D01*
X225044Y299720D02*
X324612Y299720D01*
X344424Y299720D02*
X350012Y299720D01*
X369824Y299720D02*
X398272Y299720D01*
X418084Y299720D02*
X423672Y299720D01*
X443484Y299720D02*
X744220Y299720D01*
X186182Y304800D02*
X48768Y304800D01*
X225044Y304800D02*
X328129Y304800D01*
X340907Y304800D02*
X353529Y304800D01*
X366307Y304800D02*
X401281Y304800D01*
X415075Y304800D02*
X426681Y304800D01*
X440475Y304800D02*
X744220Y304800D01*
X186182Y309880D02*
X48768Y309880D01*
X225044Y309880D02*
X744220Y309880D01*
X186182Y314960D02*
X48768Y314960D01*
X225044Y314960D02*
X326692Y314960D01*
X333756Y314960D02*
X335280Y314960D01*
X342344Y314960D02*
X352092Y314960D01*
X359156Y314960D02*
X360680Y314960D01*
X367744Y314960D02*
X400860Y314960D01*
X407416Y314960D02*
X408940Y314960D01*
X415496Y314960D02*
X426260Y314960D01*
X432816Y314960D02*
X434340Y314960D01*
X440896Y314960D02*
X744220Y314960D01*
X186182Y320040D02*
X48768Y320040D01*
X225044Y320040D02*
X323596Y320040D01*
X333756Y320040D02*
X335280Y320040D01*
X345440Y320040D02*
X348996Y320040D01*
X359156Y320040D02*
X360680Y320040D01*
X370840Y320040D02*
X397256Y320040D01*
X407416Y320040D02*
X408940Y320040D01*
X419100Y320040D02*
X422656Y320040D01*
X432816Y320040D02*
X434340Y320040D01*
X444500Y320040D02*
X744220Y320040D01*
X186182Y325120D02*
X48768Y325120D01*
X225044Y325120D02*
X323596Y325120D01*
X333756Y325120D02*
X335280Y325120D01*
X345440Y325120D02*
X348996Y325120D01*
X359156Y325120D02*
X360680Y325120D01*
X370840Y325120D02*
X397256Y325120D01*
X407416Y325120D02*
X408940Y325120D01*
X419100Y325120D02*
X422656Y325120D01*
X432816Y325120D02*
X434340Y325120D01*
X444500Y325120D02*
X744220Y325120D01*
X186182Y330200D02*
X48768Y330200D01*
X225044Y330200D02*
X326692Y330200D01*
X333756Y330200D02*
X335280Y330200D01*
X342344Y330200D02*
X352092Y330200D01*
X359156Y330200D02*
X360680Y330200D01*
X367744Y330200D02*
X399844Y330200D01*
X407416Y330200D02*
X408940Y330200D01*
X416512Y330200D02*
X425244Y330200D01*
X432816Y330200D02*
X434340Y330200D01*
X441912Y330200D02*
X744220Y330200D01*
X186182Y335280D02*
X48768Y335280D01*
X225044Y335280D02*
X744220Y335280D01*
X50800Y339598D02*
X50800Y-133858D01*
X55880Y-133858D02*
X55880Y26834D01*
X55880Y49406D02*
X55880Y219834D01*
X55880Y242406D02*
X55880Y339598D01*
X60960Y26834D02*
X60960Y-133858D01*
X60960Y49406D02*
X60960Y219834D01*
X60960Y242406D02*
X60960Y339598D01*
X66040Y26834D02*
X66040Y-133858D01*
X66040Y49406D02*
X66040Y219834D01*
X66040Y242406D02*
X66040Y339598D01*
X71120Y26834D02*
X71120Y-133858D01*
X71120Y49406D02*
X71120Y219834D01*
X71120Y242406D02*
X71120Y339598D01*
X76200Y26834D02*
X76200Y-133858D01*
X76200Y49406D02*
X76200Y219834D01*
X76200Y242406D02*
X76200Y339598D01*
X81280Y339598D02*
X81280Y-133858D01*
X86360Y-133858D02*
X86360Y339598D01*
X91440Y339598D02*
X91440Y-133858D01*
X96520Y-133858D02*
X96520Y53334D01*
X96520Y215906D02*
X96520Y339598D01*
X101600Y53334D02*
X101600Y-133858D01*
X101600Y215906D02*
X101600Y339598D01*
X106680Y53334D02*
X106680Y-133858D01*
X106680Y215906D02*
X106680Y339598D01*
X111760Y49052D02*
X111760Y-133858D01*
X111760Y215168D02*
X111760Y339598D01*
X116840Y43972D02*
X116840Y-133858D01*
X116840Y219703D02*
X116840Y339598D01*
X121920Y36344D02*
X121920Y-133858D01*
X121920Y224783D02*
X121920Y339598D01*
X127000Y31264D02*
X127000Y-133858D01*
X127000Y119626D02*
X127000Y122943D01*
X127000Y245357D02*
X127000Y339598D01*
X132080Y26184D02*
X132080Y-133858D01*
X132080Y114546D02*
X132080Y117863D01*
X132080Y132326D02*
X132080Y134072D01*
X132080Y250437D02*
X132080Y339598D01*
X137160Y16771D02*
X137160Y-133858D01*
X137160Y109466D02*
X137160Y113286D01*
X137160Y127246D02*
X137160Y139034D01*
X137160Y255517D02*
X137160Y339598D01*
X142240Y7651D02*
X142240Y-133858D01*
X142240Y111334D02*
X142240Y111334D01*
X142240Y130017D02*
X142240Y139477D01*
X142240Y261843D02*
X142240Y339598D01*
X147320Y7651D02*
X147320Y-133858D01*
X147320Y111334D02*
X147320Y111334D01*
X147320Y130017D02*
X147320Y139477D01*
X147320Y261843D02*
X147320Y339598D01*
X152400Y7651D02*
X152400Y-133858D01*
X152400Y26334D02*
X152400Y26334D01*
X152400Y56334D02*
X152400Y56334D01*
X152400Y81334D02*
X152400Y81334D01*
X152400Y111334D02*
X152400Y111334D01*
X152400Y130017D02*
X152400Y139477D01*
X152400Y158160D02*
X152400Y158160D01*
X152400Y188160D02*
X152400Y188160D01*
X152400Y213160D02*
X152400Y213160D01*
X152400Y243160D02*
X152400Y243160D01*
X152400Y261843D02*
X152400Y339598D01*
X157480Y7651D02*
X157480Y1778D01*
X157480Y26334D02*
X157480Y26334D01*
X157480Y56334D02*
X157480Y56334D01*
X157480Y81334D02*
X157480Y81334D01*
X157480Y111334D02*
X157480Y111334D01*
X157480Y130017D02*
X157480Y139477D01*
X157480Y158160D02*
X157480Y158160D01*
X157480Y188160D02*
X157480Y188160D01*
X157480Y213160D02*
X157480Y213160D01*
X157480Y243160D02*
X157480Y243160D01*
X157480Y261843D02*
X157480Y339598D01*
X162560Y5362D02*
X162560Y1778D01*
X162560Y17498D02*
X162560Y35334D01*
X162560Y47470D02*
X162560Y89944D01*
X162560Y102080D02*
X162560Y123286D01*
X162560Y129382D02*
X162560Y140112D01*
X162560Y146208D02*
X162560Y166906D01*
X162560Y179042D02*
X162560Y222024D01*
X162560Y234160D02*
X162560Y251742D01*
X162560Y263878D02*
X162560Y339598D01*
X167640Y5643D02*
X167640Y1778D01*
X167640Y22551D02*
X167640Y35869D01*
X167640Y46935D02*
X167640Y90733D01*
X167640Y101291D02*
X167640Y123286D01*
X167640Y129382D02*
X167640Y140112D01*
X167640Y146208D02*
X167640Y167441D01*
X167640Y178507D02*
X167640Y222813D01*
X167640Y233371D02*
X167640Y252531D01*
X167640Y263089D02*
X167640Y339598D01*
X172720Y7145D02*
X172720Y1778D01*
X172720Y25118D02*
X172720Y123286D01*
X172720Y129382D02*
X172720Y140112D01*
X172720Y146208D02*
X172720Y339598D01*
X177800Y2065D02*
X177800Y1778D01*
X177800Y22551D02*
X177800Y120170D01*
X177800Y132306D02*
X177800Y137442D01*
X177800Y149578D02*
X177800Y339598D01*
X182880Y120959D02*
X182880Y10635D01*
X182880Y131517D02*
X182880Y138231D01*
X182880Y148789D02*
X182880Y339598D01*
X187960Y287528D02*
X187960Y5555D01*
X187960Y337058D02*
X187960Y339598D01*
X193040Y171135D02*
X193040Y1778D01*
X193040Y186408D02*
X193040Y287528D01*
X193040Y337058D02*
X193040Y339598D01*
X198120Y160810D02*
X198120Y1778D01*
X198120Y186127D02*
X198120Y223321D01*
X198120Y233879D02*
X198120Y287528D01*
X198120Y337058D02*
X198120Y339598D01*
X203200Y38409D02*
X203200Y1778D01*
X203200Y44395D02*
X203200Y93527D01*
X203200Y99513D02*
X203200Y159099D01*
X203200Y176208D02*
X203200Y177855D01*
X203200Y185873D02*
X203200Y214177D01*
X203200Y241245D02*
X203200Y287528D01*
X203200Y337058D02*
X203200Y339598D01*
X208280Y35334D02*
X208280Y377D01*
X208280Y47470D02*
X208280Y90452D01*
X208280Y102588D02*
X208280Y156024D01*
X208280Y187932D02*
X208280Y213388D01*
X208280Y243050D02*
X208280Y287528D01*
X208280Y337058D02*
X208280Y339598D01*
X213360Y7077D02*
X213360Y-4703D01*
X213360Y11334D02*
X213360Y11334D01*
X213360Y26334D02*
X213360Y26334D01*
X213360Y56334D02*
X213360Y56334D01*
X213360Y81334D02*
X213360Y81334D01*
X213360Y111334D02*
X213360Y111334D01*
X213360Y126334D02*
X213360Y126334D01*
X213360Y130591D02*
X213360Y138903D01*
X213360Y143160D02*
X213360Y143160D01*
X213360Y188160D02*
X213360Y188160D01*
X213360Y213160D02*
X213360Y213160D01*
X213360Y243160D02*
X213360Y243160D01*
X213360Y258160D02*
X213360Y258160D01*
X213360Y262417D02*
X213360Y287528D01*
X213360Y337058D02*
X213360Y339598D01*
X218440Y6635D02*
X218440Y-9783D01*
X218440Y11334D02*
X218440Y11334D01*
X218440Y26334D02*
X218440Y26334D01*
X218440Y56334D02*
X218440Y56334D01*
X218440Y81334D02*
X218440Y81334D01*
X218440Y111334D02*
X218440Y111334D01*
X218440Y126334D02*
X218440Y126334D01*
X218440Y131033D02*
X218440Y138461D01*
X218440Y143160D02*
X218440Y143160D01*
X218440Y158160D02*
X218440Y158160D01*
X218440Y188160D02*
X218440Y188160D01*
X218440Y213160D02*
X218440Y213160D01*
X218440Y243160D02*
X218440Y243160D01*
X218440Y258160D02*
X218440Y258160D01*
X218440Y262859D02*
X218440Y287528D01*
X218440Y337058D02*
X218440Y339598D01*
X223520Y6635D02*
X223520Y-14863D01*
X223520Y11334D02*
X223520Y11334D01*
X223520Y26334D02*
X223520Y26334D01*
X223520Y56334D02*
X223520Y56334D01*
X223520Y81334D02*
X223520Y81334D01*
X223520Y111334D02*
X223520Y111334D01*
X223520Y126334D02*
X223520Y126334D01*
X223520Y131033D02*
X223520Y138461D01*
X223520Y143160D02*
X223520Y143160D01*
X223520Y262859D02*
X223520Y287528D01*
X223520Y337058D02*
X223520Y339598D01*
X228600Y6635D02*
X228600Y-19943D01*
X228600Y11334D02*
X228600Y11334D01*
X228600Y26334D02*
X228600Y26334D01*
X228600Y56334D02*
X228600Y56334D01*
X228600Y81334D02*
X228600Y81334D01*
X228600Y111334D02*
X228600Y111334D01*
X228600Y126334D02*
X228600Y126334D01*
X228600Y131033D02*
X228600Y138461D01*
X228600Y143160D02*
X228600Y143160D01*
X228600Y262859D02*
X228600Y339598D01*
X233680Y7224D02*
X233680Y-25023D01*
X233680Y11334D02*
X233680Y11334D01*
X233680Y26334D02*
X233680Y26334D01*
X233680Y56334D02*
X233680Y56334D01*
X233680Y81334D02*
X233680Y81334D01*
X233680Y111334D02*
X233680Y111334D01*
X233680Y126334D02*
X233680Y126334D01*
X233680Y130444D02*
X233680Y139050D01*
X233680Y143160D02*
X233680Y143160D01*
X233680Y262327D02*
X233680Y339598D01*
X238760Y7628D02*
X238760Y-30103D01*
X238760Y16248D02*
X238760Y18286D01*
X238760Y24382D02*
X238760Y28286D01*
X238760Y39382D02*
X238760Y43286D01*
X238760Y54382D02*
X238760Y58286D01*
X238760Y79382D02*
X238760Y83286D01*
X238760Y109382D02*
X238760Y113286D01*
X238760Y123444D02*
X238760Y142268D01*
X238760Y175894D02*
X238760Y176119D01*
X238760Y239974D02*
X238760Y241450D01*
X238760Y264386D02*
X238760Y339598D01*
X243840Y2548D02*
X243840Y-35183D01*
X243840Y11168D02*
X243840Y18286D01*
X243840Y24382D02*
X243840Y28286D01*
X243840Y39382D02*
X243840Y43286D01*
X243840Y54382D02*
X243840Y58286D01*
X243840Y79382D02*
X243840Y83286D01*
X243840Y109382D02*
X243840Y113286D01*
X243840Y123444D02*
X243840Y142268D01*
X243840Y159870D02*
X243840Y161346D01*
X243840Y175269D02*
X243840Y178871D01*
X243840Y185503D02*
X243840Y187561D01*
X243840Y239974D02*
X243840Y241450D01*
X243840Y261311D02*
X243840Y339598D01*
X248920Y-2532D02*
X248920Y-40263D01*
X248920Y6088D02*
X248920Y18286D01*
X248920Y24382D02*
X248920Y28286D01*
X248920Y39382D02*
X248920Y43286D01*
X248920Y54382D02*
X248920Y58286D01*
X248920Y79382D02*
X248920Y83286D01*
X248920Y111245D02*
X248920Y113286D01*
X248920Y123444D02*
X248920Y138712D01*
X248920Y150848D02*
X248920Y159870D01*
X248920Y175894D02*
X248920Y187253D01*
X248920Y208225D02*
X248920Y215112D01*
X248920Y239974D02*
X248920Y241450D01*
X248920Y258037D02*
X248920Y339598D01*
X254000Y-7612D02*
X254000Y-45343D01*
X254000Y1008D02*
X254000Y17788D01*
X254000Y24382D02*
X254000Y28286D01*
X254000Y39382D02*
X254000Y43286D01*
X254000Y54382D02*
X254000Y58286D01*
X254000Y79382D02*
X254000Y85352D01*
X254000Y127755D02*
X254000Y140263D01*
X254000Y149297D02*
X254000Y155526D01*
X254000Y159870D02*
X254000Y161346D01*
X254000Y165690D02*
X254000Y215112D01*
X254000Y225552D02*
X254000Y339598D01*
X259080Y-12692D02*
X259080Y-50423D01*
X259080Y-4072D02*
X259080Y12708D01*
X259080Y21328D02*
X259080Y28286D01*
X259080Y39382D02*
X259080Y43286D01*
X259080Y54382D02*
X259080Y58286D01*
X259080Y79382D02*
X259080Y90432D01*
X259080Y132835D02*
X259080Y215112D01*
X259080Y225552D02*
X259080Y339598D01*
X264160Y-17772D02*
X264160Y-55503D01*
X264160Y-9152D02*
X264160Y7628D01*
X264160Y16248D02*
X264160Y28286D01*
X264160Y39382D02*
X264160Y43286D01*
X264160Y54382D02*
X264160Y58286D01*
X264160Y79382D02*
X264160Y95512D01*
X264160Y137915D02*
X264160Y215112D01*
X264160Y225552D02*
X264160Y339598D01*
X269240Y-22852D02*
X269240Y-60583D01*
X269240Y-14232D02*
X269240Y2548D01*
X269240Y11168D02*
X269240Y27948D01*
X269240Y39382D02*
X269240Y43286D01*
X269240Y54382D02*
X269240Y58286D01*
X269240Y74382D02*
X269240Y75192D01*
X269240Y83813D02*
X269240Y100592D01*
X269240Y142995D02*
X269240Y215112D01*
X269240Y225552D02*
X269240Y339598D01*
X274320Y-27932D02*
X274320Y-65663D01*
X274320Y-19312D02*
X274320Y-2533D01*
X274320Y6088D02*
X274320Y22868D01*
X274320Y31488D02*
X274320Y33286D01*
X274320Y39382D02*
X274320Y43286D01*
X274320Y54382D02*
X274320Y58286D01*
X274320Y74382D02*
X274320Y80272D01*
X274320Y88893D02*
X274320Y105672D01*
X274320Y148075D02*
X274320Y213113D01*
X274320Y225552D02*
X274320Y339598D01*
X279400Y-33012D02*
X279400Y-70743D01*
X279400Y-24392D02*
X279400Y-7613D01*
X279400Y1008D02*
X279400Y17788D01*
X279400Y26408D02*
X279400Y33286D01*
X279400Y39382D02*
X279400Y43286D01*
X279400Y54382D02*
X279400Y58286D01*
X279400Y74382D02*
X279400Y85352D01*
X279400Y93973D02*
X279400Y110752D01*
X279400Y153155D02*
X279400Y203763D01*
X279400Y216654D02*
X279400Y219003D01*
X279400Y226005D02*
X279400Y339598D01*
X284480Y-38092D02*
X284480Y-75823D01*
X284480Y-29472D02*
X284480Y-12693D01*
X284480Y-4072D02*
X284480Y12708D01*
X284480Y21328D02*
X284480Y33286D01*
X284480Y39382D02*
X284480Y43286D01*
X284480Y54382D02*
X284480Y58286D01*
X284480Y74382D02*
X284480Y90432D01*
X284480Y99053D02*
X284480Y115832D01*
X284480Y158235D02*
X284480Y201196D01*
X284480Y213332D02*
X284480Y216436D01*
X284480Y228572D02*
X284480Y339598D01*
X289560Y-43172D02*
X289560Y-80903D01*
X289560Y-34552D02*
X289560Y-17772D01*
X289560Y-9152D02*
X289560Y7628D01*
X289560Y16248D02*
X289560Y33028D01*
X289560Y39382D02*
X289560Y43286D01*
X289560Y54382D02*
X289560Y58286D01*
X289560Y69382D02*
X289560Y70112D01*
X289560Y78733D02*
X289560Y95512D01*
X289560Y104133D02*
X289560Y120912D01*
X289560Y163315D02*
X289560Y203763D01*
X289560Y210765D02*
X289560Y219003D01*
X289560Y226005D02*
X289560Y339598D01*
X294640Y-48252D02*
X294640Y-85983D01*
X294640Y-39632D02*
X294640Y-22852D01*
X294640Y-14232D02*
X294640Y2548D01*
X294640Y11168D02*
X294640Y27948D01*
X294640Y36568D02*
X294640Y43286D01*
X294640Y54382D02*
X294640Y58286D01*
X294640Y69382D02*
X294640Y75192D01*
X294640Y83813D02*
X294640Y100592D01*
X294640Y109213D02*
X294640Y125992D01*
X294640Y261613D02*
X294640Y339598D01*
X299720Y-53332D02*
X299720Y-91063D01*
X299720Y-44712D02*
X299720Y-27932D01*
X299720Y-19312D02*
X299720Y-2532D01*
X299720Y6088D02*
X299720Y22868D01*
X299720Y31488D02*
X299720Y43286D01*
X299720Y54382D02*
X299720Y58286D01*
X299720Y69382D02*
X299720Y80272D01*
X299720Y88893D02*
X299720Y105672D01*
X299720Y114293D02*
X299720Y131072D01*
X299720Y266693D02*
X299720Y339598D01*
X304800Y-58412D02*
X304800Y-96143D01*
X304800Y-49792D02*
X304800Y-33012D01*
X304800Y-24392D02*
X304800Y-7612D01*
X304800Y1008D02*
X304800Y17788D01*
X304800Y26408D02*
X304800Y43188D01*
X304800Y54382D02*
X304800Y58286D01*
X304800Y69382D02*
X304800Y85352D01*
X304800Y93973D02*
X304800Y110752D01*
X304800Y119373D02*
X304800Y136152D01*
X304800Y220972D02*
X304800Y237752D01*
X304800Y246372D02*
X304800Y263152D01*
X304800Y271773D02*
X304800Y339598D01*
X309880Y-63492D02*
X309880Y-101223D01*
X309880Y-54872D02*
X309880Y-38092D01*
X309880Y-29472D02*
X309880Y-12692D01*
X309880Y-4072D02*
X309880Y12708D01*
X309880Y21328D02*
X309880Y38108D01*
X309880Y46728D02*
X309880Y48286D01*
X309880Y54382D02*
X309880Y58286D01*
X309880Y64382D02*
X309880Y65032D01*
X309880Y73653D02*
X309880Y90432D01*
X309880Y99053D02*
X309880Y115832D01*
X309880Y124453D02*
X309880Y141232D01*
X309880Y200653D02*
X309880Y217432D01*
X309880Y226052D02*
X309880Y242832D01*
X309880Y251452D02*
X309880Y268232D01*
X309880Y276853D02*
X309880Y339598D01*
X314960Y-68572D02*
X314960Y-106303D01*
X314960Y-59952D02*
X314960Y-43172D01*
X314960Y-34552D02*
X314960Y-17772D01*
X314960Y-9152D02*
X314960Y7628D01*
X314960Y16248D02*
X314960Y33028D01*
X314960Y41648D02*
X314960Y48286D01*
X314960Y54382D02*
X314960Y58286D01*
X314960Y64382D02*
X314960Y70112D01*
X314960Y78733D02*
X314960Y95512D01*
X314960Y104133D02*
X314960Y120912D01*
X314960Y129533D02*
X314960Y146312D01*
X314960Y180333D02*
X314960Y197112D01*
X314960Y205733D02*
X314960Y222512D01*
X314960Y231132D02*
X314960Y247912D01*
X314960Y256532D02*
X314960Y273312D01*
X314960Y281933D02*
X314960Y339598D01*
X320040Y-73652D02*
X320040Y-111383D01*
X320040Y-65032D02*
X320040Y-48252D01*
X320040Y-39632D02*
X320040Y-22852D01*
X320040Y-14232D02*
X320040Y2548D01*
X320040Y11168D02*
X320040Y27948D01*
X320040Y36568D02*
X320040Y48286D01*
X320040Y54382D02*
X320040Y58286D01*
X320040Y64382D02*
X320040Y75192D01*
X320040Y83813D02*
X320040Y100592D01*
X320040Y109213D02*
X320040Y125992D01*
X320040Y134613D02*
X320040Y151392D01*
X320040Y185413D02*
X320040Y202192D01*
X320040Y210813D02*
X320040Y227592D01*
X320040Y236212D02*
X320040Y252992D01*
X320040Y261612D02*
X320040Y278392D01*
X320040Y287013D02*
X320040Y339598D01*
X325120Y-115268D02*
X325120Y-116463D01*
X325120Y-109982D02*
X325120Y-108458D01*
X325120Y-103172D02*
X325120Y-88431D01*
X325120Y-79209D02*
X325120Y-78732D01*
X325120Y-70112D02*
X325120Y-63031D01*
X325120Y-53809D02*
X325120Y-53332D01*
X325120Y-44712D02*
X325120Y-37631D01*
X325120Y-28409D02*
X325120Y-27932D01*
X325120Y-19312D02*
X325120Y-12231D01*
X325120Y-3009D02*
X325120Y-2532D01*
X325120Y6088D02*
X325120Y13169D01*
X325120Y22391D02*
X325120Y22868D01*
X325120Y31488D02*
X325120Y38569D01*
X325120Y47791D02*
X325120Y48268D01*
X325120Y54382D02*
X325120Y58286D01*
X325120Y73191D02*
X325120Y80272D01*
X325120Y88893D02*
X325120Y89369D01*
X325120Y98591D02*
X325120Y105672D01*
X325120Y114293D02*
X325120Y114769D01*
X325120Y123991D02*
X325120Y131072D01*
X325120Y139693D02*
X325120Y140169D01*
X325120Y149391D02*
X325120Y156472D01*
X325120Y165092D02*
X325120Y165569D01*
X325120Y174791D02*
X325120Y181872D01*
X325120Y190493D02*
X325120Y190969D01*
X325120Y200191D02*
X325120Y207272D01*
X325120Y215893D02*
X325120Y216369D01*
X325120Y225591D02*
X325120Y232672D01*
X325120Y241292D02*
X325120Y241769D01*
X325120Y250991D02*
X325120Y258072D01*
X325120Y266692D02*
X325120Y267169D01*
X325120Y276391D02*
X325120Y283472D01*
X325120Y292093D02*
X325120Y292569D01*
X325120Y301791D02*
X325120Y316532D01*
X325120Y321818D02*
X325120Y323342D01*
X325120Y328628D02*
X325120Y339598D01*
X330200Y-120142D02*
X330200Y-121543D01*
X330200Y-109982D02*
X330200Y-108458D01*
X330200Y-98298D02*
X330200Y-93511D01*
X330200Y-74129D02*
X330200Y-68111D01*
X330200Y-48729D02*
X330200Y-42711D01*
X330200Y-23329D02*
X330200Y-17311D01*
X330200Y2071D02*
X330200Y8089D01*
X330200Y27471D02*
X330200Y33489D01*
X330200Y52871D02*
X330200Y58889D01*
X330200Y78271D02*
X330200Y84289D01*
X330200Y103671D02*
X330200Y109689D01*
X330200Y129071D02*
X330200Y135089D01*
X330200Y154471D02*
X330200Y160489D01*
X330200Y179871D02*
X330200Y185889D01*
X330200Y205271D02*
X330200Y211289D01*
X330200Y230671D02*
X330200Y236689D01*
X330200Y256071D02*
X330200Y262089D01*
X330200Y281471D02*
X330200Y287489D01*
X330200Y306871D02*
X330200Y311658D01*
X330200Y321818D02*
X330200Y323342D01*
X330200Y333502D02*
X330200Y339598D01*
X335280Y-120142D02*
X335280Y-123444D01*
X335280Y-98298D02*
X335280Y-93726D01*
X335280Y-73914D02*
X335280Y-68326D01*
X335280Y-48514D02*
X335280Y-42926D01*
X335280Y-23114D02*
X335280Y-17526D01*
X335280Y2286D02*
X335280Y7874D01*
X335280Y27686D02*
X335280Y33274D01*
X335280Y53086D02*
X335280Y58674D01*
X335280Y78486D02*
X335280Y84074D01*
X335280Y103886D02*
X335280Y109474D01*
X335280Y129286D02*
X335280Y134874D01*
X335280Y154686D02*
X335280Y160274D01*
X335280Y180086D02*
X335280Y185674D01*
X335280Y205486D02*
X335280Y211074D01*
X335280Y230886D02*
X335280Y236474D01*
X335280Y256286D02*
X335280Y261874D01*
X335280Y281686D02*
X335280Y287274D01*
X335280Y307086D02*
X335280Y311658D01*
X335280Y333502D02*
X335280Y339598D01*
X340360Y-118824D02*
X340360Y-123444D01*
X340360Y-109982D02*
X340360Y-108458D01*
X340360Y-99616D02*
X340360Y-91987D01*
X340360Y-75653D02*
X340360Y-66587D01*
X340360Y-50253D02*
X340360Y-41187D01*
X340360Y-24853D02*
X340360Y-15787D01*
X340360Y547D02*
X340360Y9613D01*
X340360Y25947D02*
X340360Y35013D01*
X340360Y51347D02*
X340360Y60413D01*
X340360Y76747D02*
X340360Y85813D01*
X340360Y102147D02*
X340360Y111213D01*
X340360Y127547D02*
X340360Y136613D01*
X340360Y152947D02*
X340360Y162013D01*
X340360Y178347D02*
X340360Y187413D01*
X340360Y203747D02*
X340360Y212813D01*
X340360Y229147D02*
X340360Y238213D01*
X340360Y254547D02*
X340360Y263613D01*
X340360Y279947D02*
X340360Y289013D01*
X340360Y305347D02*
X340360Y312976D01*
X340360Y321818D02*
X340360Y323342D01*
X340360Y332184D02*
X340360Y339598D01*
X345440Y339598D02*
X345440Y-123444D01*
X350520Y-123444D02*
X350520Y-115268D01*
X350520Y-109982D02*
X350520Y-108458D01*
X350520Y-103172D02*
X350520Y-88431D01*
X350520Y-79209D02*
X350520Y-63031D01*
X350520Y-53809D02*
X350520Y-37631D01*
X350520Y-28409D02*
X350520Y-12231D01*
X350520Y-3009D02*
X350520Y13169D01*
X350520Y22391D02*
X350520Y38569D01*
X350520Y47791D02*
X350520Y63969D01*
X350520Y73191D02*
X350520Y89369D01*
X350520Y98591D02*
X350520Y114769D01*
X350520Y123991D02*
X350520Y140169D01*
X350520Y149391D02*
X350520Y165569D01*
X350520Y174791D02*
X350520Y190969D01*
X350520Y200191D02*
X350520Y216369D01*
X350520Y225591D02*
X350520Y241769D01*
X350520Y250991D02*
X350520Y267169D01*
X350520Y276391D02*
X350520Y292569D01*
X350520Y301791D02*
X350520Y316532D01*
X350520Y321818D02*
X350520Y323342D01*
X350520Y328628D02*
X350520Y339598D01*
X355600Y-120142D02*
X355600Y-123444D01*
X355600Y-109982D02*
X355600Y-108458D01*
X355600Y-98298D02*
X355600Y-93511D01*
X355600Y-74129D02*
X355600Y-68111D01*
X355600Y-48729D02*
X355600Y-42711D01*
X355600Y-23329D02*
X355600Y-17311D01*
X355600Y2071D02*
X355600Y8089D01*
X355600Y27471D02*
X355600Y33489D01*
X355600Y52871D02*
X355600Y58889D01*
X355600Y78271D02*
X355600Y84289D01*
X355600Y103671D02*
X355600Y109689D01*
X355600Y129071D02*
X355600Y135089D01*
X355600Y154471D02*
X355600Y160489D01*
X355600Y179871D02*
X355600Y185889D01*
X355600Y205271D02*
X355600Y211289D01*
X355600Y230671D02*
X355600Y236689D01*
X355600Y256071D02*
X355600Y262089D01*
X355600Y281471D02*
X355600Y287489D01*
X355600Y306871D02*
X355600Y311658D01*
X355600Y321818D02*
X355600Y323342D01*
X355600Y333502D02*
X355600Y339598D01*
X360680Y-120142D02*
X360680Y-123444D01*
X360680Y-98298D02*
X360680Y-93726D01*
X360680Y-73914D02*
X360680Y-68326D01*
X360680Y-48514D02*
X360680Y-42926D01*
X360680Y-23114D02*
X360680Y-17526D01*
X360680Y2286D02*
X360680Y7874D01*
X360680Y27686D02*
X360680Y33274D01*
X360680Y53086D02*
X360680Y58674D01*
X360680Y78486D02*
X360680Y84074D01*
X360680Y103886D02*
X360680Y109474D01*
X360680Y129286D02*
X360680Y134874D01*
X360680Y154686D02*
X360680Y160274D01*
X360680Y180086D02*
X360680Y185674D01*
X360680Y205486D02*
X360680Y211074D01*
X360680Y230886D02*
X360680Y236474D01*
X360680Y256286D02*
X360680Y261874D01*
X360680Y281686D02*
X360680Y287274D01*
X360680Y307086D02*
X360680Y311658D01*
X360680Y333502D02*
X360680Y339598D01*
X365760Y-118824D02*
X365760Y-123444D01*
X365760Y-109982D02*
X365760Y-108458D01*
X365760Y-99616D02*
X365760Y-91987D01*
X365760Y-75653D02*
X365760Y-66587D01*
X365760Y-50253D02*
X365760Y-41187D01*
X365760Y-24853D02*
X365760Y-15787D01*
X365760Y547D02*
X365760Y9613D01*
X365760Y25947D02*
X365760Y35013D01*
X365760Y51347D02*
X365760Y60413D01*
X365760Y76747D02*
X365760Y85813D01*
X365760Y102147D02*
X365760Y111213D01*
X365760Y127547D02*
X365760Y136613D01*
X365760Y152947D02*
X365760Y162013D01*
X365760Y178347D02*
X365760Y187413D01*
X365760Y203747D02*
X365760Y212813D01*
X365760Y229147D02*
X365760Y238213D01*
X365760Y254547D02*
X365760Y263613D01*
X365760Y279947D02*
X365760Y289013D01*
X365760Y305347D02*
X365760Y312976D01*
X365760Y321818D02*
X365760Y323342D01*
X365760Y332184D02*
X365760Y339598D01*
X370840Y339598D02*
X370840Y-123444D01*
X375920Y-123444D02*
X375920Y339598D01*
X381000Y339598D02*
X381000Y-123444D01*
X386080Y-123444D02*
X386080Y339598D01*
X391160Y339598D02*
X391160Y-123444D01*
X396240Y-123444D02*
X396240Y339598D01*
X401320Y-117300D02*
X401320Y-123444D01*
X401320Y-109474D02*
X401320Y-107950D01*
X401320Y-100124D02*
X401320Y-90463D01*
X401320Y-76161D02*
X401320Y-65063D01*
X401320Y-50761D02*
X401320Y-39663D01*
X401320Y-25361D02*
X401320Y-14263D01*
X401320Y39D02*
X401320Y11137D01*
X401320Y25439D02*
X401320Y36537D01*
X401320Y50839D02*
X401320Y61937D01*
X401320Y76239D02*
X401320Y87337D01*
X401320Y101639D02*
X401320Y112737D01*
X401320Y127039D02*
X401320Y138137D01*
X401320Y152439D02*
X401320Y163537D01*
X401320Y177839D02*
X401320Y188937D01*
X401320Y203239D02*
X401320Y214337D01*
X401320Y228639D02*
X401320Y239737D01*
X401320Y254039D02*
X401320Y265137D01*
X401320Y279439D02*
X401320Y290537D01*
X401320Y304839D02*
X401320Y314500D01*
X401320Y322326D02*
X401320Y323850D01*
X401320Y331676D02*
X401320Y339598D01*
X406400Y-119634D02*
X406400Y-123444D01*
X406400Y-109474D02*
X406400Y-107950D01*
X406400Y-97790D02*
X406400Y-93218D01*
X406400Y-73406D02*
X406400Y-67818D01*
X406400Y-48006D02*
X406400Y-42418D01*
X406400Y-22606D02*
X406400Y-17018D01*
X406400Y2794D02*
X406400Y8382D01*
X406400Y28194D02*
X406400Y33782D01*
X406400Y53594D02*
X406400Y59182D01*
X406400Y78994D02*
X406400Y84582D01*
X406400Y104394D02*
X406400Y109982D01*
X406400Y129794D02*
X406400Y135382D01*
X406400Y155194D02*
X406400Y160782D01*
X406400Y180594D02*
X406400Y186182D01*
X406400Y205994D02*
X406400Y211582D01*
X406400Y231394D02*
X406400Y236982D01*
X406400Y256794D02*
X406400Y262382D01*
X406400Y282194D02*
X406400Y287782D01*
X406400Y307594D02*
X406400Y312166D01*
X406400Y322326D02*
X406400Y323850D01*
X406400Y334010D02*
X406400Y339598D01*
X411480Y-119634D02*
X411480Y-123444D01*
X411480Y-109474D02*
X411480Y-107950D01*
X411480Y-97790D02*
X411480Y-93218D01*
X411480Y-73406D02*
X411480Y-67818D01*
X411480Y-48006D02*
X411480Y-42418D01*
X411480Y-22606D02*
X411480Y-17018D01*
X411480Y2794D02*
X411480Y8382D01*
X411480Y28194D02*
X411480Y33782D01*
X411480Y53594D02*
X411480Y59182D01*
X411480Y78994D02*
X411480Y84582D01*
X411480Y104394D02*
X411480Y109982D01*
X411480Y129794D02*
X411480Y135382D01*
X411480Y155194D02*
X411480Y160782D01*
X411480Y180594D02*
X411480Y186182D01*
X411480Y205994D02*
X411480Y211582D01*
X411480Y231394D02*
X411480Y236982D01*
X411480Y256794D02*
X411480Y262382D01*
X411480Y282194D02*
X411480Y287782D01*
X411480Y307594D02*
X411480Y312166D01*
X411480Y322326D02*
X411480Y323850D01*
X411480Y334010D02*
X411480Y339598D01*
X416560Y-115776D02*
X416560Y-123444D01*
X416560Y-109474D02*
X416560Y-107950D01*
X416560Y-101648D02*
X416560Y-88939D01*
X416560Y-77685D02*
X416560Y-63539D01*
X416560Y-52285D02*
X416560Y-38139D01*
X416560Y-26885D02*
X416560Y-12739D01*
X416560Y-1485D02*
X416560Y12661D01*
X416560Y23915D02*
X416560Y38061D01*
X416560Y49315D02*
X416560Y63461D01*
X416560Y74715D02*
X416560Y88861D01*
X416560Y100115D02*
X416560Y114261D01*
X416560Y125515D02*
X416560Y139661D01*
X416560Y150915D02*
X416560Y165061D01*
X416560Y176315D02*
X416560Y190461D01*
X416560Y201715D02*
X416560Y215861D01*
X416560Y227115D02*
X416560Y241261D01*
X416560Y252515D02*
X416560Y266661D01*
X416560Y277915D02*
X416560Y292061D01*
X416560Y303315D02*
X416560Y316024D01*
X416560Y322326D02*
X416560Y323850D01*
X416560Y330152D02*
X416560Y339598D01*
X421640Y339598D02*
X421640Y-123444D01*
X426720Y-123444D02*
X426720Y-117300D01*
X426720Y-109474D02*
X426720Y-107950D01*
X426720Y-100124D02*
X426720Y-90463D01*
X426720Y-76161D02*
X426720Y-65063D01*
X426720Y-50761D02*
X426720Y-39663D01*
X426720Y-25361D02*
X426720Y-14263D01*
X426720Y39D02*
X426720Y11137D01*
X426720Y25439D02*
X426720Y36537D01*
X426720Y50839D02*
X426720Y61937D01*
X426720Y76239D02*
X426720Y87337D01*
X426720Y101639D02*
X426720Y112737D01*
X426720Y127039D02*
X426720Y138137D01*
X426720Y152439D02*
X426720Y163537D01*
X426720Y177839D02*
X426720Y188937D01*
X426720Y203239D02*
X426720Y214337D01*
X426720Y228639D02*
X426720Y239737D01*
X426720Y254039D02*
X426720Y265137D01*
X426720Y279439D02*
X426720Y290537D01*
X426720Y304839D02*
X426720Y314500D01*
X426720Y322326D02*
X426720Y323850D01*
X426720Y331676D02*
X426720Y339598D01*
X431800Y-119634D02*
X431800Y-123444D01*
X431800Y-109474D02*
X431800Y-107950D01*
X431800Y-97790D02*
X431800Y-93218D01*
X431800Y-73406D02*
X431800Y-67818D01*
X431800Y-48006D02*
X431800Y-42418D01*
X431800Y-22606D02*
X431800Y-17018D01*
X431800Y2794D02*
X431800Y8382D01*
X431800Y28194D02*
X431800Y33782D01*
X431800Y53594D02*
X431800Y59182D01*
X431800Y78994D02*
X431800Y84582D01*
X431800Y104394D02*
X431800Y109982D01*
X431800Y129794D02*
X431800Y135382D01*
X431800Y155194D02*
X431800Y160782D01*
X431800Y180594D02*
X431800Y186182D01*
X431800Y205994D02*
X431800Y211582D01*
X431800Y231394D02*
X431800Y236982D01*
X431800Y256794D02*
X431800Y262382D01*
X431800Y282194D02*
X431800Y287782D01*
X431800Y307594D02*
X431800Y312166D01*
X431800Y322326D02*
X431800Y323850D01*
X431800Y334010D02*
X431800Y339598D01*
X436880Y-119634D02*
X436880Y-122051D01*
X436880Y-109474D02*
X436880Y-107950D01*
X436880Y-97790D02*
X436880Y-93218D01*
X436880Y-73406D02*
X436880Y-67818D01*
X436880Y-48006D02*
X436880Y-42418D01*
X436880Y-22606D02*
X436880Y-17018D01*
X436880Y2794D02*
X436880Y8382D01*
X436880Y28194D02*
X436880Y33782D01*
X436880Y53594D02*
X436880Y59182D01*
X436880Y78994D02*
X436880Y84582D01*
X436880Y104394D02*
X436880Y109982D01*
X436880Y129794D02*
X436880Y135382D01*
X436880Y155194D02*
X436880Y160782D01*
X436880Y180594D02*
X436880Y186182D01*
X436880Y205994D02*
X436880Y211582D01*
X436880Y231394D02*
X436880Y236982D01*
X436880Y256794D02*
X436880Y262382D01*
X436880Y282194D02*
X436880Y287782D01*
X436880Y307594D02*
X436880Y312166D01*
X436880Y322326D02*
X436880Y323850D01*
X436880Y334010D02*
X436880Y339598D01*
X441960Y-115776D02*
X441960Y-116971D01*
X441960Y-109474D02*
X441960Y-107950D01*
X441960Y-101648D02*
X441960Y-88939D01*
X441960Y-70619D02*
X441960Y-63539D01*
X441960Y-45219D02*
X441960Y-38139D01*
X441960Y-19819D02*
X441960Y-12739D01*
X441960Y5581D02*
X441960Y12661D01*
X441960Y30981D02*
X441960Y38061D01*
X441960Y56380D02*
X441960Y63461D01*
X441960Y107181D02*
X441960Y114261D01*
X441960Y132581D02*
X441960Y139661D01*
X441960Y157981D02*
X441960Y165061D01*
X441960Y183381D02*
X441960Y190461D01*
X441960Y208781D02*
X441960Y215861D01*
X441960Y234181D02*
X441960Y235366D01*
X441960Y252515D02*
X441960Y259596D01*
X441960Y277915D02*
X441960Y284996D01*
X441960Y303315D02*
X441960Y316024D01*
X441960Y322326D02*
X441960Y323850D01*
X441960Y330152D02*
X441960Y339598D01*
X447040Y-74160D02*
X447040Y-111891D01*
X447040Y-65539D02*
X447040Y-48760D01*
X447040Y-40139D02*
X447040Y-23360D01*
X447040Y-14739D02*
X447040Y2040D01*
X447040Y10661D02*
X447040Y27440D01*
X447040Y112261D02*
X447040Y129040D01*
X447040Y137661D02*
X447040Y154440D01*
X447040Y163061D02*
X447040Y179840D01*
X447040Y188461D02*
X447040Y205240D01*
X447040Y213861D02*
X447040Y230366D01*
X447040Y241462D02*
X447040Y254516D01*
X447040Y263136D02*
X447040Y279916D01*
X447040Y288536D02*
X447040Y339598D01*
X452120Y-69080D02*
X452120Y-106811D01*
X452120Y-60459D02*
X452120Y-43680D01*
X452120Y-35059D02*
X452120Y-18280D01*
X452120Y117341D02*
X452120Y134120D01*
X452120Y142741D02*
X452120Y159520D01*
X452120Y168141D02*
X452120Y184920D01*
X452120Y193541D02*
X452120Y210320D01*
X452120Y218941D02*
X452120Y230366D01*
X452120Y241462D02*
X452120Y249436D01*
X452120Y258056D02*
X452120Y274836D01*
X452120Y283456D02*
X452120Y339598D01*
X457200Y-64000D02*
X457200Y-101731D01*
X457200Y-55379D02*
X457200Y-38600D01*
X457200Y122421D02*
X457200Y139200D01*
X457200Y147821D02*
X457200Y164600D01*
X457200Y173221D02*
X457200Y190000D01*
X457200Y198621D02*
X457200Y215400D01*
X457200Y224021D02*
X457200Y230366D01*
X457200Y241462D02*
X457200Y245366D01*
X457200Y252976D02*
X457200Y269756D01*
X457200Y278376D02*
X457200Y339598D01*
X462280Y-58920D02*
X462280Y-96651D01*
X462280Y127501D02*
X462280Y144280D01*
X462280Y152901D02*
X462280Y169680D01*
X462280Y178301D02*
X462280Y195080D01*
X462280Y203701D02*
X462280Y220366D01*
X462280Y226462D02*
X462280Y230366D01*
X462280Y241462D02*
X462280Y245366D01*
X462280Y251462D02*
X462280Y264676D01*
X462280Y273296D02*
X462280Y339598D01*
X467360Y82050D02*
X467360Y-91571D01*
X467360Y132581D02*
X467360Y149360D01*
X467360Y157981D02*
X467360Y174760D01*
X467360Y183381D02*
X467360Y200160D01*
X467360Y208781D02*
X467360Y220366D01*
X467360Y226462D02*
X467360Y230366D01*
X467360Y241462D02*
X467360Y245366D01*
X467360Y251462D02*
X467360Y259596D01*
X467360Y268216D02*
X467360Y339598D01*
X472440Y87130D02*
X472440Y-86491D01*
X472440Y137661D02*
X472440Y154440D01*
X472440Y163061D02*
X472440Y179840D01*
X472440Y188461D02*
X472440Y205240D01*
X472440Y213861D02*
X472440Y220366D01*
X472440Y226462D02*
X472440Y230366D01*
X472440Y241462D02*
X472440Y245366D01*
X472440Y251462D02*
X472440Y254516D01*
X472440Y263136D02*
X472440Y339598D01*
X477520Y92210D02*
X477520Y-81411D01*
X477520Y142741D02*
X477520Y159520D01*
X477520Y168141D02*
X477520Y184920D01*
X477520Y193541D02*
X477520Y210320D01*
X477520Y218941D02*
X477520Y220366D01*
X477520Y226462D02*
X477520Y230366D01*
X477520Y241462D02*
X477520Y245366D01*
X477520Y258056D02*
X477520Y339598D01*
X482600Y97290D02*
X482600Y-76331D01*
X482600Y147821D02*
X482600Y164600D01*
X482600Y173221D02*
X482600Y190000D01*
X482600Y198621D02*
X482600Y215366D01*
X482600Y226462D02*
X482600Y230366D01*
X482600Y241462D02*
X482600Y245366D01*
X482600Y256462D02*
X482600Y339598D01*
X487680Y102370D02*
X487680Y-71251D01*
X487680Y152901D02*
X487680Y169680D01*
X487680Y178301D02*
X487680Y195080D01*
X487680Y203701D02*
X487680Y215366D01*
X487680Y226462D02*
X487680Y230366D01*
X487680Y241462D02*
X487680Y245366D01*
X487680Y256462D02*
X487680Y339598D01*
X492760Y107450D02*
X492760Y-66171D01*
X492760Y157981D02*
X492760Y174760D01*
X492760Y183381D02*
X492760Y200160D01*
X492760Y208781D02*
X492760Y215366D01*
X492760Y226462D02*
X492760Y230366D01*
X492760Y241462D02*
X492760Y245366D01*
X492760Y256462D02*
X492760Y339598D01*
X497840Y112530D02*
X497840Y-61091D01*
X497840Y163061D02*
X497840Y179840D01*
X497840Y188461D02*
X497840Y205240D01*
X497840Y211462D02*
X497840Y215366D01*
X497840Y226462D02*
X497840Y230366D01*
X497840Y241462D02*
X497840Y245366D01*
X497840Y256462D02*
X497840Y339598D01*
X502920Y117610D02*
X502920Y-56011D01*
X502920Y168141D02*
X502920Y184920D01*
X502920Y193541D02*
X502920Y205366D01*
X502920Y211462D02*
X502920Y215366D01*
X502920Y226462D02*
X502920Y230366D01*
X502920Y241462D02*
X502920Y245366D01*
X502920Y256462D02*
X502920Y339598D01*
X508000Y122690D02*
X508000Y-50931D01*
X508000Y173221D02*
X508000Y190000D01*
X508000Y198621D02*
X508000Y205366D01*
X508000Y211462D02*
X508000Y215366D01*
X508000Y226462D02*
X508000Y230366D01*
X508000Y241462D02*
X508000Y245366D01*
X508000Y256462D02*
X508000Y339598D01*
X513080Y17654D02*
X513080Y-45851D01*
X513080Y23218D02*
X513080Y24694D01*
X513080Y39242D02*
X513080Y127770D01*
X513080Y178301D02*
X513080Y195080D01*
X513080Y203701D02*
X513080Y205366D01*
X513080Y211462D02*
X513080Y215366D01*
X513080Y226462D02*
X513080Y230366D01*
X513080Y241462D02*
X513080Y245366D01*
X513080Y256462D02*
X513080Y339598D01*
X518160Y17654D02*
X518160Y-40771D01*
X518160Y23218D02*
X518160Y24694D01*
X518160Y39242D02*
X518160Y45404D01*
X518160Y53276D02*
X518160Y92330D01*
X518160Y106878D02*
X518160Y108354D01*
X518160Y113886D02*
X518160Y132850D01*
X518160Y183381D02*
X518160Y200160D01*
X518160Y211462D02*
X518160Y215366D01*
X518160Y226462D02*
X518160Y230366D01*
X518160Y241462D02*
X518160Y245366D01*
X518160Y256462D02*
X518160Y339598D01*
X523240Y17654D02*
X523240Y-35691D01*
X523240Y23218D02*
X523240Y24694D01*
X523240Y39242D02*
X523240Y43272D01*
X523240Y55408D02*
X523240Y92330D01*
X523240Y106878D02*
X523240Y108354D01*
X523240Y113918D02*
X523240Y123299D01*
X523240Y129485D02*
X523240Y137930D01*
X523240Y188461D02*
X523240Y200366D01*
X523240Y211462D02*
X523240Y215366D01*
X523240Y226462D02*
X523240Y230366D01*
X523240Y241462D02*
X523240Y245366D01*
X523240Y256462D02*
X523240Y339598D01*
X528320Y-3333D02*
X528320Y-30611D01*
X528320Y4177D02*
X528320Y6009D01*
X528320Y13011D02*
X528320Y17686D01*
X528320Y52407D02*
X528320Y55408D01*
X528320Y67544D02*
X528320Y79246D01*
X528320Y89607D02*
X528320Y92330D01*
X528320Y106878D02*
X528320Y108354D01*
X528320Y113918D02*
X528320Y120324D01*
X528320Y132460D02*
X528320Y143010D01*
X528320Y193541D02*
X528320Y200366D01*
X528320Y211462D02*
X528320Y215366D01*
X528320Y226462D02*
X528320Y230366D01*
X528320Y241462D02*
X528320Y245366D01*
X528320Y256462D02*
X528320Y339598D01*
X533400Y-5646D02*
X533400Y-25531D01*
X533400Y15578D02*
X533400Y15832D01*
X533400Y106878D02*
X533400Y108354D01*
X533400Y113918D02*
X533400Y117410D01*
X533400Y130302D02*
X533400Y145366D01*
X533400Y156415D02*
X533400Y156711D01*
X533400Y198621D02*
X533400Y200366D01*
X533400Y211462D02*
X533400Y215366D01*
X533400Y226462D02*
X533400Y230366D01*
X533400Y241462D02*
X533400Y245366D01*
X533400Y256462D02*
X533400Y339598D01*
X538480Y-2825D02*
X538480Y-20451D01*
X538480Y17377D02*
X538480Y17637D01*
X538480Y100664D02*
X538480Y113540D01*
X538480Y129766D02*
X538480Y145366D01*
X538480Y156415D02*
X538480Y160366D01*
X538480Y211462D02*
X538480Y215366D01*
X538480Y226462D02*
X538480Y230366D01*
X538480Y241462D02*
X538480Y245366D01*
X538480Y256462D02*
X538480Y339598D01*
X543560Y7934D02*
X543560Y-15371D01*
X543560Y81588D02*
X543560Y81588D01*
X543560Y99636D02*
X543560Y107934D01*
X543560Y111588D02*
X543560Y111588D01*
X543560Y130242D02*
X543560Y139760D01*
X543560Y143414D02*
X543560Y143414D01*
X543560Y158414D02*
X543560Y158414D01*
X543560Y213414D02*
X543560Y213414D01*
X543560Y226462D02*
X543560Y230366D01*
X543560Y243414D02*
X543560Y243414D01*
X543560Y258414D02*
X543560Y258414D01*
X543560Y262068D02*
X543560Y339598D01*
X548640Y6889D02*
X548640Y-10291D01*
X548640Y11588D02*
X548640Y11588D01*
X548640Y81588D02*
X548640Y81588D01*
X548640Y111588D02*
X548640Y111588D01*
X548640Y131287D02*
X548640Y138715D01*
X548640Y143414D02*
X548640Y143414D01*
X548640Y158414D02*
X548640Y158414D01*
X548640Y213414D02*
X548640Y213414D01*
X548640Y243414D02*
X548640Y243414D01*
X548640Y258414D02*
X548640Y258414D01*
X548640Y263113D02*
X548640Y339598D01*
X553720Y6889D02*
X553720Y-5211D01*
X553720Y11588D02*
X553720Y11588D01*
X553720Y81588D02*
X553720Y81588D01*
X553720Y111588D02*
X553720Y111588D01*
X553720Y131287D02*
X553720Y138715D01*
X553720Y143414D02*
X553720Y143414D01*
X553720Y158414D02*
X553720Y158414D01*
X553720Y213414D02*
X553720Y213414D01*
X553720Y243414D02*
X553720Y243414D01*
X553720Y258414D02*
X553720Y258414D01*
X553720Y263113D02*
X553720Y339598D01*
X558800Y6889D02*
X558800Y-131D01*
X558800Y11588D02*
X558800Y11588D01*
X558800Y26588D02*
X558800Y26588D01*
X558800Y56588D02*
X558800Y56588D01*
X558800Y81588D02*
X558800Y81588D01*
X558800Y111588D02*
X558800Y111588D01*
X558800Y126588D02*
X558800Y126588D01*
X558800Y131287D02*
X558800Y138715D01*
X558800Y143414D02*
X558800Y143414D01*
X558800Y158414D02*
X558800Y158414D01*
X558800Y188414D02*
X558800Y188414D01*
X558800Y213414D02*
X558800Y213414D01*
X558800Y243414D02*
X558800Y243414D01*
X558800Y258414D02*
X558800Y258414D01*
X558800Y263113D02*
X558800Y339598D01*
X563880Y7079D02*
X563880Y3048D01*
X563880Y11588D02*
X563880Y11588D01*
X563880Y26588D02*
X563880Y26588D01*
X563880Y56588D02*
X563880Y56588D01*
X563880Y81588D02*
X563880Y81588D01*
X563880Y111588D02*
X563880Y111588D01*
X563880Y126588D02*
X563880Y126588D01*
X563880Y131097D02*
X563880Y138905D01*
X563880Y143414D02*
X563880Y143414D01*
X563880Y158414D02*
X563880Y158414D01*
X563880Y188414D02*
X563880Y188414D01*
X563880Y213414D02*
X563880Y213414D01*
X563880Y243414D02*
X563880Y243414D01*
X563880Y258414D02*
X563880Y258414D01*
X563880Y262923D02*
X563880Y339598D01*
X568960Y35588D02*
X568960Y3048D01*
X568960Y47724D02*
X568960Y85372D01*
X568960Y111414D02*
X568960Y168430D01*
X568960Y180566D02*
X568960Y222278D01*
X568960Y234414D02*
X568960Y339598D01*
X574040Y38409D02*
X574040Y3048D01*
X574040Y44903D02*
X574040Y88193D01*
X574040Y94687D02*
X574040Y99182D01*
X574040Y111414D02*
X574040Y170997D01*
X574040Y177999D02*
X574040Y224845D01*
X574040Y231847D02*
X574040Y339598D01*
X579120Y99452D02*
X579120Y3048D01*
X579120Y111588D02*
X579120Y339598D01*
X584200Y339598D02*
X584200Y3048D01*
X589280Y3048D02*
X589280Y339598D01*
X594360Y339598D02*
X594360Y3048D01*
X599440Y25626D02*
X599440Y339598D01*
X604520Y120424D02*
X604520Y24075D01*
X604520Y132560D02*
X604520Y137442D01*
X604520Y149578D02*
X604520Y339598D01*
X609600Y6913D02*
X609600Y3048D01*
X609600Y15947D02*
X609600Y36631D01*
X609600Y46173D02*
X609600Y91495D01*
X609600Y101037D02*
X609600Y120959D01*
X609600Y132025D02*
X609600Y137977D01*
X609600Y149043D02*
X609600Y169219D01*
X609600Y178253D02*
X609600Y223829D01*
X609600Y233371D02*
X609600Y253801D01*
X609600Y263343D02*
X609600Y339598D01*
X614680Y5362D02*
X614680Y3048D01*
X614680Y17498D02*
X614680Y35334D01*
X614680Y47470D02*
X614680Y90198D01*
X614680Y102334D02*
X614680Y123540D01*
X614680Y129636D02*
X614680Y140366D01*
X614680Y146462D02*
X614680Y167668D01*
X614680Y179804D02*
X614680Y222532D01*
X614680Y234668D02*
X614680Y252504D01*
X614680Y264640D02*
X614680Y339598D01*
X619760Y7905D02*
X619760Y3048D01*
X619760Y26588D02*
X619760Y26588D01*
X619760Y56588D02*
X619760Y56588D01*
X619760Y81588D02*
X619760Y81588D01*
X619760Y111588D02*
X619760Y111588D01*
X619760Y130271D02*
X619760Y139731D01*
X619760Y158414D02*
X619760Y158414D01*
X619760Y188414D02*
X619760Y188414D01*
X619760Y213414D02*
X619760Y213414D01*
X619760Y243414D02*
X619760Y243414D01*
X619760Y262097D02*
X619760Y339598D01*
X624840Y7905D02*
X624840Y-133858D01*
X624840Y26588D02*
X624840Y26588D01*
X624840Y56588D02*
X624840Y56588D01*
X624840Y81588D02*
X624840Y81588D01*
X624840Y111588D02*
X624840Y111588D01*
X624840Y130271D02*
X624840Y139731D01*
X624840Y158414D02*
X624840Y158414D01*
X624840Y188414D02*
X624840Y188414D01*
X624840Y213414D02*
X624840Y213414D01*
X624840Y243414D02*
X624840Y243414D01*
X624840Y262097D02*
X624840Y339598D01*
X629920Y7905D02*
X629920Y-133858D01*
X629920Y26588D02*
X629920Y26588D01*
X629920Y56588D02*
X629920Y56588D01*
X629920Y81588D02*
X629920Y81588D01*
X629920Y111588D02*
X629920Y111588D01*
X629920Y130271D02*
X629920Y139731D01*
X629920Y158414D02*
X629920Y158414D01*
X629920Y188414D02*
X629920Y188414D01*
X629920Y213414D02*
X629920Y213414D01*
X629920Y262097D02*
X629920Y339598D01*
X635000Y7905D02*
X635000Y-133858D01*
X635000Y26588D02*
X635000Y26588D01*
X635000Y56588D02*
X635000Y56588D01*
X635000Y81588D02*
X635000Y81588D01*
X635000Y111588D02*
X635000Y111588D01*
X635000Y130271D02*
X635000Y139731D01*
X635000Y158414D02*
X635000Y158414D01*
X635000Y188414D02*
X635000Y188414D01*
X635000Y213414D02*
X635000Y213414D01*
X635000Y262097D02*
X635000Y339598D01*
X640080Y12778D02*
X640080Y-133858D01*
X640080Y22096D02*
X640080Y28540D01*
X640080Y53874D02*
X640080Y60064D01*
X640080Y77096D02*
X640080Y83286D01*
X640080Y108112D02*
X640080Y114300D01*
X640080Y133576D02*
X640080Y145292D01*
X640080Y156208D02*
X640080Y160112D01*
X640080Y186208D02*
X640080Y190246D01*
X640080Y211208D02*
X640080Y215112D01*
X640080Y255008D02*
X640080Y339598D01*
X645160Y12778D02*
X645160Y-133858D01*
X645160Y24377D02*
X645160Y28540D01*
X645160Y53874D02*
X645160Y60064D01*
X645160Y77096D02*
X645160Y83286D01*
X645160Y108112D02*
X645160Y114300D01*
X645160Y132533D02*
X645160Y145292D01*
X645160Y156208D02*
X645160Y160112D01*
X645160Y186208D02*
X645160Y190246D01*
X645160Y211208D02*
X645160Y213876D01*
X645160Y249928D02*
X645160Y339598D01*
X650240Y16525D02*
X650240Y-133858D01*
X650240Y54909D02*
X650240Y60064D01*
X650240Y77096D02*
X650240Y83286D01*
X650240Y108112D02*
X650240Y114300D01*
X650240Y124382D02*
X650240Y145292D01*
X650240Y156208D02*
X650240Y160112D01*
X650240Y186208D02*
X650240Y190000D01*
X650240Y244848D02*
X650240Y339598D01*
X655320Y21605D02*
X655320Y-133858D01*
X655320Y59989D02*
X655320Y60064D01*
X655320Y77231D02*
X655320Y83286D01*
X655320Y108112D02*
X655320Y114300D01*
X655320Y124382D02*
X655320Y145292D01*
X655320Y156208D02*
X655320Y160112D01*
X655320Y239768D02*
X655320Y339598D01*
X660400Y26685D02*
X660400Y-133858D01*
X660400Y82311D02*
X660400Y83286D01*
X660400Y108112D02*
X660400Y114300D01*
X660400Y124382D02*
X660400Y145292D01*
X660400Y156208D02*
X660400Y160112D01*
X660400Y234688D02*
X660400Y339598D01*
X665480Y31765D02*
X665480Y-133858D01*
X665480Y108112D02*
X665480Y114300D01*
X665480Y124382D02*
X665480Y145292D01*
X665480Y156208D02*
X665480Y157488D01*
X665480Y229608D02*
X665480Y339598D01*
X670560Y36845D02*
X670560Y-133858D01*
X670560Y110229D02*
X670560Y114300D01*
X670560Y124382D02*
X670560Y143271D01*
X670560Y224528D02*
X670560Y339598D01*
X675640Y41925D02*
X675640Y-133858D01*
X675640Y124453D02*
X675640Y138191D01*
X675640Y219448D02*
X675640Y339598D01*
X680720Y47005D02*
X680720Y-133858D01*
X680720Y129533D02*
X680720Y133111D01*
X680720Y214368D02*
X680720Y339598D01*
X685800Y49778D02*
X685800Y-133858D01*
X685800Y212350D02*
X685800Y339598D01*
X690880Y49778D02*
X690880Y-133858D01*
X690880Y212350D02*
X690880Y339598D01*
X695960Y49778D02*
X695960Y-133858D01*
X695960Y212350D02*
X695960Y339598D01*
X701040Y50701D02*
X701040Y-133858D01*
X701040Y211427D02*
X701040Y339598D01*
X706120Y339598D02*
X706120Y-133858D01*
X711200Y-133858D02*
X711200Y339598D01*
X716280Y23278D02*
X716280Y-133858D01*
X716280Y45850D02*
X716280Y216278D01*
X716280Y238850D02*
X716280Y339598D01*
X721360Y23278D02*
X721360Y-133858D01*
X721360Y45850D02*
X721360Y216278D01*
X721360Y238850D02*
X721360Y339598D01*
X726440Y23278D02*
X726440Y-133858D01*
X726440Y45850D02*
X726440Y216278D01*
X726440Y238850D02*
X726440Y339598D01*
X731520Y23278D02*
X731520Y-133858D01*
X731520Y45850D02*
X731520Y216278D01*
X731520Y238850D02*
X731520Y339598D01*
X736600Y23278D02*
X736600Y-133858D01*
X736600Y45850D02*
X736600Y216278D01*
X736600Y238850D02*
X736600Y339598D01*
X741680Y339598D02*
X741680Y-133858D01*
X113568Y212120D02*
X100318Y212120D01*
X113568Y212120D02*
X129540Y228092D01*
X129540Y243586D01*
X139114Y253160D02*
X149987Y253160D01*
X139114Y253160D02*
X129540Y243586D01*
X149940Y248113D02*
X149987Y248160D01*
X149940Y248113D02*
X141928Y248113D01*
X132588Y238773D01*
X132588Y226829D01*
X112879Y207120D01*
X100318Y207120D01*
X149940Y238113D02*
X149987Y238160D01*
X149940Y238113D02*
X141928Y238113D01*
X135763Y231948D01*
X135763Y225694D01*
X112189Y202120D01*
X100318Y202120D01*
X149940Y233113D02*
X149987Y233160D01*
X149940Y233113D02*
X141928Y233113D01*
X139319Y230504D01*
X139319Y224939D01*
X111500Y197120D01*
X100318Y197120D01*
X149940Y223113D02*
X149987Y223160D01*
X149940Y223113D02*
X141928Y223113D01*
X110935Y192120D02*
X100318Y192120D01*
X110935Y192120D02*
X141928Y223113D01*
X149940Y218113D02*
X149987Y218160D01*
X149940Y218113D02*
X141928Y218113D01*
X110935Y187120D02*
X100318Y187120D01*
X110935Y187120D02*
X141928Y218113D01*
X149987Y208160D02*
X149940Y208113D01*
X141928Y208113D01*
X115935Y182120D02*
X100318Y182120D01*
X115935Y182120D02*
X141928Y208113D01*
X149780Y203367D02*
X149987Y203160D01*
X149780Y203367D02*
X142182Y203367D01*
X115935Y177120D02*
X100318Y177120D01*
X115935Y177120D02*
X142182Y203367D01*
X149940Y198113D02*
X149987Y198160D01*
X149940Y198113D02*
X141928Y198113D01*
X115935Y172120D02*
X100318Y172120D01*
X115935Y172120D02*
X141928Y198113D01*
X149940Y193113D02*
X149987Y193160D01*
X149940Y193113D02*
X141928Y193113D01*
X115935Y167120D02*
X100318Y167120D01*
X115935Y167120D02*
X141928Y193113D01*
X149987Y183160D02*
X149940Y183113D01*
X141928Y183113D01*
X120935Y162120D02*
X100318Y162120D01*
X120935Y162120D02*
X141928Y183113D01*
X149940Y178113D02*
X149987Y178160D01*
X149940Y178113D02*
X141928Y178113D01*
X120935Y157120D02*
X100318Y157120D01*
X120935Y157120D02*
X141928Y178113D01*
X149987Y168160D02*
X149940Y168113D01*
X141928Y168113D01*
X125935Y152120D02*
X100318Y152120D01*
X125935Y152120D02*
X141928Y168113D01*
X149940Y163113D02*
X149987Y163160D01*
X149940Y163113D02*
X141928Y163113D01*
X125935Y147120D02*
X100318Y147120D01*
X125935Y147120D02*
X141928Y163113D01*
X149987Y153160D02*
X149940Y153113D01*
X141928Y153113D01*
X130935Y142120D02*
X100318Y142120D01*
X130935Y142120D02*
X141928Y153113D01*
X149940Y148113D02*
X149987Y148160D01*
X149940Y148113D02*
X141928Y148113D01*
X130935Y137120D02*
X100318Y137120D01*
X130935Y137120D02*
X141928Y148113D01*
X138762Y121334D02*
X149987Y121334D01*
X127976Y132120D02*
X100318Y132120D01*
X127976Y132120D02*
X138762Y121334D01*
X137920Y116334D02*
X149987Y116334D01*
X137920Y116334D02*
X127000Y127254D01*
X100452Y127254D01*
X100318Y127120D01*
X100318Y122120D02*
X120196Y122120D01*
X135982Y106334D02*
X149987Y106334D01*
X135982Y106334D02*
X120196Y122120D01*
X119862Y117120D02*
X100318Y117120D01*
X119862Y117120D02*
X135890Y101092D01*
X149745Y101092D01*
X149987Y101334D01*
X149987Y91334D02*
X138282Y91334D01*
X117496Y112120D02*
X100318Y112120D01*
X117496Y112120D02*
X138282Y91334D01*
X117670Y107120D02*
X100318Y107120D01*
X138456Y86334D02*
X149987Y86334D01*
X138456Y86334D02*
X117670Y107120D01*
X140836Y76334D02*
X149987Y76334D01*
X115050Y102120D02*
X100318Y102120D01*
X115050Y102120D02*
X140836Y76334D01*
X139232Y71334D02*
X149987Y71334D01*
X113446Y97120D02*
X100318Y97120D01*
X113446Y97120D02*
X139232Y71334D01*
X139152Y66334D02*
X149987Y66334D01*
X113366Y92120D02*
X100318Y92120D01*
X113366Y92120D02*
X139152Y66334D01*
X138564Y61334D02*
X149987Y61334D01*
X112778Y87120D02*
X100318Y87120D01*
X112778Y87120D02*
X138564Y61334D01*
X139166Y51334D02*
X149987Y51334D01*
X108380Y82120D02*
X100318Y82120D01*
X108380Y82120D02*
X139166Y51334D01*
X138324Y46334D02*
X149987Y46334D01*
X107538Y77120D02*
X100318Y77120D01*
X107538Y77120D02*
X138324Y46334D01*
X149479Y36842D02*
X149987Y36334D01*
X149479Y36842D02*
X138672Y36842D01*
X109104Y69821D02*
X108385Y70539D01*
X106805Y72120D01*
X100318Y72120D01*
X109104Y69821D02*
X134366Y44559D01*
X134366Y41148D01*
X138672Y36842D01*
X139862Y31334D02*
X149987Y31334D01*
X130810Y40386D02*
X130810Y42933D01*
X109358Y64385D01*
X130810Y40386D02*
X139862Y31334D01*
X109358Y64313D02*
X109358Y64385D01*
X106551Y67120D02*
X100318Y67120D01*
X106551Y67120D02*
X109358Y64313D01*
X139319Y27566D02*
X139319Y23990D01*
X141975Y21334D02*
X149987Y21334D01*
X141975Y21334D02*
X139319Y23990D01*
X127762Y39123D02*
X127762Y41671D01*
X108168Y61265D02*
X108095Y61265D01*
X107240Y62120D01*
X100318Y62120D01*
X127762Y39123D02*
X139319Y27566D01*
X127762Y41671D02*
X108168Y61265D01*
X141908Y16334D02*
X149987Y16334D01*
X136271Y21971D02*
X136271Y26304D01*
X124714Y37861D01*
X124714Y40408D01*
X108002Y57120D02*
X100318Y57120D01*
X136271Y21971D02*
X141908Y16334D01*
X124714Y40408D02*
X108002Y57120D01*
X682969Y53564D02*
X692670Y53564D01*
X645231Y15826D02*
X637159Y15826D01*
X636397Y16588D01*
X627761Y16588D01*
X645231Y15826D02*
X682969Y53564D01*
X683658Y58564D02*
X692670Y58564D01*
X644142Y19048D02*
X638429Y19048D01*
X635889Y21588D01*
X627761Y21588D01*
X644142Y19048D02*
X683658Y58564D01*
X681726Y63564D02*
X692670Y63564D01*
X649750Y31588D02*
X627761Y31588D01*
X649750Y31588D02*
X681726Y63564D01*
X680129Y68564D02*
X692670Y68564D01*
X646883Y35318D02*
X638683Y35318D01*
X637413Y36588D01*
X627761Y36588D01*
X646883Y35318D02*
X680129Y68564D01*
X692614Y73620D02*
X692670Y73564D01*
X692614Y73620D02*
X678335Y73620D01*
X638429Y46588D02*
X627761Y46588D01*
X638429Y46588D02*
X639445Y47604D01*
X652319Y47604D01*
X678335Y73620D01*
X692614Y78620D02*
X692670Y78564D01*
X692614Y78620D02*
X678262Y78620D01*
X650468Y50826D02*
X637159Y50826D01*
X636397Y51588D01*
X627761Y51588D01*
X650468Y50826D02*
X678262Y78620D01*
X692614Y83620D02*
X692670Y83564D01*
X692614Y83620D02*
X678951Y83620D01*
X658443Y63112D02*
X637667Y63112D01*
X636143Y61588D01*
X627761Y61588D01*
X658443Y63112D02*
X678951Y83620D01*
X692614Y88620D02*
X692670Y88564D01*
X692614Y88620D02*
X679641Y88620D01*
X657355Y66334D02*
X628015Y66334D01*
X627761Y66588D01*
X657355Y66334D02*
X679641Y88620D01*
X692614Y93620D02*
X692670Y93564D01*
X692614Y93620D02*
X680330Y93620D01*
X656520Y69810D02*
X637667Y69810D01*
X635889Y71588D01*
X627761Y71588D01*
X656520Y69810D02*
X680330Y93620D01*
X692614Y98620D02*
X692670Y98564D01*
X692614Y98620D02*
X681020Y98620D01*
X656448Y74048D02*
X638683Y74048D01*
X636143Y76588D01*
X627761Y76588D01*
X656448Y74048D02*
X681020Y98620D01*
X692614Y103620D02*
X692670Y103564D01*
X692614Y103620D02*
X681709Y103620D01*
X664423Y86334D02*
X628015Y86334D01*
X627761Y86588D01*
X664423Y86334D02*
X681709Y103620D01*
X682343Y108564D02*
X692670Y108564D01*
X682343Y108564D02*
X672065Y98286D01*
X671830Y98286D01*
X672065Y98286D02*
X663335Y89556D01*
X637921Y89556D01*
X635889Y91588D01*
X627761Y91588D01*
X683032Y113564D02*
X692670Y113564D01*
X628015Y101842D02*
X627761Y101588D01*
X628015Y101842D02*
X671310Y101842D01*
X683032Y113564D01*
X683206Y118564D02*
X692670Y118564D01*
X669706Y105064D02*
X638175Y105064D01*
X636651Y106588D01*
X627761Y106588D01*
X669706Y105064D02*
X683206Y118564D01*
X683634Y123564D02*
X692670Y123564D01*
X683634Y123564D02*
X677418Y117348D01*
X628521Y117348D02*
X627761Y116588D01*
X628521Y117348D02*
X677418Y117348D01*
X684062Y128564D02*
X692670Y128564D01*
X676832Y121334D02*
X628015Y121334D01*
X627761Y121588D01*
X676832Y121334D02*
X684062Y128564D01*
X684577Y133564D02*
X692670Y133564D01*
X684577Y133564D02*
X669802Y148340D01*
X627835Y148340D01*
X627761Y148414D01*
X683888Y138564D02*
X692670Y138564D01*
X669292Y153160D02*
X628015Y153160D01*
X627761Y153414D01*
X669292Y153160D02*
X683888Y138564D01*
X683714Y143564D02*
X692670Y143564D01*
X664118Y163160D02*
X628015Y163160D01*
X627761Y163414D01*
X664118Y163160D02*
X683714Y143564D01*
X683054Y148564D02*
X692670Y148564D01*
X683054Y148564D02*
X663332Y168286D01*
X627889Y168286D02*
X627761Y168414D01*
X627889Y168286D02*
X663332Y168286D01*
X682365Y153564D02*
X692670Y153564D01*
X682365Y153564D02*
X657105Y178823D01*
X628170Y178823D01*
X627761Y178414D01*
X681675Y158564D02*
X692670Y158564D01*
X657079Y183160D02*
X628015Y183160D01*
X627761Y183414D01*
X657079Y183160D02*
X681675Y158564D01*
X680986Y163564D02*
X692670Y163564D01*
X680986Y163564D02*
X651256Y193294D01*
X627881Y193294D01*
X627761Y193414D01*
X680558Y168564D02*
X692670Y168564D01*
X680558Y168564D02*
X650494Y198628D01*
X627975Y198628D01*
X627761Y198414D01*
X680130Y173564D02*
X692670Y173564D01*
X680130Y173564D02*
X650494Y203200D01*
X650494Y203414D01*
X627761Y203414D01*
X680471Y178564D02*
X692670Y178564D01*
X650875Y208160D02*
X628015Y208160D01*
X627761Y208414D01*
X650875Y208160D02*
X680471Y178564D01*
X679782Y183564D02*
X692670Y183564D01*
X645186Y218160D02*
X628015Y218160D01*
X627761Y218414D01*
X645186Y218160D02*
X679782Y183564D01*
X680885Y188564D02*
X692670Y188564D01*
X646289Y223160D02*
X628015Y223160D01*
X627761Y223414D01*
X646289Y223160D02*
X680885Y188564D01*
X680196Y193564D02*
X692670Y193564D01*
X640346Y233414D02*
X627761Y233414D01*
X640346Y233414D02*
X680196Y193564D01*
X680784Y198564D02*
X692670Y198564D01*
X640934Y238414D02*
X627761Y238414D01*
X640934Y238414D02*
X680784Y198564D01*
X681118Y203564D02*
X692670Y203564D01*
X636268Y248414D02*
X627761Y248414D01*
X636268Y248414D02*
X681118Y203564D01*
X682214Y208564D02*
X692670Y208564D01*
X637364Y253414D02*
X627761Y253414D01*
X637364Y253414D02*
X682214Y208564D01*
D19*
X533146Y422D03*
D17*
X540385Y7661D02*
X540385Y10630D01*
X540385Y7661D02*
X533146Y422D01*
X546343Y16588D02*
X554355Y16588D01*
X546343Y16588D02*
X540385Y10630D01*
X534924Y9510D02*
X533400Y9510D01*
D19*
X533400Y9510D03*
D17*
X543560Y20574D02*
X544574Y21588D01*
X543560Y18146D02*
X534924Y9510D01*
X544574Y21588D02*
X554355Y21588D01*
X543560Y20574D02*
X543560Y18146D01*
X543850Y31588D02*
X554355Y31588D01*
X543850Y31588D02*
X534162Y21900D01*
D19*
X534162Y21900D03*
D17*
X540016Y36588D02*
X554355Y36588D01*
X540016Y36588D02*
X534416Y30988D01*
D19*
X534416Y30988D03*
X533608Y43226D03*
D17*
X541282Y46588D02*
X554355Y46588D01*
X541282Y46588D02*
X540986Y46292D01*
X536674Y46292D01*
X533608Y43226D01*
D19*
X522806Y49340D03*
D17*
X541972Y51588D02*
X554355Y51588D01*
X541972Y51588D02*
X539724Y49340D01*
X522806Y49340D01*
D19*
X537210Y55408D03*
D17*
X543892Y61588D02*
X554355Y61588D01*
X543892Y61588D02*
X540732Y58428D01*
X540230Y58428D01*
X537210Y55408D01*
D19*
X530172Y61476D03*
D17*
X544582Y66588D02*
X554355Y66588D01*
X544582Y66588D02*
X539470Y61476D01*
X530172Y61476D01*
X541000Y71588D02*
X554355Y71588D01*
X541000Y71588D02*
X536956Y67544D01*
D19*
X536956Y67544D03*
D17*
X536822Y76588D02*
X554355Y76588D01*
X536822Y76588D02*
X536778Y76632D01*
D19*
X536778Y76632D03*
X531721Y84427D03*
D17*
X543130Y86588D02*
X554355Y86588D01*
X543130Y86588D02*
X540994Y84452D01*
X531746Y84452D02*
X531721Y84427D01*
X531746Y84452D02*
X540994Y84452D01*
X539548Y91588D02*
X554355Y91588D01*
X539548Y91588D02*
X538480Y90520D01*
D19*
X538480Y90520D03*
X641604Y127508D03*
D17*
X627919Y126746D02*
X627761Y126588D01*
X627919Y126746D02*
X640842Y126746D01*
X641604Y127508D01*
X531368Y97616D02*
X521716Y97616D01*
X539174Y96588D02*
X554355Y96588D01*
X538146Y97616D02*
X531368Y97616D01*
X538146Y97616D02*
X539174Y96588D01*
X540698Y41588D02*
X554355Y41588D01*
X540698Y41588D02*
X536194Y37084D01*
X527892Y37084D02*
X524764Y33956D01*
X527892Y37084D02*
X536194Y37084D01*
X524764Y33956D02*
X514858Y33956D01*
X232732Y228160D02*
X223393Y228160D01*
X235284Y230712D02*
X237490Y230712D01*
X235284Y230712D02*
X232732Y228160D01*
X238506Y170608D02*
X248412Y170608D01*
X554355Y173414D02*
X568960Y173414D01*
X568960Y174498D01*
D19*
X568960Y174498D03*
X568960Y228346D03*
D17*
X568892Y228414D01*
X554355Y228414D01*
D19*
X208788Y96520D03*
D17*
X209804Y96520D01*
X210058Y96266D01*
X223325Y96266D01*
X223393Y96334D01*
D19*
X208788Y41402D03*
D17*
X223325Y41402D01*
X223393Y41334D01*
X234327Y170608D02*
X231775Y173160D01*
X223393Y173160D01*
X234327Y170608D02*
X238506Y170608D01*
X237490Y230712D02*
X247142Y230712D01*
X223393Y173160D02*
X195326Y173160D01*
X195326Y180340D01*
D19*
X195326Y180340D03*
D17*
X215206Y228160D02*
X223393Y228160D01*
X215206Y228160D02*
X206502Y219456D01*
D19*
X206502Y219456D03*
D17*
X164846Y11334D02*
X149987Y11334D01*
X164846Y11334D02*
X164846Y11430D01*
D19*
X164846Y11430D03*
D17*
X164338Y258160D02*
X149987Y258160D01*
X164338Y258160D02*
X164338Y257810D01*
D19*
X164338Y257810D03*
D17*
X149987Y143160D02*
X179578Y143160D01*
X179578Y143510D01*
D19*
X179578Y143510D03*
D17*
X179482Y126334D02*
X179578Y126238D01*
X179482Y126334D02*
X149987Y126334D01*
D19*
X179578Y126238D03*
D17*
X554355Y41588D02*
X568706Y41588D01*
X568706Y41656D01*
D19*
X568706Y41656D03*
X568706Y91440D03*
D17*
X563558Y96588D02*
X554355Y96588D01*
X563558Y96588D02*
X568706Y91440D01*
X606552Y143414D02*
X627761Y143414D01*
X606552Y143414D02*
X606552Y143510D01*
D19*
X606552Y143510D03*
D17*
X613410Y258414D02*
X627761Y258414D01*
X613410Y258414D02*
X613410Y258572D01*
D19*
X613410Y258572D03*
D17*
X606552Y126588D02*
X627761Y126588D01*
X606552Y126588D02*
X606552Y126492D01*
D19*
X606552Y126492D03*
D17*
X613664Y11588D02*
X627761Y11588D01*
X613664Y11588D02*
X613664Y11430D01*
D19*
X613664Y11430D03*
X213360Y327914D03*
D17*
X215392Y325882D01*
D19*
X203200Y317754D03*
D17*
X206756Y314960D01*
D19*
X196850Y304038D03*
D17*
X199390Y300990D01*
X554355Y101588D02*
X567865Y101588D01*
X568297Y102020D01*
D19*
X568297Y102020D03*
D17*
X574496Y108366D02*
X577342Y105520D01*
X574496Y108366D02*
X565531Y108366D01*
X563753Y106588D01*
X554355Y106588D01*
D19*
X577342Y105520D03*
X528728Y126392D03*
D17*
X538533Y116588D01*
X554355Y116588D01*
X554355Y121588D02*
X542114Y121588D01*
X540004Y123698D01*
D19*
X540004Y123698D03*
X641858Y95758D03*
D17*
X641858Y96588D02*
X627761Y96588D01*
X641858Y96588D02*
X641858Y95758D01*
D19*
X641604Y41402D03*
D17*
X641418Y41588D02*
X627761Y41588D01*
X641418Y41588D02*
X641604Y41402D01*
D19*
X613664Y173736D03*
D17*
X627439Y173736D01*
X627761Y173414D01*
D19*
X613410Y228600D03*
D17*
X627575Y228600D01*
X627761Y228414D01*
D19*
X164338Y96012D03*
D17*
X150309Y96012D01*
X149987Y96334D01*
D19*
X164592Y41402D03*
D17*
X150055Y41402D01*
X149987Y41334D01*
D19*
X164592Y172974D03*
D17*
X164338Y173228D02*
X150055Y173228D01*
X149987Y173160D01*
X164338Y173228D02*
X164592Y172974D01*
D19*
X164338Y228092D03*
D17*
X150055Y228092D01*
X149987Y228160D01*
X613410Y41588D02*
X627761Y41588D01*
X613410Y41588D02*
X613410Y41402D01*
D19*
X613410Y41402D03*
X613410Y96266D03*
D17*
X613410Y96588D01*
X627761Y96588D01*
D19*
X172720Y19050D03*
D18*
X176911Y9779D02*
X203962Y-17272D01*
X243713Y-57023D02*
X319532Y-132842D01*
X466598Y-132842D01*
X600456Y1016D01*
X600456Y2540D01*
D19*
X600456Y19558D03*
D20*
X243713Y-57023D02*
X176911Y9779D01*
X243713Y-57023D02*
X318770Y-132080D01*
X467360Y-132080D02*
X600456Y1016D01*
X467360Y-132080D02*
X318770Y-132080D01*
X600456Y2540D02*
X600456Y19558D01*
X176911Y9779D02*
X172720Y13970D01*
X172720Y19050D01*
X203962Y-17272D02*
X204216Y-17526D01*
X204216Y-56642D01*
X204597Y-57023D01*
X243713Y-57023D01*
D17*
X477852Y253414D02*
X433578Y297688D01*
X477852Y253414D02*
X554355Y253414D01*
X457452Y248414D02*
X433578Y272288D01*
X457452Y248414D02*
X554355Y248414D01*
X442052Y238414D02*
X433578Y246888D01*
X442052Y238414D02*
X554355Y238414D01*
X445504Y233414D02*
X433578Y221488D01*
X445504Y233414D02*
X554355Y233414D01*
X460904Y223414D02*
X433578Y196088D01*
X460904Y223414D02*
X554355Y223414D01*
X481304Y218414D02*
X433578Y170688D01*
X481304Y218414D02*
X554355Y218414D01*
X496704Y208414D02*
X433578Y145288D01*
X496704Y208414D02*
X554355Y208414D01*
X517104Y203414D02*
X433578Y119888D01*
X517104Y203414D02*
X554355Y203414D01*
X537504Y198414D02*
X433578Y94488D01*
X537504Y198414D02*
X554355Y198414D01*
X442468Y77978D02*
X433578Y69088D01*
X442468Y77978D02*
X442468Y88392D01*
X543560Y189484D01*
X554308Y193367D02*
X554355Y193414D01*
X554308Y193367D02*
X546296Y193367D01*
X543560Y190631D01*
X543560Y189484D01*
X445516Y55626D02*
X433578Y43688D01*
X445516Y55626D02*
X445516Y86069D01*
X554308Y183367D02*
X554355Y183414D01*
X542814Y183367D02*
X445516Y86069D01*
X542814Y183367D02*
X554308Y183367D01*
X448564Y33274D02*
X433578Y18288D01*
X448564Y33274D02*
X448564Y84806D01*
X554308Y178367D02*
X554355Y178414D01*
X542125Y178367D02*
X448564Y84806D01*
X542125Y178367D02*
X554308Y178367D01*
X451612Y10922D02*
X433578Y-7112D01*
X554308Y168367D02*
X554355Y168414D01*
X536435Y168367D02*
X451612Y83544D01*
X536435Y168367D02*
X554308Y168367D01*
X451612Y83544D02*
X451612Y10922D01*
X454660Y-11430D02*
X433578Y-32512D01*
X454660Y82281D02*
X535793Y163414D01*
X554355Y163414D01*
X454660Y82281D02*
X454660Y-11430D01*
X457708Y-33782D02*
X433578Y-57912D01*
X554308Y153367D02*
X554355Y153414D01*
X530056Y153367D02*
X457708Y81019D01*
X530056Y153367D02*
X554308Y153367D01*
X457708Y81019D02*
X457708Y-33782D01*
X460756Y-56134D02*
X433578Y-83312D01*
X529414Y148414D02*
X554355Y148414D01*
X460756Y79756D02*
X460756Y-56134D01*
X460756Y79756D02*
X529414Y148414D01*
X334518Y297180D02*
X297434Y260096D01*
X297434Y166878D02*
X250952Y120396D01*
X224331Y120396D01*
X223393Y121334D01*
X297434Y166878D02*
X297434Y260096D01*
X300736Y237998D02*
X334518Y271780D01*
X300736Y237998D02*
X300736Y164846D01*
X252224Y116334D01*
X223393Y116334D01*
X304800Y216662D02*
X334518Y246380D01*
X248320Y106334D02*
X223393Y106334D01*
X304800Y162814D02*
X304800Y216662D01*
X304800Y162814D02*
X248320Y106334D01*
X311404Y197866D02*
X334518Y220980D01*
X311404Y197866D02*
X311404Y162814D01*
X249924Y101334D01*
X223393Y101334D01*
X317246Y178308D02*
X334518Y195580D01*
X317246Y178308D02*
X317246Y159258D01*
X249322Y91334D01*
X223393Y91334D01*
X250672Y86334D02*
X334518Y170180D01*
X250672Y86334D02*
X223393Y86334D01*
X266072Y76334D02*
X334518Y144780D01*
X266072Y76334D02*
X223393Y76334D01*
X286472Y71334D02*
X334518Y119380D01*
X286472Y71334D02*
X223393Y71334D01*
X306872Y66334D02*
X334518Y93980D01*
X306872Y66334D02*
X223393Y66334D01*
X327272Y61334D02*
X334518Y68580D01*
X327272Y61334D02*
X223393Y61334D01*
X326364Y51334D02*
X334518Y43180D01*
X326364Y51334D02*
X223393Y51334D01*
X305964Y46334D02*
X334518Y17780D01*
X305964Y46334D02*
X223393Y46334D01*
X290564Y36334D02*
X334518Y-7620D01*
X290564Y36334D02*
X223393Y36334D01*
X270164Y31334D02*
X334518Y-33020D01*
X270164Y31334D02*
X223393Y31334D01*
X254764Y21334D02*
X334518Y-58420D01*
X254764Y21334D02*
X223393Y21334D01*
X234364Y16334D02*
X334518Y-83820D01*
X234364Y16334D02*
X223393Y16334D01*
D19*
X249936Y144780D03*
D17*
X236197Y148160D02*
X223393Y148160D01*
X236197Y148160D02*
X239041Y145316D01*
X249400Y145316D02*
X249936Y144780D01*
X249400Y145316D02*
X239041Y145316D01*
X239778Y153160D02*
X223393Y153160D01*
X239778Y153160D02*
X241554Y151384D01*
D19*
X241554Y151384D03*
D17*
X223393Y163160D02*
X209804Y163160D01*
X209804Y163108D01*
X208788Y162092D01*
D19*
X208788Y162092D03*
D17*
X223139Y168414D02*
X223393Y168160D01*
X223139Y168414D02*
X201942Y168414D01*
X200406Y166878D01*
D19*
X200406Y166878D03*
D17*
X211476Y178160D02*
X223393Y178160D01*
X211476Y178160D02*
X207772Y181864D01*
D19*
X207772Y181864D03*
D17*
X223393Y183160D02*
X224366Y182187D01*
X238575Y182187D01*
D19*
X238575Y182187D03*
D17*
X236183Y193160D02*
X223393Y193160D01*
X236183Y193160D02*
X237573Y191770D01*
D19*
X237573Y191770D03*
D17*
X241823Y198160D02*
X223393Y198160D01*
X241823Y198160D02*
X246661Y193321D01*
D19*
X246661Y193321D03*
D17*
X245324Y203160D02*
X223393Y203160D01*
X245324Y203160D02*
X245364Y203200D01*
D19*
X245364Y203200D03*
D17*
X236862Y208160D02*
X223393Y208160D01*
X236862Y208160D02*
X240538Y211836D01*
D19*
X240538Y211836D03*
X284480Y207264D03*
D17*
X273584Y218160D01*
X223393Y218160D01*
D19*
X284480Y222504D03*
D17*
X224049Y222504D01*
X223393Y223160D01*
D19*
X201422Y228600D03*
D17*
X212532Y233160D02*
X223393Y233160D01*
X207972Y228600D02*
X201422Y228600D01*
X207972Y228600D02*
X212532Y233160D01*
X208696Y238160D02*
X223393Y238160D01*
X208696Y238160D02*
X207518Y236982D01*
D19*
X207518Y236982D03*
D17*
X223393Y248160D02*
X242036Y248160D01*
X246126Y252250D01*
D19*
X246126Y252250D03*
X238252Y258318D03*
D17*
X224710Y254477D02*
X223393Y253160D01*
X224710Y254477D02*
X232722Y254477D01*
X236563Y258318D02*
X238252Y258318D01*
X236563Y258318D02*
X232722Y254477D01*
M02*
