G04 EAGLE Gerber RS-274X export*
G75*
%MOMM*%
%FSLAX34Y34*%
%LPD*%
%INSilkscreen Top*%
%IPPOS*%
%AMOC8*
5,1,8,0,0,1.08239X$1,22.5*%
G01*
%ADD10C,0.152400*%
%ADD11C,0.127000*%
%ADD12C,0.203200*%
%ADD13C,0.101600*%
%ADD14C,0.076200*%

G36*
X747295Y50558D02*
X747295Y50558D01*
X747303Y50558D01*
X747354Y50573D01*
X747561Y50627D01*
X747594Y50647D01*
X747624Y50656D01*
X751624Y52656D01*
X751706Y52713D01*
X751793Y52762D01*
X751823Y52793D01*
X751858Y52817D01*
X751921Y52895D01*
X751991Y52966D01*
X752011Y53004D01*
X752038Y53037D01*
X752077Y53129D01*
X752124Y53217D01*
X752133Y53259D01*
X752150Y53299D01*
X752162Y53398D01*
X752183Y53495D01*
X752180Y53538D01*
X752185Y53581D01*
X752170Y53679D01*
X752162Y53779D01*
X752147Y53819D01*
X752141Y53862D01*
X752098Y53952D01*
X752064Y54045D01*
X752038Y54080D01*
X752020Y54119D01*
X751954Y54194D01*
X751895Y54274D01*
X751864Y54297D01*
X751833Y54333D01*
X751700Y54418D01*
X751693Y54425D01*
X751679Y54432D01*
X751624Y54472D01*
X747624Y56472D01*
X747616Y56475D01*
X747609Y56480D01*
X747481Y56520D01*
X747354Y56562D01*
X747346Y56563D01*
X747338Y56565D01*
X747203Y56569D01*
X747070Y56574D01*
X747062Y56572D01*
X747054Y56573D01*
X746924Y56539D01*
X746794Y56507D01*
X746787Y56503D01*
X746779Y56501D01*
X746664Y56433D01*
X746547Y56366D01*
X746542Y56360D01*
X746534Y56356D01*
X746442Y56258D01*
X746350Y56162D01*
X746346Y56154D01*
X746340Y56148D01*
X746279Y56029D01*
X746216Y55911D01*
X746214Y55903D01*
X746210Y55895D01*
X746202Y55843D01*
X746157Y55633D01*
X746160Y55595D01*
X746155Y55564D01*
X746155Y51564D01*
X746156Y51556D01*
X746155Y51547D01*
X746176Y51415D01*
X746195Y51283D01*
X746198Y51275D01*
X746199Y51266D01*
X746256Y51145D01*
X746311Y51023D01*
X746316Y51017D01*
X746320Y51009D01*
X746408Y50908D01*
X746495Y50806D01*
X746502Y50801D01*
X746507Y50795D01*
X746620Y50723D01*
X746731Y50649D01*
X746739Y50646D01*
X746746Y50641D01*
X746875Y50603D01*
X747002Y50563D01*
X747011Y50563D01*
X747019Y50560D01*
X747153Y50559D01*
X747286Y50555D01*
X747295Y50558D01*
G37*
G36*
X45926Y209112D02*
X45926Y209112D01*
X45934Y209111D01*
X46064Y209145D01*
X46194Y209177D01*
X46201Y209181D01*
X46209Y209183D01*
X46324Y209251D01*
X46441Y209318D01*
X46447Y209324D01*
X46454Y209329D01*
X46546Y209426D01*
X46639Y209522D01*
X46642Y209530D01*
X46648Y209536D01*
X46709Y209655D01*
X46772Y209773D01*
X46774Y209781D01*
X46778Y209789D01*
X46786Y209841D01*
X46831Y210051D01*
X46828Y210089D01*
X46833Y210120D01*
X46833Y214120D01*
X46832Y214128D01*
X46833Y214137D01*
X46812Y214269D01*
X46793Y214402D01*
X46790Y214409D01*
X46789Y214418D01*
X46732Y214539D01*
X46677Y214661D01*
X46672Y214667D01*
X46668Y214675D01*
X46580Y214776D01*
X46494Y214878D01*
X46486Y214883D01*
X46481Y214889D01*
X46368Y214961D01*
X46257Y215036D01*
X46249Y215038D01*
X46242Y215043D01*
X46113Y215081D01*
X45986Y215121D01*
X45977Y215122D01*
X45969Y215124D01*
X45835Y215125D01*
X45702Y215129D01*
X45693Y215126D01*
X45685Y215127D01*
X45634Y215111D01*
X45427Y215057D01*
X45394Y215037D01*
X45364Y215028D01*
X41364Y213028D01*
X41282Y212971D01*
X41195Y212922D01*
X41165Y212891D01*
X41130Y212867D01*
X41067Y212789D01*
X40998Y212718D01*
X40977Y212680D01*
X40950Y212647D01*
X40911Y212555D01*
X40864Y212467D01*
X40855Y212425D01*
X40838Y212385D01*
X40826Y212286D01*
X40805Y212189D01*
X40808Y212146D01*
X40803Y212103D01*
X40819Y212005D01*
X40826Y211905D01*
X40841Y211865D01*
X40847Y211822D01*
X40890Y211732D01*
X40924Y211639D01*
X40950Y211604D01*
X40968Y211565D01*
X41034Y211490D01*
X41093Y211410D01*
X41124Y211387D01*
X41155Y211351D01*
X41307Y211254D01*
X41364Y211212D01*
X45364Y209212D01*
X45372Y209209D01*
X45379Y209205D01*
X45507Y209164D01*
X45634Y209122D01*
X45642Y209121D01*
X45650Y209119D01*
X45785Y209115D01*
X45918Y209110D01*
X45926Y209112D01*
G37*
G36*
X641225Y236384D02*
X641225Y236384D01*
X641227Y236383D01*
X641270Y236403D01*
X641314Y236421D01*
X641314Y236423D01*
X641316Y236424D01*
X641349Y236509D01*
X641349Y240319D01*
X641348Y240321D01*
X641349Y240323D01*
X641329Y240366D01*
X641311Y240410D01*
X641309Y240410D01*
X641308Y240412D01*
X641223Y240445D01*
X638683Y240445D01*
X638681Y240444D01*
X638679Y240445D01*
X638636Y240425D01*
X638592Y240407D01*
X638592Y240405D01*
X638590Y240404D01*
X638557Y240319D01*
X638557Y236509D01*
X638558Y236507D01*
X638557Y236505D01*
X638577Y236462D01*
X638595Y236418D01*
X638597Y236418D01*
X638598Y236416D01*
X638683Y236383D01*
X641223Y236383D01*
X641225Y236384D01*
G37*
G36*
X543435Y231384D02*
X543435Y231384D01*
X543437Y231383D01*
X543480Y231403D01*
X543524Y231421D01*
X543524Y231423D01*
X543526Y231424D01*
X543559Y231509D01*
X543559Y235319D01*
X543558Y235321D01*
X543559Y235323D01*
X543539Y235366D01*
X543521Y235410D01*
X543519Y235410D01*
X543518Y235412D01*
X543433Y235445D01*
X540893Y235445D01*
X540891Y235444D01*
X540889Y235445D01*
X540846Y235425D01*
X540802Y235407D01*
X540802Y235405D01*
X540800Y235404D01*
X540767Y235319D01*
X540767Y231509D01*
X540768Y231507D01*
X540767Y231505D01*
X540787Y231462D01*
X540805Y231418D01*
X540807Y231418D01*
X540808Y231416D01*
X540893Y231383D01*
X543433Y231383D01*
X543435Y231384D01*
G37*
G36*
X236857Y216130D02*
X236857Y216130D01*
X236859Y216129D01*
X236902Y216149D01*
X236946Y216167D01*
X236946Y216169D01*
X236948Y216170D01*
X236981Y216255D01*
X236981Y220065D01*
X236980Y220067D01*
X236981Y220069D01*
X236961Y220112D01*
X236943Y220156D01*
X236941Y220157D01*
X236940Y220158D01*
X236855Y220191D01*
X234315Y220191D01*
X234313Y220190D01*
X234311Y220191D01*
X234268Y220171D01*
X234224Y220153D01*
X234224Y220151D01*
X234222Y220150D01*
X234189Y220065D01*
X234189Y216255D01*
X234190Y216253D01*
X234189Y216251D01*
X234209Y216208D01*
X234227Y216164D01*
X234229Y216164D01*
X234230Y216162D01*
X234315Y216129D01*
X236855Y216129D01*
X236857Y216130D01*
G37*
G36*
X139067Y211130D02*
X139067Y211130D01*
X139069Y211129D01*
X139112Y211149D01*
X139156Y211167D01*
X139156Y211169D01*
X139158Y211170D01*
X139191Y211255D01*
X139191Y215065D01*
X139190Y215067D01*
X139191Y215069D01*
X139171Y215112D01*
X139153Y215156D01*
X139151Y215156D01*
X139150Y215158D01*
X139065Y215191D01*
X136525Y215191D01*
X136523Y215190D01*
X136521Y215191D01*
X136478Y215171D01*
X136434Y215153D01*
X136434Y215151D01*
X136432Y215150D01*
X136399Y215065D01*
X136399Y211255D01*
X136400Y211253D01*
X136399Y211251D01*
X136419Y211208D01*
X136437Y211164D01*
X136439Y211164D01*
X136440Y211162D01*
X136525Y211129D01*
X139065Y211129D01*
X139067Y211130D01*
G37*
G36*
X641225Y186384D02*
X641225Y186384D01*
X641227Y186383D01*
X641270Y186403D01*
X641314Y186421D01*
X641314Y186423D01*
X641316Y186424D01*
X641349Y186509D01*
X641349Y190319D01*
X641348Y190321D01*
X641349Y190323D01*
X641329Y190366D01*
X641311Y190410D01*
X641309Y190410D01*
X641308Y190412D01*
X641223Y190445D01*
X638683Y190445D01*
X638681Y190444D01*
X638679Y190445D01*
X638636Y190425D01*
X638592Y190407D01*
X638592Y190405D01*
X638590Y190404D01*
X638557Y190319D01*
X638557Y186509D01*
X638558Y186507D01*
X638557Y186505D01*
X638577Y186462D01*
X638595Y186418D01*
X638597Y186418D01*
X638598Y186416D01*
X638683Y186383D01*
X641223Y186383D01*
X641225Y186384D01*
G37*
G36*
X543435Y181384D02*
X543435Y181384D01*
X543437Y181383D01*
X543480Y181403D01*
X543524Y181421D01*
X543524Y181423D01*
X543526Y181424D01*
X543559Y181509D01*
X543559Y185319D01*
X543558Y185321D01*
X543559Y185323D01*
X543539Y185366D01*
X543521Y185410D01*
X543519Y185410D01*
X543518Y185412D01*
X543433Y185445D01*
X540893Y185445D01*
X540891Y185444D01*
X540889Y185445D01*
X540846Y185425D01*
X540802Y185407D01*
X540802Y185405D01*
X540800Y185404D01*
X540767Y185319D01*
X540767Y181509D01*
X540768Y181507D01*
X540767Y181505D01*
X540787Y181462D01*
X540805Y181418D01*
X540807Y181418D01*
X540808Y181416D01*
X540893Y181383D01*
X543433Y181383D01*
X543435Y181384D01*
G37*
G36*
X236857Y166130D02*
X236857Y166130D01*
X236859Y166129D01*
X236902Y166149D01*
X236946Y166167D01*
X236946Y166169D01*
X236948Y166170D01*
X236981Y166255D01*
X236981Y170065D01*
X236980Y170067D01*
X236981Y170069D01*
X236961Y170112D01*
X236943Y170156D01*
X236941Y170156D01*
X236940Y170158D01*
X236855Y170191D01*
X234315Y170191D01*
X234313Y170190D01*
X234311Y170191D01*
X234268Y170171D01*
X234224Y170153D01*
X234224Y170151D01*
X234222Y170150D01*
X234189Y170065D01*
X234189Y166255D01*
X234190Y166253D01*
X234189Y166251D01*
X234209Y166208D01*
X234227Y166164D01*
X234229Y166164D01*
X234230Y166162D01*
X234315Y166129D01*
X236855Y166129D01*
X236857Y166130D01*
G37*
G36*
X139067Y161130D02*
X139067Y161130D01*
X139069Y161129D01*
X139112Y161149D01*
X139156Y161167D01*
X139156Y161169D01*
X139158Y161170D01*
X139191Y161255D01*
X139191Y165065D01*
X139190Y165067D01*
X139191Y165069D01*
X139171Y165112D01*
X139153Y165156D01*
X139151Y165156D01*
X139150Y165158D01*
X139065Y165191D01*
X136525Y165191D01*
X136523Y165190D01*
X136521Y165191D01*
X136478Y165171D01*
X136434Y165153D01*
X136434Y165151D01*
X136432Y165150D01*
X136399Y165065D01*
X136399Y161255D01*
X136400Y161253D01*
X136399Y161251D01*
X136419Y161208D01*
X136437Y161164D01*
X136439Y161164D01*
X136440Y161162D01*
X136525Y161129D01*
X139065Y161129D01*
X139067Y161130D01*
G37*
G36*
X641225Y104558D02*
X641225Y104558D01*
X641227Y104557D01*
X641270Y104577D01*
X641314Y104595D01*
X641314Y104597D01*
X641316Y104598D01*
X641349Y104683D01*
X641349Y108493D01*
X641348Y108495D01*
X641349Y108497D01*
X641329Y108540D01*
X641311Y108584D01*
X641309Y108584D01*
X641308Y108586D01*
X641223Y108619D01*
X638683Y108619D01*
X638681Y108618D01*
X638679Y108619D01*
X638636Y108599D01*
X638592Y108581D01*
X638592Y108579D01*
X638590Y108578D01*
X638557Y108493D01*
X638557Y104683D01*
X638558Y104681D01*
X638557Y104679D01*
X638577Y104636D01*
X638595Y104592D01*
X638597Y104592D01*
X638598Y104590D01*
X638683Y104557D01*
X641223Y104557D01*
X641225Y104558D01*
G37*
G36*
X543435Y99558D02*
X543435Y99558D01*
X543437Y99557D01*
X543480Y99577D01*
X543524Y99595D01*
X543524Y99597D01*
X543526Y99598D01*
X543559Y99683D01*
X543559Y103493D01*
X543558Y103495D01*
X543559Y103497D01*
X543539Y103540D01*
X543521Y103584D01*
X543519Y103584D01*
X543518Y103586D01*
X543433Y103619D01*
X540893Y103619D01*
X540891Y103618D01*
X540889Y103619D01*
X540846Y103599D01*
X540802Y103581D01*
X540802Y103579D01*
X540800Y103578D01*
X540767Y103493D01*
X540767Y99683D01*
X540768Y99681D01*
X540767Y99679D01*
X540787Y99636D01*
X540805Y99592D01*
X540807Y99592D01*
X540808Y99590D01*
X540893Y99557D01*
X543433Y99557D01*
X543435Y99558D01*
G37*
G36*
X236857Y84304D02*
X236857Y84304D01*
X236859Y84303D01*
X236902Y84323D01*
X236946Y84341D01*
X236946Y84343D01*
X236948Y84344D01*
X236981Y84429D01*
X236981Y88239D01*
X236980Y88241D01*
X236981Y88243D01*
X236961Y88286D01*
X236943Y88330D01*
X236941Y88331D01*
X236940Y88332D01*
X236855Y88365D01*
X234315Y88365D01*
X234313Y88364D01*
X234311Y88365D01*
X234268Y88345D01*
X234224Y88327D01*
X234224Y88325D01*
X234222Y88324D01*
X234189Y88239D01*
X234189Y84429D01*
X234190Y84427D01*
X234189Y84425D01*
X234209Y84382D01*
X234227Y84338D01*
X234229Y84338D01*
X234230Y84336D01*
X234315Y84303D01*
X236855Y84303D01*
X236857Y84304D01*
G37*
G36*
X139067Y79304D02*
X139067Y79304D01*
X139069Y79303D01*
X139112Y79323D01*
X139156Y79341D01*
X139156Y79343D01*
X139158Y79344D01*
X139191Y79429D01*
X139191Y83239D01*
X139190Y83241D01*
X139191Y83243D01*
X139171Y83286D01*
X139153Y83330D01*
X139151Y83330D01*
X139150Y83332D01*
X139065Y83365D01*
X136525Y83365D01*
X136523Y83364D01*
X136521Y83365D01*
X136478Y83345D01*
X136434Y83327D01*
X136434Y83325D01*
X136432Y83324D01*
X136399Y83239D01*
X136399Y79429D01*
X136400Y79427D01*
X136399Y79425D01*
X136419Y79382D01*
X136437Y79338D01*
X136439Y79338D01*
X136440Y79336D01*
X136525Y79303D01*
X139065Y79303D01*
X139067Y79304D01*
G37*
G36*
X641225Y54558D02*
X641225Y54558D01*
X641227Y54557D01*
X641270Y54577D01*
X641314Y54595D01*
X641314Y54597D01*
X641316Y54598D01*
X641349Y54683D01*
X641349Y58493D01*
X641348Y58495D01*
X641349Y58497D01*
X641329Y58540D01*
X641311Y58584D01*
X641309Y58584D01*
X641308Y58586D01*
X641223Y58619D01*
X638683Y58619D01*
X638681Y58618D01*
X638679Y58619D01*
X638636Y58599D01*
X638592Y58581D01*
X638592Y58579D01*
X638590Y58578D01*
X638557Y58493D01*
X638557Y54683D01*
X638558Y54681D01*
X638557Y54679D01*
X638577Y54636D01*
X638595Y54592D01*
X638597Y54592D01*
X638598Y54590D01*
X638683Y54557D01*
X641223Y54557D01*
X641225Y54558D01*
G37*
G36*
X543435Y49558D02*
X543435Y49558D01*
X543437Y49557D01*
X543480Y49577D01*
X543524Y49595D01*
X543524Y49597D01*
X543526Y49598D01*
X543559Y49683D01*
X543559Y53493D01*
X543558Y53495D01*
X543559Y53497D01*
X543539Y53540D01*
X543521Y53584D01*
X543519Y53584D01*
X543518Y53586D01*
X543433Y53619D01*
X540893Y53619D01*
X540891Y53618D01*
X540889Y53619D01*
X540846Y53599D01*
X540802Y53581D01*
X540802Y53579D01*
X540800Y53578D01*
X540767Y53493D01*
X540767Y49683D01*
X540768Y49681D01*
X540767Y49679D01*
X540787Y49636D01*
X540805Y49592D01*
X540807Y49592D01*
X540808Y49590D01*
X540893Y49557D01*
X543433Y49557D01*
X543435Y49558D01*
G37*
G36*
X236857Y34304D02*
X236857Y34304D01*
X236859Y34303D01*
X236902Y34323D01*
X236946Y34341D01*
X236946Y34343D01*
X236948Y34344D01*
X236981Y34429D01*
X236981Y38239D01*
X236980Y38241D01*
X236981Y38243D01*
X236961Y38286D01*
X236943Y38330D01*
X236941Y38330D01*
X236940Y38332D01*
X236855Y38365D01*
X234315Y38365D01*
X234313Y38364D01*
X234311Y38365D01*
X234268Y38345D01*
X234224Y38327D01*
X234224Y38325D01*
X234222Y38324D01*
X234189Y38239D01*
X234189Y34429D01*
X234190Y34427D01*
X234189Y34425D01*
X234209Y34382D01*
X234227Y34338D01*
X234229Y34338D01*
X234230Y34336D01*
X234315Y34303D01*
X236855Y34303D01*
X236857Y34304D01*
G37*
G36*
X139067Y29304D02*
X139067Y29304D01*
X139069Y29303D01*
X139112Y29323D01*
X139156Y29341D01*
X139156Y29343D01*
X139158Y29344D01*
X139191Y29429D01*
X139191Y33239D01*
X139190Y33241D01*
X139191Y33243D01*
X139171Y33286D01*
X139153Y33330D01*
X139151Y33330D01*
X139150Y33332D01*
X139065Y33365D01*
X136525Y33365D01*
X136523Y33364D01*
X136521Y33365D01*
X136478Y33345D01*
X136434Y33327D01*
X136434Y33325D01*
X136432Y33324D01*
X136399Y33239D01*
X136399Y29429D01*
X136400Y29427D01*
X136399Y29425D01*
X136419Y29382D01*
X136437Y29338D01*
X136439Y29338D01*
X136440Y29336D01*
X136525Y29303D01*
X139065Y29303D01*
X139067Y29304D01*
G37*
D10*
X195404Y-114046D02*
X200823Y-114046D01*
X200941Y-114044D01*
X201059Y-114038D01*
X201177Y-114029D01*
X201294Y-114015D01*
X201411Y-113998D01*
X201528Y-113977D01*
X201643Y-113952D01*
X201758Y-113923D01*
X201872Y-113890D01*
X201984Y-113854D01*
X202095Y-113814D01*
X202205Y-113771D01*
X202314Y-113724D01*
X202421Y-113674D01*
X202526Y-113619D01*
X202629Y-113562D01*
X202730Y-113501D01*
X202830Y-113437D01*
X202927Y-113370D01*
X203022Y-113300D01*
X203114Y-113226D01*
X203205Y-113150D01*
X203292Y-113070D01*
X203377Y-112988D01*
X203459Y-112903D01*
X203539Y-112816D01*
X203615Y-112725D01*
X203689Y-112633D01*
X203759Y-112538D01*
X203826Y-112441D01*
X203890Y-112341D01*
X203951Y-112240D01*
X204008Y-112137D01*
X204063Y-112032D01*
X204113Y-111925D01*
X204160Y-111816D01*
X204203Y-111706D01*
X204243Y-111595D01*
X204279Y-111483D01*
X204312Y-111369D01*
X204341Y-111254D01*
X204366Y-111139D01*
X204387Y-111022D01*
X204404Y-110905D01*
X204418Y-110788D01*
X204427Y-110670D01*
X204433Y-110552D01*
X204435Y-110434D01*
X204435Y-108627D01*
X204433Y-108509D01*
X204427Y-108391D01*
X204418Y-108273D01*
X204404Y-108156D01*
X204387Y-108039D01*
X204366Y-107922D01*
X204341Y-107807D01*
X204312Y-107692D01*
X204279Y-107578D01*
X204243Y-107466D01*
X204203Y-107355D01*
X204160Y-107245D01*
X204113Y-107136D01*
X204063Y-107029D01*
X204008Y-106924D01*
X203951Y-106821D01*
X203890Y-106720D01*
X203826Y-106620D01*
X203759Y-106523D01*
X203689Y-106428D01*
X203615Y-106336D01*
X203539Y-106245D01*
X203459Y-106158D01*
X203377Y-106073D01*
X203292Y-105991D01*
X203205Y-105911D01*
X203114Y-105835D01*
X203022Y-105761D01*
X202927Y-105691D01*
X202830Y-105624D01*
X202730Y-105560D01*
X202629Y-105499D01*
X202526Y-105442D01*
X202421Y-105387D01*
X202314Y-105337D01*
X202205Y-105290D01*
X202095Y-105247D01*
X201984Y-105207D01*
X201872Y-105171D01*
X201758Y-105138D01*
X201643Y-105109D01*
X201528Y-105084D01*
X201411Y-105063D01*
X201294Y-105046D01*
X201177Y-105032D01*
X201059Y-105023D01*
X200941Y-105017D01*
X200823Y-105015D01*
X195404Y-105015D01*
X195404Y-97790D01*
X204435Y-97790D01*
X210375Y-103209D02*
X213988Y-114046D01*
X217600Y-103209D01*
X82076Y-107047D02*
X79367Y-107047D01*
X82076Y-107047D02*
X82076Y-116078D01*
X76658Y-116078D01*
X76540Y-116076D01*
X76422Y-116070D01*
X76304Y-116061D01*
X76187Y-116047D01*
X76070Y-116030D01*
X75953Y-116009D01*
X75838Y-115984D01*
X75723Y-115955D01*
X75609Y-115922D01*
X75497Y-115886D01*
X75386Y-115846D01*
X75276Y-115803D01*
X75167Y-115756D01*
X75060Y-115706D01*
X74955Y-115651D01*
X74852Y-115594D01*
X74751Y-115533D01*
X74651Y-115469D01*
X74554Y-115402D01*
X74459Y-115332D01*
X74367Y-115258D01*
X74276Y-115182D01*
X74189Y-115102D01*
X74104Y-115020D01*
X74022Y-114935D01*
X73942Y-114848D01*
X73866Y-114757D01*
X73792Y-114665D01*
X73722Y-114570D01*
X73655Y-114473D01*
X73591Y-114373D01*
X73530Y-114272D01*
X73473Y-114169D01*
X73418Y-114064D01*
X73368Y-113957D01*
X73321Y-113848D01*
X73278Y-113738D01*
X73238Y-113627D01*
X73202Y-113515D01*
X73169Y-113401D01*
X73140Y-113286D01*
X73115Y-113171D01*
X73094Y-113054D01*
X73077Y-112937D01*
X73063Y-112820D01*
X73054Y-112702D01*
X73048Y-112584D01*
X73046Y-112466D01*
X73045Y-112466D02*
X73045Y-103434D01*
X73047Y-103316D01*
X73053Y-103198D01*
X73062Y-103080D01*
X73076Y-102962D01*
X73093Y-102845D01*
X73114Y-102729D01*
X73139Y-102614D01*
X73168Y-102499D01*
X73201Y-102385D01*
X73237Y-102273D01*
X73277Y-102161D01*
X73320Y-102051D01*
X73367Y-101943D01*
X73418Y-101836D01*
X73472Y-101731D01*
X73529Y-101628D01*
X73590Y-101526D01*
X73654Y-101427D01*
X73721Y-101330D01*
X73792Y-101235D01*
X73865Y-101142D01*
X73942Y-101052D01*
X74021Y-100964D01*
X74103Y-100879D01*
X74188Y-100797D01*
X74276Y-100718D01*
X74366Y-100641D01*
X74459Y-100568D01*
X74553Y-100497D01*
X74651Y-100430D01*
X74750Y-100366D01*
X74851Y-100305D01*
X74955Y-100248D01*
X75060Y-100194D01*
X75167Y-100143D01*
X75275Y-100096D01*
X75385Y-100053D01*
X75497Y-100013D01*
X75609Y-99977D01*
X75723Y-99944D01*
X75838Y-99915D01*
X75953Y-99890D01*
X76069Y-99869D01*
X76186Y-99852D01*
X76304Y-99838D01*
X76422Y-99829D01*
X76540Y-99823D01*
X76658Y-99821D01*
X76658Y-99822D02*
X82076Y-99822D01*
X89718Y-99822D02*
X89718Y-116078D01*
X98750Y-116078D02*
X89718Y-99822D01*
X98750Y-99822D02*
X98750Y-116078D01*
X106392Y-116078D02*
X106392Y-99822D01*
X110907Y-99822D01*
X111038Y-99824D01*
X111170Y-99830D01*
X111301Y-99839D01*
X111431Y-99853D01*
X111562Y-99870D01*
X111691Y-99891D01*
X111820Y-99915D01*
X111948Y-99944D01*
X112076Y-99976D01*
X112202Y-100012D01*
X112327Y-100051D01*
X112452Y-100094D01*
X112574Y-100141D01*
X112696Y-100191D01*
X112816Y-100245D01*
X112934Y-100302D01*
X113050Y-100363D01*
X113165Y-100427D01*
X113278Y-100494D01*
X113389Y-100565D01*
X113497Y-100639D01*
X113604Y-100716D01*
X113708Y-100796D01*
X113810Y-100879D01*
X113909Y-100964D01*
X114006Y-101053D01*
X114100Y-101145D01*
X114192Y-101239D01*
X114281Y-101336D01*
X114366Y-101435D01*
X114449Y-101537D01*
X114529Y-101641D01*
X114606Y-101748D01*
X114680Y-101856D01*
X114751Y-101967D01*
X114818Y-102080D01*
X114882Y-102195D01*
X114943Y-102311D01*
X115000Y-102429D01*
X115054Y-102549D01*
X115104Y-102671D01*
X115151Y-102793D01*
X115194Y-102918D01*
X115233Y-103043D01*
X115269Y-103169D01*
X115301Y-103297D01*
X115330Y-103425D01*
X115354Y-103554D01*
X115375Y-103683D01*
X115392Y-103814D01*
X115406Y-103944D01*
X115415Y-104075D01*
X115421Y-104207D01*
X115423Y-104338D01*
X115423Y-111562D01*
X115421Y-111693D01*
X115415Y-111825D01*
X115406Y-111956D01*
X115392Y-112086D01*
X115375Y-112217D01*
X115354Y-112346D01*
X115330Y-112475D01*
X115301Y-112603D01*
X115269Y-112731D01*
X115233Y-112857D01*
X115194Y-112982D01*
X115151Y-113107D01*
X115104Y-113229D01*
X115054Y-113351D01*
X115000Y-113471D01*
X114943Y-113589D01*
X114882Y-113705D01*
X114818Y-113820D01*
X114751Y-113933D01*
X114680Y-114044D01*
X114606Y-114152D01*
X114529Y-114259D01*
X114449Y-114363D01*
X114366Y-114465D01*
X114281Y-114564D01*
X114192Y-114661D01*
X114100Y-114755D01*
X114006Y-114847D01*
X113909Y-114936D01*
X113810Y-115021D01*
X113708Y-115104D01*
X113604Y-115184D01*
X113497Y-115261D01*
X113389Y-115335D01*
X113278Y-115406D01*
X113165Y-115473D01*
X113050Y-115537D01*
X112934Y-115598D01*
X112816Y-115655D01*
X112696Y-115709D01*
X112574Y-115759D01*
X112452Y-115806D01*
X112327Y-115849D01*
X112202Y-115888D01*
X112076Y-115924D01*
X111948Y-115956D01*
X111820Y-115985D01*
X111691Y-116009D01*
X111561Y-116030D01*
X111431Y-116047D01*
X111301Y-116061D01*
X111170Y-116070D01*
X111038Y-116076D01*
X110907Y-116078D01*
X106392Y-116078D01*
X681601Y-109841D02*
X684310Y-109841D01*
X684310Y-118872D01*
X678892Y-118872D01*
X678774Y-118870D01*
X678656Y-118864D01*
X678538Y-118855D01*
X678421Y-118841D01*
X678304Y-118824D01*
X678187Y-118803D01*
X678072Y-118778D01*
X677957Y-118749D01*
X677843Y-118716D01*
X677731Y-118680D01*
X677620Y-118640D01*
X677510Y-118597D01*
X677401Y-118550D01*
X677294Y-118500D01*
X677189Y-118445D01*
X677086Y-118388D01*
X676985Y-118327D01*
X676885Y-118263D01*
X676788Y-118196D01*
X676693Y-118126D01*
X676601Y-118052D01*
X676510Y-117976D01*
X676423Y-117896D01*
X676338Y-117814D01*
X676256Y-117729D01*
X676176Y-117642D01*
X676100Y-117551D01*
X676026Y-117459D01*
X675956Y-117364D01*
X675889Y-117267D01*
X675825Y-117167D01*
X675764Y-117066D01*
X675707Y-116963D01*
X675652Y-116858D01*
X675602Y-116751D01*
X675555Y-116642D01*
X675512Y-116532D01*
X675472Y-116421D01*
X675436Y-116309D01*
X675403Y-116195D01*
X675374Y-116080D01*
X675349Y-115965D01*
X675328Y-115848D01*
X675311Y-115731D01*
X675297Y-115614D01*
X675288Y-115496D01*
X675282Y-115378D01*
X675280Y-115260D01*
X675279Y-115260D02*
X675279Y-106228D01*
X675281Y-106110D01*
X675287Y-105992D01*
X675296Y-105874D01*
X675310Y-105756D01*
X675327Y-105639D01*
X675348Y-105523D01*
X675373Y-105408D01*
X675402Y-105293D01*
X675435Y-105179D01*
X675471Y-105067D01*
X675511Y-104955D01*
X675554Y-104845D01*
X675601Y-104737D01*
X675652Y-104630D01*
X675706Y-104525D01*
X675763Y-104422D01*
X675824Y-104320D01*
X675888Y-104221D01*
X675955Y-104124D01*
X676026Y-104029D01*
X676099Y-103936D01*
X676176Y-103846D01*
X676255Y-103758D01*
X676337Y-103673D01*
X676422Y-103591D01*
X676510Y-103512D01*
X676600Y-103435D01*
X676693Y-103362D01*
X676787Y-103291D01*
X676885Y-103224D01*
X676984Y-103160D01*
X677085Y-103099D01*
X677189Y-103042D01*
X677294Y-102988D01*
X677401Y-102937D01*
X677509Y-102890D01*
X677619Y-102847D01*
X677731Y-102807D01*
X677843Y-102771D01*
X677957Y-102738D01*
X678072Y-102709D01*
X678187Y-102684D01*
X678303Y-102663D01*
X678420Y-102646D01*
X678538Y-102632D01*
X678656Y-102623D01*
X678774Y-102617D01*
X678892Y-102615D01*
X678892Y-102616D02*
X684310Y-102616D01*
X691952Y-102616D02*
X691952Y-118872D01*
X700984Y-118872D02*
X691952Y-102616D01*
X700984Y-102616D02*
X700984Y-118872D01*
X708626Y-118872D02*
X708626Y-102616D01*
X713141Y-102616D01*
X713272Y-102618D01*
X713404Y-102624D01*
X713535Y-102633D01*
X713665Y-102647D01*
X713796Y-102664D01*
X713925Y-102685D01*
X714054Y-102709D01*
X714182Y-102738D01*
X714310Y-102770D01*
X714436Y-102806D01*
X714561Y-102845D01*
X714686Y-102888D01*
X714808Y-102935D01*
X714930Y-102985D01*
X715050Y-103039D01*
X715168Y-103096D01*
X715284Y-103157D01*
X715399Y-103221D01*
X715512Y-103288D01*
X715623Y-103359D01*
X715731Y-103433D01*
X715838Y-103510D01*
X715942Y-103590D01*
X716044Y-103673D01*
X716143Y-103758D01*
X716240Y-103847D01*
X716334Y-103939D01*
X716426Y-104033D01*
X716515Y-104130D01*
X716600Y-104229D01*
X716683Y-104331D01*
X716763Y-104435D01*
X716840Y-104542D01*
X716914Y-104650D01*
X716985Y-104761D01*
X717052Y-104874D01*
X717116Y-104989D01*
X717177Y-105105D01*
X717234Y-105223D01*
X717288Y-105343D01*
X717338Y-105465D01*
X717385Y-105587D01*
X717428Y-105712D01*
X717467Y-105837D01*
X717503Y-105963D01*
X717535Y-106091D01*
X717564Y-106219D01*
X717588Y-106348D01*
X717609Y-106477D01*
X717626Y-106608D01*
X717640Y-106738D01*
X717649Y-106869D01*
X717655Y-107001D01*
X717657Y-107132D01*
X717657Y-114356D01*
X717655Y-114487D01*
X717649Y-114619D01*
X717640Y-114750D01*
X717626Y-114880D01*
X717609Y-115011D01*
X717588Y-115140D01*
X717564Y-115269D01*
X717535Y-115397D01*
X717503Y-115525D01*
X717467Y-115651D01*
X717428Y-115776D01*
X717385Y-115901D01*
X717338Y-116023D01*
X717288Y-116145D01*
X717234Y-116265D01*
X717177Y-116383D01*
X717116Y-116499D01*
X717052Y-116614D01*
X716985Y-116727D01*
X716914Y-116838D01*
X716840Y-116946D01*
X716763Y-117053D01*
X716683Y-117157D01*
X716600Y-117259D01*
X716515Y-117358D01*
X716426Y-117455D01*
X716334Y-117549D01*
X716240Y-117641D01*
X716143Y-117730D01*
X716044Y-117815D01*
X715942Y-117898D01*
X715838Y-117978D01*
X715731Y-118055D01*
X715623Y-118129D01*
X715512Y-118200D01*
X715399Y-118267D01*
X715284Y-118331D01*
X715168Y-118392D01*
X715050Y-118449D01*
X714930Y-118503D01*
X714808Y-118553D01*
X714686Y-118600D01*
X714561Y-118643D01*
X714436Y-118682D01*
X714310Y-118718D01*
X714182Y-118750D01*
X714054Y-118779D01*
X713925Y-118803D01*
X713795Y-118824D01*
X713665Y-118841D01*
X713535Y-118855D01*
X713404Y-118864D01*
X713272Y-118870D01*
X713141Y-118872D01*
X708626Y-118872D01*
X143512Y306578D02*
X138996Y306578D01*
X143512Y306578D02*
X143645Y306580D01*
X143777Y306586D01*
X143909Y306596D01*
X144041Y306609D01*
X144173Y306627D01*
X144303Y306648D01*
X144434Y306673D01*
X144563Y306702D01*
X144691Y306735D01*
X144819Y306771D01*
X144945Y306811D01*
X145070Y306855D01*
X145194Y306903D01*
X145316Y306954D01*
X145437Y307009D01*
X145556Y307067D01*
X145674Y307129D01*
X145789Y307194D01*
X145903Y307263D01*
X146014Y307334D01*
X146123Y307410D01*
X146230Y307488D01*
X146335Y307569D01*
X146437Y307654D01*
X146537Y307741D01*
X146634Y307831D01*
X146729Y307924D01*
X146820Y308020D01*
X146909Y308118D01*
X146995Y308219D01*
X147078Y308323D01*
X147158Y308429D01*
X147234Y308537D01*
X147308Y308647D01*
X147378Y308760D01*
X147445Y308874D01*
X147508Y308991D01*
X147568Y309109D01*
X147625Y309229D01*
X147678Y309351D01*
X147727Y309474D01*
X147773Y309598D01*
X147815Y309724D01*
X147853Y309851D01*
X147888Y309979D01*
X147919Y310108D01*
X147946Y310237D01*
X147969Y310368D01*
X147989Y310499D01*
X148004Y310631D01*
X148016Y310763D01*
X148024Y310895D01*
X148028Y311028D01*
X148028Y311160D01*
X148024Y311293D01*
X148016Y311425D01*
X148004Y311557D01*
X147989Y311689D01*
X147969Y311820D01*
X147946Y311951D01*
X147919Y312080D01*
X147888Y312209D01*
X147853Y312337D01*
X147815Y312464D01*
X147773Y312590D01*
X147727Y312714D01*
X147678Y312837D01*
X147625Y312959D01*
X147568Y313079D01*
X147508Y313197D01*
X147445Y313314D01*
X147378Y313428D01*
X147308Y313541D01*
X147234Y313651D01*
X147158Y313759D01*
X147078Y313865D01*
X146995Y313969D01*
X146909Y314070D01*
X146820Y314168D01*
X146729Y314264D01*
X146634Y314357D01*
X146537Y314447D01*
X146437Y314534D01*
X146335Y314619D01*
X146230Y314700D01*
X146123Y314778D01*
X146014Y314854D01*
X145903Y314925D01*
X145789Y314994D01*
X145674Y315059D01*
X145556Y315121D01*
X145437Y315179D01*
X145316Y315234D01*
X145194Y315285D01*
X145070Y315333D01*
X144945Y315377D01*
X144819Y315417D01*
X144691Y315453D01*
X144563Y315486D01*
X144434Y315515D01*
X144303Y315540D01*
X144173Y315561D01*
X144041Y315579D01*
X143909Y315592D01*
X143777Y315602D01*
X143645Y315608D01*
X143512Y315610D01*
X144415Y322834D02*
X138996Y322834D01*
X144415Y322834D02*
X144534Y322832D01*
X144654Y322826D01*
X144773Y322816D01*
X144891Y322802D01*
X145010Y322785D01*
X145127Y322763D01*
X145244Y322738D01*
X145359Y322708D01*
X145474Y322675D01*
X145588Y322638D01*
X145700Y322598D01*
X145811Y322553D01*
X145920Y322505D01*
X146028Y322454D01*
X146134Y322399D01*
X146238Y322340D01*
X146340Y322278D01*
X146440Y322213D01*
X146538Y322144D01*
X146634Y322072D01*
X146727Y321997D01*
X146817Y321920D01*
X146905Y321839D01*
X146990Y321755D01*
X147072Y321668D01*
X147152Y321579D01*
X147228Y321487D01*
X147302Y321393D01*
X147372Y321296D01*
X147439Y321198D01*
X147503Y321097D01*
X147563Y320993D01*
X147620Y320888D01*
X147673Y320781D01*
X147723Y320673D01*
X147769Y320563D01*
X147811Y320451D01*
X147850Y320338D01*
X147885Y320224D01*
X147916Y320109D01*
X147944Y319992D01*
X147967Y319875D01*
X147987Y319758D01*
X148003Y319639D01*
X148015Y319520D01*
X148023Y319401D01*
X148027Y319282D01*
X148027Y319162D01*
X148023Y319043D01*
X148015Y318924D01*
X148003Y318805D01*
X147987Y318686D01*
X147967Y318569D01*
X147944Y318452D01*
X147916Y318335D01*
X147885Y318220D01*
X147850Y318106D01*
X147811Y317993D01*
X147769Y317881D01*
X147723Y317771D01*
X147673Y317663D01*
X147620Y317556D01*
X147563Y317451D01*
X147503Y317347D01*
X147439Y317246D01*
X147372Y317148D01*
X147302Y317051D01*
X147228Y316957D01*
X147152Y316865D01*
X147072Y316776D01*
X146990Y316689D01*
X146905Y316605D01*
X146817Y316524D01*
X146727Y316447D01*
X146634Y316372D01*
X146538Y316300D01*
X146440Y316231D01*
X146340Y316166D01*
X146238Y316104D01*
X146134Y316045D01*
X146028Y315990D01*
X145920Y315939D01*
X145811Y315891D01*
X145700Y315846D01*
X145588Y315806D01*
X145474Y315769D01*
X145359Y315736D01*
X145244Y315706D01*
X145127Y315681D01*
X145010Y315659D01*
X144891Y315642D01*
X144773Y315628D01*
X144654Y315618D01*
X144534Y315612D01*
X144415Y315610D01*
X144415Y315609D02*
X140802Y315609D01*
X154002Y307481D02*
X154002Y306578D01*
X154002Y307481D02*
X154905Y307481D01*
X154905Y306578D01*
X154002Y306578D01*
X160880Y306578D02*
X165395Y306578D01*
X165528Y306580D01*
X165660Y306586D01*
X165792Y306596D01*
X165924Y306609D01*
X166056Y306627D01*
X166186Y306648D01*
X166317Y306673D01*
X166446Y306702D01*
X166574Y306735D01*
X166702Y306771D01*
X166828Y306811D01*
X166953Y306855D01*
X167077Y306903D01*
X167199Y306954D01*
X167320Y307009D01*
X167439Y307067D01*
X167557Y307129D01*
X167672Y307194D01*
X167786Y307263D01*
X167897Y307334D01*
X168006Y307410D01*
X168113Y307488D01*
X168218Y307569D01*
X168320Y307654D01*
X168420Y307741D01*
X168517Y307831D01*
X168612Y307924D01*
X168703Y308020D01*
X168792Y308118D01*
X168878Y308219D01*
X168961Y308323D01*
X169041Y308429D01*
X169117Y308537D01*
X169191Y308647D01*
X169261Y308760D01*
X169328Y308874D01*
X169391Y308991D01*
X169451Y309109D01*
X169508Y309229D01*
X169561Y309351D01*
X169610Y309474D01*
X169656Y309598D01*
X169698Y309724D01*
X169736Y309851D01*
X169771Y309979D01*
X169802Y310108D01*
X169829Y310237D01*
X169852Y310368D01*
X169872Y310499D01*
X169887Y310631D01*
X169899Y310763D01*
X169907Y310895D01*
X169911Y311028D01*
X169911Y311160D01*
X169907Y311293D01*
X169899Y311425D01*
X169887Y311557D01*
X169872Y311689D01*
X169852Y311820D01*
X169829Y311951D01*
X169802Y312080D01*
X169771Y312209D01*
X169736Y312337D01*
X169698Y312464D01*
X169656Y312590D01*
X169610Y312714D01*
X169561Y312837D01*
X169508Y312959D01*
X169451Y313079D01*
X169391Y313197D01*
X169328Y313314D01*
X169261Y313428D01*
X169191Y313541D01*
X169117Y313651D01*
X169041Y313759D01*
X168961Y313865D01*
X168878Y313969D01*
X168792Y314070D01*
X168703Y314168D01*
X168612Y314264D01*
X168517Y314357D01*
X168420Y314447D01*
X168320Y314534D01*
X168218Y314619D01*
X168113Y314700D01*
X168006Y314778D01*
X167897Y314854D01*
X167786Y314925D01*
X167672Y314994D01*
X167557Y315059D01*
X167439Y315121D01*
X167320Y315179D01*
X167199Y315234D01*
X167077Y315285D01*
X166953Y315333D01*
X166828Y315377D01*
X166702Y315417D01*
X166574Y315453D01*
X166446Y315486D01*
X166317Y315515D01*
X166186Y315540D01*
X166056Y315561D01*
X165924Y315579D01*
X165792Y315592D01*
X165660Y315602D01*
X165528Y315608D01*
X165395Y315610D01*
X166298Y322834D02*
X160880Y322834D01*
X166298Y322834D02*
X166417Y322832D01*
X166537Y322826D01*
X166656Y322816D01*
X166774Y322802D01*
X166893Y322785D01*
X167010Y322763D01*
X167127Y322738D01*
X167242Y322708D01*
X167357Y322675D01*
X167471Y322638D01*
X167583Y322598D01*
X167694Y322553D01*
X167803Y322505D01*
X167911Y322454D01*
X168017Y322399D01*
X168121Y322340D01*
X168223Y322278D01*
X168323Y322213D01*
X168421Y322144D01*
X168517Y322072D01*
X168610Y321997D01*
X168700Y321920D01*
X168788Y321839D01*
X168873Y321755D01*
X168955Y321668D01*
X169035Y321579D01*
X169111Y321487D01*
X169185Y321393D01*
X169255Y321296D01*
X169322Y321198D01*
X169386Y321097D01*
X169446Y320993D01*
X169503Y320888D01*
X169556Y320781D01*
X169606Y320673D01*
X169652Y320563D01*
X169694Y320451D01*
X169733Y320338D01*
X169768Y320224D01*
X169799Y320109D01*
X169827Y319992D01*
X169850Y319875D01*
X169870Y319758D01*
X169886Y319639D01*
X169898Y319520D01*
X169906Y319401D01*
X169910Y319282D01*
X169910Y319162D01*
X169906Y319043D01*
X169898Y318924D01*
X169886Y318805D01*
X169870Y318686D01*
X169850Y318569D01*
X169827Y318452D01*
X169799Y318335D01*
X169768Y318220D01*
X169733Y318106D01*
X169694Y317993D01*
X169652Y317881D01*
X169606Y317771D01*
X169556Y317663D01*
X169503Y317556D01*
X169446Y317451D01*
X169386Y317347D01*
X169322Y317246D01*
X169255Y317148D01*
X169185Y317051D01*
X169111Y316957D01*
X169035Y316865D01*
X168955Y316776D01*
X168873Y316689D01*
X168788Y316605D01*
X168700Y316524D01*
X168610Y316447D01*
X168517Y316372D01*
X168421Y316300D01*
X168323Y316231D01*
X168223Y316166D01*
X168121Y316104D01*
X168017Y316045D01*
X167911Y315990D01*
X167803Y315939D01*
X167694Y315891D01*
X167583Y315846D01*
X167471Y315806D01*
X167357Y315769D01*
X167242Y315736D01*
X167127Y315706D01*
X167010Y315681D01*
X166893Y315659D01*
X166774Y315642D01*
X166656Y315628D01*
X166537Y315618D01*
X166417Y315612D01*
X166298Y315610D01*
X166298Y315609D02*
X162686Y315609D01*
X175851Y317415D02*
X179463Y306578D01*
X183076Y317415D01*
X372618Y316230D02*
X372618Y328930D01*
X372618Y316230D02*
X366268Y309880D01*
X372618Y303530D01*
X372618Y290830D01*
X366268Y284480D01*
X372618Y328930D02*
X366268Y335280D01*
X366268Y284480D02*
X372618Y278130D01*
X372618Y265430D01*
X366268Y259080D01*
X372618Y252730D02*
X372618Y240030D01*
X366268Y233680D01*
X372618Y227330D01*
X372618Y214630D01*
X366268Y208280D01*
X372618Y252730D02*
X366268Y259080D01*
X366268Y208280D02*
X372618Y201930D01*
X372618Y189230D01*
X366268Y182880D01*
X328168Y309880D02*
X321818Y316230D01*
X321818Y290830D02*
X328168Y284480D01*
X321818Y290830D02*
X321818Y303530D01*
X328168Y309880D01*
X328168Y335280D02*
X366268Y335280D01*
X328168Y335280D02*
X321818Y328930D01*
X321818Y316230D01*
X321818Y265430D02*
X328168Y259080D01*
X321818Y265430D02*
X321818Y278130D01*
X328168Y284480D01*
X321818Y240030D02*
X328168Y233680D01*
X321818Y214630D02*
X328168Y208280D01*
X321818Y214630D02*
X321818Y227330D01*
X328168Y233680D01*
X321818Y252730D02*
X328168Y259080D01*
X321818Y252730D02*
X321818Y240030D01*
X321818Y189230D02*
X328168Y182880D01*
X321818Y189230D02*
X321818Y201930D01*
X328168Y208280D01*
X372618Y163830D02*
X366268Y157480D01*
X372618Y163830D02*
X372618Y176530D01*
X366268Y182880D01*
X328168Y182880D02*
X321818Y176530D01*
X321818Y163830D01*
X328168Y157480D01*
X372618Y151130D02*
X372618Y138430D01*
X366268Y132080D01*
X372618Y125730D01*
X372618Y113030D01*
X366268Y106680D01*
X372618Y151130D02*
X366268Y157480D01*
X366268Y106680D02*
X372618Y100330D01*
X372618Y87630D01*
X366268Y81280D01*
X372618Y74930D02*
X372618Y62230D01*
X366268Y55880D01*
X372618Y49530D01*
X372618Y36830D01*
X366268Y30480D01*
X372618Y74930D02*
X366268Y81280D01*
X366268Y30480D02*
X372618Y24130D01*
X372618Y11430D01*
X366268Y5080D01*
X328168Y132080D02*
X321818Y138430D01*
X321818Y113030D02*
X328168Y106680D01*
X321818Y113030D02*
X321818Y125730D01*
X328168Y132080D01*
X321818Y151130D02*
X328168Y157480D01*
X321818Y151130D02*
X321818Y138430D01*
X321818Y87630D02*
X328168Y81280D01*
X321818Y87630D02*
X321818Y100330D01*
X328168Y106680D01*
X321818Y62230D02*
X328168Y55880D01*
X321818Y36830D02*
X328168Y30480D01*
X321818Y36830D02*
X321818Y49530D01*
X328168Y55880D01*
X321818Y74930D02*
X328168Y81280D01*
X321818Y74930D02*
X321818Y62230D01*
X321818Y11430D02*
X328168Y5080D01*
X321818Y11430D02*
X321818Y24130D01*
X328168Y30480D01*
X372618Y-13970D02*
X366268Y-20320D01*
X372618Y-13970D02*
X372618Y-1270D01*
X366268Y5080D01*
X328168Y5080D02*
X321818Y-1270D01*
X321818Y-13970D01*
X328168Y-20320D01*
X372618Y-26670D02*
X372618Y-39370D01*
X366268Y-45720D01*
X372618Y-52070D01*
X372618Y-64770D01*
X366268Y-71120D01*
X372618Y-26670D02*
X366268Y-20320D01*
X366268Y-71120D02*
X372618Y-77470D01*
X372618Y-90170D01*
X366268Y-96520D01*
X372618Y-102870D01*
X372618Y-115570D01*
X328168Y-45720D02*
X321818Y-39370D01*
X321818Y-64770D02*
X328168Y-71120D01*
X321818Y-64770D02*
X321818Y-52070D01*
X328168Y-45720D01*
X321818Y-26670D02*
X328168Y-20320D01*
X321818Y-26670D02*
X321818Y-39370D01*
X321818Y-102870D02*
X321818Y-115570D01*
X321818Y-102870D02*
X328168Y-96520D01*
X321818Y-90170D01*
X321818Y-77470D01*
X328168Y-71120D01*
X328168Y-121920D02*
X366268Y-121920D01*
X372618Y-115570D01*
X328168Y-121920D02*
X321818Y-115570D01*
D11*
X308483Y320675D02*
X305943Y323850D01*
X317373Y323850D01*
X317373Y320675D02*
X317373Y327025D01*
X388493Y-111760D02*
X388493Y-114935D01*
X388493Y-111760D02*
X388491Y-111649D01*
X388485Y-111539D01*
X388476Y-111428D01*
X388462Y-111318D01*
X388445Y-111209D01*
X388424Y-111100D01*
X388399Y-110992D01*
X388370Y-110885D01*
X388338Y-110779D01*
X388302Y-110674D01*
X388262Y-110571D01*
X388219Y-110469D01*
X388172Y-110368D01*
X388121Y-110269D01*
X388068Y-110173D01*
X388011Y-110078D01*
X387950Y-109985D01*
X387887Y-109894D01*
X387820Y-109805D01*
X387750Y-109719D01*
X387677Y-109636D01*
X387602Y-109554D01*
X387524Y-109476D01*
X387442Y-109401D01*
X387359Y-109328D01*
X387273Y-109258D01*
X387184Y-109191D01*
X387093Y-109128D01*
X387000Y-109067D01*
X386906Y-109010D01*
X386809Y-108957D01*
X386710Y-108906D01*
X386609Y-108859D01*
X386507Y-108816D01*
X386404Y-108776D01*
X386299Y-108740D01*
X386193Y-108708D01*
X386086Y-108679D01*
X385978Y-108654D01*
X385869Y-108633D01*
X385760Y-108616D01*
X385650Y-108602D01*
X385539Y-108593D01*
X385429Y-108587D01*
X385318Y-108585D01*
X385207Y-108587D01*
X385097Y-108593D01*
X384986Y-108602D01*
X384876Y-108616D01*
X384767Y-108633D01*
X384658Y-108654D01*
X384550Y-108679D01*
X384443Y-108708D01*
X384337Y-108740D01*
X384232Y-108776D01*
X384129Y-108816D01*
X384027Y-108859D01*
X383926Y-108906D01*
X383827Y-108957D01*
X383731Y-109010D01*
X383636Y-109067D01*
X383543Y-109128D01*
X383452Y-109191D01*
X383363Y-109258D01*
X383277Y-109328D01*
X383194Y-109401D01*
X383112Y-109476D01*
X383034Y-109554D01*
X382959Y-109636D01*
X382886Y-109719D01*
X382816Y-109805D01*
X382749Y-109894D01*
X382686Y-109985D01*
X382625Y-110078D01*
X382568Y-110173D01*
X382515Y-110269D01*
X382464Y-110368D01*
X382417Y-110469D01*
X382374Y-110571D01*
X382334Y-110674D01*
X382298Y-110779D01*
X382266Y-110885D01*
X382237Y-110992D01*
X382212Y-111100D01*
X382191Y-111209D01*
X382174Y-111318D01*
X382160Y-111428D01*
X382151Y-111539D01*
X382145Y-111649D01*
X382143Y-111760D01*
X377063Y-111125D02*
X377063Y-114935D01*
X377063Y-111125D02*
X377065Y-111025D01*
X377071Y-110926D01*
X377081Y-110826D01*
X377094Y-110728D01*
X377112Y-110629D01*
X377133Y-110532D01*
X377158Y-110436D01*
X377187Y-110340D01*
X377220Y-110246D01*
X377256Y-110153D01*
X377296Y-110062D01*
X377340Y-109972D01*
X377387Y-109884D01*
X377437Y-109798D01*
X377491Y-109714D01*
X377548Y-109632D01*
X377608Y-109553D01*
X377672Y-109475D01*
X377738Y-109401D01*
X377807Y-109329D01*
X377879Y-109260D01*
X377953Y-109194D01*
X378031Y-109130D01*
X378110Y-109070D01*
X378192Y-109013D01*
X378276Y-108959D01*
X378362Y-108909D01*
X378450Y-108862D01*
X378540Y-108818D01*
X378631Y-108778D01*
X378724Y-108742D01*
X378818Y-108709D01*
X378914Y-108680D01*
X379010Y-108655D01*
X379107Y-108634D01*
X379206Y-108616D01*
X379304Y-108603D01*
X379404Y-108593D01*
X379503Y-108587D01*
X379603Y-108585D01*
X379703Y-108587D01*
X379802Y-108593D01*
X379902Y-108603D01*
X380000Y-108616D01*
X380099Y-108634D01*
X380196Y-108655D01*
X380292Y-108680D01*
X380388Y-108709D01*
X380482Y-108742D01*
X380575Y-108778D01*
X380666Y-108818D01*
X380756Y-108862D01*
X380844Y-108909D01*
X380930Y-108959D01*
X381014Y-109013D01*
X381096Y-109070D01*
X381175Y-109130D01*
X381253Y-109194D01*
X381327Y-109260D01*
X381399Y-109329D01*
X381468Y-109401D01*
X381534Y-109475D01*
X381598Y-109553D01*
X381658Y-109632D01*
X381715Y-109714D01*
X381769Y-109798D01*
X381819Y-109884D01*
X381866Y-109972D01*
X381910Y-110062D01*
X381950Y-110153D01*
X381986Y-110246D01*
X382019Y-110340D01*
X382048Y-110436D01*
X382073Y-110532D01*
X382094Y-110629D01*
X382112Y-110728D01*
X382125Y-110826D01*
X382135Y-110926D01*
X382141Y-111025D01*
X382143Y-111125D01*
X382143Y-113665D01*
X382143Y-103505D02*
X382143Y-99695D01*
X382145Y-99595D01*
X382151Y-99496D01*
X382161Y-99396D01*
X382174Y-99298D01*
X382192Y-99199D01*
X382213Y-99102D01*
X382238Y-99006D01*
X382267Y-98910D01*
X382300Y-98816D01*
X382336Y-98723D01*
X382376Y-98632D01*
X382420Y-98542D01*
X382467Y-98454D01*
X382517Y-98368D01*
X382571Y-98284D01*
X382628Y-98202D01*
X382688Y-98123D01*
X382752Y-98045D01*
X382818Y-97971D01*
X382887Y-97899D01*
X382959Y-97830D01*
X383033Y-97764D01*
X383111Y-97700D01*
X383190Y-97640D01*
X383272Y-97583D01*
X383356Y-97529D01*
X383442Y-97479D01*
X383530Y-97432D01*
X383620Y-97388D01*
X383711Y-97348D01*
X383804Y-97312D01*
X383898Y-97279D01*
X383994Y-97250D01*
X384090Y-97225D01*
X384187Y-97204D01*
X384286Y-97186D01*
X384384Y-97173D01*
X384484Y-97163D01*
X384583Y-97157D01*
X384683Y-97155D01*
X385318Y-97155D01*
X385429Y-97157D01*
X385539Y-97163D01*
X385650Y-97172D01*
X385760Y-97186D01*
X385869Y-97203D01*
X385978Y-97224D01*
X386086Y-97249D01*
X386193Y-97278D01*
X386299Y-97310D01*
X386404Y-97346D01*
X386507Y-97386D01*
X386609Y-97429D01*
X386710Y-97476D01*
X386809Y-97527D01*
X386906Y-97580D01*
X387000Y-97637D01*
X387093Y-97698D01*
X387184Y-97761D01*
X387273Y-97828D01*
X387359Y-97898D01*
X387442Y-97971D01*
X387524Y-98046D01*
X387602Y-98124D01*
X387677Y-98206D01*
X387750Y-98289D01*
X387820Y-98375D01*
X387887Y-98464D01*
X387950Y-98555D01*
X388011Y-98648D01*
X388068Y-98743D01*
X388121Y-98839D01*
X388172Y-98938D01*
X388219Y-99039D01*
X388262Y-99141D01*
X388302Y-99244D01*
X388338Y-99349D01*
X388370Y-99455D01*
X388399Y-99562D01*
X388424Y-99670D01*
X388445Y-99779D01*
X388462Y-99888D01*
X388476Y-99998D01*
X388485Y-100109D01*
X388491Y-100219D01*
X388493Y-100330D01*
X388491Y-100441D01*
X388485Y-100551D01*
X388476Y-100662D01*
X388462Y-100772D01*
X388445Y-100881D01*
X388424Y-100990D01*
X388399Y-101098D01*
X388370Y-101205D01*
X388338Y-101311D01*
X388302Y-101416D01*
X388262Y-101519D01*
X388219Y-101621D01*
X388172Y-101722D01*
X388121Y-101821D01*
X388068Y-101918D01*
X388011Y-102012D01*
X387950Y-102105D01*
X387887Y-102196D01*
X387820Y-102285D01*
X387750Y-102371D01*
X387677Y-102454D01*
X387602Y-102536D01*
X387524Y-102614D01*
X387442Y-102689D01*
X387359Y-102762D01*
X387273Y-102832D01*
X387184Y-102899D01*
X387093Y-102962D01*
X387000Y-103023D01*
X386906Y-103080D01*
X386809Y-103133D01*
X386710Y-103184D01*
X386609Y-103231D01*
X386507Y-103274D01*
X386404Y-103314D01*
X386299Y-103350D01*
X386193Y-103382D01*
X386086Y-103411D01*
X385978Y-103436D01*
X385869Y-103457D01*
X385760Y-103474D01*
X385650Y-103488D01*
X385539Y-103497D01*
X385429Y-103503D01*
X385318Y-103505D01*
X382143Y-103505D01*
X382003Y-103503D01*
X381863Y-103497D01*
X381723Y-103488D01*
X381584Y-103474D01*
X381445Y-103457D01*
X381307Y-103436D01*
X381169Y-103411D01*
X381032Y-103382D01*
X380896Y-103350D01*
X380761Y-103313D01*
X380627Y-103273D01*
X380494Y-103230D01*
X380362Y-103182D01*
X380231Y-103132D01*
X380102Y-103077D01*
X379975Y-103019D01*
X379849Y-102958D01*
X379725Y-102893D01*
X379603Y-102824D01*
X379483Y-102753D01*
X379365Y-102678D01*
X379248Y-102600D01*
X379134Y-102518D01*
X379023Y-102434D01*
X378914Y-102346D01*
X378807Y-102256D01*
X378702Y-102162D01*
X378601Y-102066D01*
X378502Y-101967D01*
X378406Y-101866D01*
X378312Y-101761D01*
X378222Y-101654D01*
X378134Y-101545D01*
X378050Y-101434D01*
X377968Y-101320D01*
X377890Y-101203D01*
X377815Y-101085D01*
X377744Y-100965D01*
X377675Y-100843D01*
X377610Y-100719D01*
X377549Y-100593D01*
X377491Y-100466D01*
X377436Y-100337D01*
X377386Y-100206D01*
X377338Y-100074D01*
X377295Y-99941D01*
X377255Y-99807D01*
X377218Y-99672D01*
X377186Y-99536D01*
X377157Y-99399D01*
X377132Y-99261D01*
X377111Y-99123D01*
X377094Y-98984D01*
X377080Y-98845D01*
X377071Y-98705D01*
X377065Y-98565D01*
X377063Y-98425D01*
X338455Y-133985D02*
X338453Y-134085D01*
X338447Y-134184D01*
X338437Y-134284D01*
X338424Y-134382D01*
X338406Y-134481D01*
X338385Y-134578D01*
X338360Y-134674D01*
X338331Y-134770D01*
X338298Y-134864D01*
X338262Y-134957D01*
X338222Y-135048D01*
X338178Y-135138D01*
X338131Y-135226D01*
X338081Y-135312D01*
X338027Y-135396D01*
X337970Y-135478D01*
X337910Y-135557D01*
X337846Y-135635D01*
X337780Y-135709D01*
X337711Y-135781D01*
X337639Y-135850D01*
X337565Y-135916D01*
X337487Y-135980D01*
X337408Y-136040D01*
X337326Y-136097D01*
X337242Y-136151D01*
X337156Y-136201D01*
X337068Y-136248D01*
X336978Y-136292D01*
X336887Y-136332D01*
X336794Y-136368D01*
X336700Y-136401D01*
X336604Y-136430D01*
X336508Y-136455D01*
X336411Y-136476D01*
X336312Y-136494D01*
X336214Y-136507D01*
X336114Y-136517D01*
X336015Y-136523D01*
X335915Y-136525D01*
X335774Y-136523D01*
X335633Y-136518D01*
X335492Y-136508D01*
X335351Y-136495D01*
X335211Y-136479D01*
X335071Y-136458D01*
X334932Y-136434D01*
X334793Y-136406D01*
X334656Y-136375D01*
X334519Y-136340D01*
X334383Y-136302D01*
X334248Y-136260D01*
X334115Y-136214D01*
X333982Y-136165D01*
X333851Y-136112D01*
X333722Y-136056D01*
X333593Y-135997D01*
X333467Y-135934D01*
X333342Y-135868D01*
X333219Y-135799D01*
X333098Y-135726D01*
X332979Y-135650D01*
X332861Y-135571D01*
X332746Y-135490D01*
X332634Y-135405D01*
X332523Y-135317D01*
X332415Y-135226D01*
X332309Y-135133D01*
X332206Y-135036D01*
X332105Y-134937D01*
X332423Y-127635D02*
X332425Y-127535D01*
X332431Y-127436D01*
X332441Y-127336D01*
X332454Y-127238D01*
X332472Y-127139D01*
X332493Y-127042D01*
X332518Y-126946D01*
X332547Y-126850D01*
X332580Y-126756D01*
X332616Y-126663D01*
X332656Y-126572D01*
X332700Y-126482D01*
X332747Y-126394D01*
X332797Y-126308D01*
X332851Y-126224D01*
X332908Y-126142D01*
X332968Y-126063D01*
X333032Y-125985D01*
X333098Y-125911D01*
X333167Y-125839D01*
X333239Y-125770D01*
X333313Y-125704D01*
X333391Y-125640D01*
X333470Y-125580D01*
X333552Y-125523D01*
X333636Y-125469D01*
X333722Y-125419D01*
X333810Y-125372D01*
X333900Y-125328D01*
X333991Y-125288D01*
X334084Y-125252D01*
X334178Y-125219D01*
X334274Y-125190D01*
X334370Y-125165D01*
X334467Y-125144D01*
X334566Y-125126D01*
X334664Y-125113D01*
X334764Y-125103D01*
X334863Y-125097D01*
X334963Y-125095D01*
X335096Y-125097D01*
X335229Y-125102D01*
X335362Y-125112D01*
X335495Y-125125D01*
X335627Y-125142D01*
X335759Y-125162D01*
X335890Y-125186D01*
X336020Y-125214D01*
X336150Y-125245D01*
X336278Y-125280D01*
X336406Y-125319D01*
X336532Y-125361D01*
X336657Y-125407D01*
X336781Y-125456D01*
X336904Y-125508D01*
X337025Y-125564D01*
X337144Y-125624D01*
X337262Y-125686D01*
X337377Y-125752D01*
X337491Y-125821D01*
X337603Y-125894D01*
X337713Y-125969D01*
X337821Y-126048D01*
X333692Y-129858D02*
X333608Y-129806D01*
X333525Y-129751D01*
X333445Y-129692D01*
X333367Y-129631D01*
X333292Y-129567D01*
X333219Y-129499D01*
X333148Y-129429D01*
X333081Y-129357D01*
X333016Y-129282D01*
X332954Y-129204D01*
X332895Y-129124D01*
X332839Y-129042D01*
X332787Y-128958D01*
X332738Y-128872D01*
X332692Y-128784D01*
X332649Y-128694D01*
X332610Y-128603D01*
X332575Y-128510D01*
X332543Y-128416D01*
X332515Y-128321D01*
X332490Y-128225D01*
X332470Y-128128D01*
X332452Y-128030D01*
X332439Y-127932D01*
X332430Y-127833D01*
X332424Y-127734D01*
X332422Y-127635D01*
X337185Y-131762D02*
X337269Y-131814D01*
X337352Y-131869D01*
X337432Y-131928D01*
X337510Y-131989D01*
X337585Y-132053D01*
X337658Y-132121D01*
X337729Y-132191D01*
X337796Y-132263D01*
X337861Y-132338D01*
X337923Y-132416D01*
X337982Y-132496D01*
X338038Y-132578D01*
X338090Y-132662D01*
X338139Y-132748D01*
X338185Y-132836D01*
X338228Y-132926D01*
X338267Y-133017D01*
X338302Y-133110D01*
X338334Y-133204D01*
X338362Y-133299D01*
X338387Y-133395D01*
X338407Y-133492D01*
X338425Y-133590D01*
X338438Y-133688D01*
X338447Y-133787D01*
X338453Y-133886D01*
X338455Y-133985D01*
X337185Y-131763D02*
X333693Y-129858D01*
X342519Y-125095D02*
X346329Y-136525D01*
X350139Y-125095D01*
X354584Y-127635D02*
X357759Y-125095D01*
X357759Y-136525D01*
X354584Y-136525D02*
X360934Y-136525D01*
D10*
X395478Y-115062D02*
X395478Y-102362D01*
X401828Y-96012D01*
X395478Y-89662D01*
X395478Y-76962D01*
X401828Y-70612D01*
X395478Y-115062D02*
X401828Y-121412D01*
X401828Y-70612D02*
X395478Y-64262D01*
X395478Y-51562D01*
X401828Y-45212D01*
X395478Y-38862D02*
X395478Y-26162D01*
X401828Y-19812D01*
X395478Y-13462D01*
X395478Y-762D01*
X401828Y5588D01*
X395478Y-38862D02*
X401828Y-45212D01*
X401828Y5588D02*
X395478Y11938D01*
X395478Y24638D01*
X401828Y30988D01*
X439928Y-96012D02*
X446278Y-102362D01*
X446278Y-76962D02*
X439928Y-70612D01*
X446278Y-76962D02*
X446278Y-89662D01*
X439928Y-96012D01*
X439928Y-121412D02*
X401828Y-121412D01*
X439928Y-121412D02*
X446278Y-115062D01*
X446278Y-102362D01*
X446278Y-51562D02*
X439928Y-45212D01*
X446278Y-51562D02*
X446278Y-64262D01*
X439928Y-70612D01*
X446278Y-26162D02*
X439928Y-19812D01*
X446278Y-762D02*
X439928Y5588D01*
X446278Y-762D02*
X446278Y-13462D01*
X439928Y-19812D01*
X446278Y-38862D02*
X439928Y-45212D01*
X446278Y-38862D02*
X446278Y-26162D01*
X446278Y24638D02*
X439928Y30988D01*
X446278Y24638D02*
X446278Y11938D01*
X439928Y5588D01*
X395478Y50038D02*
X401828Y56388D01*
X395478Y50038D02*
X395478Y37338D01*
X401828Y30988D01*
X439928Y30988D02*
X446278Y37338D01*
X446278Y50038D01*
X439928Y56388D01*
X395478Y62738D02*
X395478Y75438D01*
X401828Y81788D01*
X395478Y88138D01*
X395478Y100838D01*
X401828Y107188D01*
X395478Y62738D02*
X401828Y56388D01*
X401828Y107188D02*
X395478Y113538D01*
X395478Y126238D01*
X401828Y132588D01*
X395478Y138938D02*
X395478Y151638D01*
X401828Y157988D01*
X395478Y164338D01*
X395478Y177038D01*
X401828Y183388D01*
X395478Y138938D02*
X401828Y132588D01*
X401828Y183388D02*
X395478Y189738D01*
X395478Y202438D01*
X401828Y208788D01*
X439928Y81788D02*
X446278Y75438D01*
X446278Y100838D02*
X439928Y107188D01*
X446278Y100838D02*
X446278Y88138D01*
X439928Y81788D01*
X446278Y62738D02*
X439928Y56388D01*
X446278Y62738D02*
X446278Y75438D01*
X446278Y126238D02*
X439928Y132588D01*
X446278Y126238D02*
X446278Y113538D01*
X439928Y107188D01*
X446278Y151638D02*
X439928Y157988D01*
X446278Y177038D02*
X439928Y183388D01*
X446278Y177038D02*
X446278Y164338D01*
X439928Y157988D01*
X446278Y138938D02*
X439928Y132588D01*
X446278Y138938D02*
X446278Y151638D01*
X446278Y202438D02*
X439928Y208788D01*
X446278Y202438D02*
X446278Y189738D01*
X439928Y183388D01*
X395478Y227838D02*
X401828Y234188D01*
X395478Y227838D02*
X395478Y215138D01*
X401828Y208788D01*
X439928Y208788D02*
X446278Y215138D01*
X446278Y227838D01*
X439928Y234188D01*
X395478Y240538D02*
X395478Y253238D01*
X401828Y259588D01*
X395478Y265938D01*
X395478Y278638D01*
X401828Y284988D01*
X395478Y240538D02*
X401828Y234188D01*
X401828Y284988D02*
X395478Y291338D01*
X395478Y304038D01*
X401828Y310388D01*
X395478Y316738D01*
X395478Y329438D01*
X439928Y259588D02*
X446278Y253238D01*
X446278Y278638D02*
X439928Y284988D01*
X446278Y278638D02*
X446278Y265938D01*
X439928Y259588D01*
X446278Y240538D02*
X439928Y234188D01*
X446278Y240538D02*
X446278Y253238D01*
X446278Y316738D02*
X446278Y329438D01*
X446278Y316738D02*
X439928Y310388D01*
X446278Y304038D01*
X446278Y291338D01*
X439928Y284988D01*
X439928Y335788D02*
X401828Y335788D01*
X395478Y329438D01*
X439928Y335788D02*
X446278Y329438D01*
D11*
X450723Y-109982D02*
X453263Y-113157D01*
X450723Y-109982D02*
X462153Y-109982D01*
X462153Y-113157D02*
X462153Y-106807D01*
X391033Y311023D02*
X391033Y314198D01*
X391031Y314309D01*
X391025Y314419D01*
X391016Y314530D01*
X391002Y314640D01*
X390985Y314749D01*
X390964Y314858D01*
X390939Y314966D01*
X390910Y315073D01*
X390878Y315179D01*
X390842Y315284D01*
X390802Y315387D01*
X390759Y315489D01*
X390712Y315590D01*
X390661Y315689D01*
X390608Y315786D01*
X390551Y315880D01*
X390490Y315973D01*
X390427Y316064D01*
X390360Y316153D01*
X390290Y316239D01*
X390217Y316322D01*
X390142Y316404D01*
X390064Y316482D01*
X389982Y316557D01*
X389899Y316630D01*
X389813Y316700D01*
X389724Y316767D01*
X389633Y316830D01*
X389540Y316891D01*
X389446Y316948D01*
X389349Y317001D01*
X389250Y317052D01*
X389149Y317099D01*
X389047Y317142D01*
X388944Y317182D01*
X388839Y317218D01*
X388733Y317250D01*
X388626Y317279D01*
X388518Y317304D01*
X388409Y317325D01*
X388300Y317342D01*
X388190Y317356D01*
X388079Y317365D01*
X387969Y317371D01*
X387858Y317373D01*
X387747Y317371D01*
X387637Y317365D01*
X387526Y317356D01*
X387416Y317342D01*
X387307Y317325D01*
X387198Y317304D01*
X387090Y317279D01*
X386983Y317250D01*
X386877Y317218D01*
X386772Y317182D01*
X386669Y317142D01*
X386567Y317099D01*
X386466Y317052D01*
X386367Y317001D01*
X386271Y316948D01*
X386176Y316891D01*
X386083Y316830D01*
X385992Y316767D01*
X385903Y316700D01*
X385817Y316630D01*
X385734Y316557D01*
X385652Y316482D01*
X385574Y316404D01*
X385499Y316322D01*
X385426Y316239D01*
X385356Y316153D01*
X385289Y316064D01*
X385226Y315973D01*
X385165Y315880D01*
X385108Y315786D01*
X385055Y315689D01*
X385004Y315590D01*
X384957Y315489D01*
X384914Y315387D01*
X384874Y315284D01*
X384838Y315179D01*
X384806Y315073D01*
X384777Y314966D01*
X384752Y314858D01*
X384731Y314749D01*
X384714Y314640D01*
X384700Y314530D01*
X384691Y314419D01*
X384685Y314309D01*
X384683Y314198D01*
X379603Y314833D02*
X379603Y311023D01*
X379603Y314833D02*
X379605Y314933D01*
X379611Y315032D01*
X379621Y315132D01*
X379634Y315230D01*
X379652Y315329D01*
X379673Y315426D01*
X379698Y315522D01*
X379727Y315618D01*
X379760Y315712D01*
X379796Y315805D01*
X379836Y315896D01*
X379880Y315986D01*
X379927Y316074D01*
X379977Y316160D01*
X380031Y316244D01*
X380088Y316326D01*
X380148Y316405D01*
X380212Y316483D01*
X380278Y316557D01*
X380347Y316629D01*
X380419Y316698D01*
X380493Y316764D01*
X380571Y316828D01*
X380650Y316888D01*
X380732Y316945D01*
X380816Y316999D01*
X380902Y317049D01*
X380990Y317096D01*
X381080Y317140D01*
X381171Y317180D01*
X381264Y317216D01*
X381358Y317249D01*
X381454Y317278D01*
X381550Y317303D01*
X381647Y317324D01*
X381746Y317342D01*
X381844Y317355D01*
X381944Y317365D01*
X382043Y317371D01*
X382143Y317373D01*
X382243Y317371D01*
X382342Y317365D01*
X382442Y317355D01*
X382540Y317342D01*
X382639Y317324D01*
X382736Y317303D01*
X382832Y317278D01*
X382928Y317249D01*
X383022Y317216D01*
X383115Y317180D01*
X383206Y317140D01*
X383296Y317096D01*
X383384Y317049D01*
X383470Y316999D01*
X383554Y316945D01*
X383636Y316888D01*
X383715Y316828D01*
X383793Y316764D01*
X383867Y316698D01*
X383939Y316629D01*
X384008Y316557D01*
X384074Y316483D01*
X384138Y316405D01*
X384198Y316326D01*
X384255Y316244D01*
X384309Y316160D01*
X384359Y316074D01*
X384406Y315986D01*
X384450Y315896D01*
X384490Y315805D01*
X384526Y315712D01*
X384559Y315618D01*
X384588Y315522D01*
X384613Y315426D01*
X384634Y315329D01*
X384652Y315230D01*
X384665Y315132D01*
X384675Y315032D01*
X384681Y314933D01*
X384683Y314833D01*
X384683Y312293D01*
X384683Y322453D02*
X384683Y326263D01*
X384685Y326363D01*
X384691Y326462D01*
X384701Y326562D01*
X384714Y326660D01*
X384732Y326759D01*
X384753Y326856D01*
X384778Y326952D01*
X384807Y327048D01*
X384840Y327142D01*
X384876Y327235D01*
X384916Y327326D01*
X384960Y327416D01*
X385007Y327504D01*
X385057Y327590D01*
X385111Y327674D01*
X385168Y327756D01*
X385228Y327835D01*
X385292Y327913D01*
X385358Y327987D01*
X385427Y328059D01*
X385499Y328128D01*
X385573Y328194D01*
X385651Y328258D01*
X385730Y328318D01*
X385812Y328375D01*
X385896Y328429D01*
X385982Y328479D01*
X386070Y328526D01*
X386160Y328570D01*
X386251Y328610D01*
X386344Y328646D01*
X386438Y328679D01*
X386534Y328708D01*
X386630Y328733D01*
X386727Y328754D01*
X386826Y328772D01*
X386924Y328785D01*
X387024Y328795D01*
X387123Y328801D01*
X387223Y328803D01*
X387858Y328803D01*
X387969Y328801D01*
X388079Y328795D01*
X388190Y328786D01*
X388300Y328772D01*
X388409Y328755D01*
X388518Y328734D01*
X388626Y328709D01*
X388733Y328680D01*
X388839Y328648D01*
X388944Y328612D01*
X389047Y328572D01*
X389149Y328529D01*
X389250Y328482D01*
X389349Y328431D01*
X389446Y328378D01*
X389540Y328321D01*
X389633Y328260D01*
X389724Y328197D01*
X389813Y328130D01*
X389899Y328060D01*
X389982Y327987D01*
X390064Y327912D01*
X390142Y327834D01*
X390217Y327752D01*
X390290Y327669D01*
X390360Y327583D01*
X390427Y327494D01*
X390490Y327403D01*
X390551Y327310D01*
X390608Y327215D01*
X390661Y327119D01*
X390712Y327020D01*
X390759Y326919D01*
X390802Y326817D01*
X390842Y326714D01*
X390878Y326609D01*
X390910Y326503D01*
X390939Y326396D01*
X390964Y326288D01*
X390985Y326179D01*
X391002Y326070D01*
X391016Y325960D01*
X391025Y325849D01*
X391031Y325739D01*
X391033Y325628D01*
X391031Y325517D01*
X391025Y325407D01*
X391016Y325296D01*
X391002Y325186D01*
X390985Y325077D01*
X390964Y324968D01*
X390939Y324860D01*
X390910Y324753D01*
X390878Y324647D01*
X390842Y324542D01*
X390802Y324439D01*
X390759Y324337D01*
X390712Y324236D01*
X390661Y324137D01*
X390608Y324040D01*
X390551Y323946D01*
X390490Y323853D01*
X390427Y323762D01*
X390360Y323673D01*
X390290Y323587D01*
X390217Y323504D01*
X390142Y323422D01*
X390064Y323344D01*
X389982Y323269D01*
X389899Y323196D01*
X389813Y323126D01*
X389724Y323059D01*
X389633Y322996D01*
X389540Y322935D01*
X389446Y322878D01*
X389349Y322825D01*
X389250Y322774D01*
X389149Y322727D01*
X389047Y322684D01*
X388944Y322644D01*
X388839Y322608D01*
X388733Y322576D01*
X388626Y322547D01*
X388518Y322522D01*
X388409Y322501D01*
X388300Y322484D01*
X388190Y322470D01*
X388079Y322461D01*
X387969Y322455D01*
X387858Y322453D01*
X384683Y322453D01*
X384543Y322455D01*
X384403Y322461D01*
X384263Y322470D01*
X384124Y322484D01*
X383985Y322501D01*
X383847Y322522D01*
X383709Y322547D01*
X383572Y322576D01*
X383436Y322608D01*
X383301Y322645D01*
X383167Y322685D01*
X383034Y322728D01*
X382902Y322776D01*
X382771Y322826D01*
X382642Y322881D01*
X382515Y322939D01*
X382389Y323000D01*
X382265Y323065D01*
X382143Y323134D01*
X382023Y323205D01*
X381905Y323280D01*
X381788Y323358D01*
X381674Y323440D01*
X381563Y323524D01*
X381454Y323612D01*
X381347Y323702D01*
X381242Y323796D01*
X381141Y323892D01*
X381042Y323991D01*
X380946Y324092D01*
X380852Y324197D01*
X380762Y324304D01*
X380674Y324413D01*
X380590Y324524D01*
X380508Y324638D01*
X380430Y324755D01*
X380355Y324873D01*
X380284Y324993D01*
X380215Y325115D01*
X380150Y325239D01*
X380089Y325365D01*
X380031Y325492D01*
X379976Y325621D01*
X379926Y325752D01*
X379878Y325884D01*
X379835Y326017D01*
X379795Y326151D01*
X379758Y326286D01*
X379726Y326422D01*
X379697Y326559D01*
X379672Y326697D01*
X379651Y326835D01*
X379634Y326974D01*
X379620Y327113D01*
X379611Y327253D01*
X379605Y327393D01*
X379603Y327533D01*
X411861Y-133477D02*
X411859Y-133577D01*
X411853Y-133676D01*
X411843Y-133776D01*
X411830Y-133874D01*
X411812Y-133973D01*
X411791Y-134070D01*
X411766Y-134166D01*
X411737Y-134262D01*
X411704Y-134356D01*
X411668Y-134449D01*
X411628Y-134540D01*
X411584Y-134630D01*
X411537Y-134718D01*
X411487Y-134804D01*
X411433Y-134888D01*
X411376Y-134970D01*
X411316Y-135049D01*
X411252Y-135127D01*
X411186Y-135201D01*
X411117Y-135273D01*
X411045Y-135342D01*
X410971Y-135408D01*
X410893Y-135472D01*
X410814Y-135532D01*
X410732Y-135589D01*
X410648Y-135643D01*
X410562Y-135693D01*
X410474Y-135740D01*
X410384Y-135784D01*
X410293Y-135824D01*
X410200Y-135860D01*
X410106Y-135893D01*
X410010Y-135922D01*
X409914Y-135947D01*
X409817Y-135968D01*
X409718Y-135986D01*
X409620Y-135999D01*
X409520Y-136009D01*
X409421Y-136015D01*
X409321Y-136017D01*
X409180Y-136015D01*
X409039Y-136010D01*
X408898Y-136000D01*
X408757Y-135987D01*
X408617Y-135971D01*
X408477Y-135950D01*
X408338Y-135926D01*
X408199Y-135898D01*
X408062Y-135867D01*
X407925Y-135832D01*
X407789Y-135794D01*
X407654Y-135752D01*
X407521Y-135706D01*
X407388Y-135657D01*
X407257Y-135604D01*
X407128Y-135548D01*
X406999Y-135489D01*
X406873Y-135426D01*
X406748Y-135360D01*
X406625Y-135291D01*
X406504Y-135218D01*
X406385Y-135142D01*
X406267Y-135063D01*
X406152Y-134982D01*
X406040Y-134897D01*
X405929Y-134809D01*
X405821Y-134718D01*
X405715Y-134625D01*
X405612Y-134528D01*
X405511Y-134429D01*
X405829Y-127127D02*
X405831Y-127027D01*
X405837Y-126928D01*
X405847Y-126828D01*
X405860Y-126730D01*
X405878Y-126631D01*
X405899Y-126534D01*
X405924Y-126438D01*
X405953Y-126342D01*
X405986Y-126248D01*
X406022Y-126155D01*
X406062Y-126064D01*
X406106Y-125974D01*
X406153Y-125886D01*
X406203Y-125800D01*
X406257Y-125716D01*
X406314Y-125634D01*
X406374Y-125555D01*
X406438Y-125477D01*
X406504Y-125403D01*
X406573Y-125331D01*
X406645Y-125262D01*
X406719Y-125196D01*
X406797Y-125132D01*
X406876Y-125072D01*
X406958Y-125015D01*
X407042Y-124961D01*
X407128Y-124911D01*
X407216Y-124864D01*
X407306Y-124820D01*
X407397Y-124780D01*
X407490Y-124744D01*
X407584Y-124711D01*
X407680Y-124682D01*
X407776Y-124657D01*
X407873Y-124636D01*
X407972Y-124618D01*
X408070Y-124605D01*
X408170Y-124595D01*
X408269Y-124589D01*
X408369Y-124587D01*
X408502Y-124589D01*
X408635Y-124594D01*
X408768Y-124604D01*
X408901Y-124617D01*
X409033Y-124634D01*
X409165Y-124654D01*
X409296Y-124678D01*
X409426Y-124706D01*
X409556Y-124737D01*
X409684Y-124772D01*
X409812Y-124811D01*
X409938Y-124853D01*
X410063Y-124899D01*
X410187Y-124948D01*
X410310Y-125000D01*
X410431Y-125056D01*
X410550Y-125116D01*
X410668Y-125178D01*
X410783Y-125244D01*
X410897Y-125313D01*
X411009Y-125386D01*
X411119Y-125461D01*
X411227Y-125540D01*
X407098Y-129350D02*
X407014Y-129298D01*
X406931Y-129243D01*
X406851Y-129184D01*
X406773Y-129123D01*
X406698Y-129059D01*
X406625Y-128991D01*
X406554Y-128921D01*
X406487Y-128849D01*
X406422Y-128774D01*
X406360Y-128696D01*
X406301Y-128616D01*
X406245Y-128534D01*
X406193Y-128450D01*
X406144Y-128364D01*
X406098Y-128276D01*
X406055Y-128186D01*
X406016Y-128095D01*
X405981Y-128002D01*
X405949Y-127908D01*
X405921Y-127813D01*
X405896Y-127717D01*
X405876Y-127620D01*
X405858Y-127522D01*
X405845Y-127424D01*
X405836Y-127325D01*
X405830Y-127226D01*
X405828Y-127127D01*
X410591Y-131254D02*
X410675Y-131306D01*
X410758Y-131361D01*
X410838Y-131420D01*
X410916Y-131481D01*
X410991Y-131545D01*
X411064Y-131613D01*
X411135Y-131683D01*
X411202Y-131755D01*
X411267Y-131830D01*
X411329Y-131908D01*
X411388Y-131988D01*
X411444Y-132070D01*
X411496Y-132154D01*
X411545Y-132240D01*
X411591Y-132328D01*
X411634Y-132418D01*
X411673Y-132509D01*
X411708Y-132602D01*
X411740Y-132696D01*
X411768Y-132791D01*
X411793Y-132887D01*
X411813Y-132984D01*
X411831Y-133082D01*
X411844Y-133180D01*
X411853Y-133279D01*
X411859Y-133378D01*
X411861Y-133477D01*
X410591Y-131255D02*
X407099Y-129350D01*
X415925Y-124587D02*
X419735Y-136017D01*
X423545Y-124587D01*
X431483Y-124587D02*
X431587Y-124589D01*
X431692Y-124595D01*
X431796Y-124604D01*
X431899Y-124617D01*
X432002Y-124635D01*
X432104Y-124655D01*
X432206Y-124680D01*
X432306Y-124708D01*
X432406Y-124740D01*
X432504Y-124776D01*
X432601Y-124815D01*
X432696Y-124857D01*
X432790Y-124903D01*
X432882Y-124953D01*
X432972Y-125005D01*
X433060Y-125061D01*
X433146Y-125121D01*
X433230Y-125183D01*
X433311Y-125248D01*
X433390Y-125316D01*
X433467Y-125388D01*
X433540Y-125461D01*
X433612Y-125538D01*
X433680Y-125617D01*
X433745Y-125698D01*
X433807Y-125782D01*
X433867Y-125868D01*
X433923Y-125956D01*
X433975Y-126046D01*
X434025Y-126138D01*
X434071Y-126232D01*
X434113Y-126327D01*
X434152Y-126424D01*
X434188Y-126522D01*
X434220Y-126622D01*
X434248Y-126722D01*
X434273Y-126824D01*
X434293Y-126926D01*
X434311Y-127029D01*
X434324Y-127132D01*
X434333Y-127236D01*
X434339Y-127341D01*
X434341Y-127445D01*
X431483Y-124587D02*
X431365Y-124589D01*
X431246Y-124595D01*
X431128Y-124604D01*
X431011Y-124617D01*
X430894Y-124635D01*
X430777Y-124655D01*
X430661Y-124680D01*
X430546Y-124708D01*
X430433Y-124741D01*
X430320Y-124776D01*
X430208Y-124816D01*
X430098Y-124858D01*
X429989Y-124905D01*
X429881Y-124955D01*
X429776Y-125008D01*
X429672Y-125065D01*
X429570Y-125125D01*
X429470Y-125188D01*
X429372Y-125255D01*
X429276Y-125324D01*
X429183Y-125397D01*
X429092Y-125473D01*
X429003Y-125551D01*
X428917Y-125633D01*
X428834Y-125717D01*
X428753Y-125803D01*
X428676Y-125893D01*
X428601Y-125984D01*
X428529Y-126078D01*
X428460Y-126175D01*
X428395Y-126273D01*
X428332Y-126374D01*
X428273Y-126477D01*
X428217Y-126581D01*
X428165Y-126687D01*
X428116Y-126795D01*
X428071Y-126904D01*
X428029Y-127015D01*
X427991Y-127127D01*
X433388Y-129667D02*
X433464Y-129592D01*
X433539Y-129513D01*
X433610Y-129432D01*
X433679Y-129348D01*
X433744Y-129262D01*
X433806Y-129174D01*
X433866Y-129084D01*
X433922Y-128992D01*
X433975Y-128897D01*
X434024Y-128801D01*
X434070Y-128703D01*
X434113Y-128604D01*
X434152Y-128503D01*
X434187Y-128401D01*
X434219Y-128298D01*
X434247Y-128194D01*
X434272Y-128089D01*
X434293Y-127982D01*
X434310Y-127876D01*
X434323Y-127769D01*
X434332Y-127661D01*
X434338Y-127553D01*
X434340Y-127445D01*
X433388Y-129667D02*
X427990Y-136017D01*
X434340Y-136017D01*
D12*
X48818Y226120D02*
X48818Y229120D01*
X48818Y226120D02*
X45818Y226120D01*
X45818Y229120D01*
X38818Y229120D01*
X38818Y40120D02*
X45818Y40120D01*
X45818Y43120D01*
X48818Y43120D01*
X48818Y40120D01*
X48818Y43120D02*
X48818Y226120D01*
X38818Y229120D02*
X38818Y40120D01*
X82818Y229120D02*
X92818Y229120D01*
X92818Y217120D01*
X92818Y40120D02*
X82818Y40120D01*
X92818Y40120D02*
X92818Y52120D01*
X52818Y229120D02*
X48818Y229120D01*
X48818Y40120D02*
X52818Y40120D01*
D13*
X120960Y210018D02*
X109276Y217807D01*
X109276Y210018D02*
X120960Y217807D01*
X120960Y222097D02*
X120960Y225992D01*
X120958Y226091D01*
X120952Y226191D01*
X120943Y226290D01*
X120930Y226388D01*
X120913Y226486D01*
X120892Y226584D01*
X120867Y226680D01*
X120839Y226775D01*
X120807Y226869D01*
X120772Y226962D01*
X120733Y227054D01*
X120690Y227144D01*
X120645Y227232D01*
X120595Y227319D01*
X120543Y227403D01*
X120487Y227486D01*
X120429Y227566D01*
X120367Y227644D01*
X120302Y227719D01*
X120234Y227792D01*
X120164Y227862D01*
X120091Y227930D01*
X120016Y227995D01*
X119938Y228057D01*
X119858Y228115D01*
X119775Y228171D01*
X119691Y228223D01*
X119604Y228273D01*
X119516Y228318D01*
X119426Y228361D01*
X119334Y228400D01*
X119241Y228435D01*
X119147Y228467D01*
X119052Y228495D01*
X118956Y228520D01*
X118858Y228541D01*
X118760Y228558D01*
X118662Y228571D01*
X118563Y228580D01*
X118463Y228586D01*
X118364Y228588D01*
X117065Y228588D01*
X116966Y228586D01*
X116866Y228580D01*
X116767Y228571D01*
X116669Y228558D01*
X116571Y228541D01*
X116473Y228520D01*
X116377Y228495D01*
X116282Y228467D01*
X116188Y228435D01*
X116095Y228400D01*
X116003Y228361D01*
X115913Y228318D01*
X115825Y228273D01*
X115738Y228223D01*
X115654Y228171D01*
X115571Y228115D01*
X115491Y228057D01*
X115413Y227995D01*
X115338Y227930D01*
X115265Y227862D01*
X115195Y227792D01*
X115127Y227719D01*
X115062Y227644D01*
X115000Y227566D01*
X114942Y227486D01*
X114886Y227403D01*
X114834Y227319D01*
X114784Y227232D01*
X114739Y227144D01*
X114696Y227054D01*
X114657Y226962D01*
X114622Y226869D01*
X114590Y226775D01*
X114562Y226680D01*
X114537Y226584D01*
X114516Y226486D01*
X114499Y226388D01*
X114486Y226290D01*
X114477Y226191D01*
X114471Y226091D01*
X114469Y225992D01*
X114469Y222097D01*
X109276Y222097D01*
X109276Y228588D01*
D12*
X744170Y39564D02*
X744170Y36564D01*
X744170Y39564D02*
X747170Y39564D01*
X747170Y36564D01*
X754170Y36564D01*
X754170Y225564D02*
X747170Y225564D01*
X747170Y222564D01*
X744170Y222564D01*
X744170Y225564D01*
X744170Y222564D02*
X744170Y39564D01*
X754170Y36564D02*
X754170Y225564D01*
X710170Y36564D02*
X700170Y36564D01*
X700170Y48564D01*
X700170Y225564D02*
X710170Y225564D01*
X700170Y225564D02*
X700170Y213564D01*
X740170Y36564D02*
X744170Y36564D01*
X744170Y225564D02*
X740170Y225564D01*
D13*
X672028Y44885D02*
X683712Y37096D01*
X683712Y44885D02*
X672028Y37096D01*
X677221Y49175D02*
X677221Y53070D01*
X677223Y53169D01*
X677229Y53269D01*
X677238Y53368D01*
X677251Y53466D01*
X677268Y53564D01*
X677289Y53662D01*
X677314Y53758D01*
X677342Y53853D01*
X677374Y53947D01*
X677409Y54040D01*
X677448Y54132D01*
X677491Y54222D01*
X677536Y54310D01*
X677586Y54397D01*
X677638Y54481D01*
X677694Y54564D01*
X677752Y54644D01*
X677814Y54722D01*
X677879Y54797D01*
X677947Y54870D01*
X678017Y54940D01*
X678090Y55008D01*
X678165Y55073D01*
X678243Y55135D01*
X678323Y55193D01*
X678406Y55249D01*
X678490Y55301D01*
X678577Y55351D01*
X678665Y55396D01*
X678755Y55439D01*
X678847Y55478D01*
X678940Y55513D01*
X679034Y55545D01*
X679129Y55573D01*
X679225Y55598D01*
X679323Y55619D01*
X679421Y55636D01*
X679519Y55649D01*
X679618Y55658D01*
X679718Y55664D01*
X679817Y55666D01*
X680466Y55666D01*
X680466Y55667D02*
X680579Y55665D01*
X680692Y55659D01*
X680805Y55649D01*
X680918Y55635D01*
X681030Y55618D01*
X681141Y55596D01*
X681251Y55571D01*
X681361Y55541D01*
X681469Y55508D01*
X681576Y55471D01*
X681682Y55431D01*
X681786Y55386D01*
X681889Y55338D01*
X681990Y55287D01*
X682089Y55232D01*
X682186Y55174D01*
X682281Y55112D01*
X682374Y55047D01*
X682464Y54979D01*
X682552Y54908D01*
X682638Y54833D01*
X682721Y54756D01*
X682801Y54676D01*
X682878Y54593D01*
X682953Y54507D01*
X683024Y54419D01*
X683092Y54329D01*
X683157Y54236D01*
X683219Y54141D01*
X683277Y54044D01*
X683332Y53945D01*
X683383Y53844D01*
X683431Y53741D01*
X683476Y53637D01*
X683516Y53531D01*
X683553Y53424D01*
X683586Y53316D01*
X683616Y53206D01*
X683641Y53096D01*
X683663Y52985D01*
X683680Y52873D01*
X683694Y52760D01*
X683704Y52647D01*
X683710Y52534D01*
X683712Y52421D01*
X683710Y52308D01*
X683704Y52195D01*
X683694Y52082D01*
X683680Y51969D01*
X683663Y51857D01*
X683641Y51746D01*
X683616Y51636D01*
X683586Y51526D01*
X683553Y51418D01*
X683516Y51311D01*
X683476Y51205D01*
X683431Y51101D01*
X683383Y50998D01*
X683332Y50897D01*
X683277Y50798D01*
X683219Y50701D01*
X683157Y50606D01*
X683092Y50513D01*
X683024Y50423D01*
X682953Y50335D01*
X682878Y50249D01*
X682801Y50166D01*
X682721Y50086D01*
X682638Y50009D01*
X682552Y49934D01*
X682464Y49863D01*
X682374Y49795D01*
X682281Y49730D01*
X682186Y49668D01*
X682089Y49610D01*
X681990Y49555D01*
X681889Y49504D01*
X681786Y49456D01*
X681682Y49411D01*
X681576Y49371D01*
X681469Y49334D01*
X681361Y49301D01*
X681251Y49271D01*
X681141Y49246D01*
X681030Y49224D01*
X680918Y49207D01*
X680805Y49193D01*
X680692Y49183D01*
X680579Y49177D01*
X680466Y49175D01*
X677221Y49175D01*
X677078Y49177D01*
X676935Y49183D01*
X676792Y49193D01*
X676650Y49207D01*
X676508Y49224D01*
X676366Y49246D01*
X676225Y49271D01*
X676085Y49301D01*
X675946Y49334D01*
X675808Y49371D01*
X675671Y49412D01*
X675535Y49456D01*
X675400Y49505D01*
X675267Y49557D01*
X675135Y49612D01*
X675005Y49672D01*
X674876Y49735D01*
X674749Y49801D01*
X674625Y49871D01*
X674502Y49944D01*
X674381Y50021D01*
X674262Y50100D01*
X674146Y50184D01*
X674031Y50270D01*
X673920Y50359D01*
X673811Y50452D01*
X673704Y50547D01*
X673600Y50646D01*
X673499Y50747D01*
X673400Y50851D01*
X673305Y50957D01*
X673212Y51067D01*
X673123Y51178D01*
X673037Y51292D01*
X672954Y51409D01*
X672874Y51528D01*
X672797Y51649D01*
X672724Y51771D01*
X672654Y51896D01*
X672588Y52023D01*
X672525Y52152D01*
X672465Y52282D01*
X672410Y52414D01*
X672358Y52547D01*
X672309Y52682D01*
X672265Y52818D01*
X672224Y52955D01*
X672187Y53093D01*
X672154Y53232D01*
X672124Y53372D01*
X672099Y53513D01*
X672077Y53655D01*
X672060Y53797D01*
X672046Y53939D01*
X672036Y54082D01*
X672030Y54225D01*
X672028Y54368D01*
D10*
X622046Y263906D02*
X560070Y263906D01*
X560070Y137922D02*
X588010Y137922D01*
X594106Y137922D01*
X622046Y137922D01*
X594106Y137922D02*
X594104Y138031D01*
X594098Y138139D01*
X594089Y138248D01*
X594075Y138356D01*
X594058Y138463D01*
X594036Y138570D01*
X594011Y138676D01*
X593983Y138781D01*
X593950Y138885D01*
X593914Y138987D01*
X593874Y139088D01*
X593831Y139188D01*
X593784Y139286D01*
X593733Y139383D01*
X593679Y139477D01*
X593622Y139570D01*
X593562Y139660D01*
X593498Y139749D01*
X593431Y139835D01*
X593362Y139918D01*
X593289Y139999D01*
X593213Y140077D01*
X593135Y140153D01*
X593054Y140226D01*
X592971Y140295D01*
X592885Y140362D01*
X592796Y140426D01*
X592706Y140486D01*
X592613Y140543D01*
X592519Y140597D01*
X592422Y140648D01*
X592324Y140695D01*
X592224Y140738D01*
X592123Y140778D01*
X592021Y140814D01*
X591917Y140847D01*
X591812Y140875D01*
X591706Y140900D01*
X591599Y140922D01*
X591492Y140939D01*
X591384Y140953D01*
X591275Y140962D01*
X591167Y140968D01*
X591058Y140970D01*
X590949Y140968D01*
X590841Y140962D01*
X590732Y140953D01*
X590624Y140939D01*
X590517Y140922D01*
X590410Y140900D01*
X590304Y140875D01*
X590199Y140847D01*
X590095Y140814D01*
X589993Y140778D01*
X589892Y140738D01*
X589792Y140695D01*
X589694Y140648D01*
X589597Y140597D01*
X589503Y140543D01*
X589410Y140486D01*
X589320Y140426D01*
X589231Y140362D01*
X589145Y140295D01*
X589062Y140226D01*
X588981Y140153D01*
X588903Y140077D01*
X588827Y139999D01*
X588754Y139918D01*
X588685Y139835D01*
X588618Y139749D01*
X588554Y139660D01*
X588494Y139570D01*
X588437Y139477D01*
X588383Y139383D01*
X588332Y139286D01*
X588285Y139188D01*
X588242Y139088D01*
X588202Y138987D01*
X588166Y138885D01*
X588133Y138781D01*
X588105Y138676D01*
X588080Y138570D01*
X588058Y138463D01*
X588041Y138356D01*
X588027Y138248D01*
X588018Y138139D01*
X588012Y138031D01*
X588010Y137922D01*
D14*
X631987Y136962D02*
X631987Y132983D01*
X631987Y136962D02*
X629666Y139947D01*
X631987Y136962D02*
X634309Y139947D01*
X631987Y136962D02*
X628340Y135636D01*
X631987Y136962D02*
X635635Y135636D01*
X623443Y194945D02*
X623443Y203567D01*
X623441Y203681D01*
X623435Y203796D01*
X623425Y203910D01*
X623411Y204023D01*
X623394Y204137D01*
X623372Y204249D01*
X623347Y204361D01*
X623317Y204471D01*
X623284Y204581D01*
X623247Y204689D01*
X623207Y204796D01*
X623162Y204902D01*
X623115Y205006D01*
X623063Y205108D01*
X623008Y205208D01*
X622950Y205307D01*
X622888Y205403D01*
X622823Y205498D01*
X622755Y205589D01*
X622683Y205679D01*
X622609Y205766D01*
X622532Y205850D01*
X622451Y205932D01*
X622368Y206011D01*
X622283Y206087D01*
X622194Y206160D01*
X622104Y206229D01*
X622011Y206296D01*
X621915Y206359D01*
X621818Y206419D01*
X621718Y206476D01*
X621617Y206529D01*
X621514Y206579D01*
X621409Y206625D01*
X621303Y206668D01*
X621195Y206706D01*
X621086Y206741D01*
X620976Y206772D01*
X620865Y206800D01*
X620753Y206823D01*
X620640Y206843D01*
X620527Y206859D01*
X620413Y206871D01*
X620299Y206879D01*
X620184Y206883D01*
X620070Y206883D01*
X619955Y206879D01*
X619841Y206871D01*
X619727Y206859D01*
X619614Y206843D01*
X619501Y206823D01*
X619389Y206800D01*
X619278Y206772D01*
X619168Y206741D01*
X619059Y206706D01*
X618951Y206668D01*
X618845Y206625D01*
X618740Y206579D01*
X618637Y206529D01*
X618536Y206476D01*
X618436Y206419D01*
X618339Y206359D01*
X618243Y206296D01*
X618150Y206229D01*
X618060Y206160D01*
X617971Y206087D01*
X617886Y206011D01*
X617803Y205932D01*
X617722Y205850D01*
X617645Y205766D01*
X617571Y205679D01*
X617499Y205589D01*
X617431Y205498D01*
X617366Y205403D01*
X617304Y205307D01*
X617246Y205208D01*
X617191Y205108D01*
X617139Y205006D01*
X617092Y204902D01*
X617047Y204796D01*
X617007Y204689D01*
X616970Y204581D01*
X616937Y204471D01*
X616907Y204361D01*
X616882Y204249D01*
X616860Y204137D01*
X616843Y204023D01*
X616829Y203910D01*
X616819Y203796D01*
X616813Y203681D01*
X616811Y203567D01*
X616811Y194945D01*
X611632Y197598D02*
X608316Y194945D01*
X608316Y206883D01*
X611632Y206883D02*
X605000Y206883D01*
X497967Y284805D02*
X497967Y286131D01*
X504599Y286131D01*
X501283Y274193D01*
X509397Y276846D02*
X512050Y286131D01*
X509397Y276846D02*
X516029Y276846D01*
X514040Y279499D02*
X514040Y274193D01*
X520164Y274193D02*
X524143Y286131D01*
X528122Y274193D01*
X527128Y277178D02*
X521159Y277178D01*
X532658Y274193D02*
X532658Y286131D01*
X532658Y274193D02*
X537963Y274193D01*
X545479Y274193D02*
X541500Y286131D01*
X549458Y286131D02*
X545479Y274193D01*
X556217Y274193D02*
X558870Y274193D01*
X556217Y274193D02*
X556115Y274195D01*
X556014Y274201D01*
X555913Y274211D01*
X555812Y274224D01*
X555712Y274242D01*
X555613Y274263D01*
X555514Y274288D01*
X555417Y274317D01*
X555320Y274349D01*
X555225Y274385D01*
X555132Y274425D01*
X555040Y274468D01*
X554950Y274515D01*
X554861Y274566D01*
X554775Y274619D01*
X554691Y274676D01*
X554609Y274736D01*
X554529Y274799D01*
X554452Y274865D01*
X554377Y274934D01*
X554305Y275006D01*
X554236Y275081D01*
X554170Y275158D01*
X554107Y275238D01*
X554047Y275320D01*
X553990Y275404D01*
X553937Y275490D01*
X553886Y275579D01*
X553839Y275669D01*
X553796Y275761D01*
X553756Y275854D01*
X553720Y275949D01*
X553688Y276046D01*
X553659Y276143D01*
X553634Y276242D01*
X553613Y276341D01*
X553595Y276441D01*
X553582Y276542D01*
X553572Y276643D01*
X553566Y276744D01*
X553564Y276846D01*
X553564Y283478D01*
X553566Y283580D01*
X553572Y283681D01*
X553582Y283782D01*
X553595Y283883D01*
X553613Y283983D01*
X553634Y284082D01*
X553659Y284181D01*
X553688Y284278D01*
X553720Y284375D01*
X553756Y284470D01*
X553796Y284563D01*
X553839Y284655D01*
X553886Y284745D01*
X553937Y284834D01*
X553990Y284920D01*
X554047Y285004D01*
X554107Y285086D01*
X554170Y285166D01*
X554236Y285243D01*
X554305Y285318D01*
X554377Y285390D01*
X554452Y285459D01*
X554529Y285525D01*
X554609Y285588D01*
X554691Y285648D01*
X554775Y285705D01*
X554861Y285758D01*
X554950Y285809D01*
X555040Y285856D01*
X555132Y285899D01*
X555225Y285939D01*
X555320Y285975D01*
X555417Y286007D01*
X555514Y286036D01*
X555612Y286061D01*
X555712Y286082D01*
X555812Y286100D01*
X555913Y286113D01*
X556014Y286123D01*
X556115Y286129D01*
X556217Y286131D01*
X558870Y286131D01*
X563118Y283478D02*
X566434Y286131D01*
X566434Y274193D01*
X563118Y274193D02*
X569750Y274193D01*
X574548Y280825D02*
X578527Y280825D01*
X578629Y280823D01*
X578730Y280817D01*
X578831Y280807D01*
X578932Y280794D01*
X579032Y280776D01*
X579131Y280755D01*
X579230Y280730D01*
X579327Y280701D01*
X579424Y280669D01*
X579519Y280633D01*
X579612Y280593D01*
X579704Y280550D01*
X579794Y280503D01*
X579883Y280452D01*
X579969Y280399D01*
X580053Y280342D01*
X580135Y280282D01*
X580215Y280219D01*
X580292Y280153D01*
X580367Y280084D01*
X580439Y280012D01*
X580508Y279937D01*
X580574Y279860D01*
X580637Y279780D01*
X580697Y279698D01*
X580754Y279614D01*
X580807Y279528D01*
X580858Y279439D01*
X580905Y279349D01*
X580948Y279257D01*
X580988Y279164D01*
X581024Y279069D01*
X581056Y278972D01*
X581085Y278875D01*
X581110Y278776D01*
X581131Y278677D01*
X581149Y278577D01*
X581162Y278476D01*
X581172Y278375D01*
X581178Y278274D01*
X581180Y278172D01*
X581180Y277509D01*
X581178Y277395D01*
X581172Y277280D01*
X581162Y277166D01*
X581148Y277053D01*
X581131Y276939D01*
X581109Y276827D01*
X581084Y276715D01*
X581054Y276605D01*
X581021Y276495D01*
X580984Y276387D01*
X580944Y276280D01*
X580899Y276174D01*
X580852Y276070D01*
X580800Y275968D01*
X580745Y275868D01*
X580687Y275769D01*
X580625Y275673D01*
X580560Y275578D01*
X580492Y275487D01*
X580420Y275397D01*
X580346Y275310D01*
X580269Y275226D01*
X580188Y275144D01*
X580105Y275065D01*
X580020Y274989D01*
X579931Y274916D01*
X579841Y274847D01*
X579748Y274780D01*
X579652Y274717D01*
X579555Y274657D01*
X579455Y274600D01*
X579354Y274547D01*
X579251Y274497D01*
X579146Y274451D01*
X579040Y274408D01*
X578932Y274370D01*
X578823Y274335D01*
X578713Y274304D01*
X578602Y274276D01*
X578490Y274253D01*
X578377Y274233D01*
X578264Y274217D01*
X578150Y274205D01*
X578036Y274197D01*
X577921Y274193D01*
X577807Y274193D01*
X577692Y274197D01*
X577578Y274205D01*
X577464Y274217D01*
X577351Y274233D01*
X577238Y274253D01*
X577126Y274276D01*
X577015Y274304D01*
X576905Y274335D01*
X576796Y274370D01*
X576688Y274408D01*
X576582Y274451D01*
X576477Y274497D01*
X576374Y274547D01*
X576273Y274600D01*
X576173Y274657D01*
X576076Y274717D01*
X575980Y274780D01*
X575887Y274847D01*
X575797Y274916D01*
X575708Y274989D01*
X575623Y275065D01*
X575540Y275144D01*
X575459Y275226D01*
X575382Y275310D01*
X575308Y275397D01*
X575236Y275487D01*
X575168Y275578D01*
X575103Y275673D01*
X575041Y275769D01*
X574983Y275868D01*
X574928Y275968D01*
X574876Y276070D01*
X574829Y276174D01*
X574784Y276280D01*
X574744Y276387D01*
X574707Y276495D01*
X574674Y276605D01*
X574644Y276715D01*
X574619Y276827D01*
X574597Y276939D01*
X574580Y277053D01*
X574566Y277166D01*
X574556Y277280D01*
X574550Y277395D01*
X574548Y277509D01*
X574548Y280825D01*
X574550Y280969D01*
X574556Y281112D01*
X574566Y281256D01*
X574579Y281399D01*
X574597Y281541D01*
X574618Y281683D01*
X574643Y281825D01*
X574672Y281966D01*
X574705Y282106D01*
X574741Y282245D01*
X574782Y282382D01*
X574826Y282519D01*
X574873Y282655D01*
X574925Y282789D01*
X574980Y282922D01*
X575038Y283053D01*
X575100Y283183D01*
X575166Y283310D01*
X575235Y283436D01*
X575308Y283561D01*
X575383Y283683D01*
X575462Y283803D01*
X575545Y283920D01*
X575630Y284036D01*
X575718Y284149D01*
X575810Y284260D01*
X575904Y284368D01*
X576002Y284474D01*
X576102Y284577D01*
X576205Y284677D01*
X576311Y284775D01*
X576419Y284869D01*
X576530Y284961D01*
X576643Y285049D01*
X576758Y285134D01*
X576876Y285217D01*
X576996Y285296D01*
X577118Y285371D01*
X577243Y285444D01*
X577369Y285513D01*
X577496Y285578D01*
X577626Y285641D01*
X577757Y285699D01*
X577890Y285754D01*
X578024Y285806D01*
X578160Y285853D01*
X578297Y285897D01*
X578434Y285938D01*
X578573Y285974D01*
X578713Y286007D01*
X578854Y286036D01*
X578996Y286061D01*
X579138Y286082D01*
X579280Y286100D01*
X579423Y286113D01*
X579567Y286123D01*
X579710Y286129D01*
X579854Y286131D01*
X588631Y286131D02*
X585978Y276846D01*
X592610Y276846D01*
X590620Y279499D02*
X590620Y274193D01*
X601055Y286132D02*
X601162Y286130D01*
X601268Y286124D01*
X601374Y286115D01*
X601480Y286102D01*
X601585Y286085D01*
X601690Y286064D01*
X601793Y286039D01*
X601896Y286011D01*
X601998Y285979D01*
X602098Y285944D01*
X602197Y285905D01*
X602295Y285862D01*
X602391Y285816D01*
X602486Y285767D01*
X602578Y285714D01*
X602669Y285658D01*
X602757Y285599D01*
X602844Y285537D01*
X602928Y285471D01*
X603010Y285403D01*
X603089Y285332D01*
X603166Y285258D01*
X603240Y285181D01*
X603311Y285102D01*
X603379Y285020D01*
X603445Y284936D01*
X603507Y284849D01*
X603566Y284761D01*
X603622Y284670D01*
X603675Y284578D01*
X603724Y284483D01*
X603770Y284387D01*
X603813Y284289D01*
X603852Y284190D01*
X603887Y284090D01*
X603919Y283988D01*
X603947Y283885D01*
X603972Y283782D01*
X603993Y283677D01*
X604010Y283572D01*
X604023Y283466D01*
X604032Y283360D01*
X604038Y283254D01*
X604040Y283147D01*
X601055Y286131D02*
X600934Y286129D01*
X600814Y286123D01*
X600694Y286114D01*
X600574Y286101D01*
X600455Y286084D01*
X600336Y286063D01*
X600218Y286039D01*
X600101Y286010D01*
X599985Y285979D01*
X599869Y285943D01*
X599755Y285904D01*
X599643Y285861D01*
X599531Y285815D01*
X599421Y285766D01*
X599313Y285712D01*
X599207Y285656D01*
X599102Y285596D01*
X598999Y285533D01*
X598899Y285467D01*
X598800Y285398D01*
X598704Y285325D01*
X598610Y285250D01*
X598518Y285172D01*
X598429Y285090D01*
X598342Y285006D01*
X598259Y284920D01*
X598177Y284831D01*
X598099Y284739D01*
X598024Y284645D01*
X597952Y284548D01*
X597882Y284450D01*
X597816Y284349D01*
X597753Y284246D01*
X597694Y284141D01*
X597637Y284035D01*
X597584Y283926D01*
X597535Y283817D01*
X597489Y283705D01*
X597446Y283592D01*
X597408Y283478D01*
X603045Y280825D02*
X603125Y280905D01*
X603203Y280987D01*
X603277Y281071D01*
X603349Y281159D01*
X603417Y281249D01*
X603483Y281341D01*
X603545Y281435D01*
X603603Y281531D01*
X603658Y281630D01*
X603710Y281730D01*
X603758Y281832D01*
X603803Y281936D01*
X603843Y282041D01*
X603880Y282148D01*
X603914Y282256D01*
X603943Y282365D01*
X603969Y282475D01*
X603990Y282586D01*
X604008Y282697D01*
X604022Y282809D01*
X604032Y282921D01*
X604038Y283034D01*
X604040Y283147D01*
X603045Y280825D02*
X597408Y274193D01*
X604040Y274193D01*
X608838Y276846D02*
X611491Y286131D01*
X608838Y276846D02*
X615470Y276846D01*
X613480Y279499D02*
X613480Y274193D01*
X620268Y274193D02*
X624247Y274193D01*
X624349Y274195D01*
X624450Y274201D01*
X624551Y274211D01*
X624652Y274224D01*
X624752Y274242D01*
X624851Y274263D01*
X624950Y274288D01*
X625047Y274317D01*
X625144Y274349D01*
X625239Y274385D01*
X625332Y274425D01*
X625424Y274468D01*
X625514Y274515D01*
X625603Y274566D01*
X625689Y274619D01*
X625773Y274676D01*
X625855Y274736D01*
X625935Y274799D01*
X626012Y274865D01*
X626087Y274934D01*
X626159Y275006D01*
X626228Y275081D01*
X626294Y275158D01*
X626357Y275238D01*
X626417Y275320D01*
X626474Y275404D01*
X626527Y275490D01*
X626578Y275579D01*
X626625Y275669D01*
X626668Y275761D01*
X626708Y275854D01*
X626744Y275949D01*
X626776Y276046D01*
X626805Y276143D01*
X626830Y276241D01*
X626851Y276341D01*
X626869Y276441D01*
X626882Y276542D01*
X626892Y276643D01*
X626898Y276744D01*
X626900Y276846D01*
X626900Y278172D01*
X626898Y278274D01*
X626892Y278375D01*
X626882Y278476D01*
X626869Y278577D01*
X626851Y278677D01*
X626830Y278776D01*
X626805Y278875D01*
X626776Y278972D01*
X626744Y279069D01*
X626708Y279164D01*
X626668Y279257D01*
X626625Y279349D01*
X626578Y279439D01*
X626527Y279528D01*
X626474Y279614D01*
X626417Y279698D01*
X626357Y279780D01*
X626294Y279860D01*
X626228Y279937D01*
X626159Y280012D01*
X626087Y280084D01*
X626012Y280153D01*
X625935Y280219D01*
X625855Y280282D01*
X625773Y280342D01*
X625689Y280399D01*
X625603Y280452D01*
X625514Y280503D01*
X625424Y280550D01*
X625332Y280593D01*
X625239Y280633D01*
X625144Y280669D01*
X625047Y280701D01*
X624950Y280730D01*
X624851Y280755D01*
X624752Y280776D01*
X624652Y280794D01*
X624551Y280807D01*
X624450Y280817D01*
X624349Y280823D01*
X624247Y280825D01*
X620268Y280825D01*
X620268Y286131D01*
X626900Y286131D01*
X632079Y286131D02*
X632079Y274193D01*
X632079Y286131D02*
X635395Y286131D01*
X635508Y286129D01*
X635621Y286123D01*
X635734Y286114D01*
X635847Y286100D01*
X635958Y286083D01*
X636070Y286062D01*
X636180Y286037D01*
X636290Y286008D01*
X636398Y285976D01*
X636505Y285940D01*
X636611Y285900D01*
X636716Y285856D01*
X636819Y285810D01*
X636921Y285759D01*
X637020Y285705D01*
X637118Y285648D01*
X637214Y285588D01*
X637307Y285524D01*
X637399Y285457D01*
X637488Y285387D01*
X637574Y285314D01*
X637658Y285238D01*
X637740Y285160D01*
X637818Y285078D01*
X637894Y284994D01*
X637967Y284908D01*
X638037Y284819D01*
X638104Y284727D01*
X638168Y284634D01*
X638228Y284538D01*
X638285Y284440D01*
X638339Y284341D01*
X638390Y284239D01*
X638436Y284136D01*
X638480Y284031D01*
X638520Y283925D01*
X638556Y283818D01*
X638588Y283710D01*
X638617Y283600D01*
X638642Y283490D01*
X638663Y283378D01*
X638680Y283267D01*
X638694Y283154D01*
X638703Y283041D01*
X638709Y282928D01*
X638711Y282815D01*
X638711Y277509D01*
X638709Y277396D01*
X638703Y277283D01*
X638694Y277170D01*
X638680Y277057D01*
X638663Y276946D01*
X638642Y276834D01*
X638617Y276724D01*
X638588Y276614D01*
X638556Y276506D01*
X638520Y276399D01*
X638480Y276293D01*
X638436Y276188D01*
X638390Y276085D01*
X638339Y275983D01*
X638285Y275884D01*
X638228Y275786D01*
X638168Y275690D01*
X638104Y275597D01*
X638037Y275505D01*
X637967Y275416D01*
X637894Y275330D01*
X637818Y275246D01*
X637740Y275164D01*
X637658Y275086D01*
X637574Y275010D01*
X637488Y274937D01*
X637399Y274867D01*
X637307Y274800D01*
X637214Y274736D01*
X637118Y274676D01*
X637020Y274619D01*
X636921Y274565D01*
X636819Y274514D01*
X636716Y274468D01*
X636611Y274424D01*
X636505Y274384D01*
X636398Y274348D01*
X636290Y274316D01*
X636180Y274287D01*
X636070Y274262D01*
X635958Y274241D01*
X635847Y274224D01*
X635734Y274210D01*
X635621Y274201D01*
X635508Y274195D01*
X635395Y274193D01*
X632079Y274193D01*
X648913Y280825D02*
X650903Y280825D01*
X650903Y274193D01*
X646923Y274193D01*
X646821Y274195D01*
X646720Y274201D01*
X646619Y274211D01*
X646518Y274224D01*
X646418Y274242D01*
X646319Y274263D01*
X646220Y274288D01*
X646123Y274317D01*
X646026Y274349D01*
X645931Y274385D01*
X645838Y274425D01*
X645746Y274468D01*
X645656Y274515D01*
X645567Y274566D01*
X645481Y274619D01*
X645397Y274676D01*
X645315Y274736D01*
X645235Y274799D01*
X645158Y274865D01*
X645083Y274934D01*
X645011Y275006D01*
X644942Y275081D01*
X644876Y275158D01*
X644813Y275238D01*
X644753Y275320D01*
X644696Y275404D01*
X644643Y275490D01*
X644592Y275579D01*
X644545Y275669D01*
X644502Y275761D01*
X644462Y275854D01*
X644426Y275949D01*
X644394Y276046D01*
X644365Y276143D01*
X644340Y276242D01*
X644319Y276341D01*
X644301Y276441D01*
X644288Y276542D01*
X644278Y276643D01*
X644272Y276744D01*
X644270Y276846D01*
X644271Y276846D02*
X644271Y283478D01*
X644273Y283580D01*
X644279Y283681D01*
X644289Y283782D01*
X644302Y283883D01*
X644320Y283983D01*
X644341Y284082D01*
X644366Y284181D01*
X644395Y284278D01*
X644427Y284375D01*
X644463Y284470D01*
X644503Y284563D01*
X644546Y284655D01*
X644593Y284745D01*
X644644Y284834D01*
X644697Y284920D01*
X644754Y285004D01*
X644814Y285086D01*
X644877Y285166D01*
X644943Y285243D01*
X645012Y285318D01*
X645084Y285390D01*
X645159Y285459D01*
X645236Y285525D01*
X645316Y285588D01*
X645398Y285648D01*
X645482Y285705D01*
X645568Y285758D01*
X645657Y285809D01*
X645747Y285856D01*
X645839Y285899D01*
X645932Y285939D01*
X646027Y285975D01*
X646124Y286007D01*
X646221Y286036D01*
X646319Y286061D01*
X646419Y286082D01*
X646519Y286100D01*
X646620Y286113D01*
X646721Y286123D01*
X646822Y286129D01*
X646924Y286131D01*
X646923Y286131D02*
X650903Y286131D01*
X661105Y280825D02*
X663095Y280825D01*
X663095Y274193D01*
X659115Y274193D01*
X659013Y274195D01*
X658912Y274201D01*
X658811Y274211D01*
X658710Y274224D01*
X658610Y274242D01*
X658511Y274263D01*
X658412Y274288D01*
X658315Y274317D01*
X658218Y274349D01*
X658123Y274385D01*
X658030Y274425D01*
X657938Y274468D01*
X657848Y274515D01*
X657759Y274566D01*
X657673Y274619D01*
X657589Y274676D01*
X657507Y274736D01*
X657427Y274799D01*
X657350Y274865D01*
X657275Y274934D01*
X657203Y275006D01*
X657134Y275081D01*
X657068Y275158D01*
X657005Y275238D01*
X656945Y275320D01*
X656888Y275404D01*
X656835Y275490D01*
X656784Y275579D01*
X656737Y275669D01*
X656694Y275761D01*
X656654Y275854D01*
X656618Y275949D01*
X656586Y276046D01*
X656557Y276143D01*
X656532Y276242D01*
X656511Y276341D01*
X656493Y276441D01*
X656480Y276542D01*
X656470Y276643D01*
X656464Y276744D01*
X656462Y276846D01*
X656463Y276846D02*
X656463Y283478D01*
X656462Y283478D02*
X656464Y283580D01*
X656470Y283681D01*
X656480Y283782D01*
X656493Y283883D01*
X656511Y283983D01*
X656532Y284082D01*
X656557Y284181D01*
X656586Y284278D01*
X656618Y284375D01*
X656654Y284470D01*
X656694Y284563D01*
X656737Y284655D01*
X656784Y284745D01*
X656835Y284834D01*
X656888Y284920D01*
X656945Y285004D01*
X657005Y285086D01*
X657068Y285166D01*
X657134Y285243D01*
X657203Y285318D01*
X657275Y285390D01*
X657350Y285459D01*
X657427Y285525D01*
X657507Y285588D01*
X657589Y285648D01*
X657673Y285705D01*
X657759Y285758D01*
X657848Y285809D01*
X657938Y285856D01*
X658030Y285899D01*
X658123Y285939D01*
X658218Y285975D01*
X658315Y286007D01*
X658412Y286036D01*
X658510Y286061D01*
X658610Y286082D01*
X658710Y286100D01*
X658811Y286113D01*
X658912Y286123D01*
X659013Y286129D01*
X659115Y286131D01*
X663095Y286131D01*
X668719Y286131D02*
X668719Y274193D01*
X668719Y286131D02*
X672035Y286131D01*
X672149Y286129D01*
X672264Y286123D01*
X672378Y286113D01*
X672491Y286099D01*
X672605Y286082D01*
X672717Y286060D01*
X672829Y286035D01*
X672939Y286005D01*
X673049Y285972D01*
X673157Y285935D01*
X673264Y285895D01*
X673370Y285850D01*
X673474Y285803D01*
X673576Y285751D01*
X673676Y285696D01*
X673775Y285638D01*
X673871Y285576D01*
X673966Y285511D01*
X674057Y285443D01*
X674147Y285371D01*
X674234Y285297D01*
X674318Y285220D01*
X674400Y285139D01*
X674479Y285056D01*
X674555Y284971D01*
X674628Y284882D01*
X674697Y284792D01*
X674764Y284699D01*
X674827Y284603D01*
X674887Y284506D01*
X674944Y284406D01*
X674997Y284305D01*
X675047Y284202D01*
X675093Y284097D01*
X675136Y283991D01*
X675174Y283883D01*
X675209Y283774D01*
X675240Y283664D01*
X675268Y283553D01*
X675291Y283441D01*
X675311Y283328D01*
X675327Y283215D01*
X675339Y283101D01*
X675347Y282987D01*
X675351Y282872D01*
X675351Y282758D01*
X675347Y282643D01*
X675339Y282529D01*
X675327Y282415D01*
X675311Y282302D01*
X675291Y282189D01*
X675268Y282077D01*
X675240Y281966D01*
X675209Y281856D01*
X675174Y281747D01*
X675136Y281639D01*
X675093Y281533D01*
X675047Y281428D01*
X674997Y281325D01*
X674944Y281224D01*
X674887Y281124D01*
X674827Y281027D01*
X674764Y280931D01*
X674697Y280838D01*
X674628Y280748D01*
X674555Y280659D01*
X674479Y280574D01*
X674400Y280491D01*
X674318Y280410D01*
X674234Y280333D01*
X674147Y280259D01*
X674057Y280187D01*
X673966Y280119D01*
X673871Y280054D01*
X673775Y279992D01*
X673676Y279934D01*
X673576Y279879D01*
X673474Y279827D01*
X673370Y279780D01*
X673264Y279735D01*
X673157Y279695D01*
X673049Y279658D01*
X672939Y279625D01*
X672829Y279595D01*
X672717Y279570D01*
X672605Y279548D01*
X672491Y279531D01*
X672378Y279517D01*
X672264Y279507D01*
X672149Y279501D01*
X672035Y279499D01*
X668719Y279499D01*
X672698Y279499D02*
X675351Y274193D01*
X680485Y274193D02*
X685791Y274193D01*
X680485Y274193D02*
X680485Y286131D01*
X685791Y286131D01*
X684465Y280825D02*
X680485Y280825D01*
X689990Y276846D02*
X692643Y286131D01*
X689990Y276846D02*
X696623Y276846D01*
X694633Y279499D02*
X694633Y274193D01*
D10*
X217678Y137668D02*
X155702Y137668D01*
X189738Y263652D02*
X217678Y263652D01*
X189738Y263652D02*
X183642Y263652D01*
X155702Y263652D01*
X183642Y263652D02*
X183644Y263543D01*
X183650Y263435D01*
X183659Y263326D01*
X183673Y263218D01*
X183690Y263111D01*
X183712Y263004D01*
X183737Y262898D01*
X183765Y262793D01*
X183798Y262689D01*
X183834Y262587D01*
X183874Y262486D01*
X183917Y262386D01*
X183964Y262288D01*
X184015Y262191D01*
X184069Y262097D01*
X184126Y262004D01*
X184186Y261914D01*
X184250Y261825D01*
X184317Y261739D01*
X184386Y261656D01*
X184459Y261575D01*
X184535Y261497D01*
X184613Y261421D01*
X184694Y261348D01*
X184777Y261279D01*
X184863Y261212D01*
X184952Y261148D01*
X185042Y261088D01*
X185135Y261031D01*
X185229Y260977D01*
X185326Y260926D01*
X185424Y260879D01*
X185524Y260836D01*
X185625Y260796D01*
X185727Y260760D01*
X185831Y260727D01*
X185936Y260699D01*
X186042Y260674D01*
X186149Y260652D01*
X186256Y260635D01*
X186364Y260621D01*
X186473Y260612D01*
X186581Y260606D01*
X186690Y260604D01*
X186799Y260606D01*
X186907Y260612D01*
X187016Y260621D01*
X187124Y260635D01*
X187231Y260652D01*
X187338Y260674D01*
X187444Y260699D01*
X187549Y260727D01*
X187653Y260760D01*
X187755Y260796D01*
X187856Y260836D01*
X187956Y260879D01*
X188054Y260926D01*
X188151Y260977D01*
X188245Y261031D01*
X188338Y261088D01*
X188428Y261148D01*
X188517Y261212D01*
X188603Y261279D01*
X188686Y261348D01*
X188767Y261421D01*
X188845Y261497D01*
X188921Y261575D01*
X188994Y261656D01*
X189063Y261739D01*
X189130Y261825D01*
X189194Y261914D01*
X189254Y262004D01*
X189311Y262097D01*
X189365Y262191D01*
X189416Y262288D01*
X189463Y262386D01*
X189506Y262486D01*
X189546Y262587D01*
X189582Y262689D01*
X189615Y262793D01*
X189643Y262898D01*
X189668Y263004D01*
X189690Y263111D01*
X189707Y263218D01*
X189721Y263326D01*
X189730Y263435D01*
X189736Y263543D01*
X189738Y263652D01*
D14*
X145761Y264612D02*
X145761Y268591D01*
X145761Y264612D02*
X148082Y261627D01*
X145761Y264612D02*
X143439Y261627D01*
X145761Y264612D02*
X149408Y265938D01*
X145761Y264612D02*
X142113Y265938D01*
X154305Y206629D02*
X154305Y198007D01*
X154307Y197893D01*
X154313Y197778D01*
X154323Y197664D01*
X154337Y197551D01*
X154354Y197437D01*
X154376Y197325D01*
X154401Y197213D01*
X154431Y197103D01*
X154464Y196993D01*
X154501Y196885D01*
X154541Y196778D01*
X154586Y196672D01*
X154633Y196568D01*
X154685Y196466D01*
X154740Y196366D01*
X154798Y196267D01*
X154860Y196171D01*
X154925Y196076D01*
X154993Y195985D01*
X155065Y195895D01*
X155139Y195808D01*
X155216Y195724D01*
X155297Y195642D01*
X155380Y195563D01*
X155465Y195487D01*
X155554Y195414D01*
X155644Y195345D01*
X155737Y195278D01*
X155833Y195215D01*
X155930Y195155D01*
X156030Y195098D01*
X156131Y195045D01*
X156234Y194995D01*
X156339Y194949D01*
X156445Y194906D01*
X156553Y194868D01*
X156662Y194833D01*
X156772Y194802D01*
X156883Y194774D01*
X156995Y194751D01*
X157108Y194731D01*
X157221Y194715D01*
X157335Y194703D01*
X157449Y194695D01*
X157564Y194691D01*
X157678Y194691D01*
X157793Y194695D01*
X157907Y194703D01*
X158021Y194715D01*
X158134Y194731D01*
X158247Y194751D01*
X158359Y194774D01*
X158470Y194802D01*
X158580Y194833D01*
X158689Y194868D01*
X158797Y194906D01*
X158903Y194949D01*
X159008Y194995D01*
X159111Y195045D01*
X159212Y195098D01*
X159312Y195155D01*
X159409Y195215D01*
X159505Y195278D01*
X159598Y195345D01*
X159688Y195414D01*
X159777Y195487D01*
X159862Y195563D01*
X159945Y195642D01*
X160026Y195724D01*
X160103Y195808D01*
X160177Y195895D01*
X160249Y195985D01*
X160317Y196076D01*
X160382Y196171D01*
X160444Y196267D01*
X160502Y196366D01*
X160557Y196466D01*
X160609Y196568D01*
X160656Y196672D01*
X160701Y196778D01*
X160741Y196885D01*
X160778Y196993D01*
X160811Y197103D01*
X160841Y197213D01*
X160866Y197325D01*
X160888Y197437D01*
X160905Y197551D01*
X160919Y197664D01*
X160929Y197778D01*
X160935Y197893D01*
X160937Y198007D01*
X160937Y206629D01*
X169764Y206630D02*
X169871Y206628D01*
X169977Y206622D01*
X170083Y206613D01*
X170189Y206600D01*
X170294Y206583D01*
X170399Y206562D01*
X170502Y206537D01*
X170605Y206509D01*
X170707Y206477D01*
X170807Y206442D01*
X170906Y206403D01*
X171004Y206360D01*
X171100Y206314D01*
X171195Y206265D01*
X171287Y206212D01*
X171378Y206156D01*
X171466Y206097D01*
X171553Y206035D01*
X171637Y205969D01*
X171719Y205901D01*
X171798Y205830D01*
X171875Y205756D01*
X171949Y205679D01*
X172020Y205600D01*
X172088Y205518D01*
X172154Y205434D01*
X172216Y205347D01*
X172275Y205259D01*
X172331Y205168D01*
X172384Y205076D01*
X172433Y204981D01*
X172479Y204885D01*
X172522Y204787D01*
X172561Y204688D01*
X172596Y204588D01*
X172628Y204486D01*
X172656Y204383D01*
X172681Y204280D01*
X172702Y204175D01*
X172719Y204070D01*
X172732Y203964D01*
X172741Y203858D01*
X172747Y203752D01*
X172749Y203645D01*
X169764Y206629D02*
X169643Y206627D01*
X169523Y206621D01*
X169403Y206612D01*
X169283Y206599D01*
X169164Y206582D01*
X169045Y206561D01*
X168927Y206537D01*
X168810Y206508D01*
X168694Y206477D01*
X168578Y206441D01*
X168464Y206402D01*
X168352Y206359D01*
X168240Y206313D01*
X168130Y206264D01*
X168022Y206210D01*
X167916Y206154D01*
X167811Y206094D01*
X167708Y206031D01*
X167608Y205965D01*
X167509Y205896D01*
X167413Y205823D01*
X167319Y205748D01*
X167227Y205670D01*
X167138Y205588D01*
X167051Y205504D01*
X166968Y205418D01*
X166886Y205329D01*
X166808Y205237D01*
X166733Y205143D01*
X166661Y205046D01*
X166591Y204948D01*
X166525Y204847D01*
X166462Y204744D01*
X166403Y204639D01*
X166346Y204533D01*
X166293Y204424D01*
X166244Y204315D01*
X166198Y204203D01*
X166155Y204090D01*
X166117Y203976D01*
X171754Y201323D02*
X171834Y201403D01*
X171912Y201485D01*
X171986Y201569D01*
X172058Y201657D01*
X172126Y201747D01*
X172192Y201839D01*
X172254Y201933D01*
X172312Y202029D01*
X172367Y202128D01*
X172419Y202228D01*
X172467Y202330D01*
X172512Y202434D01*
X172552Y202539D01*
X172589Y202646D01*
X172623Y202754D01*
X172652Y202863D01*
X172678Y202973D01*
X172699Y203084D01*
X172717Y203195D01*
X172731Y203307D01*
X172741Y203419D01*
X172747Y203532D01*
X172749Y203645D01*
X171753Y201323D02*
X166116Y194691D01*
X172748Y194691D01*
X91567Y285821D02*
X91567Y287147D01*
X98199Y287147D01*
X94883Y275209D01*
X102997Y277862D02*
X105650Y287147D01*
X102997Y277862D02*
X109629Y277862D01*
X107640Y280515D02*
X107640Y275209D01*
X113764Y275209D02*
X117743Y287147D01*
X121722Y275209D01*
X120728Y278194D02*
X114759Y278194D01*
X126258Y275209D02*
X126258Y287147D01*
X126258Y275209D02*
X131563Y275209D01*
X139079Y275209D02*
X135100Y287147D01*
X143058Y287147D02*
X139079Y275209D01*
X149817Y275209D02*
X152470Y275209D01*
X149817Y275209D02*
X149715Y275211D01*
X149614Y275217D01*
X149513Y275227D01*
X149412Y275240D01*
X149312Y275258D01*
X149213Y275279D01*
X149114Y275304D01*
X149017Y275333D01*
X148920Y275365D01*
X148825Y275401D01*
X148732Y275441D01*
X148640Y275484D01*
X148550Y275531D01*
X148461Y275582D01*
X148375Y275635D01*
X148291Y275692D01*
X148209Y275752D01*
X148129Y275815D01*
X148052Y275881D01*
X147977Y275950D01*
X147905Y276022D01*
X147836Y276097D01*
X147770Y276174D01*
X147707Y276254D01*
X147647Y276336D01*
X147590Y276420D01*
X147537Y276506D01*
X147486Y276595D01*
X147439Y276685D01*
X147396Y276777D01*
X147356Y276870D01*
X147320Y276965D01*
X147288Y277062D01*
X147259Y277159D01*
X147234Y277258D01*
X147213Y277357D01*
X147195Y277457D01*
X147182Y277558D01*
X147172Y277659D01*
X147166Y277760D01*
X147164Y277862D01*
X147164Y284494D01*
X147166Y284596D01*
X147172Y284697D01*
X147182Y284798D01*
X147195Y284899D01*
X147213Y284999D01*
X147234Y285098D01*
X147259Y285197D01*
X147288Y285294D01*
X147320Y285391D01*
X147356Y285486D01*
X147396Y285579D01*
X147439Y285671D01*
X147486Y285761D01*
X147537Y285850D01*
X147590Y285936D01*
X147647Y286020D01*
X147707Y286102D01*
X147770Y286182D01*
X147836Y286259D01*
X147905Y286334D01*
X147977Y286406D01*
X148052Y286475D01*
X148129Y286541D01*
X148209Y286604D01*
X148291Y286664D01*
X148375Y286721D01*
X148461Y286774D01*
X148550Y286825D01*
X148640Y286872D01*
X148732Y286915D01*
X148825Y286955D01*
X148920Y286991D01*
X149017Y287023D01*
X149114Y287052D01*
X149212Y287077D01*
X149312Y287098D01*
X149412Y287116D01*
X149513Y287129D01*
X149614Y287139D01*
X149715Y287145D01*
X149817Y287147D01*
X152470Y287147D01*
X156718Y284494D02*
X160034Y287147D01*
X160034Y275209D01*
X156718Y275209D02*
X163350Y275209D01*
X168148Y281841D02*
X172127Y281841D01*
X172229Y281839D01*
X172330Y281833D01*
X172431Y281823D01*
X172532Y281810D01*
X172632Y281792D01*
X172731Y281771D01*
X172830Y281746D01*
X172927Y281717D01*
X173024Y281685D01*
X173119Y281649D01*
X173212Y281609D01*
X173304Y281566D01*
X173394Y281519D01*
X173483Y281468D01*
X173569Y281415D01*
X173653Y281358D01*
X173735Y281298D01*
X173815Y281235D01*
X173892Y281169D01*
X173967Y281100D01*
X174039Y281028D01*
X174108Y280953D01*
X174174Y280876D01*
X174237Y280796D01*
X174297Y280714D01*
X174354Y280630D01*
X174407Y280544D01*
X174458Y280455D01*
X174505Y280365D01*
X174548Y280273D01*
X174588Y280180D01*
X174624Y280085D01*
X174656Y279988D01*
X174685Y279891D01*
X174710Y279792D01*
X174731Y279693D01*
X174749Y279593D01*
X174762Y279492D01*
X174772Y279391D01*
X174778Y279290D01*
X174780Y279188D01*
X174780Y278525D01*
X174778Y278411D01*
X174772Y278296D01*
X174762Y278182D01*
X174748Y278069D01*
X174731Y277955D01*
X174709Y277843D01*
X174684Y277731D01*
X174654Y277621D01*
X174621Y277511D01*
X174584Y277403D01*
X174544Y277296D01*
X174499Y277190D01*
X174452Y277086D01*
X174400Y276984D01*
X174345Y276884D01*
X174287Y276785D01*
X174225Y276689D01*
X174160Y276594D01*
X174092Y276503D01*
X174020Y276413D01*
X173946Y276326D01*
X173869Y276242D01*
X173788Y276160D01*
X173705Y276081D01*
X173620Y276005D01*
X173531Y275932D01*
X173441Y275863D01*
X173348Y275796D01*
X173252Y275733D01*
X173155Y275673D01*
X173055Y275616D01*
X172954Y275563D01*
X172851Y275513D01*
X172746Y275467D01*
X172640Y275424D01*
X172532Y275386D01*
X172423Y275351D01*
X172313Y275320D01*
X172202Y275292D01*
X172090Y275269D01*
X171977Y275249D01*
X171864Y275233D01*
X171750Y275221D01*
X171636Y275213D01*
X171521Y275209D01*
X171407Y275209D01*
X171292Y275213D01*
X171178Y275221D01*
X171064Y275233D01*
X170951Y275249D01*
X170838Y275269D01*
X170726Y275292D01*
X170615Y275320D01*
X170505Y275351D01*
X170396Y275386D01*
X170288Y275424D01*
X170182Y275467D01*
X170077Y275513D01*
X169974Y275563D01*
X169873Y275616D01*
X169773Y275673D01*
X169676Y275733D01*
X169580Y275796D01*
X169487Y275863D01*
X169397Y275932D01*
X169308Y276005D01*
X169223Y276081D01*
X169140Y276160D01*
X169059Y276242D01*
X168982Y276326D01*
X168908Y276413D01*
X168836Y276503D01*
X168768Y276594D01*
X168703Y276689D01*
X168641Y276785D01*
X168583Y276884D01*
X168528Y276984D01*
X168476Y277086D01*
X168429Y277190D01*
X168384Y277296D01*
X168344Y277403D01*
X168307Y277511D01*
X168274Y277621D01*
X168244Y277731D01*
X168219Y277843D01*
X168197Y277955D01*
X168180Y278069D01*
X168166Y278182D01*
X168156Y278296D01*
X168150Y278411D01*
X168148Y278525D01*
X168148Y281841D01*
X168150Y281985D01*
X168156Y282128D01*
X168166Y282272D01*
X168179Y282415D01*
X168197Y282557D01*
X168218Y282699D01*
X168243Y282841D01*
X168272Y282982D01*
X168305Y283122D01*
X168341Y283261D01*
X168382Y283398D01*
X168426Y283535D01*
X168473Y283671D01*
X168525Y283805D01*
X168580Y283938D01*
X168638Y284069D01*
X168700Y284199D01*
X168766Y284326D01*
X168835Y284452D01*
X168908Y284577D01*
X168983Y284699D01*
X169062Y284819D01*
X169145Y284936D01*
X169230Y285052D01*
X169318Y285165D01*
X169410Y285276D01*
X169504Y285384D01*
X169602Y285490D01*
X169702Y285593D01*
X169805Y285693D01*
X169911Y285791D01*
X170019Y285885D01*
X170130Y285977D01*
X170243Y286065D01*
X170358Y286150D01*
X170476Y286233D01*
X170596Y286312D01*
X170718Y286387D01*
X170843Y286460D01*
X170969Y286529D01*
X171096Y286594D01*
X171226Y286657D01*
X171357Y286715D01*
X171490Y286770D01*
X171624Y286822D01*
X171760Y286869D01*
X171897Y286913D01*
X172034Y286954D01*
X172173Y286990D01*
X172313Y287023D01*
X172454Y287052D01*
X172596Y287077D01*
X172738Y287098D01*
X172880Y287116D01*
X173023Y287129D01*
X173167Y287139D01*
X173310Y287145D01*
X173454Y287147D01*
X182231Y287147D02*
X179578Y277862D01*
X186210Y277862D01*
X184220Y280515D02*
X184220Y275209D01*
X194655Y287148D02*
X194762Y287146D01*
X194868Y287140D01*
X194974Y287131D01*
X195080Y287118D01*
X195185Y287101D01*
X195290Y287080D01*
X195393Y287055D01*
X195496Y287027D01*
X195598Y286995D01*
X195698Y286960D01*
X195797Y286921D01*
X195895Y286878D01*
X195991Y286832D01*
X196086Y286783D01*
X196178Y286730D01*
X196269Y286674D01*
X196357Y286615D01*
X196444Y286553D01*
X196528Y286487D01*
X196610Y286419D01*
X196689Y286348D01*
X196766Y286274D01*
X196840Y286197D01*
X196911Y286118D01*
X196979Y286036D01*
X197045Y285952D01*
X197107Y285865D01*
X197166Y285777D01*
X197222Y285686D01*
X197275Y285594D01*
X197324Y285499D01*
X197370Y285403D01*
X197413Y285305D01*
X197452Y285206D01*
X197487Y285106D01*
X197519Y285004D01*
X197547Y284901D01*
X197572Y284798D01*
X197593Y284693D01*
X197610Y284588D01*
X197623Y284482D01*
X197632Y284376D01*
X197638Y284270D01*
X197640Y284163D01*
X194655Y287147D02*
X194534Y287145D01*
X194414Y287139D01*
X194294Y287130D01*
X194174Y287117D01*
X194055Y287100D01*
X193936Y287079D01*
X193818Y287055D01*
X193701Y287026D01*
X193585Y286995D01*
X193469Y286959D01*
X193355Y286920D01*
X193243Y286877D01*
X193131Y286831D01*
X193021Y286782D01*
X192913Y286728D01*
X192807Y286672D01*
X192702Y286612D01*
X192599Y286549D01*
X192499Y286483D01*
X192400Y286414D01*
X192304Y286341D01*
X192210Y286266D01*
X192118Y286188D01*
X192029Y286106D01*
X191942Y286022D01*
X191859Y285936D01*
X191777Y285847D01*
X191699Y285755D01*
X191624Y285661D01*
X191552Y285564D01*
X191482Y285466D01*
X191416Y285365D01*
X191353Y285262D01*
X191294Y285157D01*
X191237Y285051D01*
X191184Y284942D01*
X191135Y284833D01*
X191089Y284721D01*
X191046Y284608D01*
X191008Y284494D01*
X196645Y281841D02*
X196725Y281921D01*
X196803Y282003D01*
X196877Y282087D01*
X196949Y282175D01*
X197017Y282265D01*
X197083Y282357D01*
X197145Y282451D01*
X197203Y282547D01*
X197258Y282646D01*
X197310Y282746D01*
X197358Y282848D01*
X197403Y282952D01*
X197443Y283057D01*
X197480Y283164D01*
X197514Y283272D01*
X197543Y283381D01*
X197569Y283491D01*
X197590Y283602D01*
X197608Y283713D01*
X197622Y283825D01*
X197632Y283937D01*
X197638Y284050D01*
X197640Y284163D01*
X196645Y281841D02*
X191008Y275209D01*
X197640Y275209D01*
X202438Y277862D02*
X205091Y287147D01*
X202438Y277862D02*
X209070Y277862D01*
X207080Y280515D02*
X207080Y275209D01*
X213868Y275209D02*
X217847Y275209D01*
X217949Y275211D01*
X218050Y275217D01*
X218151Y275227D01*
X218252Y275240D01*
X218352Y275258D01*
X218451Y275279D01*
X218550Y275304D01*
X218647Y275333D01*
X218744Y275365D01*
X218839Y275401D01*
X218932Y275441D01*
X219024Y275484D01*
X219114Y275531D01*
X219203Y275582D01*
X219289Y275635D01*
X219373Y275692D01*
X219455Y275752D01*
X219535Y275815D01*
X219612Y275881D01*
X219687Y275950D01*
X219759Y276022D01*
X219828Y276097D01*
X219894Y276174D01*
X219957Y276254D01*
X220017Y276336D01*
X220074Y276420D01*
X220127Y276506D01*
X220178Y276595D01*
X220225Y276685D01*
X220268Y276777D01*
X220308Y276870D01*
X220344Y276965D01*
X220376Y277062D01*
X220405Y277159D01*
X220430Y277257D01*
X220451Y277357D01*
X220469Y277457D01*
X220482Y277558D01*
X220492Y277659D01*
X220498Y277760D01*
X220500Y277862D01*
X220500Y279188D01*
X220498Y279290D01*
X220492Y279391D01*
X220482Y279492D01*
X220469Y279593D01*
X220451Y279693D01*
X220430Y279792D01*
X220405Y279891D01*
X220376Y279988D01*
X220344Y280085D01*
X220308Y280180D01*
X220268Y280273D01*
X220225Y280365D01*
X220178Y280455D01*
X220127Y280544D01*
X220074Y280630D01*
X220017Y280714D01*
X219957Y280796D01*
X219894Y280876D01*
X219828Y280953D01*
X219759Y281028D01*
X219687Y281100D01*
X219612Y281169D01*
X219535Y281235D01*
X219455Y281298D01*
X219373Y281358D01*
X219289Y281415D01*
X219203Y281468D01*
X219114Y281519D01*
X219024Y281566D01*
X218932Y281609D01*
X218839Y281649D01*
X218744Y281685D01*
X218647Y281717D01*
X218550Y281746D01*
X218451Y281771D01*
X218352Y281792D01*
X218252Y281810D01*
X218151Y281823D01*
X218050Y281833D01*
X217949Y281839D01*
X217847Y281841D01*
X213868Y281841D01*
X213868Y287147D01*
X220500Y287147D01*
X225679Y287147D02*
X225679Y275209D01*
X225679Y287147D02*
X228995Y287147D01*
X229108Y287145D01*
X229221Y287139D01*
X229334Y287130D01*
X229447Y287116D01*
X229558Y287099D01*
X229670Y287078D01*
X229780Y287053D01*
X229890Y287024D01*
X229998Y286992D01*
X230105Y286956D01*
X230211Y286916D01*
X230316Y286872D01*
X230419Y286826D01*
X230521Y286775D01*
X230620Y286721D01*
X230718Y286664D01*
X230814Y286604D01*
X230907Y286540D01*
X230999Y286473D01*
X231088Y286403D01*
X231174Y286330D01*
X231258Y286254D01*
X231340Y286176D01*
X231418Y286094D01*
X231494Y286010D01*
X231567Y285924D01*
X231637Y285835D01*
X231704Y285743D01*
X231768Y285650D01*
X231828Y285554D01*
X231885Y285456D01*
X231939Y285357D01*
X231990Y285255D01*
X232036Y285152D01*
X232080Y285047D01*
X232120Y284941D01*
X232156Y284834D01*
X232188Y284726D01*
X232217Y284616D01*
X232242Y284506D01*
X232263Y284394D01*
X232280Y284283D01*
X232294Y284170D01*
X232303Y284057D01*
X232309Y283944D01*
X232311Y283831D01*
X232311Y278525D01*
X232309Y278412D01*
X232303Y278299D01*
X232294Y278186D01*
X232280Y278073D01*
X232263Y277962D01*
X232242Y277850D01*
X232217Y277740D01*
X232188Y277630D01*
X232156Y277522D01*
X232120Y277415D01*
X232080Y277309D01*
X232036Y277204D01*
X231990Y277101D01*
X231939Y276999D01*
X231885Y276900D01*
X231828Y276802D01*
X231768Y276706D01*
X231704Y276613D01*
X231637Y276521D01*
X231567Y276432D01*
X231494Y276346D01*
X231418Y276262D01*
X231340Y276180D01*
X231258Y276102D01*
X231174Y276026D01*
X231088Y275953D01*
X230999Y275883D01*
X230907Y275816D01*
X230814Y275752D01*
X230718Y275692D01*
X230620Y275635D01*
X230521Y275581D01*
X230419Y275530D01*
X230316Y275484D01*
X230211Y275440D01*
X230105Y275400D01*
X229998Y275364D01*
X229890Y275332D01*
X229780Y275303D01*
X229670Y275278D01*
X229558Y275257D01*
X229447Y275240D01*
X229334Y275226D01*
X229221Y275217D01*
X229108Y275211D01*
X228995Y275209D01*
X225679Y275209D01*
X242513Y281841D02*
X244503Y281841D01*
X244503Y275209D01*
X240523Y275209D01*
X240421Y275211D01*
X240320Y275217D01*
X240219Y275227D01*
X240118Y275240D01*
X240018Y275258D01*
X239919Y275279D01*
X239820Y275304D01*
X239723Y275333D01*
X239626Y275365D01*
X239531Y275401D01*
X239438Y275441D01*
X239346Y275484D01*
X239256Y275531D01*
X239167Y275582D01*
X239081Y275635D01*
X238997Y275692D01*
X238915Y275752D01*
X238835Y275815D01*
X238758Y275881D01*
X238683Y275950D01*
X238611Y276022D01*
X238542Y276097D01*
X238476Y276174D01*
X238413Y276254D01*
X238353Y276336D01*
X238296Y276420D01*
X238243Y276506D01*
X238192Y276595D01*
X238145Y276685D01*
X238102Y276777D01*
X238062Y276870D01*
X238026Y276965D01*
X237994Y277062D01*
X237965Y277159D01*
X237940Y277258D01*
X237919Y277357D01*
X237901Y277457D01*
X237888Y277558D01*
X237878Y277659D01*
X237872Y277760D01*
X237870Y277862D01*
X237871Y277862D02*
X237871Y284494D01*
X237873Y284596D01*
X237879Y284697D01*
X237889Y284798D01*
X237902Y284899D01*
X237920Y284999D01*
X237941Y285098D01*
X237966Y285197D01*
X237995Y285294D01*
X238027Y285391D01*
X238063Y285486D01*
X238103Y285579D01*
X238146Y285671D01*
X238193Y285761D01*
X238244Y285850D01*
X238297Y285936D01*
X238354Y286020D01*
X238414Y286102D01*
X238477Y286182D01*
X238543Y286259D01*
X238612Y286334D01*
X238684Y286406D01*
X238759Y286475D01*
X238836Y286541D01*
X238916Y286604D01*
X238998Y286664D01*
X239082Y286721D01*
X239168Y286774D01*
X239257Y286825D01*
X239347Y286872D01*
X239439Y286915D01*
X239532Y286955D01*
X239627Y286991D01*
X239724Y287023D01*
X239821Y287052D01*
X239919Y287077D01*
X240019Y287098D01*
X240119Y287116D01*
X240220Y287129D01*
X240321Y287139D01*
X240422Y287145D01*
X240524Y287147D01*
X240523Y287147D02*
X244503Y287147D01*
X254705Y281841D02*
X256695Y281841D01*
X256695Y275209D01*
X252715Y275209D01*
X252613Y275211D01*
X252512Y275217D01*
X252411Y275227D01*
X252310Y275240D01*
X252210Y275258D01*
X252111Y275279D01*
X252012Y275304D01*
X251915Y275333D01*
X251818Y275365D01*
X251723Y275401D01*
X251630Y275441D01*
X251538Y275484D01*
X251448Y275531D01*
X251359Y275582D01*
X251273Y275635D01*
X251189Y275692D01*
X251107Y275752D01*
X251027Y275815D01*
X250950Y275881D01*
X250875Y275950D01*
X250803Y276022D01*
X250734Y276097D01*
X250668Y276174D01*
X250605Y276254D01*
X250545Y276336D01*
X250488Y276420D01*
X250435Y276506D01*
X250384Y276595D01*
X250337Y276685D01*
X250294Y276777D01*
X250254Y276870D01*
X250218Y276965D01*
X250186Y277062D01*
X250157Y277159D01*
X250132Y277258D01*
X250111Y277357D01*
X250093Y277457D01*
X250080Y277558D01*
X250070Y277659D01*
X250064Y277760D01*
X250062Y277862D01*
X250063Y277862D02*
X250063Y284494D01*
X250062Y284494D02*
X250064Y284596D01*
X250070Y284697D01*
X250080Y284798D01*
X250093Y284899D01*
X250111Y284999D01*
X250132Y285098D01*
X250157Y285197D01*
X250186Y285294D01*
X250218Y285391D01*
X250254Y285486D01*
X250294Y285579D01*
X250337Y285671D01*
X250384Y285761D01*
X250435Y285850D01*
X250488Y285936D01*
X250545Y286020D01*
X250605Y286102D01*
X250668Y286182D01*
X250734Y286259D01*
X250803Y286334D01*
X250875Y286406D01*
X250950Y286475D01*
X251027Y286541D01*
X251107Y286604D01*
X251189Y286664D01*
X251273Y286721D01*
X251359Y286774D01*
X251448Y286825D01*
X251538Y286872D01*
X251630Y286915D01*
X251723Y286955D01*
X251818Y286991D01*
X251915Y287023D01*
X252012Y287052D01*
X252110Y287077D01*
X252210Y287098D01*
X252310Y287116D01*
X252411Y287129D01*
X252512Y287139D01*
X252613Y287145D01*
X252715Y287147D01*
X256695Y287147D01*
X262319Y287147D02*
X262319Y275209D01*
X262319Y287147D02*
X265635Y287147D01*
X265749Y287145D01*
X265864Y287139D01*
X265978Y287129D01*
X266091Y287115D01*
X266205Y287098D01*
X266317Y287076D01*
X266429Y287051D01*
X266539Y287021D01*
X266649Y286988D01*
X266757Y286951D01*
X266864Y286911D01*
X266970Y286866D01*
X267074Y286819D01*
X267176Y286767D01*
X267276Y286712D01*
X267375Y286654D01*
X267471Y286592D01*
X267566Y286527D01*
X267657Y286459D01*
X267747Y286387D01*
X267834Y286313D01*
X267918Y286236D01*
X268000Y286155D01*
X268079Y286072D01*
X268155Y285987D01*
X268228Y285898D01*
X268297Y285808D01*
X268364Y285715D01*
X268427Y285619D01*
X268487Y285522D01*
X268544Y285422D01*
X268597Y285321D01*
X268647Y285218D01*
X268693Y285113D01*
X268736Y285007D01*
X268774Y284899D01*
X268809Y284790D01*
X268840Y284680D01*
X268868Y284569D01*
X268891Y284457D01*
X268911Y284344D01*
X268927Y284231D01*
X268939Y284117D01*
X268947Y284003D01*
X268951Y283888D01*
X268951Y283774D01*
X268947Y283659D01*
X268939Y283545D01*
X268927Y283431D01*
X268911Y283318D01*
X268891Y283205D01*
X268868Y283093D01*
X268840Y282982D01*
X268809Y282872D01*
X268774Y282763D01*
X268736Y282655D01*
X268693Y282549D01*
X268647Y282444D01*
X268597Y282341D01*
X268544Y282240D01*
X268487Y282140D01*
X268427Y282043D01*
X268364Y281947D01*
X268297Y281854D01*
X268228Y281764D01*
X268155Y281675D01*
X268079Y281590D01*
X268000Y281507D01*
X267918Y281426D01*
X267834Y281349D01*
X267747Y281275D01*
X267657Y281203D01*
X267566Y281135D01*
X267471Y281070D01*
X267375Y281008D01*
X267276Y280950D01*
X267176Y280895D01*
X267074Y280843D01*
X266970Y280796D01*
X266864Y280751D01*
X266757Y280711D01*
X266649Y280674D01*
X266539Y280641D01*
X266429Y280611D01*
X266317Y280586D01*
X266205Y280564D01*
X266091Y280547D01*
X265978Y280533D01*
X265864Y280523D01*
X265749Y280517D01*
X265635Y280515D01*
X262319Y280515D01*
X266298Y280515D02*
X268951Y275209D01*
X274085Y275209D02*
X279391Y275209D01*
X274085Y275209D02*
X274085Y287147D01*
X279391Y287147D01*
X278065Y281841D02*
X274085Y281841D01*
X283590Y277862D02*
X286243Y287147D01*
X283590Y277862D02*
X290223Y277862D01*
X288233Y280515D02*
X288233Y275209D01*
D10*
X560070Y132080D02*
X622046Y132080D01*
X588010Y6096D02*
X560070Y6096D01*
X588010Y6096D02*
X594106Y6096D01*
X622046Y6096D01*
X594106Y6096D02*
X594104Y6205D01*
X594098Y6313D01*
X594089Y6422D01*
X594075Y6530D01*
X594058Y6637D01*
X594036Y6744D01*
X594011Y6850D01*
X593983Y6955D01*
X593950Y7059D01*
X593914Y7161D01*
X593874Y7262D01*
X593831Y7362D01*
X593784Y7460D01*
X593733Y7557D01*
X593679Y7651D01*
X593622Y7744D01*
X593562Y7834D01*
X593498Y7923D01*
X593431Y8009D01*
X593362Y8092D01*
X593289Y8173D01*
X593213Y8251D01*
X593135Y8327D01*
X593054Y8400D01*
X592971Y8469D01*
X592885Y8536D01*
X592796Y8600D01*
X592706Y8660D01*
X592613Y8717D01*
X592519Y8771D01*
X592422Y8822D01*
X592324Y8869D01*
X592224Y8912D01*
X592123Y8952D01*
X592021Y8988D01*
X591917Y9021D01*
X591812Y9049D01*
X591706Y9074D01*
X591599Y9096D01*
X591492Y9113D01*
X591384Y9127D01*
X591275Y9136D01*
X591167Y9142D01*
X591058Y9144D01*
X590949Y9142D01*
X590841Y9136D01*
X590732Y9127D01*
X590624Y9113D01*
X590517Y9096D01*
X590410Y9074D01*
X590304Y9049D01*
X590199Y9021D01*
X590095Y8988D01*
X589993Y8952D01*
X589892Y8912D01*
X589792Y8869D01*
X589694Y8822D01*
X589597Y8771D01*
X589503Y8717D01*
X589410Y8660D01*
X589320Y8600D01*
X589231Y8536D01*
X589145Y8469D01*
X589062Y8400D01*
X588981Y8327D01*
X588903Y8251D01*
X588827Y8173D01*
X588754Y8092D01*
X588685Y8009D01*
X588618Y7923D01*
X588554Y7834D01*
X588494Y7744D01*
X588437Y7651D01*
X588383Y7557D01*
X588332Y7460D01*
X588285Y7362D01*
X588242Y7262D01*
X588202Y7161D01*
X588166Y7059D01*
X588133Y6955D01*
X588105Y6850D01*
X588080Y6744D01*
X588058Y6637D01*
X588041Y6530D01*
X588027Y6422D01*
X588018Y6313D01*
X588012Y6205D01*
X588010Y6096D01*
D14*
X631987Y5136D02*
X631987Y1157D01*
X631987Y5136D02*
X629666Y8121D01*
X631987Y5136D02*
X634309Y8121D01*
X631987Y5136D02*
X628340Y3810D01*
X631987Y5136D02*
X635635Y3810D01*
X623443Y63119D02*
X623443Y71741D01*
X623441Y71855D01*
X623435Y71970D01*
X623425Y72084D01*
X623411Y72197D01*
X623394Y72311D01*
X623372Y72423D01*
X623347Y72535D01*
X623317Y72645D01*
X623284Y72755D01*
X623247Y72863D01*
X623207Y72970D01*
X623162Y73076D01*
X623115Y73180D01*
X623063Y73282D01*
X623008Y73382D01*
X622950Y73481D01*
X622888Y73577D01*
X622823Y73672D01*
X622755Y73763D01*
X622683Y73853D01*
X622609Y73940D01*
X622532Y74024D01*
X622451Y74106D01*
X622368Y74185D01*
X622283Y74261D01*
X622194Y74334D01*
X622104Y74403D01*
X622011Y74470D01*
X621915Y74533D01*
X621818Y74593D01*
X621718Y74650D01*
X621617Y74703D01*
X621514Y74753D01*
X621409Y74799D01*
X621303Y74842D01*
X621195Y74880D01*
X621086Y74915D01*
X620976Y74946D01*
X620865Y74974D01*
X620753Y74997D01*
X620640Y75017D01*
X620527Y75033D01*
X620413Y75045D01*
X620299Y75053D01*
X620184Y75057D01*
X620070Y75057D01*
X619955Y75053D01*
X619841Y75045D01*
X619727Y75033D01*
X619614Y75017D01*
X619501Y74997D01*
X619389Y74974D01*
X619278Y74946D01*
X619168Y74915D01*
X619059Y74880D01*
X618951Y74842D01*
X618845Y74799D01*
X618740Y74753D01*
X618637Y74703D01*
X618536Y74650D01*
X618436Y74593D01*
X618339Y74533D01*
X618243Y74470D01*
X618150Y74403D01*
X618060Y74334D01*
X617971Y74261D01*
X617886Y74185D01*
X617803Y74106D01*
X617722Y74024D01*
X617645Y73940D01*
X617571Y73853D01*
X617499Y73763D01*
X617431Y73672D01*
X617366Y73577D01*
X617304Y73481D01*
X617246Y73382D01*
X617191Y73282D01*
X617139Y73180D01*
X617092Y73076D01*
X617047Y72970D01*
X617007Y72863D01*
X616970Y72755D01*
X616937Y72645D01*
X616907Y72535D01*
X616882Y72423D01*
X616860Y72311D01*
X616843Y72197D01*
X616829Y72084D01*
X616819Y71970D01*
X616813Y71855D01*
X616811Y71741D01*
X616811Y63119D01*
X611632Y75057D02*
X608316Y75057D01*
X608202Y75055D01*
X608087Y75049D01*
X607973Y75039D01*
X607860Y75025D01*
X607746Y75008D01*
X607634Y74986D01*
X607522Y74961D01*
X607412Y74931D01*
X607302Y74898D01*
X607194Y74861D01*
X607087Y74821D01*
X606981Y74776D01*
X606877Y74729D01*
X606775Y74677D01*
X606675Y74622D01*
X606576Y74564D01*
X606480Y74502D01*
X606385Y74437D01*
X606294Y74369D01*
X606204Y74297D01*
X606117Y74223D01*
X606033Y74146D01*
X605951Y74065D01*
X605872Y73982D01*
X605796Y73897D01*
X605723Y73808D01*
X605654Y73718D01*
X605587Y73625D01*
X605524Y73529D01*
X605464Y73432D01*
X605407Y73332D01*
X605354Y73231D01*
X605304Y73128D01*
X605258Y73023D01*
X605215Y72917D01*
X605177Y72809D01*
X605142Y72700D01*
X605111Y72590D01*
X605083Y72479D01*
X605060Y72367D01*
X605040Y72254D01*
X605024Y72141D01*
X605012Y72027D01*
X605004Y71913D01*
X605000Y71798D01*
X605000Y71684D01*
X605004Y71569D01*
X605012Y71455D01*
X605024Y71341D01*
X605040Y71228D01*
X605060Y71115D01*
X605083Y71003D01*
X605111Y70892D01*
X605142Y70782D01*
X605177Y70673D01*
X605215Y70565D01*
X605258Y70459D01*
X605304Y70354D01*
X605354Y70251D01*
X605407Y70150D01*
X605464Y70050D01*
X605524Y69953D01*
X605587Y69857D01*
X605654Y69764D01*
X605723Y69674D01*
X605796Y69585D01*
X605872Y69500D01*
X605951Y69417D01*
X606033Y69336D01*
X606117Y69259D01*
X606204Y69185D01*
X606294Y69113D01*
X606385Y69045D01*
X606480Y68980D01*
X606576Y68918D01*
X606675Y68860D01*
X606775Y68805D01*
X606877Y68753D01*
X606981Y68706D01*
X607087Y68661D01*
X607194Y68621D01*
X607302Y68584D01*
X607412Y68551D01*
X607522Y68521D01*
X607634Y68496D01*
X607746Y68474D01*
X607860Y68457D01*
X607973Y68443D01*
X608087Y68433D01*
X608202Y68427D01*
X608316Y68425D01*
X607653Y63119D02*
X611632Y63119D01*
X607653Y63119D02*
X607551Y63121D01*
X607450Y63127D01*
X607349Y63137D01*
X607248Y63150D01*
X607148Y63168D01*
X607049Y63189D01*
X606950Y63214D01*
X606853Y63243D01*
X606756Y63275D01*
X606661Y63311D01*
X606568Y63351D01*
X606476Y63394D01*
X606386Y63441D01*
X606297Y63492D01*
X606211Y63545D01*
X606127Y63602D01*
X606045Y63662D01*
X605965Y63725D01*
X605888Y63791D01*
X605813Y63860D01*
X605741Y63932D01*
X605672Y64007D01*
X605606Y64084D01*
X605543Y64164D01*
X605483Y64246D01*
X605426Y64330D01*
X605373Y64416D01*
X605322Y64505D01*
X605275Y64595D01*
X605232Y64687D01*
X605192Y64780D01*
X605156Y64875D01*
X605124Y64972D01*
X605095Y65069D01*
X605070Y65168D01*
X605049Y65267D01*
X605031Y65367D01*
X605018Y65468D01*
X605008Y65569D01*
X605002Y65670D01*
X605000Y65772D01*
X605002Y65874D01*
X605008Y65975D01*
X605018Y66076D01*
X605031Y66177D01*
X605049Y66277D01*
X605070Y66376D01*
X605095Y66475D01*
X605124Y66572D01*
X605156Y66669D01*
X605192Y66764D01*
X605232Y66857D01*
X605275Y66949D01*
X605322Y67039D01*
X605373Y67128D01*
X605426Y67214D01*
X605483Y67298D01*
X605543Y67380D01*
X605606Y67460D01*
X605672Y67537D01*
X605741Y67612D01*
X605813Y67684D01*
X605888Y67753D01*
X605965Y67819D01*
X606045Y67882D01*
X606127Y67942D01*
X606211Y67999D01*
X606297Y68052D01*
X606386Y68103D01*
X606476Y68150D01*
X606568Y68193D01*
X606661Y68233D01*
X606756Y68269D01*
X606853Y68301D01*
X606950Y68330D01*
X607049Y68355D01*
X607148Y68376D01*
X607248Y68394D01*
X607349Y68407D01*
X607450Y68417D01*
X607551Y68423D01*
X607653Y68425D01*
X610306Y68425D01*
X497459Y-6477D02*
X497459Y-7803D01*
X497459Y-6477D02*
X504091Y-6477D01*
X500775Y-18415D01*
X508889Y-15762D02*
X511542Y-6477D01*
X508889Y-15762D02*
X515521Y-15762D01*
X513532Y-13109D02*
X513532Y-18415D01*
X519656Y-18415D02*
X523635Y-6477D01*
X527614Y-18415D01*
X526620Y-15431D02*
X520651Y-15431D01*
X532150Y-18415D02*
X532150Y-6477D01*
X532150Y-18415D02*
X537455Y-18415D01*
X544971Y-18415D02*
X540992Y-6477D01*
X548950Y-6477D02*
X544971Y-18415D01*
X555709Y-18415D02*
X558362Y-18415D01*
X555709Y-18415D02*
X555607Y-18413D01*
X555506Y-18407D01*
X555405Y-18397D01*
X555304Y-18384D01*
X555204Y-18366D01*
X555105Y-18345D01*
X555006Y-18320D01*
X554909Y-18291D01*
X554812Y-18259D01*
X554717Y-18223D01*
X554624Y-18183D01*
X554532Y-18140D01*
X554442Y-18093D01*
X554353Y-18042D01*
X554267Y-17989D01*
X554183Y-17932D01*
X554101Y-17872D01*
X554021Y-17809D01*
X553944Y-17743D01*
X553869Y-17674D01*
X553797Y-17602D01*
X553728Y-17527D01*
X553662Y-17450D01*
X553599Y-17370D01*
X553539Y-17288D01*
X553482Y-17204D01*
X553429Y-17118D01*
X553378Y-17029D01*
X553331Y-16939D01*
X553288Y-16847D01*
X553248Y-16754D01*
X553212Y-16659D01*
X553180Y-16562D01*
X553151Y-16465D01*
X553126Y-16366D01*
X553105Y-16267D01*
X553087Y-16167D01*
X553074Y-16066D01*
X553064Y-15965D01*
X553058Y-15864D01*
X553056Y-15762D01*
X553056Y-9130D01*
X553058Y-9028D01*
X553064Y-8927D01*
X553074Y-8826D01*
X553087Y-8725D01*
X553105Y-8625D01*
X553126Y-8526D01*
X553151Y-8427D01*
X553180Y-8330D01*
X553212Y-8233D01*
X553248Y-8138D01*
X553288Y-8045D01*
X553331Y-7953D01*
X553378Y-7863D01*
X553429Y-7774D01*
X553482Y-7688D01*
X553539Y-7604D01*
X553599Y-7522D01*
X553662Y-7442D01*
X553728Y-7365D01*
X553797Y-7290D01*
X553869Y-7218D01*
X553944Y-7149D01*
X554021Y-7083D01*
X554101Y-7020D01*
X554183Y-6960D01*
X554267Y-6903D01*
X554353Y-6850D01*
X554442Y-6799D01*
X554532Y-6752D01*
X554624Y-6709D01*
X554717Y-6669D01*
X554812Y-6633D01*
X554908Y-6601D01*
X555006Y-6572D01*
X555104Y-6547D01*
X555204Y-6526D01*
X555304Y-6508D01*
X555405Y-6495D01*
X555506Y-6485D01*
X555607Y-6479D01*
X555709Y-6477D01*
X558362Y-6477D01*
X562610Y-9130D02*
X565926Y-6477D01*
X565926Y-18415D01*
X562610Y-18415D02*
X569242Y-18415D01*
X574040Y-11783D02*
X578019Y-11783D01*
X578121Y-11785D01*
X578222Y-11791D01*
X578323Y-11801D01*
X578424Y-11814D01*
X578524Y-11832D01*
X578623Y-11853D01*
X578722Y-11878D01*
X578819Y-11907D01*
X578916Y-11939D01*
X579011Y-11975D01*
X579104Y-12015D01*
X579196Y-12058D01*
X579286Y-12105D01*
X579375Y-12156D01*
X579461Y-12209D01*
X579545Y-12266D01*
X579627Y-12326D01*
X579707Y-12389D01*
X579784Y-12455D01*
X579859Y-12524D01*
X579931Y-12596D01*
X580000Y-12671D01*
X580066Y-12748D01*
X580129Y-12828D01*
X580189Y-12910D01*
X580246Y-12994D01*
X580299Y-13080D01*
X580350Y-13169D01*
X580397Y-13259D01*
X580440Y-13351D01*
X580480Y-13444D01*
X580516Y-13539D01*
X580548Y-13636D01*
X580577Y-13733D01*
X580602Y-13832D01*
X580623Y-13931D01*
X580641Y-14031D01*
X580654Y-14132D01*
X580664Y-14233D01*
X580670Y-14334D01*
X580672Y-14436D01*
X580672Y-15099D01*
X580670Y-15213D01*
X580664Y-15328D01*
X580654Y-15442D01*
X580640Y-15555D01*
X580623Y-15669D01*
X580601Y-15781D01*
X580576Y-15893D01*
X580546Y-16003D01*
X580513Y-16113D01*
X580476Y-16221D01*
X580436Y-16328D01*
X580391Y-16434D01*
X580344Y-16538D01*
X580292Y-16640D01*
X580237Y-16740D01*
X580179Y-16839D01*
X580117Y-16935D01*
X580052Y-17030D01*
X579984Y-17121D01*
X579912Y-17211D01*
X579838Y-17298D01*
X579761Y-17382D01*
X579680Y-17464D01*
X579597Y-17543D01*
X579512Y-17619D01*
X579423Y-17692D01*
X579333Y-17761D01*
X579240Y-17828D01*
X579144Y-17891D01*
X579047Y-17951D01*
X578947Y-18008D01*
X578846Y-18061D01*
X578743Y-18111D01*
X578638Y-18157D01*
X578532Y-18200D01*
X578424Y-18238D01*
X578315Y-18273D01*
X578205Y-18304D01*
X578094Y-18332D01*
X577982Y-18355D01*
X577869Y-18375D01*
X577756Y-18391D01*
X577642Y-18403D01*
X577528Y-18411D01*
X577413Y-18415D01*
X577299Y-18415D01*
X577184Y-18411D01*
X577070Y-18403D01*
X576956Y-18391D01*
X576843Y-18375D01*
X576730Y-18355D01*
X576618Y-18332D01*
X576507Y-18304D01*
X576397Y-18273D01*
X576288Y-18238D01*
X576180Y-18200D01*
X576074Y-18157D01*
X575969Y-18111D01*
X575866Y-18061D01*
X575765Y-18008D01*
X575665Y-17951D01*
X575568Y-17891D01*
X575472Y-17828D01*
X575379Y-17761D01*
X575289Y-17692D01*
X575200Y-17619D01*
X575115Y-17543D01*
X575032Y-17464D01*
X574951Y-17382D01*
X574874Y-17298D01*
X574800Y-17211D01*
X574728Y-17121D01*
X574660Y-17030D01*
X574595Y-16935D01*
X574533Y-16839D01*
X574475Y-16740D01*
X574420Y-16640D01*
X574368Y-16538D01*
X574321Y-16434D01*
X574276Y-16328D01*
X574236Y-16221D01*
X574199Y-16113D01*
X574166Y-16003D01*
X574136Y-15893D01*
X574111Y-15781D01*
X574089Y-15669D01*
X574072Y-15555D01*
X574058Y-15442D01*
X574048Y-15328D01*
X574042Y-15213D01*
X574040Y-15099D01*
X574040Y-11783D01*
X574042Y-11639D01*
X574048Y-11496D01*
X574058Y-11352D01*
X574071Y-11209D01*
X574089Y-11067D01*
X574110Y-10925D01*
X574135Y-10783D01*
X574164Y-10642D01*
X574197Y-10502D01*
X574233Y-10364D01*
X574274Y-10226D01*
X574318Y-10089D01*
X574365Y-9953D01*
X574417Y-9819D01*
X574472Y-9686D01*
X574530Y-9555D01*
X574592Y-9425D01*
X574658Y-9298D01*
X574727Y-9172D01*
X574800Y-9047D01*
X574875Y-8925D01*
X574954Y-8805D01*
X575037Y-8688D01*
X575122Y-8572D01*
X575210Y-8459D01*
X575302Y-8348D01*
X575396Y-8240D01*
X575494Y-8134D01*
X575594Y-8031D01*
X575697Y-7931D01*
X575803Y-7833D01*
X575911Y-7739D01*
X576022Y-7647D01*
X576135Y-7559D01*
X576250Y-7474D01*
X576368Y-7391D01*
X576488Y-7312D01*
X576610Y-7237D01*
X576735Y-7164D01*
X576861Y-7095D01*
X576988Y-7030D01*
X577118Y-6967D01*
X577249Y-6909D01*
X577382Y-6854D01*
X577516Y-6802D01*
X577652Y-6755D01*
X577789Y-6711D01*
X577926Y-6670D01*
X578065Y-6634D01*
X578205Y-6601D01*
X578346Y-6572D01*
X578488Y-6547D01*
X578630Y-6526D01*
X578772Y-6508D01*
X578915Y-6495D01*
X579059Y-6485D01*
X579202Y-6479D01*
X579346Y-6477D01*
X588123Y-6477D02*
X585470Y-15762D01*
X592102Y-15762D01*
X590112Y-13109D02*
X590112Y-18415D01*
X600547Y-6477D02*
X600654Y-6479D01*
X600760Y-6485D01*
X600866Y-6494D01*
X600972Y-6507D01*
X601077Y-6524D01*
X601182Y-6545D01*
X601285Y-6570D01*
X601388Y-6598D01*
X601490Y-6630D01*
X601590Y-6665D01*
X601689Y-6704D01*
X601787Y-6747D01*
X601883Y-6793D01*
X601978Y-6842D01*
X602070Y-6895D01*
X602161Y-6951D01*
X602249Y-7010D01*
X602336Y-7072D01*
X602420Y-7138D01*
X602502Y-7206D01*
X602581Y-7277D01*
X602658Y-7351D01*
X602732Y-7428D01*
X602803Y-7507D01*
X602871Y-7589D01*
X602937Y-7673D01*
X602999Y-7760D01*
X603058Y-7848D01*
X603114Y-7939D01*
X603167Y-8031D01*
X603216Y-8126D01*
X603262Y-8222D01*
X603305Y-8320D01*
X603344Y-8419D01*
X603379Y-8519D01*
X603411Y-8621D01*
X603439Y-8724D01*
X603464Y-8827D01*
X603485Y-8932D01*
X603502Y-9037D01*
X603515Y-9143D01*
X603524Y-9249D01*
X603530Y-9355D01*
X603532Y-9462D01*
X600547Y-6477D02*
X600426Y-6479D01*
X600306Y-6485D01*
X600186Y-6494D01*
X600066Y-6507D01*
X599947Y-6524D01*
X599828Y-6545D01*
X599710Y-6569D01*
X599593Y-6598D01*
X599477Y-6629D01*
X599361Y-6665D01*
X599247Y-6704D01*
X599135Y-6747D01*
X599023Y-6793D01*
X598913Y-6842D01*
X598805Y-6896D01*
X598699Y-6952D01*
X598594Y-7012D01*
X598491Y-7075D01*
X598391Y-7141D01*
X598292Y-7210D01*
X598196Y-7283D01*
X598102Y-7358D01*
X598010Y-7436D01*
X597921Y-7518D01*
X597834Y-7602D01*
X597750Y-7688D01*
X597669Y-7777D01*
X597591Y-7869D01*
X597516Y-7963D01*
X597444Y-8060D01*
X597374Y-8158D01*
X597308Y-8259D01*
X597245Y-8362D01*
X597186Y-8467D01*
X597129Y-8573D01*
X597076Y-8682D01*
X597027Y-8791D01*
X596981Y-8903D01*
X596938Y-9016D01*
X596900Y-9130D01*
X602537Y-11784D02*
X602617Y-11704D01*
X602695Y-11622D01*
X602769Y-11538D01*
X602841Y-11450D01*
X602909Y-11361D01*
X602975Y-11268D01*
X603037Y-11174D01*
X603095Y-11078D01*
X603150Y-10979D01*
X603202Y-10879D01*
X603250Y-10777D01*
X603295Y-10673D01*
X603335Y-10568D01*
X603372Y-10461D01*
X603406Y-10353D01*
X603435Y-10244D01*
X603461Y-10134D01*
X603482Y-10023D01*
X603500Y-9912D01*
X603514Y-9800D01*
X603524Y-9688D01*
X603530Y-9575D01*
X603532Y-9462D01*
X602537Y-11783D02*
X596900Y-18415D01*
X603532Y-18415D01*
X608330Y-15762D02*
X610983Y-6477D01*
X608330Y-15762D02*
X614962Y-15762D01*
X612972Y-13109D02*
X612972Y-18415D01*
X619760Y-18415D02*
X623739Y-18415D01*
X623841Y-18413D01*
X623942Y-18407D01*
X624043Y-18397D01*
X624144Y-18384D01*
X624244Y-18366D01*
X624343Y-18345D01*
X624442Y-18320D01*
X624539Y-18291D01*
X624636Y-18259D01*
X624731Y-18223D01*
X624824Y-18183D01*
X624916Y-18140D01*
X625006Y-18093D01*
X625095Y-18042D01*
X625181Y-17989D01*
X625265Y-17932D01*
X625347Y-17872D01*
X625427Y-17809D01*
X625504Y-17743D01*
X625579Y-17674D01*
X625651Y-17602D01*
X625720Y-17527D01*
X625786Y-17450D01*
X625849Y-17370D01*
X625909Y-17288D01*
X625966Y-17204D01*
X626019Y-17118D01*
X626070Y-17029D01*
X626117Y-16939D01*
X626160Y-16847D01*
X626200Y-16754D01*
X626236Y-16659D01*
X626268Y-16562D01*
X626297Y-16465D01*
X626322Y-16367D01*
X626343Y-16267D01*
X626361Y-16167D01*
X626374Y-16066D01*
X626384Y-15965D01*
X626390Y-15864D01*
X626392Y-15762D01*
X626392Y-14436D01*
X626390Y-14334D01*
X626384Y-14233D01*
X626374Y-14132D01*
X626361Y-14031D01*
X626343Y-13931D01*
X626322Y-13832D01*
X626297Y-13733D01*
X626268Y-13636D01*
X626236Y-13539D01*
X626200Y-13444D01*
X626160Y-13351D01*
X626117Y-13259D01*
X626070Y-13169D01*
X626019Y-13080D01*
X625966Y-12994D01*
X625909Y-12910D01*
X625849Y-12828D01*
X625786Y-12748D01*
X625720Y-12671D01*
X625651Y-12596D01*
X625579Y-12524D01*
X625504Y-12455D01*
X625427Y-12389D01*
X625347Y-12326D01*
X625265Y-12266D01*
X625181Y-12209D01*
X625095Y-12156D01*
X625006Y-12105D01*
X624916Y-12058D01*
X624824Y-12015D01*
X624731Y-11975D01*
X624636Y-11939D01*
X624539Y-11907D01*
X624442Y-11878D01*
X624344Y-11853D01*
X624244Y-11832D01*
X624144Y-11814D01*
X624043Y-11801D01*
X623942Y-11791D01*
X623841Y-11785D01*
X623739Y-11783D01*
X619760Y-11783D01*
X619760Y-6477D01*
X626392Y-6477D01*
X631571Y-6477D02*
X631571Y-18415D01*
X631571Y-6477D02*
X634887Y-6477D01*
X635000Y-6479D01*
X635113Y-6485D01*
X635226Y-6494D01*
X635339Y-6508D01*
X635450Y-6525D01*
X635562Y-6546D01*
X635672Y-6571D01*
X635782Y-6600D01*
X635890Y-6632D01*
X635997Y-6668D01*
X636103Y-6708D01*
X636208Y-6752D01*
X636311Y-6798D01*
X636413Y-6849D01*
X636512Y-6903D01*
X636610Y-6960D01*
X636706Y-7020D01*
X636799Y-7084D01*
X636891Y-7151D01*
X636980Y-7221D01*
X637066Y-7294D01*
X637150Y-7370D01*
X637232Y-7448D01*
X637310Y-7530D01*
X637386Y-7614D01*
X637459Y-7700D01*
X637529Y-7789D01*
X637596Y-7881D01*
X637660Y-7974D01*
X637720Y-8070D01*
X637777Y-8168D01*
X637831Y-8267D01*
X637882Y-8369D01*
X637928Y-8472D01*
X637972Y-8577D01*
X638012Y-8683D01*
X638048Y-8790D01*
X638080Y-8898D01*
X638109Y-9008D01*
X638134Y-9118D01*
X638155Y-9230D01*
X638172Y-9341D01*
X638186Y-9454D01*
X638195Y-9567D01*
X638201Y-9680D01*
X638203Y-9793D01*
X638203Y-15099D01*
X638201Y-15212D01*
X638195Y-15325D01*
X638186Y-15438D01*
X638172Y-15551D01*
X638155Y-15662D01*
X638134Y-15774D01*
X638109Y-15884D01*
X638080Y-15994D01*
X638048Y-16102D01*
X638012Y-16209D01*
X637972Y-16315D01*
X637928Y-16420D01*
X637882Y-16523D01*
X637831Y-16625D01*
X637777Y-16724D01*
X637720Y-16822D01*
X637660Y-16918D01*
X637596Y-17011D01*
X637529Y-17103D01*
X637459Y-17192D01*
X637386Y-17278D01*
X637310Y-17362D01*
X637232Y-17444D01*
X637150Y-17522D01*
X637066Y-17598D01*
X636980Y-17671D01*
X636891Y-17741D01*
X636799Y-17808D01*
X636706Y-17872D01*
X636610Y-17932D01*
X636512Y-17989D01*
X636413Y-18043D01*
X636311Y-18094D01*
X636208Y-18140D01*
X636103Y-18184D01*
X635997Y-18224D01*
X635890Y-18260D01*
X635782Y-18292D01*
X635672Y-18321D01*
X635562Y-18346D01*
X635450Y-18367D01*
X635339Y-18384D01*
X635226Y-18398D01*
X635113Y-18407D01*
X635000Y-18413D01*
X634887Y-18415D01*
X631571Y-18415D01*
X648405Y-11783D02*
X650395Y-11783D01*
X650395Y-18415D01*
X646415Y-18415D01*
X646313Y-18413D01*
X646212Y-18407D01*
X646111Y-18397D01*
X646010Y-18384D01*
X645910Y-18366D01*
X645811Y-18345D01*
X645712Y-18320D01*
X645615Y-18291D01*
X645518Y-18259D01*
X645423Y-18223D01*
X645330Y-18183D01*
X645238Y-18140D01*
X645148Y-18093D01*
X645059Y-18042D01*
X644973Y-17989D01*
X644889Y-17932D01*
X644807Y-17872D01*
X644727Y-17809D01*
X644650Y-17743D01*
X644575Y-17674D01*
X644503Y-17602D01*
X644434Y-17527D01*
X644368Y-17450D01*
X644305Y-17370D01*
X644245Y-17288D01*
X644188Y-17204D01*
X644135Y-17118D01*
X644084Y-17029D01*
X644037Y-16939D01*
X643994Y-16847D01*
X643954Y-16754D01*
X643918Y-16659D01*
X643886Y-16562D01*
X643857Y-16465D01*
X643832Y-16366D01*
X643811Y-16267D01*
X643793Y-16167D01*
X643780Y-16066D01*
X643770Y-15965D01*
X643764Y-15864D01*
X643762Y-15762D01*
X643763Y-15762D02*
X643763Y-9130D01*
X643765Y-9028D01*
X643771Y-8927D01*
X643781Y-8826D01*
X643794Y-8725D01*
X643812Y-8625D01*
X643833Y-8526D01*
X643858Y-8427D01*
X643887Y-8330D01*
X643919Y-8233D01*
X643955Y-8138D01*
X643995Y-8045D01*
X644038Y-7953D01*
X644085Y-7863D01*
X644136Y-7774D01*
X644189Y-7688D01*
X644246Y-7604D01*
X644306Y-7522D01*
X644369Y-7442D01*
X644435Y-7365D01*
X644504Y-7290D01*
X644576Y-7218D01*
X644651Y-7149D01*
X644728Y-7083D01*
X644808Y-7020D01*
X644890Y-6960D01*
X644974Y-6903D01*
X645060Y-6850D01*
X645149Y-6799D01*
X645239Y-6752D01*
X645331Y-6709D01*
X645424Y-6669D01*
X645519Y-6633D01*
X645615Y-6601D01*
X645713Y-6572D01*
X645811Y-6547D01*
X645911Y-6526D01*
X646011Y-6508D01*
X646112Y-6495D01*
X646213Y-6485D01*
X646314Y-6479D01*
X646416Y-6477D01*
X646415Y-6477D02*
X650395Y-6477D01*
X660597Y-11783D02*
X662587Y-11783D01*
X662587Y-18415D01*
X658607Y-18415D01*
X658505Y-18413D01*
X658404Y-18407D01*
X658303Y-18397D01*
X658202Y-18384D01*
X658102Y-18366D01*
X658003Y-18345D01*
X657904Y-18320D01*
X657807Y-18291D01*
X657710Y-18259D01*
X657615Y-18223D01*
X657522Y-18183D01*
X657430Y-18140D01*
X657340Y-18093D01*
X657251Y-18042D01*
X657165Y-17989D01*
X657081Y-17932D01*
X656999Y-17872D01*
X656919Y-17809D01*
X656842Y-17743D01*
X656767Y-17674D01*
X656695Y-17602D01*
X656626Y-17527D01*
X656560Y-17450D01*
X656497Y-17370D01*
X656437Y-17288D01*
X656380Y-17204D01*
X656327Y-17118D01*
X656276Y-17029D01*
X656229Y-16939D01*
X656186Y-16847D01*
X656146Y-16754D01*
X656110Y-16659D01*
X656078Y-16562D01*
X656049Y-16465D01*
X656024Y-16366D01*
X656003Y-16267D01*
X655985Y-16167D01*
X655972Y-16066D01*
X655962Y-15965D01*
X655956Y-15864D01*
X655954Y-15762D01*
X655955Y-15762D02*
X655955Y-9130D01*
X655957Y-9028D01*
X655963Y-8927D01*
X655973Y-8826D01*
X655986Y-8725D01*
X656004Y-8625D01*
X656025Y-8526D01*
X656050Y-8427D01*
X656079Y-8330D01*
X656111Y-8233D01*
X656147Y-8138D01*
X656187Y-8045D01*
X656230Y-7953D01*
X656277Y-7863D01*
X656328Y-7774D01*
X656381Y-7688D01*
X656438Y-7604D01*
X656498Y-7522D01*
X656561Y-7442D01*
X656627Y-7365D01*
X656696Y-7290D01*
X656768Y-7218D01*
X656843Y-7149D01*
X656920Y-7083D01*
X657000Y-7020D01*
X657082Y-6960D01*
X657166Y-6903D01*
X657252Y-6850D01*
X657341Y-6799D01*
X657431Y-6752D01*
X657523Y-6709D01*
X657616Y-6669D01*
X657711Y-6633D01*
X657807Y-6601D01*
X657905Y-6572D01*
X658003Y-6547D01*
X658103Y-6526D01*
X658203Y-6508D01*
X658304Y-6495D01*
X658405Y-6485D01*
X658506Y-6479D01*
X658608Y-6477D01*
X658607Y-6477D02*
X662587Y-6477D01*
X668211Y-6477D02*
X668211Y-18415D01*
X668211Y-6477D02*
X671527Y-6477D01*
X671641Y-6479D01*
X671756Y-6485D01*
X671870Y-6495D01*
X671983Y-6509D01*
X672097Y-6526D01*
X672209Y-6548D01*
X672321Y-6573D01*
X672431Y-6603D01*
X672541Y-6636D01*
X672649Y-6673D01*
X672756Y-6713D01*
X672862Y-6758D01*
X672966Y-6805D01*
X673068Y-6857D01*
X673168Y-6912D01*
X673267Y-6970D01*
X673363Y-7032D01*
X673458Y-7097D01*
X673549Y-7165D01*
X673639Y-7237D01*
X673726Y-7311D01*
X673810Y-7388D01*
X673892Y-7469D01*
X673971Y-7552D01*
X674047Y-7637D01*
X674120Y-7726D01*
X674189Y-7816D01*
X674256Y-7909D01*
X674319Y-8005D01*
X674379Y-8102D01*
X674436Y-8202D01*
X674489Y-8303D01*
X674539Y-8406D01*
X674585Y-8511D01*
X674628Y-8617D01*
X674666Y-8725D01*
X674701Y-8834D01*
X674732Y-8944D01*
X674760Y-9055D01*
X674783Y-9167D01*
X674803Y-9280D01*
X674819Y-9393D01*
X674831Y-9507D01*
X674839Y-9621D01*
X674843Y-9736D01*
X674843Y-9850D01*
X674839Y-9965D01*
X674831Y-10079D01*
X674819Y-10193D01*
X674803Y-10306D01*
X674783Y-10419D01*
X674760Y-10531D01*
X674732Y-10642D01*
X674701Y-10752D01*
X674666Y-10861D01*
X674628Y-10969D01*
X674585Y-11075D01*
X674539Y-11180D01*
X674489Y-11283D01*
X674436Y-11384D01*
X674379Y-11484D01*
X674319Y-11581D01*
X674256Y-11677D01*
X674189Y-11770D01*
X674120Y-11860D01*
X674047Y-11949D01*
X673971Y-12034D01*
X673892Y-12117D01*
X673810Y-12198D01*
X673726Y-12275D01*
X673639Y-12349D01*
X673549Y-12421D01*
X673458Y-12489D01*
X673363Y-12554D01*
X673267Y-12616D01*
X673168Y-12674D01*
X673068Y-12729D01*
X672966Y-12781D01*
X672862Y-12828D01*
X672756Y-12873D01*
X672649Y-12913D01*
X672541Y-12950D01*
X672431Y-12983D01*
X672321Y-13013D01*
X672209Y-13038D01*
X672097Y-13060D01*
X671983Y-13077D01*
X671870Y-13091D01*
X671756Y-13101D01*
X671641Y-13107D01*
X671527Y-13109D01*
X668211Y-13109D01*
X672190Y-13109D02*
X674843Y-18415D01*
X679977Y-18415D02*
X685283Y-18415D01*
X679977Y-18415D02*
X679977Y-6477D01*
X685283Y-6477D01*
X683957Y-11783D02*
X679977Y-11783D01*
X689482Y-15762D02*
X692135Y-6477D01*
X689482Y-15762D02*
X696115Y-15762D01*
X694125Y-13109D02*
X694125Y-18415D01*
D10*
X217678Y5842D02*
X155702Y5842D01*
X189738Y131826D02*
X217678Y131826D01*
X189738Y131826D02*
X183642Y131826D01*
X155702Y131826D01*
X183642Y131826D02*
X183644Y131717D01*
X183650Y131609D01*
X183659Y131500D01*
X183673Y131392D01*
X183690Y131285D01*
X183712Y131178D01*
X183737Y131072D01*
X183765Y130967D01*
X183798Y130863D01*
X183834Y130761D01*
X183874Y130660D01*
X183917Y130560D01*
X183964Y130462D01*
X184015Y130365D01*
X184069Y130271D01*
X184126Y130178D01*
X184186Y130088D01*
X184250Y129999D01*
X184317Y129913D01*
X184386Y129830D01*
X184459Y129749D01*
X184535Y129671D01*
X184613Y129595D01*
X184694Y129522D01*
X184777Y129453D01*
X184863Y129386D01*
X184952Y129322D01*
X185042Y129262D01*
X185135Y129205D01*
X185229Y129151D01*
X185326Y129100D01*
X185424Y129053D01*
X185524Y129010D01*
X185625Y128970D01*
X185727Y128934D01*
X185831Y128901D01*
X185936Y128873D01*
X186042Y128848D01*
X186149Y128826D01*
X186256Y128809D01*
X186364Y128795D01*
X186473Y128786D01*
X186581Y128780D01*
X186690Y128778D01*
X186799Y128780D01*
X186907Y128786D01*
X187016Y128795D01*
X187124Y128809D01*
X187231Y128826D01*
X187338Y128848D01*
X187444Y128873D01*
X187549Y128901D01*
X187653Y128934D01*
X187755Y128970D01*
X187856Y129010D01*
X187956Y129053D01*
X188054Y129100D01*
X188151Y129151D01*
X188245Y129205D01*
X188338Y129262D01*
X188428Y129322D01*
X188517Y129386D01*
X188603Y129453D01*
X188686Y129522D01*
X188767Y129595D01*
X188845Y129671D01*
X188921Y129749D01*
X188994Y129830D01*
X189063Y129913D01*
X189130Y129999D01*
X189194Y130088D01*
X189254Y130178D01*
X189311Y130271D01*
X189365Y130365D01*
X189416Y130462D01*
X189463Y130560D01*
X189506Y130660D01*
X189546Y130761D01*
X189582Y130863D01*
X189615Y130967D01*
X189643Y131072D01*
X189668Y131178D01*
X189690Y131285D01*
X189707Y131392D01*
X189721Y131500D01*
X189730Y131609D01*
X189736Y131717D01*
X189738Y131826D01*
D14*
X145761Y132786D02*
X145761Y136765D01*
X145761Y132786D02*
X148082Y129801D01*
X145761Y132786D02*
X143439Y129801D01*
X145761Y132786D02*
X149408Y134112D01*
X145761Y132786D02*
X142113Y134112D01*
X154305Y74803D02*
X154305Y66181D01*
X154307Y66067D01*
X154313Y65952D01*
X154323Y65838D01*
X154337Y65725D01*
X154354Y65611D01*
X154376Y65499D01*
X154401Y65387D01*
X154431Y65277D01*
X154464Y65167D01*
X154501Y65059D01*
X154541Y64952D01*
X154586Y64846D01*
X154633Y64742D01*
X154685Y64640D01*
X154740Y64540D01*
X154798Y64441D01*
X154860Y64345D01*
X154925Y64250D01*
X154993Y64159D01*
X155065Y64069D01*
X155139Y63982D01*
X155216Y63898D01*
X155297Y63816D01*
X155380Y63737D01*
X155465Y63661D01*
X155554Y63588D01*
X155644Y63519D01*
X155737Y63452D01*
X155833Y63389D01*
X155930Y63329D01*
X156030Y63272D01*
X156131Y63219D01*
X156234Y63169D01*
X156339Y63123D01*
X156445Y63080D01*
X156553Y63042D01*
X156662Y63007D01*
X156772Y62976D01*
X156883Y62948D01*
X156995Y62925D01*
X157108Y62905D01*
X157221Y62889D01*
X157335Y62877D01*
X157449Y62869D01*
X157564Y62865D01*
X157678Y62865D01*
X157793Y62869D01*
X157907Y62877D01*
X158021Y62889D01*
X158134Y62905D01*
X158247Y62925D01*
X158359Y62948D01*
X158470Y62976D01*
X158580Y63007D01*
X158689Y63042D01*
X158797Y63080D01*
X158903Y63123D01*
X159008Y63169D01*
X159111Y63219D01*
X159212Y63272D01*
X159312Y63329D01*
X159409Y63389D01*
X159505Y63452D01*
X159598Y63519D01*
X159688Y63588D01*
X159777Y63661D01*
X159862Y63737D01*
X159945Y63816D01*
X160026Y63898D01*
X160103Y63982D01*
X160177Y64069D01*
X160249Y64159D01*
X160317Y64250D01*
X160382Y64345D01*
X160444Y64441D01*
X160502Y64540D01*
X160557Y64640D01*
X160609Y64742D01*
X160656Y64846D01*
X160701Y64952D01*
X160741Y65059D01*
X160778Y65167D01*
X160811Y65277D01*
X160841Y65387D01*
X160866Y65499D01*
X160888Y65611D01*
X160905Y65725D01*
X160919Y65838D01*
X160929Y65952D01*
X160935Y66067D01*
X160937Y66181D01*
X160937Y74803D01*
X168769Y74803D02*
X166116Y65518D01*
X172748Y65518D01*
X170759Y68171D02*
X170759Y62865D01*
X90043Y-5461D02*
X90043Y-6787D01*
X90043Y-5461D02*
X96675Y-5461D01*
X93359Y-17399D01*
X101473Y-14746D02*
X104126Y-5461D01*
X101473Y-14746D02*
X108105Y-14746D01*
X106116Y-12093D02*
X106116Y-17399D01*
X112240Y-17399D02*
X116219Y-5461D01*
X120198Y-17399D01*
X119204Y-14415D02*
X113235Y-14415D01*
X124734Y-17399D02*
X124734Y-5461D01*
X124734Y-17399D02*
X130039Y-17399D01*
X137555Y-17399D02*
X133576Y-5461D01*
X141534Y-5461D02*
X137555Y-17399D01*
X148293Y-17399D02*
X150946Y-17399D01*
X148293Y-17399D02*
X148191Y-17397D01*
X148090Y-17391D01*
X147989Y-17381D01*
X147888Y-17368D01*
X147788Y-17350D01*
X147689Y-17329D01*
X147590Y-17304D01*
X147493Y-17275D01*
X147396Y-17243D01*
X147301Y-17207D01*
X147208Y-17167D01*
X147116Y-17124D01*
X147026Y-17077D01*
X146937Y-17026D01*
X146851Y-16973D01*
X146767Y-16916D01*
X146685Y-16856D01*
X146605Y-16793D01*
X146528Y-16727D01*
X146453Y-16658D01*
X146381Y-16586D01*
X146312Y-16511D01*
X146246Y-16434D01*
X146183Y-16354D01*
X146123Y-16272D01*
X146066Y-16188D01*
X146013Y-16102D01*
X145962Y-16013D01*
X145915Y-15923D01*
X145872Y-15831D01*
X145832Y-15738D01*
X145796Y-15643D01*
X145764Y-15546D01*
X145735Y-15449D01*
X145710Y-15350D01*
X145689Y-15251D01*
X145671Y-15151D01*
X145658Y-15050D01*
X145648Y-14949D01*
X145642Y-14848D01*
X145640Y-14746D01*
X145640Y-8114D01*
X145642Y-8012D01*
X145648Y-7911D01*
X145658Y-7810D01*
X145671Y-7709D01*
X145689Y-7609D01*
X145710Y-7510D01*
X145735Y-7411D01*
X145764Y-7314D01*
X145796Y-7217D01*
X145832Y-7122D01*
X145872Y-7029D01*
X145915Y-6937D01*
X145962Y-6847D01*
X146013Y-6758D01*
X146066Y-6672D01*
X146123Y-6588D01*
X146183Y-6506D01*
X146246Y-6426D01*
X146312Y-6349D01*
X146381Y-6274D01*
X146453Y-6202D01*
X146528Y-6133D01*
X146605Y-6067D01*
X146685Y-6004D01*
X146767Y-5944D01*
X146851Y-5887D01*
X146937Y-5834D01*
X147026Y-5783D01*
X147116Y-5736D01*
X147208Y-5693D01*
X147301Y-5653D01*
X147396Y-5617D01*
X147492Y-5585D01*
X147590Y-5556D01*
X147688Y-5531D01*
X147788Y-5510D01*
X147888Y-5492D01*
X147989Y-5479D01*
X148090Y-5469D01*
X148191Y-5463D01*
X148293Y-5461D01*
X150946Y-5461D01*
X155194Y-8114D02*
X158510Y-5461D01*
X158510Y-17399D01*
X155194Y-17399D02*
X161826Y-17399D01*
X166624Y-10767D02*
X170603Y-10767D01*
X170705Y-10769D01*
X170806Y-10775D01*
X170907Y-10785D01*
X171008Y-10798D01*
X171108Y-10816D01*
X171207Y-10837D01*
X171306Y-10862D01*
X171403Y-10891D01*
X171500Y-10923D01*
X171595Y-10959D01*
X171688Y-10999D01*
X171780Y-11042D01*
X171870Y-11089D01*
X171959Y-11140D01*
X172045Y-11193D01*
X172129Y-11250D01*
X172211Y-11310D01*
X172291Y-11373D01*
X172368Y-11439D01*
X172443Y-11508D01*
X172515Y-11580D01*
X172584Y-11655D01*
X172650Y-11732D01*
X172713Y-11812D01*
X172773Y-11894D01*
X172830Y-11978D01*
X172883Y-12064D01*
X172934Y-12153D01*
X172981Y-12243D01*
X173024Y-12335D01*
X173064Y-12428D01*
X173100Y-12523D01*
X173132Y-12620D01*
X173161Y-12717D01*
X173186Y-12816D01*
X173207Y-12915D01*
X173225Y-13015D01*
X173238Y-13116D01*
X173248Y-13217D01*
X173254Y-13318D01*
X173256Y-13420D01*
X173256Y-14083D01*
X173254Y-14197D01*
X173248Y-14312D01*
X173238Y-14426D01*
X173224Y-14539D01*
X173207Y-14653D01*
X173185Y-14765D01*
X173160Y-14877D01*
X173130Y-14987D01*
X173097Y-15097D01*
X173060Y-15205D01*
X173020Y-15312D01*
X172975Y-15418D01*
X172928Y-15522D01*
X172876Y-15624D01*
X172821Y-15724D01*
X172763Y-15823D01*
X172701Y-15919D01*
X172636Y-16014D01*
X172568Y-16105D01*
X172496Y-16195D01*
X172422Y-16282D01*
X172345Y-16366D01*
X172264Y-16448D01*
X172181Y-16527D01*
X172096Y-16603D01*
X172007Y-16676D01*
X171917Y-16745D01*
X171824Y-16812D01*
X171728Y-16875D01*
X171631Y-16935D01*
X171531Y-16992D01*
X171430Y-17045D01*
X171327Y-17095D01*
X171222Y-17141D01*
X171116Y-17184D01*
X171008Y-17222D01*
X170899Y-17257D01*
X170789Y-17288D01*
X170678Y-17316D01*
X170566Y-17339D01*
X170453Y-17359D01*
X170340Y-17375D01*
X170226Y-17387D01*
X170112Y-17395D01*
X169997Y-17399D01*
X169883Y-17399D01*
X169768Y-17395D01*
X169654Y-17387D01*
X169540Y-17375D01*
X169427Y-17359D01*
X169314Y-17339D01*
X169202Y-17316D01*
X169091Y-17288D01*
X168981Y-17257D01*
X168872Y-17222D01*
X168764Y-17184D01*
X168658Y-17141D01*
X168553Y-17095D01*
X168450Y-17045D01*
X168349Y-16992D01*
X168249Y-16935D01*
X168152Y-16875D01*
X168056Y-16812D01*
X167963Y-16745D01*
X167873Y-16676D01*
X167784Y-16603D01*
X167699Y-16527D01*
X167616Y-16448D01*
X167535Y-16366D01*
X167458Y-16282D01*
X167384Y-16195D01*
X167312Y-16105D01*
X167244Y-16014D01*
X167179Y-15919D01*
X167117Y-15823D01*
X167059Y-15724D01*
X167004Y-15624D01*
X166952Y-15522D01*
X166905Y-15418D01*
X166860Y-15312D01*
X166820Y-15205D01*
X166783Y-15097D01*
X166750Y-14987D01*
X166720Y-14877D01*
X166695Y-14765D01*
X166673Y-14653D01*
X166656Y-14539D01*
X166642Y-14426D01*
X166632Y-14312D01*
X166626Y-14197D01*
X166624Y-14083D01*
X166624Y-10767D01*
X166626Y-10623D01*
X166632Y-10480D01*
X166642Y-10336D01*
X166655Y-10193D01*
X166673Y-10051D01*
X166694Y-9909D01*
X166719Y-9767D01*
X166748Y-9626D01*
X166781Y-9486D01*
X166817Y-9348D01*
X166858Y-9210D01*
X166902Y-9073D01*
X166949Y-8937D01*
X167001Y-8803D01*
X167056Y-8670D01*
X167114Y-8539D01*
X167176Y-8409D01*
X167242Y-8282D01*
X167311Y-8156D01*
X167384Y-8031D01*
X167459Y-7909D01*
X167538Y-7789D01*
X167621Y-7672D01*
X167706Y-7556D01*
X167794Y-7443D01*
X167886Y-7332D01*
X167980Y-7224D01*
X168078Y-7118D01*
X168178Y-7015D01*
X168281Y-6915D01*
X168387Y-6817D01*
X168495Y-6723D01*
X168606Y-6631D01*
X168719Y-6543D01*
X168834Y-6458D01*
X168952Y-6375D01*
X169072Y-6296D01*
X169194Y-6221D01*
X169319Y-6148D01*
X169445Y-6079D01*
X169572Y-6014D01*
X169702Y-5951D01*
X169833Y-5893D01*
X169966Y-5838D01*
X170100Y-5786D01*
X170236Y-5739D01*
X170373Y-5695D01*
X170510Y-5654D01*
X170649Y-5618D01*
X170789Y-5585D01*
X170930Y-5556D01*
X171072Y-5531D01*
X171214Y-5510D01*
X171356Y-5492D01*
X171499Y-5479D01*
X171643Y-5469D01*
X171786Y-5463D01*
X171930Y-5461D01*
X180707Y-5461D02*
X178054Y-14746D01*
X184686Y-14746D01*
X182696Y-12093D02*
X182696Y-17399D01*
X193131Y-5461D02*
X193238Y-5463D01*
X193344Y-5469D01*
X193450Y-5478D01*
X193556Y-5491D01*
X193661Y-5508D01*
X193766Y-5529D01*
X193869Y-5554D01*
X193972Y-5582D01*
X194074Y-5614D01*
X194174Y-5649D01*
X194273Y-5688D01*
X194371Y-5731D01*
X194467Y-5777D01*
X194562Y-5826D01*
X194654Y-5879D01*
X194745Y-5935D01*
X194833Y-5994D01*
X194920Y-6056D01*
X195004Y-6122D01*
X195086Y-6190D01*
X195165Y-6261D01*
X195242Y-6335D01*
X195316Y-6412D01*
X195387Y-6491D01*
X195455Y-6573D01*
X195521Y-6657D01*
X195583Y-6744D01*
X195642Y-6832D01*
X195698Y-6923D01*
X195751Y-7015D01*
X195800Y-7110D01*
X195846Y-7206D01*
X195889Y-7304D01*
X195928Y-7403D01*
X195963Y-7503D01*
X195995Y-7605D01*
X196023Y-7708D01*
X196048Y-7811D01*
X196069Y-7916D01*
X196086Y-8021D01*
X196099Y-8127D01*
X196108Y-8233D01*
X196114Y-8339D01*
X196116Y-8446D01*
X193131Y-5461D02*
X193010Y-5463D01*
X192890Y-5469D01*
X192770Y-5478D01*
X192650Y-5491D01*
X192531Y-5508D01*
X192412Y-5529D01*
X192294Y-5553D01*
X192177Y-5582D01*
X192061Y-5613D01*
X191945Y-5649D01*
X191831Y-5688D01*
X191719Y-5731D01*
X191607Y-5777D01*
X191497Y-5826D01*
X191389Y-5880D01*
X191283Y-5936D01*
X191178Y-5996D01*
X191075Y-6059D01*
X190975Y-6125D01*
X190876Y-6194D01*
X190780Y-6267D01*
X190686Y-6342D01*
X190594Y-6420D01*
X190505Y-6502D01*
X190418Y-6586D01*
X190334Y-6672D01*
X190253Y-6761D01*
X190175Y-6853D01*
X190100Y-6947D01*
X190028Y-7044D01*
X189958Y-7142D01*
X189892Y-7243D01*
X189829Y-7346D01*
X189770Y-7451D01*
X189713Y-7557D01*
X189660Y-7666D01*
X189611Y-7775D01*
X189565Y-7887D01*
X189522Y-8000D01*
X189484Y-8114D01*
X195121Y-10768D02*
X195201Y-10688D01*
X195279Y-10606D01*
X195353Y-10522D01*
X195425Y-10434D01*
X195493Y-10345D01*
X195559Y-10252D01*
X195621Y-10158D01*
X195679Y-10062D01*
X195734Y-9963D01*
X195786Y-9863D01*
X195834Y-9761D01*
X195879Y-9657D01*
X195919Y-9552D01*
X195956Y-9445D01*
X195990Y-9337D01*
X196019Y-9228D01*
X196045Y-9118D01*
X196066Y-9007D01*
X196084Y-8896D01*
X196098Y-8784D01*
X196108Y-8672D01*
X196114Y-8559D01*
X196116Y-8446D01*
X195121Y-10767D02*
X189484Y-17399D01*
X196116Y-17399D01*
X200914Y-14746D02*
X203567Y-5461D01*
X200914Y-14746D02*
X207546Y-14746D01*
X205556Y-12093D02*
X205556Y-17399D01*
X212344Y-17399D02*
X216323Y-17399D01*
X216425Y-17397D01*
X216526Y-17391D01*
X216627Y-17381D01*
X216728Y-17368D01*
X216828Y-17350D01*
X216927Y-17329D01*
X217026Y-17304D01*
X217123Y-17275D01*
X217220Y-17243D01*
X217315Y-17207D01*
X217408Y-17167D01*
X217500Y-17124D01*
X217590Y-17077D01*
X217679Y-17026D01*
X217765Y-16973D01*
X217849Y-16916D01*
X217931Y-16856D01*
X218011Y-16793D01*
X218088Y-16727D01*
X218163Y-16658D01*
X218235Y-16586D01*
X218304Y-16511D01*
X218370Y-16434D01*
X218433Y-16354D01*
X218493Y-16272D01*
X218550Y-16188D01*
X218603Y-16102D01*
X218654Y-16013D01*
X218701Y-15923D01*
X218744Y-15831D01*
X218784Y-15738D01*
X218820Y-15643D01*
X218852Y-15546D01*
X218881Y-15449D01*
X218906Y-15351D01*
X218927Y-15251D01*
X218945Y-15151D01*
X218958Y-15050D01*
X218968Y-14949D01*
X218974Y-14848D01*
X218976Y-14746D01*
X218976Y-13420D01*
X218974Y-13318D01*
X218968Y-13217D01*
X218958Y-13116D01*
X218945Y-13015D01*
X218927Y-12915D01*
X218906Y-12816D01*
X218881Y-12717D01*
X218852Y-12620D01*
X218820Y-12523D01*
X218784Y-12428D01*
X218744Y-12335D01*
X218701Y-12243D01*
X218654Y-12153D01*
X218603Y-12064D01*
X218550Y-11978D01*
X218493Y-11894D01*
X218433Y-11812D01*
X218370Y-11732D01*
X218304Y-11655D01*
X218235Y-11580D01*
X218163Y-11508D01*
X218088Y-11439D01*
X218011Y-11373D01*
X217931Y-11310D01*
X217849Y-11250D01*
X217765Y-11193D01*
X217679Y-11140D01*
X217590Y-11089D01*
X217500Y-11042D01*
X217408Y-10999D01*
X217315Y-10959D01*
X217220Y-10923D01*
X217123Y-10891D01*
X217026Y-10862D01*
X216928Y-10837D01*
X216828Y-10816D01*
X216728Y-10798D01*
X216627Y-10785D01*
X216526Y-10775D01*
X216425Y-10769D01*
X216323Y-10767D01*
X212344Y-10767D01*
X212344Y-5461D01*
X218976Y-5461D01*
X224155Y-5461D02*
X224155Y-17399D01*
X224155Y-5461D02*
X227471Y-5461D01*
X227584Y-5463D01*
X227697Y-5469D01*
X227810Y-5478D01*
X227923Y-5492D01*
X228034Y-5509D01*
X228146Y-5530D01*
X228256Y-5555D01*
X228366Y-5584D01*
X228474Y-5616D01*
X228581Y-5652D01*
X228687Y-5692D01*
X228792Y-5736D01*
X228895Y-5782D01*
X228997Y-5833D01*
X229096Y-5887D01*
X229194Y-5944D01*
X229290Y-6004D01*
X229383Y-6068D01*
X229475Y-6135D01*
X229564Y-6205D01*
X229650Y-6278D01*
X229734Y-6354D01*
X229816Y-6432D01*
X229894Y-6514D01*
X229970Y-6598D01*
X230043Y-6684D01*
X230113Y-6773D01*
X230180Y-6865D01*
X230244Y-6958D01*
X230304Y-7054D01*
X230361Y-7152D01*
X230415Y-7251D01*
X230466Y-7353D01*
X230512Y-7456D01*
X230556Y-7561D01*
X230596Y-7667D01*
X230632Y-7774D01*
X230664Y-7882D01*
X230693Y-7992D01*
X230718Y-8102D01*
X230739Y-8214D01*
X230756Y-8325D01*
X230770Y-8438D01*
X230779Y-8551D01*
X230785Y-8664D01*
X230787Y-8777D01*
X230787Y-14083D01*
X230785Y-14196D01*
X230779Y-14309D01*
X230770Y-14422D01*
X230756Y-14535D01*
X230739Y-14646D01*
X230718Y-14758D01*
X230693Y-14868D01*
X230664Y-14978D01*
X230632Y-15086D01*
X230596Y-15193D01*
X230556Y-15299D01*
X230512Y-15404D01*
X230466Y-15507D01*
X230415Y-15609D01*
X230361Y-15708D01*
X230304Y-15806D01*
X230244Y-15902D01*
X230180Y-15995D01*
X230113Y-16087D01*
X230043Y-16176D01*
X229970Y-16262D01*
X229894Y-16346D01*
X229816Y-16428D01*
X229734Y-16506D01*
X229650Y-16582D01*
X229564Y-16655D01*
X229475Y-16725D01*
X229383Y-16792D01*
X229290Y-16856D01*
X229194Y-16916D01*
X229096Y-16973D01*
X228997Y-17027D01*
X228895Y-17078D01*
X228792Y-17124D01*
X228687Y-17168D01*
X228581Y-17208D01*
X228474Y-17244D01*
X228366Y-17276D01*
X228256Y-17305D01*
X228146Y-17330D01*
X228034Y-17351D01*
X227923Y-17368D01*
X227810Y-17382D01*
X227697Y-17391D01*
X227584Y-17397D01*
X227471Y-17399D01*
X224155Y-17399D01*
X240989Y-10767D02*
X242979Y-10767D01*
X242979Y-17399D01*
X238999Y-17399D01*
X238897Y-17397D01*
X238796Y-17391D01*
X238695Y-17381D01*
X238594Y-17368D01*
X238494Y-17350D01*
X238395Y-17329D01*
X238296Y-17304D01*
X238199Y-17275D01*
X238102Y-17243D01*
X238007Y-17207D01*
X237914Y-17167D01*
X237822Y-17124D01*
X237732Y-17077D01*
X237643Y-17026D01*
X237557Y-16973D01*
X237473Y-16916D01*
X237391Y-16856D01*
X237311Y-16793D01*
X237234Y-16727D01*
X237159Y-16658D01*
X237087Y-16586D01*
X237018Y-16511D01*
X236952Y-16434D01*
X236889Y-16354D01*
X236829Y-16272D01*
X236772Y-16188D01*
X236719Y-16102D01*
X236668Y-16013D01*
X236621Y-15923D01*
X236578Y-15831D01*
X236538Y-15738D01*
X236502Y-15643D01*
X236470Y-15546D01*
X236441Y-15449D01*
X236416Y-15350D01*
X236395Y-15251D01*
X236377Y-15151D01*
X236364Y-15050D01*
X236354Y-14949D01*
X236348Y-14848D01*
X236346Y-14746D01*
X236347Y-14746D02*
X236347Y-8114D01*
X236349Y-8012D01*
X236355Y-7911D01*
X236365Y-7810D01*
X236378Y-7709D01*
X236396Y-7609D01*
X236417Y-7510D01*
X236442Y-7411D01*
X236471Y-7314D01*
X236503Y-7217D01*
X236539Y-7122D01*
X236579Y-7029D01*
X236622Y-6937D01*
X236669Y-6847D01*
X236720Y-6758D01*
X236773Y-6672D01*
X236830Y-6588D01*
X236890Y-6506D01*
X236953Y-6426D01*
X237019Y-6349D01*
X237088Y-6274D01*
X237160Y-6202D01*
X237235Y-6133D01*
X237312Y-6067D01*
X237392Y-6004D01*
X237474Y-5944D01*
X237558Y-5887D01*
X237644Y-5834D01*
X237733Y-5783D01*
X237823Y-5736D01*
X237915Y-5693D01*
X238008Y-5653D01*
X238103Y-5617D01*
X238199Y-5585D01*
X238297Y-5556D01*
X238395Y-5531D01*
X238495Y-5510D01*
X238595Y-5492D01*
X238696Y-5479D01*
X238797Y-5469D01*
X238898Y-5463D01*
X239000Y-5461D01*
X238999Y-5461D02*
X242979Y-5461D01*
X253181Y-10767D02*
X255171Y-10767D01*
X255171Y-17399D01*
X251191Y-17399D01*
X251089Y-17397D01*
X250988Y-17391D01*
X250887Y-17381D01*
X250786Y-17368D01*
X250686Y-17350D01*
X250587Y-17329D01*
X250488Y-17304D01*
X250391Y-17275D01*
X250294Y-17243D01*
X250199Y-17207D01*
X250106Y-17167D01*
X250014Y-17124D01*
X249924Y-17077D01*
X249835Y-17026D01*
X249749Y-16973D01*
X249665Y-16916D01*
X249583Y-16856D01*
X249503Y-16793D01*
X249426Y-16727D01*
X249351Y-16658D01*
X249279Y-16586D01*
X249210Y-16511D01*
X249144Y-16434D01*
X249081Y-16354D01*
X249021Y-16272D01*
X248964Y-16188D01*
X248911Y-16102D01*
X248860Y-16013D01*
X248813Y-15923D01*
X248770Y-15831D01*
X248730Y-15738D01*
X248694Y-15643D01*
X248662Y-15546D01*
X248633Y-15449D01*
X248608Y-15350D01*
X248587Y-15251D01*
X248569Y-15151D01*
X248556Y-15050D01*
X248546Y-14949D01*
X248540Y-14848D01*
X248538Y-14746D01*
X248539Y-14746D02*
X248539Y-8114D01*
X248541Y-8012D01*
X248547Y-7911D01*
X248557Y-7810D01*
X248570Y-7709D01*
X248588Y-7609D01*
X248609Y-7510D01*
X248634Y-7411D01*
X248663Y-7314D01*
X248695Y-7217D01*
X248731Y-7122D01*
X248771Y-7029D01*
X248814Y-6937D01*
X248861Y-6847D01*
X248912Y-6758D01*
X248965Y-6672D01*
X249022Y-6588D01*
X249082Y-6506D01*
X249145Y-6426D01*
X249211Y-6349D01*
X249280Y-6274D01*
X249352Y-6202D01*
X249427Y-6133D01*
X249504Y-6067D01*
X249584Y-6004D01*
X249666Y-5944D01*
X249750Y-5887D01*
X249836Y-5834D01*
X249925Y-5783D01*
X250015Y-5736D01*
X250107Y-5693D01*
X250200Y-5653D01*
X250295Y-5617D01*
X250391Y-5585D01*
X250489Y-5556D01*
X250587Y-5531D01*
X250687Y-5510D01*
X250787Y-5492D01*
X250888Y-5479D01*
X250989Y-5469D01*
X251090Y-5463D01*
X251192Y-5461D01*
X251191Y-5461D02*
X255171Y-5461D01*
X260795Y-5461D02*
X260795Y-17399D01*
X260795Y-5461D02*
X264111Y-5461D01*
X264225Y-5463D01*
X264340Y-5469D01*
X264454Y-5479D01*
X264567Y-5493D01*
X264681Y-5510D01*
X264793Y-5532D01*
X264905Y-5557D01*
X265015Y-5587D01*
X265125Y-5620D01*
X265233Y-5657D01*
X265340Y-5697D01*
X265446Y-5742D01*
X265550Y-5789D01*
X265652Y-5841D01*
X265752Y-5896D01*
X265851Y-5954D01*
X265947Y-6016D01*
X266042Y-6081D01*
X266133Y-6149D01*
X266223Y-6221D01*
X266310Y-6295D01*
X266394Y-6372D01*
X266476Y-6453D01*
X266555Y-6536D01*
X266631Y-6621D01*
X266704Y-6710D01*
X266773Y-6800D01*
X266840Y-6893D01*
X266903Y-6989D01*
X266963Y-7086D01*
X267020Y-7186D01*
X267073Y-7287D01*
X267123Y-7390D01*
X267169Y-7495D01*
X267212Y-7601D01*
X267250Y-7709D01*
X267285Y-7818D01*
X267316Y-7928D01*
X267344Y-8039D01*
X267367Y-8151D01*
X267387Y-8264D01*
X267403Y-8377D01*
X267415Y-8491D01*
X267423Y-8605D01*
X267427Y-8720D01*
X267427Y-8834D01*
X267423Y-8949D01*
X267415Y-9063D01*
X267403Y-9177D01*
X267387Y-9290D01*
X267367Y-9403D01*
X267344Y-9515D01*
X267316Y-9626D01*
X267285Y-9736D01*
X267250Y-9845D01*
X267212Y-9953D01*
X267169Y-10059D01*
X267123Y-10164D01*
X267073Y-10267D01*
X267020Y-10368D01*
X266963Y-10468D01*
X266903Y-10565D01*
X266840Y-10661D01*
X266773Y-10754D01*
X266704Y-10844D01*
X266631Y-10933D01*
X266555Y-11018D01*
X266476Y-11101D01*
X266394Y-11182D01*
X266310Y-11259D01*
X266223Y-11333D01*
X266133Y-11405D01*
X266042Y-11473D01*
X265947Y-11538D01*
X265851Y-11600D01*
X265752Y-11658D01*
X265652Y-11713D01*
X265550Y-11765D01*
X265446Y-11812D01*
X265340Y-11857D01*
X265233Y-11897D01*
X265125Y-11934D01*
X265015Y-11967D01*
X264905Y-11997D01*
X264793Y-12022D01*
X264681Y-12044D01*
X264567Y-12061D01*
X264454Y-12075D01*
X264340Y-12085D01*
X264225Y-12091D01*
X264111Y-12093D01*
X260795Y-12093D01*
X264774Y-12093D02*
X267427Y-17399D01*
X272561Y-17399D02*
X277867Y-17399D01*
X272561Y-17399D02*
X272561Y-5461D01*
X277867Y-5461D01*
X276541Y-10767D02*
X272561Y-10767D01*
X282066Y-14746D02*
X284719Y-5461D01*
X282066Y-14746D02*
X288699Y-14746D01*
X286709Y-12093D02*
X286709Y-17399D01*
D11*
X519198Y39783D02*
X520271Y39783D01*
X519198Y39783D02*
X519133Y39785D01*
X519069Y39791D01*
X519005Y39801D01*
X518941Y39814D01*
X518879Y39832D01*
X518818Y39853D01*
X518758Y39877D01*
X518700Y39906D01*
X518643Y39938D01*
X518589Y39973D01*
X518537Y40011D01*
X518487Y40053D01*
X518440Y40097D01*
X518396Y40144D01*
X518354Y40194D01*
X518316Y40246D01*
X518281Y40300D01*
X518249Y40357D01*
X518220Y40415D01*
X518196Y40475D01*
X518175Y40536D01*
X518157Y40598D01*
X518144Y40662D01*
X518134Y40726D01*
X518128Y40790D01*
X518126Y40855D01*
X518126Y43537D01*
X518128Y43602D01*
X518134Y43666D01*
X518144Y43730D01*
X518157Y43794D01*
X518175Y43856D01*
X518196Y43917D01*
X518220Y43977D01*
X518249Y44035D01*
X518281Y44092D01*
X518316Y44146D01*
X518354Y44198D01*
X518396Y44248D01*
X518440Y44295D01*
X518487Y44339D01*
X518537Y44381D01*
X518589Y44419D01*
X518643Y44454D01*
X518700Y44486D01*
X518758Y44515D01*
X518818Y44539D01*
X518879Y44560D01*
X518941Y44578D01*
X519005Y44591D01*
X519069Y44601D01*
X519133Y44607D01*
X519198Y44609D01*
X520271Y44609D01*
X522727Y43537D02*
X524067Y44609D01*
X524067Y39783D01*
X522727Y39783D02*
X525408Y39783D01*
X529285Y41928D02*
X530894Y41928D01*
X529285Y41928D02*
X529220Y41930D01*
X529156Y41936D01*
X529092Y41946D01*
X529028Y41959D01*
X528966Y41977D01*
X528905Y41998D01*
X528845Y42022D01*
X528787Y42051D01*
X528730Y42083D01*
X528676Y42118D01*
X528624Y42156D01*
X528574Y42198D01*
X528527Y42242D01*
X528483Y42289D01*
X528441Y42339D01*
X528403Y42391D01*
X528368Y42445D01*
X528336Y42502D01*
X528307Y42560D01*
X528283Y42620D01*
X528262Y42681D01*
X528244Y42743D01*
X528231Y42807D01*
X528221Y42871D01*
X528215Y42935D01*
X528213Y43000D01*
X528213Y43268D01*
X528215Y43339D01*
X528221Y43411D01*
X528230Y43481D01*
X528243Y43551D01*
X528260Y43621D01*
X528281Y43689D01*
X528305Y43756D01*
X528333Y43822D01*
X528364Y43886D01*
X528399Y43949D01*
X528437Y44009D01*
X528478Y44068D01*
X528522Y44124D01*
X528569Y44178D01*
X528618Y44229D01*
X528671Y44277D01*
X528726Y44323D01*
X528783Y44365D01*
X528843Y44405D01*
X528904Y44441D01*
X528968Y44474D01*
X529033Y44503D01*
X529099Y44529D01*
X529167Y44552D01*
X529236Y44571D01*
X529306Y44586D01*
X529376Y44597D01*
X529447Y44605D01*
X529518Y44609D01*
X529590Y44609D01*
X529661Y44605D01*
X529732Y44597D01*
X529802Y44586D01*
X529872Y44571D01*
X529941Y44552D01*
X530009Y44529D01*
X530075Y44503D01*
X530140Y44474D01*
X530204Y44441D01*
X530265Y44405D01*
X530325Y44365D01*
X530382Y44323D01*
X530437Y44277D01*
X530490Y44229D01*
X530539Y44178D01*
X530586Y44124D01*
X530630Y44068D01*
X530671Y44009D01*
X530709Y43949D01*
X530744Y43886D01*
X530775Y43822D01*
X530803Y43756D01*
X530827Y43689D01*
X530848Y43621D01*
X530865Y43551D01*
X530878Y43481D01*
X530887Y43411D01*
X530893Y43339D01*
X530895Y43268D01*
X530894Y43268D02*
X530894Y41928D01*
X530892Y41837D01*
X530886Y41746D01*
X530877Y41656D01*
X530863Y41565D01*
X530846Y41476D01*
X530825Y41388D01*
X530800Y41300D01*
X530771Y41213D01*
X530739Y41128D01*
X530704Y41044D01*
X530664Y40962D01*
X530622Y40882D01*
X530576Y40803D01*
X530526Y40727D01*
X530474Y40653D01*
X530418Y40580D01*
X530359Y40511D01*
X530298Y40444D01*
X530233Y40379D01*
X530166Y40318D01*
X530097Y40259D01*
X530024Y40203D01*
X529950Y40151D01*
X529874Y40101D01*
X529795Y40055D01*
X529715Y40013D01*
X529633Y39973D01*
X529549Y39938D01*
X529464Y39906D01*
X529377Y39877D01*
X529289Y39852D01*
X529201Y39831D01*
X529112Y39814D01*
X529021Y39800D01*
X528931Y39791D01*
X528840Y39785D01*
X528749Y39783D01*
X506047Y39783D02*
X504974Y39783D01*
X504909Y39785D01*
X504845Y39791D01*
X504781Y39801D01*
X504717Y39814D01*
X504655Y39832D01*
X504594Y39853D01*
X504534Y39877D01*
X504476Y39906D01*
X504419Y39938D01*
X504365Y39973D01*
X504313Y40011D01*
X504263Y40053D01*
X504216Y40097D01*
X504172Y40144D01*
X504130Y40194D01*
X504092Y40246D01*
X504057Y40300D01*
X504025Y40357D01*
X503996Y40415D01*
X503972Y40475D01*
X503951Y40536D01*
X503933Y40598D01*
X503920Y40662D01*
X503910Y40726D01*
X503904Y40790D01*
X503902Y40855D01*
X503902Y43537D01*
X503904Y43602D01*
X503910Y43666D01*
X503920Y43730D01*
X503933Y43794D01*
X503951Y43856D01*
X503972Y43917D01*
X503996Y43977D01*
X504025Y44035D01*
X504057Y44092D01*
X504092Y44146D01*
X504130Y44198D01*
X504172Y44248D01*
X504216Y44295D01*
X504263Y44339D01*
X504313Y44381D01*
X504365Y44419D01*
X504419Y44454D01*
X504476Y44486D01*
X504534Y44515D01*
X504594Y44539D01*
X504655Y44560D01*
X504717Y44578D01*
X504781Y44591D01*
X504845Y44601D01*
X504909Y44607D01*
X504974Y44609D01*
X506047Y44609D01*
X509977Y44609D02*
X510045Y44607D01*
X510112Y44601D01*
X510179Y44592D01*
X510246Y44579D01*
X510311Y44562D01*
X510376Y44541D01*
X510439Y44517D01*
X510501Y44489D01*
X510561Y44458D01*
X510619Y44424D01*
X510675Y44386D01*
X510730Y44346D01*
X510781Y44302D01*
X510830Y44255D01*
X510877Y44206D01*
X510921Y44155D01*
X510961Y44100D01*
X510999Y44044D01*
X511033Y43986D01*
X511064Y43926D01*
X511092Y43864D01*
X511116Y43801D01*
X511137Y43736D01*
X511154Y43671D01*
X511167Y43604D01*
X511176Y43537D01*
X511182Y43470D01*
X511184Y43402D01*
X509977Y44609D02*
X509899Y44607D01*
X509821Y44601D01*
X509744Y44591D01*
X509667Y44578D01*
X509591Y44560D01*
X509516Y44539D01*
X509442Y44514D01*
X509370Y44485D01*
X509299Y44453D01*
X509230Y44417D01*
X509162Y44378D01*
X509097Y44335D01*
X509034Y44289D01*
X508973Y44240D01*
X508915Y44188D01*
X508860Y44133D01*
X508807Y44076D01*
X508758Y44016D01*
X508711Y43953D01*
X508668Y43889D01*
X508628Y43822D01*
X508591Y43753D01*
X508558Y43682D01*
X508528Y43610D01*
X508502Y43537D01*
X510782Y42464D02*
X510831Y42513D01*
X510878Y42565D01*
X510921Y42620D01*
X510962Y42677D01*
X511000Y42736D01*
X511034Y42797D01*
X511065Y42860D01*
X511093Y42924D01*
X511117Y42990D01*
X511137Y43056D01*
X511154Y43124D01*
X511167Y43193D01*
X511176Y43262D01*
X511182Y43332D01*
X511184Y43402D01*
X510782Y42464D02*
X508503Y39783D01*
X511184Y39783D01*
X513989Y42196D02*
X513991Y42316D01*
X513996Y42436D01*
X514005Y42556D01*
X514018Y42676D01*
X514034Y42795D01*
X514054Y42914D01*
X514078Y43032D01*
X514105Y43149D01*
X514135Y43265D01*
X514169Y43380D01*
X514207Y43495D01*
X514248Y43608D01*
X514292Y43719D01*
X514340Y43830D01*
X514391Y43939D01*
X514392Y43939D02*
X514413Y43996D01*
X514439Y44052D01*
X514467Y44107D01*
X514499Y44159D01*
X514535Y44210D01*
X514573Y44258D01*
X514614Y44304D01*
X514658Y44347D01*
X514704Y44387D01*
X514753Y44424D01*
X514805Y44458D01*
X514858Y44489D01*
X514913Y44517D01*
X514969Y44541D01*
X515027Y44562D01*
X515086Y44579D01*
X515146Y44592D01*
X515207Y44601D01*
X515269Y44607D01*
X515330Y44609D01*
X515391Y44607D01*
X515453Y44601D01*
X515514Y44592D01*
X515574Y44579D01*
X515633Y44562D01*
X515691Y44541D01*
X515747Y44517D01*
X515802Y44489D01*
X515855Y44458D01*
X515907Y44424D01*
X515956Y44387D01*
X516002Y44347D01*
X516046Y44304D01*
X516087Y44258D01*
X516125Y44210D01*
X516161Y44159D01*
X516193Y44107D01*
X516221Y44052D01*
X516247Y43996D01*
X516268Y43939D01*
X516319Y43830D01*
X516367Y43719D01*
X516411Y43608D01*
X516452Y43495D01*
X516490Y43380D01*
X516524Y43265D01*
X516554Y43149D01*
X516581Y43032D01*
X516605Y42914D01*
X516625Y42795D01*
X516641Y42676D01*
X516654Y42556D01*
X516663Y42436D01*
X516668Y42316D01*
X516670Y42196D01*
X513989Y42196D02*
X513991Y42076D01*
X513996Y41956D01*
X514005Y41836D01*
X514018Y41716D01*
X514034Y41597D01*
X514054Y41478D01*
X514078Y41360D01*
X514105Y41243D01*
X514135Y41127D01*
X514169Y41012D01*
X514207Y40897D01*
X514248Y40784D01*
X514292Y40673D01*
X514340Y40562D01*
X514391Y40453D01*
X514392Y40453D02*
X514413Y40396D01*
X514439Y40340D01*
X514467Y40285D01*
X514499Y40233D01*
X514535Y40182D01*
X514573Y40134D01*
X514614Y40088D01*
X514658Y40045D01*
X514704Y40005D01*
X514753Y39968D01*
X514805Y39934D01*
X514858Y39903D01*
X514913Y39875D01*
X514969Y39851D01*
X515027Y39830D01*
X515086Y39813D01*
X515146Y39800D01*
X515207Y39791D01*
X515269Y39785D01*
X515330Y39783D01*
X516268Y40453D02*
X516319Y40562D01*
X516367Y40673D01*
X516411Y40784D01*
X516452Y40897D01*
X516490Y41012D01*
X516524Y41127D01*
X516554Y41243D01*
X516581Y41360D01*
X516605Y41478D01*
X516625Y41597D01*
X516641Y41716D01*
X516654Y41836D01*
X516663Y41956D01*
X516668Y42076D01*
X516670Y42196D01*
X516268Y40453D02*
X516247Y40396D01*
X516221Y40340D01*
X516193Y40285D01*
X516161Y40233D01*
X516125Y40182D01*
X516087Y40134D01*
X516046Y40088D01*
X516002Y40045D01*
X515955Y40005D01*
X515907Y39968D01*
X515855Y39934D01*
X515802Y39903D01*
X515747Y39875D01*
X515691Y39851D01*
X515633Y39830D01*
X515574Y39813D01*
X515514Y39800D01*
X515453Y39791D01*
X515391Y39785D01*
X515330Y39783D01*
X514257Y40855D02*
X516402Y43537D01*
X231727Y247047D02*
X230654Y247047D01*
X230589Y247049D01*
X230525Y247055D01*
X230461Y247065D01*
X230397Y247078D01*
X230335Y247096D01*
X230274Y247117D01*
X230214Y247141D01*
X230156Y247170D01*
X230099Y247202D01*
X230045Y247237D01*
X229993Y247275D01*
X229943Y247317D01*
X229896Y247361D01*
X229852Y247408D01*
X229810Y247458D01*
X229772Y247510D01*
X229737Y247564D01*
X229705Y247621D01*
X229676Y247679D01*
X229652Y247739D01*
X229631Y247800D01*
X229613Y247862D01*
X229600Y247926D01*
X229590Y247990D01*
X229584Y248054D01*
X229582Y248119D01*
X229582Y250801D01*
X229584Y250866D01*
X229590Y250930D01*
X229600Y250994D01*
X229613Y251058D01*
X229631Y251120D01*
X229652Y251181D01*
X229676Y251241D01*
X229705Y251299D01*
X229737Y251356D01*
X229772Y251410D01*
X229810Y251462D01*
X229852Y251512D01*
X229896Y251559D01*
X229943Y251603D01*
X229993Y251645D01*
X230045Y251683D01*
X230099Y251718D01*
X230156Y251750D01*
X230214Y251779D01*
X230274Y251803D01*
X230335Y251824D01*
X230397Y251842D01*
X230461Y251855D01*
X230525Y251865D01*
X230589Y251871D01*
X230654Y251873D01*
X231727Y251873D01*
X235657Y251873D02*
X235725Y251871D01*
X235792Y251865D01*
X235859Y251856D01*
X235926Y251843D01*
X235991Y251826D01*
X236056Y251805D01*
X236119Y251781D01*
X236181Y251753D01*
X236241Y251722D01*
X236299Y251688D01*
X236355Y251650D01*
X236410Y251610D01*
X236461Y251566D01*
X236510Y251519D01*
X236557Y251470D01*
X236601Y251419D01*
X236641Y251364D01*
X236679Y251308D01*
X236713Y251250D01*
X236744Y251190D01*
X236772Y251128D01*
X236796Y251065D01*
X236817Y251000D01*
X236834Y250935D01*
X236847Y250868D01*
X236856Y250801D01*
X236862Y250734D01*
X236864Y250666D01*
X235657Y251873D02*
X235579Y251871D01*
X235501Y251865D01*
X235424Y251855D01*
X235347Y251842D01*
X235271Y251824D01*
X235196Y251803D01*
X235122Y251778D01*
X235050Y251749D01*
X234979Y251717D01*
X234910Y251681D01*
X234842Y251642D01*
X234777Y251599D01*
X234714Y251553D01*
X234653Y251504D01*
X234595Y251452D01*
X234540Y251397D01*
X234487Y251340D01*
X234438Y251280D01*
X234391Y251217D01*
X234348Y251153D01*
X234308Y251086D01*
X234271Y251017D01*
X234238Y250946D01*
X234208Y250874D01*
X234182Y250801D01*
X236462Y249728D02*
X236511Y249777D01*
X236558Y249829D01*
X236601Y249884D01*
X236642Y249941D01*
X236680Y250000D01*
X236714Y250061D01*
X236745Y250124D01*
X236773Y250188D01*
X236797Y250254D01*
X236817Y250320D01*
X236834Y250388D01*
X236847Y250457D01*
X236856Y250526D01*
X236862Y250596D01*
X236864Y250666D01*
X236462Y249728D02*
X234183Y247047D01*
X236864Y247047D01*
X239669Y250801D02*
X241010Y251873D01*
X241010Y247047D01*
X242350Y247047D02*
X239669Y247047D01*
X244878Y247047D02*
X245951Y247047D01*
X244878Y247047D02*
X244813Y247049D01*
X244749Y247055D01*
X244685Y247065D01*
X244621Y247078D01*
X244559Y247096D01*
X244498Y247117D01*
X244438Y247141D01*
X244380Y247170D01*
X244323Y247202D01*
X244269Y247237D01*
X244217Y247275D01*
X244167Y247317D01*
X244120Y247361D01*
X244076Y247408D01*
X244034Y247458D01*
X243996Y247510D01*
X243961Y247564D01*
X243929Y247621D01*
X243900Y247679D01*
X243876Y247739D01*
X243855Y247800D01*
X243837Y247862D01*
X243824Y247926D01*
X243814Y247990D01*
X243808Y248054D01*
X243806Y248119D01*
X243806Y250801D01*
X243808Y250866D01*
X243814Y250930D01*
X243824Y250994D01*
X243837Y251058D01*
X243855Y251120D01*
X243876Y251181D01*
X243900Y251241D01*
X243929Y251299D01*
X243961Y251356D01*
X243996Y251410D01*
X244034Y251462D01*
X244076Y251512D01*
X244120Y251559D01*
X244167Y251603D01*
X244217Y251645D01*
X244269Y251683D01*
X244323Y251718D01*
X244380Y251750D01*
X244438Y251779D01*
X244498Y251803D01*
X244559Y251824D01*
X244621Y251842D01*
X244685Y251855D01*
X244749Y251865D01*
X244813Y251871D01*
X244878Y251873D01*
X245951Y251873D01*
X249881Y251873D02*
X249949Y251871D01*
X250016Y251865D01*
X250083Y251856D01*
X250150Y251843D01*
X250215Y251826D01*
X250280Y251805D01*
X250343Y251781D01*
X250405Y251753D01*
X250465Y251722D01*
X250523Y251688D01*
X250579Y251650D01*
X250634Y251610D01*
X250685Y251566D01*
X250734Y251519D01*
X250781Y251470D01*
X250825Y251419D01*
X250865Y251364D01*
X250903Y251308D01*
X250937Y251250D01*
X250968Y251190D01*
X250996Y251128D01*
X251020Y251065D01*
X251041Y251000D01*
X251058Y250935D01*
X251071Y250868D01*
X251080Y250801D01*
X251086Y250734D01*
X251088Y250666D01*
X249881Y251873D02*
X249803Y251871D01*
X249725Y251865D01*
X249648Y251855D01*
X249571Y251842D01*
X249495Y251824D01*
X249420Y251803D01*
X249346Y251778D01*
X249274Y251749D01*
X249203Y251717D01*
X249134Y251681D01*
X249066Y251642D01*
X249001Y251599D01*
X248938Y251553D01*
X248877Y251504D01*
X248819Y251452D01*
X248764Y251397D01*
X248711Y251340D01*
X248662Y251280D01*
X248615Y251217D01*
X248572Y251153D01*
X248532Y251086D01*
X248495Y251017D01*
X248462Y250946D01*
X248432Y250874D01*
X248406Y250801D01*
X250686Y249728D02*
X250735Y249777D01*
X250782Y249829D01*
X250825Y249884D01*
X250866Y249941D01*
X250904Y250000D01*
X250938Y250061D01*
X250969Y250124D01*
X250997Y250188D01*
X251021Y250254D01*
X251041Y250320D01*
X251058Y250388D01*
X251071Y250457D01*
X251080Y250526D01*
X251086Y250596D01*
X251088Y250666D01*
X250686Y249728D02*
X248407Y247047D01*
X251088Y247047D01*
X255368Y251873D02*
X255436Y251871D01*
X255503Y251865D01*
X255570Y251856D01*
X255637Y251843D01*
X255702Y251826D01*
X255767Y251805D01*
X255830Y251781D01*
X255892Y251753D01*
X255952Y251722D01*
X256010Y251688D01*
X256066Y251650D01*
X256121Y251610D01*
X256172Y251566D01*
X256221Y251519D01*
X256268Y251470D01*
X256312Y251419D01*
X256352Y251364D01*
X256390Y251308D01*
X256424Y251250D01*
X256455Y251190D01*
X256483Y251128D01*
X256507Y251065D01*
X256528Y251000D01*
X256545Y250935D01*
X256558Y250868D01*
X256567Y250801D01*
X256573Y250734D01*
X256575Y250666D01*
X255368Y251873D02*
X255290Y251871D01*
X255212Y251865D01*
X255135Y251855D01*
X255058Y251842D01*
X254982Y251824D01*
X254907Y251803D01*
X254833Y251778D01*
X254761Y251749D01*
X254690Y251717D01*
X254621Y251681D01*
X254553Y251642D01*
X254488Y251599D01*
X254425Y251553D01*
X254364Y251504D01*
X254306Y251452D01*
X254251Y251397D01*
X254198Y251340D01*
X254149Y251280D01*
X254102Y251217D01*
X254059Y251153D01*
X254019Y251086D01*
X253982Y251017D01*
X253949Y250946D01*
X253919Y250874D01*
X253893Y250801D01*
X256172Y249728D02*
X256221Y249777D01*
X256268Y249829D01*
X256311Y249884D01*
X256352Y249941D01*
X256390Y250000D01*
X256424Y250061D01*
X256455Y250124D01*
X256483Y250188D01*
X256507Y250254D01*
X256527Y250320D01*
X256544Y250388D01*
X256557Y250457D01*
X256566Y250526D01*
X256572Y250596D01*
X256574Y250666D01*
X256172Y249728D02*
X253893Y247047D01*
X256574Y247047D01*
X236553Y176181D02*
X235480Y176181D01*
X235415Y176183D01*
X235351Y176189D01*
X235287Y176199D01*
X235223Y176212D01*
X235161Y176230D01*
X235100Y176251D01*
X235040Y176275D01*
X234982Y176304D01*
X234925Y176336D01*
X234871Y176371D01*
X234819Y176409D01*
X234769Y176451D01*
X234722Y176495D01*
X234678Y176542D01*
X234636Y176592D01*
X234598Y176644D01*
X234563Y176698D01*
X234531Y176755D01*
X234502Y176813D01*
X234478Y176873D01*
X234457Y176934D01*
X234439Y176996D01*
X234426Y177060D01*
X234416Y177124D01*
X234410Y177188D01*
X234408Y177253D01*
X234408Y179935D01*
X234410Y180000D01*
X234416Y180064D01*
X234426Y180128D01*
X234439Y180192D01*
X234457Y180254D01*
X234478Y180315D01*
X234502Y180375D01*
X234531Y180433D01*
X234563Y180490D01*
X234598Y180544D01*
X234636Y180596D01*
X234678Y180646D01*
X234722Y180693D01*
X234769Y180737D01*
X234819Y180779D01*
X234871Y180817D01*
X234925Y180852D01*
X234982Y180884D01*
X235040Y180913D01*
X235100Y180937D01*
X235161Y180958D01*
X235223Y180976D01*
X235287Y180989D01*
X235351Y180999D01*
X235415Y181005D01*
X235480Y181007D01*
X236553Y181007D01*
X240483Y181007D02*
X240551Y181005D01*
X240618Y180999D01*
X240685Y180990D01*
X240752Y180977D01*
X240817Y180960D01*
X240882Y180939D01*
X240945Y180915D01*
X241007Y180887D01*
X241067Y180856D01*
X241125Y180822D01*
X241181Y180784D01*
X241236Y180744D01*
X241287Y180700D01*
X241336Y180653D01*
X241383Y180604D01*
X241427Y180553D01*
X241467Y180498D01*
X241505Y180442D01*
X241539Y180384D01*
X241570Y180324D01*
X241598Y180262D01*
X241622Y180199D01*
X241643Y180134D01*
X241660Y180069D01*
X241673Y180002D01*
X241682Y179935D01*
X241688Y179868D01*
X241690Y179800D01*
X240483Y181007D02*
X240405Y181005D01*
X240327Y180999D01*
X240250Y180989D01*
X240173Y180976D01*
X240097Y180958D01*
X240022Y180937D01*
X239948Y180912D01*
X239876Y180883D01*
X239805Y180851D01*
X239736Y180815D01*
X239668Y180776D01*
X239603Y180733D01*
X239540Y180687D01*
X239479Y180638D01*
X239421Y180586D01*
X239366Y180531D01*
X239313Y180474D01*
X239264Y180414D01*
X239217Y180351D01*
X239174Y180287D01*
X239134Y180220D01*
X239097Y180151D01*
X239064Y180080D01*
X239034Y180008D01*
X239008Y179935D01*
X241288Y178862D02*
X241337Y178911D01*
X241384Y178963D01*
X241427Y179018D01*
X241468Y179075D01*
X241506Y179134D01*
X241540Y179195D01*
X241571Y179258D01*
X241599Y179322D01*
X241623Y179388D01*
X241643Y179454D01*
X241660Y179522D01*
X241673Y179591D01*
X241682Y179660D01*
X241688Y179730D01*
X241690Y179800D01*
X241288Y178862D02*
X239009Y176181D01*
X241690Y176181D01*
X244495Y176181D02*
X245836Y176181D01*
X245907Y176183D01*
X245979Y176189D01*
X246049Y176198D01*
X246119Y176211D01*
X246189Y176228D01*
X246257Y176249D01*
X246324Y176273D01*
X246390Y176301D01*
X246454Y176332D01*
X246517Y176367D01*
X246577Y176405D01*
X246636Y176446D01*
X246692Y176490D01*
X246746Y176537D01*
X246797Y176586D01*
X246845Y176639D01*
X246891Y176694D01*
X246933Y176751D01*
X246973Y176811D01*
X247009Y176872D01*
X247042Y176936D01*
X247071Y177001D01*
X247097Y177067D01*
X247120Y177135D01*
X247139Y177204D01*
X247154Y177274D01*
X247165Y177344D01*
X247173Y177415D01*
X247177Y177486D01*
X247177Y177558D01*
X247173Y177629D01*
X247165Y177700D01*
X247154Y177770D01*
X247139Y177840D01*
X247120Y177909D01*
X247097Y177977D01*
X247071Y178043D01*
X247042Y178108D01*
X247009Y178172D01*
X246973Y178233D01*
X246933Y178293D01*
X246891Y178350D01*
X246845Y178405D01*
X246797Y178458D01*
X246746Y178507D01*
X246692Y178554D01*
X246636Y178598D01*
X246577Y178639D01*
X246517Y178677D01*
X246454Y178712D01*
X246390Y178743D01*
X246324Y178771D01*
X246257Y178795D01*
X246189Y178816D01*
X246119Y178833D01*
X246049Y178846D01*
X245979Y178855D01*
X245907Y178861D01*
X245836Y178863D01*
X246104Y181007D02*
X244495Y181007D01*
X246104Y181007D02*
X246169Y181005D01*
X246233Y180999D01*
X246297Y180989D01*
X246361Y180976D01*
X246423Y180958D01*
X246484Y180937D01*
X246544Y180913D01*
X246602Y180884D01*
X246659Y180852D01*
X246713Y180817D01*
X246765Y180779D01*
X246815Y180737D01*
X246862Y180693D01*
X246906Y180646D01*
X246948Y180596D01*
X246986Y180544D01*
X247021Y180490D01*
X247053Y180433D01*
X247082Y180375D01*
X247106Y180315D01*
X247127Y180254D01*
X247145Y180192D01*
X247158Y180128D01*
X247168Y180064D01*
X247174Y180000D01*
X247176Y179935D01*
X247174Y179870D01*
X247168Y179806D01*
X247158Y179742D01*
X247145Y179678D01*
X247127Y179616D01*
X247106Y179555D01*
X247082Y179495D01*
X247053Y179437D01*
X247021Y179380D01*
X246986Y179326D01*
X246948Y179274D01*
X246906Y179224D01*
X246862Y179177D01*
X246815Y179133D01*
X246765Y179091D01*
X246713Y179053D01*
X246659Y179018D01*
X246602Y178986D01*
X246544Y178957D01*
X246484Y178933D01*
X246423Y178912D01*
X246361Y178894D01*
X246297Y178881D01*
X246233Y178871D01*
X246169Y178865D01*
X246104Y178863D01*
X246104Y178862D02*
X245031Y178862D01*
X250212Y176181D02*
X251285Y176181D01*
X250212Y176181D02*
X250147Y176183D01*
X250083Y176189D01*
X250019Y176199D01*
X249955Y176212D01*
X249893Y176230D01*
X249832Y176251D01*
X249772Y176275D01*
X249714Y176304D01*
X249657Y176336D01*
X249603Y176371D01*
X249551Y176409D01*
X249501Y176451D01*
X249454Y176495D01*
X249410Y176542D01*
X249368Y176592D01*
X249330Y176644D01*
X249295Y176698D01*
X249263Y176755D01*
X249234Y176813D01*
X249210Y176873D01*
X249189Y176934D01*
X249171Y176996D01*
X249158Y177060D01*
X249148Y177124D01*
X249142Y177188D01*
X249140Y177253D01*
X249140Y179935D01*
X249142Y180000D01*
X249148Y180064D01*
X249158Y180128D01*
X249171Y180192D01*
X249189Y180254D01*
X249210Y180315D01*
X249234Y180375D01*
X249263Y180433D01*
X249295Y180490D01*
X249330Y180544D01*
X249368Y180596D01*
X249410Y180646D01*
X249454Y180693D01*
X249501Y180737D01*
X249551Y180779D01*
X249603Y180817D01*
X249657Y180852D01*
X249714Y180884D01*
X249772Y180913D01*
X249832Y180937D01*
X249893Y180958D01*
X249955Y180976D01*
X250019Y180989D01*
X250083Y180999D01*
X250147Y181005D01*
X250212Y181007D01*
X251285Y181007D01*
X255215Y181007D02*
X255283Y181005D01*
X255350Y180999D01*
X255417Y180990D01*
X255484Y180977D01*
X255549Y180960D01*
X255614Y180939D01*
X255677Y180915D01*
X255739Y180887D01*
X255799Y180856D01*
X255857Y180822D01*
X255913Y180784D01*
X255968Y180744D01*
X256019Y180700D01*
X256068Y180653D01*
X256115Y180604D01*
X256159Y180553D01*
X256199Y180498D01*
X256237Y180442D01*
X256271Y180384D01*
X256302Y180324D01*
X256330Y180262D01*
X256354Y180199D01*
X256375Y180134D01*
X256392Y180069D01*
X256405Y180002D01*
X256414Y179935D01*
X256420Y179868D01*
X256422Y179800D01*
X255215Y181007D02*
X255137Y181005D01*
X255059Y180999D01*
X254982Y180989D01*
X254905Y180976D01*
X254829Y180958D01*
X254754Y180937D01*
X254680Y180912D01*
X254608Y180883D01*
X254537Y180851D01*
X254468Y180815D01*
X254400Y180776D01*
X254335Y180733D01*
X254272Y180687D01*
X254211Y180638D01*
X254153Y180586D01*
X254098Y180531D01*
X254045Y180474D01*
X253996Y180414D01*
X253949Y180351D01*
X253906Y180287D01*
X253866Y180220D01*
X253829Y180151D01*
X253796Y180080D01*
X253766Y180008D01*
X253740Y179935D01*
X256020Y178862D02*
X256069Y178911D01*
X256116Y178963D01*
X256159Y179018D01*
X256200Y179075D01*
X256238Y179134D01*
X256272Y179195D01*
X256303Y179258D01*
X256331Y179322D01*
X256355Y179388D01*
X256375Y179454D01*
X256392Y179522D01*
X256405Y179591D01*
X256414Y179660D01*
X256420Y179730D01*
X256422Y179800D01*
X256020Y178862D02*
X253741Y176181D01*
X256422Y176181D01*
X259227Y177253D02*
X260299Y181007D01*
X259227Y177253D02*
X261908Y177253D01*
X261104Y178326D02*
X261104Y176181D01*
X526310Y113379D02*
X527383Y113379D01*
X526310Y113379D02*
X526245Y113381D01*
X526181Y113387D01*
X526117Y113397D01*
X526053Y113410D01*
X525991Y113428D01*
X525930Y113449D01*
X525870Y113473D01*
X525812Y113502D01*
X525755Y113534D01*
X525701Y113569D01*
X525649Y113607D01*
X525599Y113649D01*
X525552Y113693D01*
X525508Y113740D01*
X525466Y113790D01*
X525428Y113842D01*
X525393Y113896D01*
X525361Y113953D01*
X525332Y114011D01*
X525308Y114071D01*
X525287Y114132D01*
X525269Y114194D01*
X525256Y114258D01*
X525246Y114322D01*
X525240Y114386D01*
X525238Y114451D01*
X525238Y117133D01*
X525240Y117198D01*
X525246Y117262D01*
X525256Y117326D01*
X525269Y117390D01*
X525287Y117452D01*
X525308Y117513D01*
X525332Y117573D01*
X525361Y117631D01*
X525393Y117688D01*
X525428Y117742D01*
X525466Y117794D01*
X525508Y117844D01*
X525552Y117891D01*
X525599Y117935D01*
X525649Y117977D01*
X525701Y118015D01*
X525755Y118050D01*
X525812Y118082D01*
X525870Y118111D01*
X525930Y118135D01*
X525991Y118156D01*
X526053Y118174D01*
X526117Y118187D01*
X526181Y118197D01*
X526245Y118203D01*
X526310Y118205D01*
X527383Y118205D01*
X529839Y113379D02*
X531179Y113379D01*
X531250Y113381D01*
X531322Y113387D01*
X531392Y113396D01*
X531462Y113409D01*
X531532Y113426D01*
X531600Y113447D01*
X531667Y113471D01*
X531733Y113499D01*
X531797Y113530D01*
X531860Y113565D01*
X531920Y113603D01*
X531979Y113644D01*
X532035Y113688D01*
X532089Y113735D01*
X532140Y113784D01*
X532188Y113837D01*
X532234Y113892D01*
X532276Y113949D01*
X532316Y114009D01*
X532352Y114070D01*
X532385Y114134D01*
X532414Y114199D01*
X532440Y114265D01*
X532463Y114333D01*
X532482Y114402D01*
X532497Y114472D01*
X532508Y114542D01*
X532516Y114613D01*
X532520Y114684D01*
X532520Y114756D01*
X532516Y114827D01*
X532508Y114898D01*
X532497Y114968D01*
X532482Y115038D01*
X532463Y115107D01*
X532440Y115175D01*
X532414Y115241D01*
X532385Y115306D01*
X532352Y115370D01*
X532316Y115431D01*
X532276Y115491D01*
X532234Y115548D01*
X532188Y115603D01*
X532140Y115656D01*
X532089Y115705D01*
X532035Y115752D01*
X531979Y115796D01*
X531920Y115837D01*
X531860Y115875D01*
X531797Y115910D01*
X531733Y115941D01*
X531667Y115969D01*
X531600Y115993D01*
X531532Y116014D01*
X531462Y116031D01*
X531392Y116044D01*
X531322Y116053D01*
X531250Y116059D01*
X531179Y116061D01*
X531447Y118205D02*
X529839Y118205D01*
X531447Y118205D02*
X531512Y118203D01*
X531576Y118197D01*
X531640Y118187D01*
X531704Y118174D01*
X531766Y118156D01*
X531827Y118135D01*
X531887Y118111D01*
X531945Y118082D01*
X532002Y118050D01*
X532056Y118015D01*
X532108Y117977D01*
X532158Y117935D01*
X532205Y117891D01*
X532249Y117844D01*
X532291Y117794D01*
X532329Y117742D01*
X532364Y117688D01*
X532396Y117631D01*
X532425Y117573D01*
X532449Y117513D01*
X532470Y117452D01*
X532488Y117390D01*
X532501Y117326D01*
X532511Y117262D01*
X532517Y117198D01*
X532519Y117133D01*
X532517Y117068D01*
X532511Y117004D01*
X532501Y116940D01*
X532488Y116876D01*
X532470Y116814D01*
X532449Y116753D01*
X532425Y116693D01*
X532396Y116635D01*
X532364Y116578D01*
X532329Y116524D01*
X532291Y116472D01*
X532249Y116422D01*
X532205Y116375D01*
X532158Y116331D01*
X532108Y116289D01*
X532056Y116251D01*
X532002Y116216D01*
X531945Y116184D01*
X531887Y116155D01*
X531827Y116131D01*
X531766Y116110D01*
X531704Y116092D01*
X531640Y116079D01*
X531576Y116069D01*
X531512Y116063D01*
X531447Y116061D01*
X531447Y116060D02*
X530375Y116060D01*
X535325Y117133D02*
X536666Y118205D01*
X536666Y113379D01*
X538006Y113379D02*
X535325Y113379D01*
X513159Y113379D02*
X512086Y113379D01*
X512021Y113381D01*
X511957Y113387D01*
X511893Y113397D01*
X511829Y113410D01*
X511767Y113428D01*
X511706Y113449D01*
X511646Y113473D01*
X511588Y113502D01*
X511531Y113534D01*
X511477Y113569D01*
X511425Y113607D01*
X511375Y113649D01*
X511328Y113693D01*
X511284Y113740D01*
X511242Y113790D01*
X511204Y113842D01*
X511169Y113896D01*
X511137Y113953D01*
X511108Y114011D01*
X511084Y114071D01*
X511063Y114132D01*
X511045Y114194D01*
X511032Y114258D01*
X511022Y114322D01*
X511016Y114386D01*
X511014Y114451D01*
X511014Y117133D01*
X511016Y117198D01*
X511022Y117262D01*
X511032Y117326D01*
X511045Y117390D01*
X511063Y117452D01*
X511084Y117513D01*
X511108Y117573D01*
X511137Y117631D01*
X511169Y117688D01*
X511204Y117742D01*
X511242Y117794D01*
X511284Y117844D01*
X511328Y117891D01*
X511375Y117935D01*
X511425Y117977D01*
X511477Y118015D01*
X511531Y118050D01*
X511588Y118082D01*
X511646Y118111D01*
X511706Y118135D01*
X511767Y118156D01*
X511829Y118174D01*
X511893Y118187D01*
X511957Y118197D01*
X512021Y118203D01*
X512086Y118205D01*
X513159Y118205D01*
X515615Y113379D02*
X516955Y113379D01*
X517026Y113381D01*
X517098Y113387D01*
X517168Y113396D01*
X517238Y113409D01*
X517308Y113426D01*
X517376Y113447D01*
X517443Y113471D01*
X517509Y113499D01*
X517573Y113530D01*
X517636Y113565D01*
X517696Y113603D01*
X517755Y113644D01*
X517811Y113688D01*
X517865Y113735D01*
X517916Y113784D01*
X517964Y113837D01*
X518010Y113892D01*
X518052Y113949D01*
X518092Y114009D01*
X518128Y114070D01*
X518161Y114134D01*
X518190Y114199D01*
X518216Y114265D01*
X518239Y114333D01*
X518258Y114402D01*
X518273Y114472D01*
X518284Y114542D01*
X518292Y114613D01*
X518296Y114684D01*
X518296Y114756D01*
X518292Y114827D01*
X518284Y114898D01*
X518273Y114968D01*
X518258Y115038D01*
X518239Y115107D01*
X518216Y115175D01*
X518190Y115241D01*
X518161Y115306D01*
X518128Y115370D01*
X518092Y115431D01*
X518052Y115491D01*
X518010Y115548D01*
X517964Y115603D01*
X517916Y115656D01*
X517865Y115705D01*
X517811Y115752D01*
X517755Y115796D01*
X517696Y115837D01*
X517636Y115875D01*
X517573Y115910D01*
X517509Y115941D01*
X517443Y115969D01*
X517376Y115993D01*
X517308Y116014D01*
X517238Y116031D01*
X517168Y116044D01*
X517098Y116053D01*
X517026Y116059D01*
X516955Y116061D01*
X517223Y118205D02*
X515615Y118205D01*
X517223Y118205D02*
X517288Y118203D01*
X517352Y118197D01*
X517416Y118187D01*
X517480Y118174D01*
X517542Y118156D01*
X517603Y118135D01*
X517663Y118111D01*
X517721Y118082D01*
X517778Y118050D01*
X517832Y118015D01*
X517884Y117977D01*
X517934Y117935D01*
X517981Y117891D01*
X518025Y117844D01*
X518067Y117794D01*
X518105Y117742D01*
X518140Y117688D01*
X518172Y117631D01*
X518201Y117573D01*
X518225Y117513D01*
X518246Y117452D01*
X518264Y117390D01*
X518277Y117326D01*
X518287Y117262D01*
X518293Y117198D01*
X518295Y117133D01*
X518293Y117068D01*
X518287Y117004D01*
X518277Y116940D01*
X518264Y116876D01*
X518246Y116814D01*
X518225Y116753D01*
X518201Y116693D01*
X518172Y116635D01*
X518140Y116578D01*
X518105Y116524D01*
X518067Y116472D01*
X518025Y116422D01*
X517981Y116375D01*
X517934Y116331D01*
X517884Y116289D01*
X517832Y116251D01*
X517778Y116216D01*
X517721Y116184D01*
X517663Y116155D01*
X517603Y116131D01*
X517542Y116110D01*
X517480Y116092D01*
X517416Y116079D01*
X517352Y116069D01*
X517288Y116063D01*
X517223Y116061D01*
X517223Y116060D02*
X516151Y116060D01*
X522576Y118205D02*
X522644Y118203D01*
X522711Y118197D01*
X522778Y118188D01*
X522845Y118175D01*
X522910Y118158D01*
X522975Y118137D01*
X523038Y118113D01*
X523100Y118085D01*
X523160Y118054D01*
X523218Y118020D01*
X523274Y117982D01*
X523329Y117942D01*
X523380Y117898D01*
X523429Y117851D01*
X523476Y117802D01*
X523520Y117751D01*
X523560Y117696D01*
X523598Y117640D01*
X523632Y117582D01*
X523663Y117522D01*
X523691Y117460D01*
X523715Y117397D01*
X523736Y117332D01*
X523753Y117267D01*
X523766Y117200D01*
X523775Y117133D01*
X523781Y117066D01*
X523783Y116998D01*
X522576Y118205D02*
X522498Y118203D01*
X522420Y118197D01*
X522343Y118187D01*
X522266Y118174D01*
X522190Y118156D01*
X522115Y118135D01*
X522041Y118110D01*
X521969Y118081D01*
X521898Y118049D01*
X521829Y118013D01*
X521761Y117974D01*
X521696Y117931D01*
X521633Y117885D01*
X521572Y117836D01*
X521514Y117784D01*
X521459Y117729D01*
X521406Y117672D01*
X521357Y117612D01*
X521310Y117549D01*
X521267Y117485D01*
X521227Y117418D01*
X521190Y117349D01*
X521157Y117278D01*
X521127Y117206D01*
X521101Y117133D01*
X523380Y116060D02*
X523429Y116109D01*
X523476Y116161D01*
X523519Y116216D01*
X523560Y116273D01*
X523598Y116332D01*
X523632Y116393D01*
X523663Y116456D01*
X523691Y116520D01*
X523715Y116586D01*
X523735Y116652D01*
X523752Y116720D01*
X523765Y116789D01*
X523774Y116858D01*
X523780Y116928D01*
X523782Y116998D01*
X523380Y116060D02*
X521101Y113379D01*
X523782Y113379D01*
M02*
