G04 EAGLE Gerber RS-274X export*
G75*
%MOMM*%
%FSLAX34Y34*%
%LPD*%
%INSilkscreen Bottom*%
%IPPOS*%
%AMOC8*
5,1,8,0,0,1.08239X$1,22.5*%
G01*
%ADD10C,0.152400*%
%ADD11C,0.127000*%


D10*
X185870Y306324D02*
X181354Y306324D01*
X181221Y306326D01*
X181089Y306332D01*
X180957Y306342D01*
X180825Y306355D01*
X180693Y306373D01*
X180563Y306394D01*
X180432Y306419D01*
X180303Y306448D01*
X180175Y306481D01*
X180047Y306517D01*
X179921Y306557D01*
X179796Y306601D01*
X179672Y306649D01*
X179550Y306700D01*
X179429Y306755D01*
X179310Y306813D01*
X179192Y306875D01*
X179077Y306940D01*
X178963Y307009D01*
X178852Y307080D01*
X178743Y307156D01*
X178636Y307234D01*
X178531Y307315D01*
X178429Y307400D01*
X178329Y307487D01*
X178232Y307577D01*
X178137Y307670D01*
X178046Y307766D01*
X177957Y307864D01*
X177871Y307965D01*
X177788Y308069D01*
X177708Y308175D01*
X177632Y308283D01*
X177558Y308393D01*
X177488Y308506D01*
X177421Y308620D01*
X177358Y308737D01*
X177298Y308855D01*
X177241Y308975D01*
X177188Y309097D01*
X177139Y309220D01*
X177093Y309344D01*
X177051Y309470D01*
X177013Y309597D01*
X176978Y309725D01*
X176947Y309854D01*
X176920Y309983D01*
X176897Y310114D01*
X176877Y310245D01*
X176862Y310377D01*
X176850Y310509D01*
X176842Y310641D01*
X176838Y310774D01*
X176838Y310906D01*
X176842Y311039D01*
X176850Y311171D01*
X176862Y311303D01*
X176877Y311435D01*
X176897Y311566D01*
X176920Y311697D01*
X176947Y311826D01*
X176978Y311955D01*
X177013Y312083D01*
X177051Y312210D01*
X177093Y312336D01*
X177139Y312460D01*
X177188Y312583D01*
X177241Y312705D01*
X177298Y312825D01*
X177358Y312943D01*
X177421Y313060D01*
X177488Y313174D01*
X177558Y313287D01*
X177632Y313397D01*
X177708Y313505D01*
X177788Y313611D01*
X177871Y313715D01*
X177957Y313816D01*
X178046Y313914D01*
X178137Y314010D01*
X178232Y314103D01*
X178329Y314193D01*
X178429Y314280D01*
X178531Y314365D01*
X178636Y314446D01*
X178743Y314524D01*
X178852Y314600D01*
X178963Y314671D01*
X179077Y314740D01*
X179192Y314805D01*
X179310Y314867D01*
X179429Y314925D01*
X179550Y314980D01*
X179672Y315031D01*
X179796Y315079D01*
X179921Y315123D01*
X180047Y315163D01*
X180175Y315199D01*
X180303Y315232D01*
X180432Y315261D01*
X180563Y315286D01*
X180693Y315307D01*
X180825Y315325D01*
X180957Y315338D01*
X181089Y315348D01*
X181221Y315354D01*
X181354Y315356D01*
X180451Y322580D02*
X185870Y322580D01*
X180451Y322580D02*
X180332Y322578D01*
X180212Y322572D01*
X180093Y322562D01*
X179975Y322548D01*
X179856Y322531D01*
X179739Y322509D01*
X179622Y322484D01*
X179507Y322454D01*
X179392Y322421D01*
X179278Y322384D01*
X179166Y322344D01*
X179055Y322299D01*
X178946Y322251D01*
X178838Y322200D01*
X178732Y322145D01*
X178628Y322086D01*
X178526Y322024D01*
X178426Y321959D01*
X178328Y321890D01*
X178232Y321818D01*
X178139Y321743D01*
X178049Y321666D01*
X177961Y321585D01*
X177876Y321501D01*
X177794Y321414D01*
X177714Y321325D01*
X177638Y321233D01*
X177564Y321139D01*
X177494Y321042D01*
X177427Y320944D01*
X177363Y320843D01*
X177303Y320739D01*
X177246Y320634D01*
X177193Y320527D01*
X177143Y320419D01*
X177097Y320309D01*
X177055Y320197D01*
X177016Y320084D01*
X176981Y319970D01*
X176950Y319855D01*
X176922Y319738D01*
X176899Y319621D01*
X176879Y319504D01*
X176863Y319385D01*
X176851Y319266D01*
X176843Y319147D01*
X176839Y319028D01*
X176839Y318908D01*
X176843Y318789D01*
X176851Y318670D01*
X176863Y318551D01*
X176879Y318432D01*
X176899Y318315D01*
X176922Y318198D01*
X176950Y318081D01*
X176981Y317966D01*
X177016Y317852D01*
X177055Y317739D01*
X177097Y317627D01*
X177143Y317517D01*
X177193Y317409D01*
X177246Y317302D01*
X177303Y317197D01*
X177363Y317093D01*
X177427Y316992D01*
X177494Y316894D01*
X177564Y316797D01*
X177638Y316703D01*
X177714Y316611D01*
X177794Y316522D01*
X177876Y316435D01*
X177961Y316351D01*
X178049Y316270D01*
X178139Y316193D01*
X178232Y316118D01*
X178328Y316046D01*
X178426Y315977D01*
X178526Y315912D01*
X178628Y315850D01*
X178732Y315791D01*
X178838Y315736D01*
X178946Y315685D01*
X179055Y315637D01*
X179166Y315592D01*
X179278Y315552D01*
X179392Y315515D01*
X179507Y315482D01*
X179622Y315452D01*
X179739Y315427D01*
X179856Y315405D01*
X179975Y315388D01*
X180093Y315374D01*
X180212Y315364D01*
X180332Y315358D01*
X180451Y315356D01*
X180451Y315355D02*
X184064Y315355D01*
X170864Y307227D02*
X170864Y306324D01*
X170864Y307227D02*
X169961Y307227D01*
X169961Y306324D01*
X170864Y306324D01*
X163986Y306324D02*
X159471Y306324D01*
X159338Y306326D01*
X159206Y306332D01*
X159074Y306342D01*
X158942Y306355D01*
X158810Y306373D01*
X158680Y306394D01*
X158549Y306419D01*
X158420Y306448D01*
X158292Y306481D01*
X158164Y306517D01*
X158038Y306557D01*
X157913Y306601D01*
X157789Y306649D01*
X157667Y306700D01*
X157546Y306755D01*
X157427Y306813D01*
X157309Y306875D01*
X157194Y306940D01*
X157080Y307009D01*
X156969Y307080D01*
X156860Y307156D01*
X156753Y307234D01*
X156648Y307315D01*
X156546Y307400D01*
X156446Y307487D01*
X156349Y307577D01*
X156254Y307670D01*
X156163Y307766D01*
X156074Y307864D01*
X155988Y307965D01*
X155905Y308069D01*
X155825Y308175D01*
X155749Y308283D01*
X155675Y308393D01*
X155605Y308506D01*
X155538Y308620D01*
X155475Y308737D01*
X155415Y308855D01*
X155358Y308975D01*
X155305Y309097D01*
X155256Y309220D01*
X155210Y309344D01*
X155168Y309470D01*
X155130Y309597D01*
X155095Y309725D01*
X155064Y309854D01*
X155037Y309983D01*
X155014Y310114D01*
X154994Y310245D01*
X154979Y310377D01*
X154967Y310509D01*
X154959Y310641D01*
X154955Y310774D01*
X154955Y310906D01*
X154959Y311039D01*
X154967Y311171D01*
X154979Y311303D01*
X154994Y311435D01*
X155014Y311566D01*
X155037Y311697D01*
X155064Y311826D01*
X155095Y311955D01*
X155130Y312083D01*
X155168Y312210D01*
X155210Y312336D01*
X155256Y312460D01*
X155305Y312583D01*
X155358Y312705D01*
X155415Y312825D01*
X155475Y312943D01*
X155538Y313060D01*
X155605Y313174D01*
X155675Y313287D01*
X155749Y313397D01*
X155825Y313505D01*
X155905Y313611D01*
X155988Y313715D01*
X156074Y313816D01*
X156163Y313914D01*
X156254Y314010D01*
X156349Y314103D01*
X156446Y314193D01*
X156546Y314280D01*
X156648Y314365D01*
X156753Y314446D01*
X156860Y314524D01*
X156969Y314600D01*
X157080Y314671D01*
X157194Y314740D01*
X157309Y314805D01*
X157427Y314867D01*
X157546Y314925D01*
X157667Y314980D01*
X157789Y315031D01*
X157913Y315079D01*
X158038Y315123D01*
X158164Y315163D01*
X158292Y315199D01*
X158420Y315232D01*
X158549Y315261D01*
X158680Y315286D01*
X158810Y315307D01*
X158942Y315325D01*
X159074Y315338D01*
X159206Y315348D01*
X159338Y315354D01*
X159471Y315356D01*
X158568Y322580D02*
X163986Y322580D01*
X158568Y322580D02*
X158449Y322578D01*
X158329Y322572D01*
X158210Y322562D01*
X158092Y322548D01*
X157973Y322531D01*
X157856Y322509D01*
X157739Y322484D01*
X157624Y322454D01*
X157509Y322421D01*
X157395Y322384D01*
X157283Y322344D01*
X157172Y322299D01*
X157063Y322251D01*
X156955Y322200D01*
X156849Y322145D01*
X156745Y322086D01*
X156643Y322024D01*
X156543Y321959D01*
X156445Y321890D01*
X156349Y321818D01*
X156256Y321743D01*
X156166Y321666D01*
X156078Y321585D01*
X155993Y321501D01*
X155911Y321414D01*
X155831Y321325D01*
X155755Y321233D01*
X155681Y321139D01*
X155611Y321042D01*
X155544Y320944D01*
X155480Y320843D01*
X155420Y320739D01*
X155363Y320634D01*
X155310Y320527D01*
X155260Y320419D01*
X155214Y320309D01*
X155172Y320197D01*
X155133Y320084D01*
X155098Y319970D01*
X155067Y319855D01*
X155039Y319738D01*
X155016Y319621D01*
X154996Y319504D01*
X154980Y319385D01*
X154968Y319266D01*
X154960Y319147D01*
X154956Y319028D01*
X154956Y318908D01*
X154960Y318789D01*
X154968Y318670D01*
X154980Y318551D01*
X154996Y318432D01*
X155016Y318315D01*
X155039Y318198D01*
X155067Y318081D01*
X155098Y317966D01*
X155133Y317852D01*
X155172Y317739D01*
X155214Y317627D01*
X155260Y317517D01*
X155310Y317409D01*
X155363Y317302D01*
X155420Y317197D01*
X155480Y317093D01*
X155544Y316992D01*
X155611Y316894D01*
X155681Y316797D01*
X155755Y316703D01*
X155831Y316611D01*
X155911Y316522D01*
X155993Y316435D01*
X156078Y316351D01*
X156166Y316270D01*
X156256Y316193D01*
X156349Y316118D01*
X156445Y316046D01*
X156543Y315977D01*
X156643Y315912D01*
X156745Y315850D01*
X156849Y315791D01*
X156955Y315736D01*
X157063Y315685D01*
X157172Y315637D01*
X157283Y315592D01*
X157395Y315552D01*
X157509Y315515D01*
X157624Y315482D01*
X157739Y315452D01*
X157856Y315427D01*
X157973Y315405D01*
X158092Y315388D01*
X158210Y315374D01*
X158329Y315364D01*
X158449Y315358D01*
X158568Y315356D01*
X158568Y315355D02*
X162180Y315355D01*
X149015Y317161D02*
X145403Y306324D01*
X141790Y317161D01*
D11*
X639413Y102390D02*
X639413Y101318D01*
X639415Y101253D01*
X639421Y101189D01*
X639431Y101125D01*
X639444Y101061D01*
X639462Y100999D01*
X639483Y100938D01*
X639507Y100878D01*
X639536Y100820D01*
X639568Y100763D01*
X639603Y100709D01*
X639641Y100657D01*
X639683Y100607D01*
X639727Y100560D01*
X639774Y100516D01*
X639824Y100474D01*
X639876Y100436D01*
X639930Y100401D01*
X639987Y100369D01*
X640045Y100340D01*
X640105Y100316D01*
X640166Y100295D01*
X640228Y100277D01*
X640292Y100264D01*
X640356Y100254D01*
X640420Y100248D01*
X640485Y100246D01*
X640485Y100245D02*
X643167Y100245D01*
X643167Y100246D02*
X643232Y100248D01*
X643296Y100254D01*
X643360Y100264D01*
X643424Y100277D01*
X643486Y100295D01*
X643547Y100316D01*
X643607Y100340D01*
X643665Y100369D01*
X643722Y100401D01*
X643776Y100436D01*
X643828Y100474D01*
X643878Y100516D01*
X643925Y100560D01*
X643969Y100607D01*
X644011Y100657D01*
X644049Y100709D01*
X644084Y100763D01*
X644116Y100820D01*
X644145Y100878D01*
X644169Y100938D01*
X644190Y100999D01*
X644208Y101061D01*
X644221Y101125D01*
X644231Y101189D01*
X644237Y101253D01*
X644239Y101318D01*
X644239Y102390D01*
X643167Y104846D02*
X644239Y106186D01*
X639413Y106186D01*
X639413Y104846D02*
X639413Y107527D01*
X648811Y102390D02*
X648811Y101318D01*
X648813Y101253D01*
X648819Y101189D01*
X648829Y101125D01*
X648842Y101061D01*
X648860Y100999D01*
X648881Y100938D01*
X648905Y100878D01*
X648934Y100820D01*
X648966Y100763D01*
X649001Y100709D01*
X649039Y100657D01*
X649081Y100607D01*
X649125Y100560D01*
X649172Y100516D01*
X649222Y100474D01*
X649274Y100436D01*
X649328Y100401D01*
X649385Y100369D01*
X649443Y100340D01*
X649503Y100316D01*
X649564Y100295D01*
X649626Y100277D01*
X649690Y100264D01*
X649754Y100254D01*
X649818Y100248D01*
X649883Y100246D01*
X649883Y100245D02*
X652565Y100245D01*
X652565Y100246D02*
X652630Y100248D01*
X652694Y100254D01*
X652758Y100264D01*
X652822Y100277D01*
X652884Y100295D01*
X652945Y100316D01*
X653005Y100340D01*
X653063Y100369D01*
X653120Y100401D01*
X653174Y100436D01*
X653226Y100474D01*
X653276Y100516D01*
X653323Y100560D01*
X653367Y100607D01*
X653409Y100657D01*
X653447Y100709D01*
X653482Y100763D01*
X653514Y100820D01*
X653543Y100878D01*
X653567Y100938D01*
X653588Y100999D01*
X653606Y101061D01*
X653619Y101125D01*
X653629Y101189D01*
X653635Y101253D01*
X653637Y101318D01*
X653637Y102390D01*
X653637Y106320D02*
X653635Y106388D01*
X653629Y106455D01*
X653620Y106522D01*
X653607Y106589D01*
X653590Y106654D01*
X653569Y106719D01*
X653545Y106782D01*
X653517Y106844D01*
X653486Y106904D01*
X653452Y106962D01*
X653414Y107018D01*
X653374Y107073D01*
X653330Y107124D01*
X653283Y107173D01*
X653234Y107220D01*
X653183Y107264D01*
X653128Y107304D01*
X653072Y107342D01*
X653014Y107376D01*
X652954Y107407D01*
X652892Y107435D01*
X652829Y107459D01*
X652764Y107480D01*
X652699Y107497D01*
X652632Y107510D01*
X652565Y107519D01*
X652498Y107525D01*
X652430Y107527D01*
X653637Y106320D02*
X653635Y106242D01*
X653629Y106164D01*
X653619Y106087D01*
X653606Y106010D01*
X653588Y105934D01*
X653567Y105859D01*
X653542Y105785D01*
X653513Y105713D01*
X653481Y105642D01*
X653445Y105573D01*
X653406Y105505D01*
X653363Y105440D01*
X653317Y105377D01*
X653268Y105316D01*
X653216Y105258D01*
X653161Y105203D01*
X653104Y105150D01*
X653044Y105101D01*
X652981Y105054D01*
X652916Y105011D01*
X652850Y104971D01*
X652781Y104934D01*
X652710Y104901D01*
X652638Y104871D01*
X652565Y104845D01*
X651492Y107125D02*
X651541Y107174D01*
X651593Y107221D01*
X651648Y107264D01*
X651705Y107305D01*
X651764Y107343D01*
X651825Y107377D01*
X651888Y107408D01*
X651952Y107436D01*
X652018Y107460D01*
X652084Y107480D01*
X652152Y107497D01*
X652221Y107510D01*
X652290Y107519D01*
X652360Y107525D01*
X652430Y107527D01*
X651492Y107125D02*
X648811Y104846D01*
X648811Y107527D01*
X652498Y33877D02*
X653570Y33877D01*
X653635Y33879D01*
X653699Y33885D01*
X653763Y33895D01*
X653827Y33908D01*
X653889Y33926D01*
X653950Y33947D01*
X654010Y33971D01*
X654068Y34000D01*
X654125Y34032D01*
X654179Y34067D01*
X654231Y34105D01*
X654281Y34147D01*
X654328Y34191D01*
X654372Y34238D01*
X654414Y34288D01*
X654452Y34340D01*
X654487Y34394D01*
X654519Y34451D01*
X654548Y34509D01*
X654572Y34569D01*
X654593Y34630D01*
X654611Y34692D01*
X654624Y34756D01*
X654634Y34820D01*
X654640Y34884D01*
X654642Y34949D01*
X654643Y34949D02*
X654643Y37631D01*
X654642Y37631D02*
X654640Y37696D01*
X654634Y37760D01*
X654624Y37824D01*
X654611Y37888D01*
X654593Y37950D01*
X654572Y38011D01*
X654548Y38071D01*
X654519Y38129D01*
X654487Y38186D01*
X654452Y38240D01*
X654414Y38292D01*
X654372Y38342D01*
X654328Y38389D01*
X654281Y38433D01*
X654231Y38475D01*
X654179Y38513D01*
X654125Y38548D01*
X654068Y38580D01*
X654010Y38609D01*
X653950Y38633D01*
X653889Y38654D01*
X653827Y38672D01*
X653763Y38685D01*
X653699Y38695D01*
X653635Y38701D01*
X653570Y38703D01*
X652498Y38703D01*
X650042Y33877D02*
X648702Y33877D01*
X648631Y33879D01*
X648559Y33885D01*
X648489Y33894D01*
X648419Y33907D01*
X648349Y33924D01*
X648281Y33945D01*
X648214Y33969D01*
X648148Y33997D01*
X648084Y34028D01*
X648021Y34063D01*
X647961Y34101D01*
X647902Y34142D01*
X647846Y34186D01*
X647792Y34233D01*
X647741Y34282D01*
X647693Y34335D01*
X647647Y34390D01*
X647605Y34447D01*
X647565Y34507D01*
X647529Y34568D01*
X647496Y34632D01*
X647467Y34697D01*
X647441Y34763D01*
X647418Y34831D01*
X647399Y34900D01*
X647384Y34970D01*
X647373Y35040D01*
X647365Y35111D01*
X647361Y35182D01*
X647361Y35254D01*
X647365Y35325D01*
X647373Y35396D01*
X647384Y35466D01*
X647399Y35536D01*
X647418Y35605D01*
X647441Y35673D01*
X647467Y35739D01*
X647496Y35804D01*
X647529Y35868D01*
X647565Y35929D01*
X647605Y35989D01*
X647647Y36046D01*
X647693Y36101D01*
X647741Y36154D01*
X647792Y36203D01*
X647846Y36250D01*
X647902Y36294D01*
X647961Y36335D01*
X648021Y36373D01*
X648084Y36408D01*
X648148Y36439D01*
X648214Y36467D01*
X648281Y36491D01*
X648349Y36512D01*
X648419Y36529D01*
X648489Y36542D01*
X648559Y36551D01*
X648631Y36557D01*
X648702Y36559D01*
X648434Y38703D02*
X650042Y38703D01*
X648434Y38703D02*
X648369Y38701D01*
X648305Y38695D01*
X648241Y38685D01*
X648177Y38672D01*
X648115Y38654D01*
X648054Y38633D01*
X647994Y38609D01*
X647936Y38580D01*
X647879Y38548D01*
X647825Y38513D01*
X647773Y38475D01*
X647723Y38433D01*
X647676Y38389D01*
X647632Y38342D01*
X647590Y38292D01*
X647552Y38240D01*
X647517Y38186D01*
X647485Y38129D01*
X647456Y38071D01*
X647432Y38011D01*
X647411Y37950D01*
X647393Y37888D01*
X647380Y37824D01*
X647370Y37760D01*
X647364Y37696D01*
X647362Y37631D01*
X647364Y37566D01*
X647370Y37502D01*
X647380Y37438D01*
X647393Y37374D01*
X647411Y37312D01*
X647432Y37251D01*
X647456Y37191D01*
X647485Y37133D01*
X647517Y37076D01*
X647552Y37022D01*
X647590Y36970D01*
X647632Y36920D01*
X647676Y36873D01*
X647723Y36829D01*
X647773Y36787D01*
X647825Y36749D01*
X647879Y36714D01*
X647936Y36682D01*
X647994Y36653D01*
X648054Y36629D01*
X648115Y36608D01*
X648177Y36590D01*
X648241Y36577D01*
X648305Y36567D01*
X648369Y36561D01*
X648434Y36559D01*
X648434Y36558D02*
X649506Y36558D01*
X662150Y33877D02*
X663222Y33877D01*
X663287Y33879D01*
X663351Y33885D01*
X663415Y33895D01*
X663479Y33908D01*
X663541Y33926D01*
X663602Y33947D01*
X663662Y33971D01*
X663720Y34000D01*
X663777Y34032D01*
X663831Y34067D01*
X663883Y34105D01*
X663933Y34147D01*
X663980Y34191D01*
X664024Y34238D01*
X664066Y34288D01*
X664104Y34340D01*
X664139Y34394D01*
X664171Y34451D01*
X664200Y34509D01*
X664224Y34569D01*
X664245Y34630D01*
X664263Y34692D01*
X664276Y34756D01*
X664286Y34820D01*
X664292Y34884D01*
X664294Y34949D01*
X664295Y34949D02*
X664295Y37631D01*
X664294Y37631D02*
X664292Y37696D01*
X664286Y37760D01*
X664276Y37824D01*
X664263Y37888D01*
X664245Y37950D01*
X664224Y38011D01*
X664200Y38071D01*
X664171Y38129D01*
X664139Y38186D01*
X664104Y38240D01*
X664066Y38292D01*
X664024Y38342D01*
X663980Y38389D01*
X663933Y38433D01*
X663883Y38475D01*
X663831Y38513D01*
X663777Y38548D01*
X663720Y38580D01*
X663662Y38609D01*
X663602Y38633D01*
X663541Y38654D01*
X663479Y38672D01*
X663415Y38685D01*
X663351Y38695D01*
X663287Y38701D01*
X663222Y38703D01*
X662150Y38703D01*
X658622Y38703D02*
X659694Y34949D01*
X657013Y34949D01*
X657817Y36022D02*
X657817Y33877D01*
X644934Y176117D02*
X643862Y176117D01*
X644934Y176117D02*
X644999Y176119D01*
X645063Y176125D01*
X645127Y176135D01*
X645191Y176148D01*
X645253Y176166D01*
X645314Y176187D01*
X645374Y176211D01*
X645432Y176240D01*
X645489Y176272D01*
X645543Y176307D01*
X645595Y176345D01*
X645645Y176387D01*
X645692Y176431D01*
X645736Y176478D01*
X645778Y176528D01*
X645816Y176580D01*
X645851Y176634D01*
X645883Y176691D01*
X645912Y176749D01*
X645936Y176809D01*
X645957Y176870D01*
X645975Y176932D01*
X645988Y176996D01*
X645998Y177060D01*
X646004Y177124D01*
X646006Y177189D01*
X646007Y177189D02*
X646007Y179871D01*
X646006Y179871D02*
X646004Y179936D01*
X645998Y180000D01*
X645988Y180064D01*
X645975Y180128D01*
X645957Y180190D01*
X645936Y180251D01*
X645912Y180311D01*
X645883Y180369D01*
X645851Y180426D01*
X645816Y180480D01*
X645778Y180532D01*
X645736Y180582D01*
X645692Y180629D01*
X645645Y180673D01*
X645595Y180715D01*
X645543Y180753D01*
X645489Y180788D01*
X645432Y180820D01*
X645374Y180849D01*
X645314Y180873D01*
X645253Y180894D01*
X645191Y180912D01*
X645127Y180925D01*
X645063Y180935D01*
X644999Y180941D01*
X644934Y180943D01*
X643862Y180943D01*
X641406Y176117D02*
X639798Y176117D01*
X639733Y176119D01*
X639669Y176125D01*
X639605Y176135D01*
X639541Y176148D01*
X639479Y176166D01*
X639418Y176187D01*
X639358Y176211D01*
X639300Y176240D01*
X639243Y176272D01*
X639189Y176307D01*
X639137Y176345D01*
X639087Y176387D01*
X639040Y176431D01*
X638996Y176478D01*
X638954Y176528D01*
X638916Y176580D01*
X638881Y176634D01*
X638849Y176691D01*
X638820Y176749D01*
X638796Y176809D01*
X638775Y176870D01*
X638757Y176932D01*
X638744Y176996D01*
X638734Y177060D01*
X638728Y177124D01*
X638726Y177189D01*
X638725Y177189D02*
X638725Y177726D01*
X638726Y177726D02*
X638728Y177791D01*
X638734Y177855D01*
X638744Y177919D01*
X638757Y177983D01*
X638775Y178045D01*
X638796Y178106D01*
X638820Y178166D01*
X638849Y178224D01*
X638881Y178281D01*
X638916Y178335D01*
X638954Y178387D01*
X638996Y178437D01*
X639040Y178484D01*
X639087Y178528D01*
X639137Y178570D01*
X639189Y178608D01*
X639243Y178643D01*
X639300Y178675D01*
X639358Y178704D01*
X639418Y178728D01*
X639479Y178749D01*
X639541Y178767D01*
X639605Y178780D01*
X639669Y178790D01*
X639733Y178796D01*
X639798Y178798D01*
X641406Y178798D01*
X641406Y180943D01*
X638725Y180943D01*
X654022Y176181D02*
X655094Y176181D01*
X655159Y176183D01*
X655223Y176189D01*
X655287Y176199D01*
X655351Y176212D01*
X655413Y176230D01*
X655474Y176251D01*
X655534Y176275D01*
X655592Y176304D01*
X655649Y176336D01*
X655703Y176371D01*
X655755Y176409D01*
X655805Y176451D01*
X655852Y176495D01*
X655896Y176542D01*
X655938Y176592D01*
X655976Y176644D01*
X656011Y176698D01*
X656043Y176755D01*
X656072Y176813D01*
X656096Y176873D01*
X656117Y176934D01*
X656135Y176996D01*
X656148Y177060D01*
X656158Y177124D01*
X656164Y177188D01*
X656166Y177253D01*
X656167Y177253D02*
X656167Y179935D01*
X656166Y179935D02*
X656164Y180000D01*
X656158Y180064D01*
X656148Y180128D01*
X656135Y180192D01*
X656117Y180254D01*
X656096Y180315D01*
X656072Y180375D01*
X656043Y180433D01*
X656011Y180490D01*
X655976Y180544D01*
X655938Y180596D01*
X655896Y180646D01*
X655852Y180693D01*
X655805Y180737D01*
X655755Y180779D01*
X655703Y180817D01*
X655649Y180852D01*
X655592Y180884D01*
X655534Y180913D01*
X655474Y180937D01*
X655413Y180958D01*
X655351Y180976D01*
X655287Y180989D01*
X655223Y180999D01*
X655159Y181005D01*
X655094Y181007D01*
X654022Y181007D01*
X651566Y178862D02*
X649958Y178862D01*
X649893Y178860D01*
X649829Y178854D01*
X649765Y178844D01*
X649701Y178831D01*
X649639Y178813D01*
X649578Y178792D01*
X649518Y178768D01*
X649460Y178739D01*
X649403Y178707D01*
X649349Y178672D01*
X649297Y178634D01*
X649247Y178592D01*
X649200Y178548D01*
X649156Y178501D01*
X649114Y178451D01*
X649076Y178399D01*
X649041Y178345D01*
X649009Y178288D01*
X648980Y178230D01*
X648956Y178170D01*
X648935Y178109D01*
X648917Y178047D01*
X648904Y177983D01*
X648894Y177919D01*
X648888Y177855D01*
X648886Y177790D01*
X648885Y177790D02*
X648885Y177522D01*
X648887Y177451D01*
X648893Y177379D01*
X648902Y177309D01*
X648915Y177239D01*
X648932Y177169D01*
X648953Y177101D01*
X648977Y177034D01*
X649005Y176968D01*
X649036Y176904D01*
X649071Y176841D01*
X649109Y176781D01*
X649150Y176722D01*
X649194Y176666D01*
X649241Y176612D01*
X649290Y176561D01*
X649343Y176513D01*
X649398Y176467D01*
X649455Y176425D01*
X649515Y176385D01*
X649576Y176349D01*
X649640Y176316D01*
X649705Y176287D01*
X649771Y176261D01*
X649839Y176238D01*
X649908Y176219D01*
X649978Y176204D01*
X650048Y176193D01*
X650119Y176185D01*
X650190Y176181D01*
X650262Y176181D01*
X650333Y176185D01*
X650404Y176193D01*
X650474Y176204D01*
X650544Y176219D01*
X650613Y176238D01*
X650681Y176261D01*
X650747Y176287D01*
X650812Y176316D01*
X650876Y176349D01*
X650937Y176385D01*
X650997Y176425D01*
X651054Y176467D01*
X651109Y176513D01*
X651162Y176561D01*
X651211Y176612D01*
X651258Y176666D01*
X651302Y176722D01*
X651343Y176781D01*
X651381Y176841D01*
X651416Y176904D01*
X651447Y176968D01*
X651475Y177034D01*
X651499Y177101D01*
X651520Y177169D01*
X651537Y177239D01*
X651550Y177309D01*
X651559Y177379D01*
X651565Y177451D01*
X651567Y177522D01*
X651566Y177522D02*
X651566Y178862D01*
X651564Y178953D01*
X651558Y179044D01*
X651549Y179134D01*
X651535Y179225D01*
X651518Y179314D01*
X651497Y179402D01*
X651472Y179490D01*
X651443Y179577D01*
X651411Y179662D01*
X651376Y179746D01*
X651336Y179828D01*
X651294Y179908D01*
X651248Y179987D01*
X651198Y180063D01*
X651146Y180137D01*
X651090Y180210D01*
X651031Y180279D01*
X650970Y180346D01*
X650905Y180411D01*
X650838Y180472D01*
X650769Y180531D01*
X650696Y180587D01*
X650622Y180639D01*
X650546Y180689D01*
X650467Y180735D01*
X650387Y180777D01*
X650305Y180817D01*
X650221Y180852D01*
X650136Y180884D01*
X650049Y180913D01*
X649961Y180938D01*
X649873Y180959D01*
X649784Y180976D01*
X649693Y180990D01*
X649603Y180999D01*
X649512Y181005D01*
X649421Y181007D01*
X137950Y60357D02*
X136878Y60357D01*
X137950Y60357D02*
X138015Y60359D01*
X138079Y60365D01*
X138143Y60375D01*
X138207Y60388D01*
X138269Y60406D01*
X138330Y60427D01*
X138390Y60451D01*
X138448Y60480D01*
X138505Y60512D01*
X138559Y60547D01*
X138611Y60585D01*
X138661Y60627D01*
X138708Y60671D01*
X138752Y60718D01*
X138794Y60768D01*
X138832Y60820D01*
X138867Y60874D01*
X138899Y60931D01*
X138928Y60989D01*
X138952Y61049D01*
X138973Y61110D01*
X138991Y61172D01*
X139004Y61236D01*
X139014Y61300D01*
X139020Y61364D01*
X139022Y61429D01*
X139023Y61429D02*
X139023Y64111D01*
X139022Y64111D02*
X139020Y64176D01*
X139014Y64240D01*
X139004Y64304D01*
X138991Y64368D01*
X138973Y64430D01*
X138952Y64491D01*
X138928Y64551D01*
X138899Y64609D01*
X138867Y64666D01*
X138832Y64720D01*
X138794Y64772D01*
X138752Y64822D01*
X138708Y64869D01*
X138661Y64913D01*
X138611Y64955D01*
X138559Y64993D01*
X138505Y65028D01*
X138448Y65060D01*
X138390Y65089D01*
X138330Y65113D01*
X138269Y65134D01*
X138207Y65152D01*
X138143Y65165D01*
X138079Y65175D01*
X138015Y65181D01*
X137950Y65183D01*
X136878Y65183D01*
X134422Y65183D02*
X134422Y64647D01*
X134422Y65183D02*
X131741Y65183D01*
X133082Y60357D01*
X128298Y59341D02*
X127226Y59341D01*
X128298Y59341D02*
X128363Y59343D01*
X128427Y59349D01*
X128491Y59359D01*
X128555Y59372D01*
X128617Y59390D01*
X128678Y59411D01*
X128738Y59435D01*
X128796Y59464D01*
X128853Y59496D01*
X128907Y59531D01*
X128959Y59569D01*
X129009Y59611D01*
X129056Y59655D01*
X129100Y59702D01*
X129142Y59752D01*
X129180Y59804D01*
X129215Y59858D01*
X129247Y59915D01*
X129276Y59973D01*
X129300Y60033D01*
X129321Y60094D01*
X129339Y60156D01*
X129352Y60220D01*
X129362Y60284D01*
X129368Y60348D01*
X129370Y60413D01*
X129371Y60413D02*
X129371Y63095D01*
X129370Y63095D02*
X129368Y63160D01*
X129362Y63224D01*
X129352Y63288D01*
X129339Y63352D01*
X129321Y63414D01*
X129300Y63475D01*
X129276Y63535D01*
X129247Y63593D01*
X129215Y63650D01*
X129180Y63704D01*
X129142Y63756D01*
X129100Y63806D01*
X129056Y63853D01*
X129009Y63897D01*
X128959Y63939D01*
X128907Y63977D01*
X128853Y64012D01*
X128796Y64044D01*
X128738Y64073D01*
X128678Y64097D01*
X128617Y64118D01*
X128555Y64136D01*
X128491Y64149D01*
X128427Y64159D01*
X128363Y64165D01*
X128298Y64167D01*
X127226Y64167D01*
X124771Y60682D02*
X124769Y60753D01*
X124763Y60825D01*
X124754Y60895D01*
X124741Y60965D01*
X124724Y61035D01*
X124703Y61103D01*
X124679Y61170D01*
X124651Y61236D01*
X124620Y61300D01*
X124585Y61363D01*
X124547Y61423D01*
X124506Y61482D01*
X124462Y61538D01*
X124415Y61592D01*
X124366Y61643D01*
X124313Y61691D01*
X124258Y61737D01*
X124201Y61779D01*
X124141Y61819D01*
X124080Y61855D01*
X124016Y61888D01*
X123951Y61917D01*
X123885Y61943D01*
X123817Y61966D01*
X123748Y61985D01*
X123678Y62000D01*
X123608Y62011D01*
X123537Y62019D01*
X123466Y62023D01*
X123394Y62023D01*
X123323Y62019D01*
X123252Y62011D01*
X123182Y62000D01*
X123112Y61985D01*
X123043Y61966D01*
X122975Y61943D01*
X122909Y61917D01*
X122844Y61888D01*
X122780Y61855D01*
X122719Y61819D01*
X122659Y61779D01*
X122602Y61737D01*
X122547Y61691D01*
X122494Y61643D01*
X122445Y61592D01*
X122398Y61538D01*
X122354Y61482D01*
X122313Y61423D01*
X122275Y61363D01*
X122240Y61300D01*
X122209Y61236D01*
X122181Y61170D01*
X122157Y61103D01*
X122136Y61035D01*
X122119Y60965D01*
X122106Y60895D01*
X122097Y60825D01*
X122091Y60753D01*
X122089Y60682D01*
X122091Y60611D01*
X122097Y60539D01*
X122106Y60469D01*
X122119Y60399D01*
X122136Y60329D01*
X122157Y60261D01*
X122181Y60194D01*
X122209Y60128D01*
X122240Y60064D01*
X122275Y60001D01*
X122313Y59941D01*
X122354Y59882D01*
X122398Y59826D01*
X122445Y59772D01*
X122494Y59721D01*
X122547Y59673D01*
X122602Y59627D01*
X122659Y59585D01*
X122719Y59545D01*
X122780Y59509D01*
X122844Y59476D01*
X122909Y59447D01*
X122975Y59421D01*
X123043Y59398D01*
X123112Y59379D01*
X123182Y59364D01*
X123252Y59353D01*
X123323Y59345D01*
X123394Y59341D01*
X123466Y59341D01*
X123537Y59345D01*
X123608Y59353D01*
X123678Y59364D01*
X123748Y59379D01*
X123817Y59398D01*
X123885Y59421D01*
X123951Y59447D01*
X124016Y59476D01*
X124080Y59509D01*
X124141Y59545D01*
X124201Y59585D01*
X124258Y59627D01*
X124313Y59673D01*
X124366Y59721D01*
X124415Y59772D01*
X124462Y59826D01*
X124506Y59882D01*
X124547Y59941D01*
X124585Y60001D01*
X124620Y60064D01*
X124651Y60128D01*
X124679Y60194D01*
X124703Y60261D01*
X124724Y60329D01*
X124741Y60399D01*
X124754Y60469D01*
X124763Y60539D01*
X124769Y60611D01*
X124771Y60682D01*
X124502Y63095D02*
X124500Y63160D01*
X124494Y63224D01*
X124484Y63288D01*
X124471Y63352D01*
X124453Y63414D01*
X124432Y63475D01*
X124408Y63535D01*
X124379Y63593D01*
X124347Y63650D01*
X124312Y63704D01*
X124274Y63756D01*
X124232Y63806D01*
X124188Y63853D01*
X124141Y63897D01*
X124091Y63939D01*
X124039Y63977D01*
X123985Y64012D01*
X123928Y64044D01*
X123870Y64073D01*
X123810Y64097D01*
X123749Y64118D01*
X123687Y64136D01*
X123623Y64149D01*
X123559Y64159D01*
X123495Y64165D01*
X123430Y64167D01*
X123365Y64165D01*
X123301Y64159D01*
X123237Y64149D01*
X123173Y64136D01*
X123111Y64118D01*
X123050Y64097D01*
X122990Y64073D01*
X122932Y64044D01*
X122875Y64012D01*
X122821Y63977D01*
X122769Y63939D01*
X122719Y63897D01*
X122672Y63853D01*
X122628Y63806D01*
X122586Y63756D01*
X122548Y63704D01*
X122513Y63650D01*
X122481Y63593D01*
X122452Y63535D01*
X122428Y63475D01*
X122407Y63414D01*
X122389Y63352D01*
X122376Y63288D01*
X122366Y63224D01*
X122360Y63160D01*
X122358Y63095D01*
X122360Y63030D01*
X122366Y62966D01*
X122376Y62902D01*
X122389Y62838D01*
X122407Y62776D01*
X122428Y62715D01*
X122452Y62655D01*
X122481Y62597D01*
X122513Y62540D01*
X122548Y62486D01*
X122586Y62434D01*
X122628Y62384D01*
X122672Y62337D01*
X122719Y62293D01*
X122769Y62251D01*
X122821Y62213D01*
X122875Y62178D01*
X122932Y62146D01*
X122990Y62117D01*
X123050Y62093D01*
X123111Y62072D01*
X123173Y62054D01*
X123237Y62041D01*
X123301Y62031D01*
X123365Y62025D01*
X123430Y62023D01*
X123495Y62025D01*
X123559Y62031D01*
X123623Y62041D01*
X123687Y62054D01*
X123749Y62072D01*
X123810Y62093D01*
X123870Y62117D01*
X123928Y62146D01*
X123985Y62178D01*
X124039Y62213D01*
X124091Y62251D01*
X124141Y62293D01*
X124188Y62337D01*
X124232Y62384D01*
X124274Y62434D01*
X124312Y62486D01*
X124347Y62540D01*
X124379Y62597D01*
X124408Y62655D01*
X124432Y62715D01*
X124453Y62776D01*
X124471Y62838D01*
X124484Y62902D01*
X124494Y62966D01*
X124500Y63030D01*
X124502Y63095D01*
X136878Y246539D02*
X137950Y246539D01*
X138015Y246541D01*
X138079Y246547D01*
X138143Y246557D01*
X138207Y246570D01*
X138269Y246588D01*
X138330Y246609D01*
X138390Y246633D01*
X138448Y246662D01*
X138505Y246694D01*
X138559Y246729D01*
X138611Y246767D01*
X138661Y246809D01*
X138708Y246853D01*
X138752Y246900D01*
X138794Y246950D01*
X138832Y247002D01*
X138867Y247056D01*
X138899Y247113D01*
X138928Y247171D01*
X138952Y247231D01*
X138973Y247292D01*
X138991Y247354D01*
X139004Y247418D01*
X139014Y247482D01*
X139020Y247546D01*
X139022Y247611D01*
X139023Y247611D02*
X139023Y250293D01*
X139022Y250293D02*
X139020Y250358D01*
X139014Y250422D01*
X139004Y250486D01*
X138991Y250550D01*
X138973Y250612D01*
X138952Y250673D01*
X138928Y250733D01*
X138899Y250791D01*
X138867Y250848D01*
X138832Y250902D01*
X138794Y250954D01*
X138752Y251004D01*
X138708Y251051D01*
X138661Y251095D01*
X138611Y251137D01*
X138559Y251175D01*
X138505Y251210D01*
X138448Y251242D01*
X138390Y251271D01*
X138330Y251295D01*
X138269Y251316D01*
X138207Y251334D01*
X138143Y251347D01*
X138079Y251357D01*
X138015Y251363D01*
X137950Y251365D01*
X136878Y251365D01*
X133350Y248684D02*
X131741Y248684D01*
X133350Y248684D02*
X133415Y248686D01*
X133479Y248692D01*
X133543Y248702D01*
X133607Y248715D01*
X133669Y248733D01*
X133730Y248754D01*
X133790Y248778D01*
X133848Y248807D01*
X133905Y248839D01*
X133959Y248874D01*
X134011Y248912D01*
X134061Y248954D01*
X134108Y248998D01*
X134152Y249045D01*
X134194Y249095D01*
X134232Y249147D01*
X134267Y249201D01*
X134299Y249258D01*
X134328Y249316D01*
X134352Y249376D01*
X134373Y249437D01*
X134391Y249499D01*
X134404Y249563D01*
X134414Y249627D01*
X134420Y249691D01*
X134422Y249756D01*
X134422Y250024D01*
X134423Y250024D02*
X134421Y250095D01*
X134415Y250167D01*
X134406Y250237D01*
X134393Y250307D01*
X134376Y250377D01*
X134355Y250445D01*
X134331Y250512D01*
X134303Y250578D01*
X134272Y250642D01*
X134237Y250705D01*
X134199Y250765D01*
X134158Y250824D01*
X134114Y250880D01*
X134067Y250934D01*
X134018Y250985D01*
X133965Y251033D01*
X133910Y251079D01*
X133853Y251121D01*
X133793Y251161D01*
X133732Y251197D01*
X133668Y251230D01*
X133603Y251259D01*
X133537Y251285D01*
X133469Y251308D01*
X133400Y251327D01*
X133330Y251342D01*
X133260Y251353D01*
X133189Y251361D01*
X133118Y251365D01*
X133046Y251365D01*
X132975Y251361D01*
X132904Y251353D01*
X132834Y251342D01*
X132764Y251327D01*
X132695Y251308D01*
X132627Y251285D01*
X132561Y251259D01*
X132496Y251230D01*
X132432Y251197D01*
X132371Y251161D01*
X132311Y251121D01*
X132254Y251079D01*
X132199Y251033D01*
X132146Y250985D01*
X132097Y250934D01*
X132050Y250880D01*
X132006Y250824D01*
X131965Y250765D01*
X131927Y250705D01*
X131892Y250642D01*
X131861Y250578D01*
X131833Y250512D01*
X131809Y250445D01*
X131788Y250377D01*
X131771Y250307D01*
X131758Y250237D01*
X131749Y250167D01*
X131743Y250095D01*
X131741Y250024D01*
X131741Y248684D01*
X131743Y248593D01*
X131749Y248502D01*
X131758Y248412D01*
X131772Y248321D01*
X131789Y248232D01*
X131810Y248144D01*
X131835Y248056D01*
X131864Y247969D01*
X131896Y247884D01*
X131931Y247800D01*
X131971Y247718D01*
X132013Y247638D01*
X132059Y247559D01*
X132109Y247483D01*
X132161Y247409D01*
X132217Y247336D01*
X132276Y247267D01*
X132337Y247200D01*
X132402Y247135D01*
X132469Y247074D01*
X132538Y247015D01*
X132611Y246959D01*
X132685Y246907D01*
X132761Y246857D01*
X132840Y246811D01*
X132920Y246769D01*
X133002Y246729D01*
X133086Y246694D01*
X133171Y246662D01*
X133258Y246633D01*
X133346Y246608D01*
X133434Y246587D01*
X133523Y246570D01*
X133614Y246556D01*
X133704Y246547D01*
X133795Y246541D01*
X133886Y246539D01*
X128248Y246285D02*
X127175Y246285D01*
X128248Y246285D02*
X128313Y246287D01*
X128377Y246293D01*
X128441Y246303D01*
X128505Y246316D01*
X128567Y246334D01*
X128628Y246355D01*
X128688Y246379D01*
X128746Y246408D01*
X128803Y246440D01*
X128857Y246475D01*
X128909Y246513D01*
X128959Y246555D01*
X129006Y246599D01*
X129050Y246646D01*
X129092Y246696D01*
X129130Y246748D01*
X129165Y246802D01*
X129197Y246859D01*
X129226Y246917D01*
X129250Y246977D01*
X129271Y247038D01*
X129289Y247100D01*
X129302Y247164D01*
X129312Y247228D01*
X129318Y247292D01*
X129320Y247357D01*
X129320Y250039D01*
X129318Y250104D01*
X129312Y250168D01*
X129302Y250232D01*
X129289Y250296D01*
X129271Y250358D01*
X129250Y250419D01*
X129226Y250479D01*
X129197Y250537D01*
X129165Y250594D01*
X129130Y250648D01*
X129092Y250700D01*
X129050Y250750D01*
X129006Y250797D01*
X128959Y250841D01*
X128909Y250883D01*
X128857Y250921D01*
X128803Y250956D01*
X128746Y250988D01*
X128688Y251017D01*
X128628Y251041D01*
X128567Y251062D01*
X128505Y251080D01*
X128441Y251093D01*
X128377Y251103D01*
X128313Y251109D01*
X128248Y251111D01*
X127175Y251111D01*
X124719Y250039D02*
X123379Y251111D01*
X123379Y246285D01*
X124719Y246285D02*
X122038Y246285D01*
X119233Y248698D02*
X119231Y248818D01*
X119226Y248938D01*
X119217Y249058D01*
X119204Y249178D01*
X119188Y249297D01*
X119168Y249416D01*
X119144Y249534D01*
X119117Y249651D01*
X119087Y249767D01*
X119053Y249882D01*
X119015Y249997D01*
X118974Y250110D01*
X118930Y250221D01*
X118882Y250332D01*
X118831Y250441D01*
X118810Y250498D01*
X118784Y250554D01*
X118756Y250609D01*
X118724Y250661D01*
X118688Y250712D01*
X118650Y250760D01*
X118609Y250806D01*
X118565Y250849D01*
X118519Y250889D01*
X118470Y250926D01*
X118418Y250960D01*
X118365Y250991D01*
X118310Y251019D01*
X118254Y251043D01*
X118196Y251064D01*
X118137Y251081D01*
X118077Y251094D01*
X118016Y251103D01*
X117954Y251109D01*
X117893Y251111D01*
X117832Y251109D01*
X117770Y251103D01*
X117709Y251094D01*
X117649Y251081D01*
X117590Y251064D01*
X117532Y251043D01*
X117476Y251019D01*
X117421Y250991D01*
X117368Y250960D01*
X117316Y250926D01*
X117268Y250889D01*
X117221Y250849D01*
X117177Y250806D01*
X117136Y250760D01*
X117098Y250712D01*
X117062Y250661D01*
X117030Y250609D01*
X117002Y250554D01*
X116976Y250498D01*
X116955Y250441D01*
X116954Y250441D02*
X116903Y250332D01*
X116855Y250221D01*
X116811Y250110D01*
X116770Y249997D01*
X116732Y249882D01*
X116698Y249767D01*
X116668Y249651D01*
X116641Y249534D01*
X116617Y249416D01*
X116597Y249297D01*
X116581Y249178D01*
X116568Y249058D01*
X116559Y248938D01*
X116554Y248818D01*
X116552Y248698D01*
X119233Y248698D02*
X119231Y248578D01*
X119226Y248458D01*
X119217Y248338D01*
X119204Y248218D01*
X119188Y248099D01*
X119168Y247980D01*
X119144Y247862D01*
X119117Y247745D01*
X119087Y247629D01*
X119053Y247514D01*
X119015Y247399D01*
X118974Y247286D01*
X118930Y247175D01*
X118882Y247064D01*
X118831Y246955D01*
X118810Y246898D01*
X118784Y246842D01*
X118756Y246787D01*
X118724Y246735D01*
X118688Y246684D01*
X118650Y246636D01*
X118609Y246590D01*
X118565Y246547D01*
X118519Y246507D01*
X118470Y246470D01*
X118418Y246436D01*
X118365Y246405D01*
X118310Y246377D01*
X118254Y246353D01*
X118196Y246332D01*
X118137Y246315D01*
X118077Y246302D01*
X118016Y246293D01*
X117954Y246287D01*
X117893Y246285D01*
X116954Y246955D02*
X116903Y247064D01*
X116855Y247175D01*
X116811Y247286D01*
X116770Y247399D01*
X116732Y247514D01*
X116698Y247629D01*
X116668Y247745D01*
X116641Y247862D01*
X116617Y247980D01*
X116597Y248099D01*
X116581Y248218D01*
X116568Y248338D01*
X116559Y248458D01*
X116554Y248578D01*
X116552Y248698D01*
X116955Y246955D02*
X116976Y246898D01*
X117002Y246842D01*
X117030Y246787D01*
X117062Y246735D01*
X117098Y246684D01*
X117136Y246636D01*
X117177Y246590D01*
X117221Y246547D01*
X117268Y246507D01*
X117316Y246470D01*
X117368Y246436D01*
X117421Y246405D01*
X117476Y246377D01*
X117532Y246353D01*
X117590Y246332D01*
X117649Y246315D01*
X117709Y246302D01*
X117770Y246293D01*
X117832Y246287D01*
X117893Y246285D01*
X118965Y247357D02*
X116820Y250039D01*
X137589Y176435D02*
X138662Y176435D01*
X138727Y176437D01*
X138791Y176443D01*
X138855Y176453D01*
X138919Y176466D01*
X138981Y176484D01*
X139042Y176505D01*
X139102Y176529D01*
X139160Y176558D01*
X139217Y176590D01*
X139271Y176625D01*
X139323Y176663D01*
X139373Y176705D01*
X139420Y176749D01*
X139464Y176796D01*
X139506Y176846D01*
X139544Y176898D01*
X139579Y176952D01*
X139611Y177009D01*
X139640Y177067D01*
X139664Y177127D01*
X139685Y177188D01*
X139703Y177250D01*
X139716Y177314D01*
X139726Y177378D01*
X139732Y177442D01*
X139734Y177507D01*
X139734Y180189D01*
X139732Y180254D01*
X139726Y180318D01*
X139716Y180382D01*
X139703Y180446D01*
X139685Y180508D01*
X139664Y180569D01*
X139640Y180629D01*
X139611Y180687D01*
X139579Y180744D01*
X139544Y180798D01*
X139506Y180850D01*
X139464Y180900D01*
X139420Y180947D01*
X139373Y180991D01*
X139323Y181033D01*
X139271Y181071D01*
X139217Y181106D01*
X139160Y181138D01*
X139102Y181167D01*
X139042Y181191D01*
X138981Y181212D01*
X138919Y181230D01*
X138855Y181243D01*
X138791Y181253D01*
X138727Y181259D01*
X138662Y181261D01*
X137589Y181261D01*
X135133Y180189D02*
X133793Y181261D01*
X133793Y176435D01*
X135133Y176435D02*
X132452Y176435D01*
X129647Y180189D02*
X128307Y181261D01*
X128307Y176435D01*
X129647Y176435D02*
X126966Y176435D01*
X124692Y176181D02*
X123619Y176181D01*
X124692Y176181D02*
X124757Y176183D01*
X124821Y176189D01*
X124885Y176199D01*
X124949Y176212D01*
X125011Y176230D01*
X125072Y176251D01*
X125132Y176275D01*
X125190Y176304D01*
X125247Y176336D01*
X125301Y176371D01*
X125353Y176409D01*
X125403Y176451D01*
X125450Y176495D01*
X125494Y176542D01*
X125536Y176592D01*
X125574Y176644D01*
X125609Y176698D01*
X125641Y176755D01*
X125670Y176813D01*
X125694Y176873D01*
X125715Y176934D01*
X125733Y176996D01*
X125746Y177060D01*
X125756Y177124D01*
X125762Y177188D01*
X125764Y177253D01*
X125764Y179935D01*
X125762Y180000D01*
X125756Y180064D01*
X125746Y180128D01*
X125733Y180192D01*
X125715Y180254D01*
X125694Y180315D01*
X125670Y180375D01*
X125641Y180433D01*
X125609Y180490D01*
X125574Y180544D01*
X125536Y180596D01*
X125494Y180646D01*
X125450Y180693D01*
X125403Y180737D01*
X125353Y180779D01*
X125301Y180817D01*
X125247Y180852D01*
X125190Y180884D01*
X125132Y180913D01*
X125072Y180937D01*
X125011Y180958D01*
X124949Y180976D01*
X124885Y180989D01*
X124821Y180999D01*
X124757Y181005D01*
X124692Y181007D01*
X123619Y181007D01*
X121163Y179935D02*
X119823Y181007D01*
X119823Y176181D01*
X121163Y176181D02*
X118482Y176181D01*
X114202Y181007D02*
X114134Y181005D01*
X114067Y180999D01*
X114000Y180990D01*
X113933Y180977D01*
X113868Y180960D01*
X113803Y180939D01*
X113740Y180915D01*
X113678Y180887D01*
X113618Y180856D01*
X113560Y180822D01*
X113504Y180784D01*
X113449Y180744D01*
X113398Y180700D01*
X113349Y180653D01*
X113302Y180604D01*
X113258Y180553D01*
X113218Y180498D01*
X113180Y180442D01*
X113146Y180384D01*
X113115Y180324D01*
X113087Y180262D01*
X113063Y180199D01*
X113042Y180134D01*
X113025Y180069D01*
X113012Y180002D01*
X113003Y179935D01*
X112997Y179868D01*
X112995Y179800D01*
X114202Y181007D02*
X114280Y181005D01*
X114358Y180999D01*
X114435Y180989D01*
X114512Y180976D01*
X114588Y180958D01*
X114663Y180937D01*
X114737Y180912D01*
X114809Y180883D01*
X114880Y180851D01*
X114949Y180815D01*
X115017Y180776D01*
X115082Y180733D01*
X115145Y180687D01*
X115206Y180638D01*
X115264Y180586D01*
X115319Y180531D01*
X115372Y180474D01*
X115421Y180414D01*
X115468Y180351D01*
X115511Y180286D01*
X115551Y180220D01*
X115588Y180151D01*
X115621Y180080D01*
X115651Y180008D01*
X115677Y179934D01*
X113398Y178862D02*
X113349Y178911D01*
X113302Y178963D01*
X113259Y179018D01*
X113218Y179075D01*
X113180Y179134D01*
X113146Y179195D01*
X113115Y179258D01*
X113087Y179322D01*
X113063Y179388D01*
X113043Y179454D01*
X113026Y179522D01*
X113013Y179591D01*
X113004Y179660D01*
X112998Y179730D01*
X112996Y179800D01*
X113398Y178862D02*
X115677Y176181D01*
X112996Y176181D01*
X644065Y246793D02*
X645138Y246793D01*
X645203Y246795D01*
X645267Y246801D01*
X645331Y246811D01*
X645395Y246824D01*
X645457Y246842D01*
X645518Y246863D01*
X645578Y246887D01*
X645636Y246916D01*
X645693Y246948D01*
X645747Y246983D01*
X645799Y247021D01*
X645849Y247063D01*
X645896Y247107D01*
X645940Y247154D01*
X645982Y247204D01*
X646020Y247256D01*
X646055Y247310D01*
X646087Y247367D01*
X646116Y247425D01*
X646140Y247485D01*
X646161Y247546D01*
X646179Y247608D01*
X646192Y247672D01*
X646202Y247736D01*
X646208Y247800D01*
X646210Y247865D01*
X646210Y250547D01*
X646208Y250612D01*
X646202Y250676D01*
X646192Y250740D01*
X646179Y250804D01*
X646161Y250866D01*
X646140Y250927D01*
X646116Y250987D01*
X646087Y251045D01*
X646055Y251102D01*
X646020Y251156D01*
X645982Y251208D01*
X645940Y251258D01*
X645896Y251305D01*
X645849Y251349D01*
X645799Y251391D01*
X645747Y251429D01*
X645693Y251464D01*
X645636Y251496D01*
X645578Y251525D01*
X645518Y251549D01*
X645457Y251570D01*
X645395Y251588D01*
X645331Y251601D01*
X645267Y251611D01*
X645203Y251617D01*
X645138Y251619D01*
X644065Y251619D01*
X641609Y250547D02*
X640269Y251619D01*
X640269Y246793D01*
X641609Y246793D02*
X638928Y246793D01*
X636123Y246793D02*
X634783Y246793D01*
X634712Y246795D01*
X634640Y246801D01*
X634570Y246810D01*
X634500Y246823D01*
X634430Y246840D01*
X634362Y246861D01*
X634295Y246885D01*
X634229Y246913D01*
X634165Y246944D01*
X634102Y246979D01*
X634042Y247017D01*
X633983Y247058D01*
X633927Y247102D01*
X633873Y247149D01*
X633822Y247198D01*
X633774Y247251D01*
X633728Y247306D01*
X633686Y247363D01*
X633646Y247423D01*
X633610Y247484D01*
X633577Y247548D01*
X633548Y247613D01*
X633522Y247679D01*
X633499Y247747D01*
X633480Y247816D01*
X633465Y247886D01*
X633454Y247956D01*
X633446Y248027D01*
X633442Y248098D01*
X633442Y248170D01*
X633446Y248241D01*
X633454Y248312D01*
X633465Y248382D01*
X633480Y248452D01*
X633499Y248521D01*
X633522Y248589D01*
X633548Y248655D01*
X633577Y248720D01*
X633610Y248784D01*
X633646Y248845D01*
X633686Y248905D01*
X633728Y248962D01*
X633774Y249017D01*
X633822Y249070D01*
X633873Y249119D01*
X633927Y249166D01*
X633983Y249210D01*
X634042Y249251D01*
X634102Y249289D01*
X634165Y249324D01*
X634229Y249355D01*
X634295Y249383D01*
X634362Y249407D01*
X634430Y249428D01*
X634500Y249445D01*
X634570Y249458D01*
X634640Y249467D01*
X634712Y249473D01*
X634783Y249475D01*
X634514Y251619D02*
X636123Y251619D01*
X634514Y251619D02*
X634449Y251617D01*
X634385Y251611D01*
X634321Y251601D01*
X634257Y251588D01*
X634195Y251570D01*
X634134Y251549D01*
X634074Y251525D01*
X634016Y251496D01*
X633959Y251464D01*
X633905Y251429D01*
X633853Y251391D01*
X633803Y251349D01*
X633756Y251305D01*
X633712Y251258D01*
X633670Y251208D01*
X633632Y251156D01*
X633597Y251102D01*
X633565Y251045D01*
X633536Y250987D01*
X633512Y250927D01*
X633491Y250866D01*
X633473Y250804D01*
X633460Y250740D01*
X633450Y250676D01*
X633444Y250612D01*
X633442Y250547D01*
X633444Y250482D01*
X633450Y250418D01*
X633460Y250354D01*
X633473Y250290D01*
X633491Y250228D01*
X633512Y250167D01*
X633536Y250107D01*
X633565Y250049D01*
X633597Y249992D01*
X633632Y249938D01*
X633670Y249886D01*
X633712Y249836D01*
X633756Y249789D01*
X633803Y249745D01*
X633853Y249703D01*
X633905Y249665D01*
X633959Y249630D01*
X634016Y249598D01*
X634074Y249569D01*
X634134Y249545D01*
X634195Y249524D01*
X634257Y249506D01*
X634321Y249493D01*
X634385Y249483D01*
X634449Y249477D01*
X634514Y249475D01*
X634514Y249474D02*
X635587Y249474D01*
X658797Y247047D02*
X659870Y247047D01*
X659935Y247049D01*
X659999Y247055D01*
X660063Y247065D01*
X660127Y247078D01*
X660189Y247096D01*
X660250Y247117D01*
X660310Y247141D01*
X660368Y247170D01*
X660425Y247202D01*
X660479Y247237D01*
X660531Y247275D01*
X660581Y247317D01*
X660628Y247361D01*
X660672Y247408D01*
X660714Y247458D01*
X660752Y247510D01*
X660787Y247564D01*
X660819Y247621D01*
X660848Y247679D01*
X660872Y247739D01*
X660893Y247800D01*
X660911Y247862D01*
X660924Y247926D01*
X660934Y247990D01*
X660940Y248054D01*
X660942Y248119D01*
X660942Y250801D01*
X660940Y250866D01*
X660934Y250930D01*
X660924Y250994D01*
X660911Y251058D01*
X660893Y251120D01*
X660872Y251181D01*
X660848Y251241D01*
X660819Y251299D01*
X660787Y251356D01*
X660752Y251410D01*
X660714Y251462D01*
X660672Y251512D01*
X660628Y251559D01*
X660581Y251603D01*
X660531Y251645D01*
X660479Y251683D01*
X660425Y251718D01*
X660368Y251750D01*
X660310Y251779D01*
X660250Y251803D01*
X660189Y251824D01*
X660127Y251842D01*
X660063Y251855D01*
X659999Y251865D01*
X659935Y251871D01*
X659870Y251873D01*
X658797Y251873D01*
X656341Y250801D02*
X655001Y251873D01*
X655001Y247047D01*
X656341Y247047D02*
X653660Y247047D01*
X650855Y248119D02*
X649783Y251873D01*
X650855Y248119D02*
X648174Y248119D01*
X648978Y249192D02*
X648978Y247047D01*
X138154Y113697D02*
X137081Y113697D01*
X138154Y113697D02*
X138219Y113699D01*
X138283Y113705D01*
X138347Y113715D01*
X138411Y113728D01*
X138473Y113746D01*
X138534Y113767D01*
X138594Y113791D01*
X138652Y113820D01*
X138709Y113852D01*
X138763Y113887D01*
X138815Y113925D01*
X138865Y113967D01*
X138912Y114011D01*
X138956Y114058D01*
X138998Y114108D01*
X139036Y114160D01*
X139071Y114214D01*
X139103Y114271D01*
X139132Y114329D01*
X139156Y114389D01*
X139177Y114450D01*
X139195Y114512D01*
X139208Y114576D01*
X139218Y114640D01*
X139224Y114704D01*
X139226Y114769D01*
X139226Y117451D01*
X139224Y117516D01*
X139218Y117580D01*
X139208Y117644D01*
X139195Y117708D01*
X139177Y117770D01*
X139156Y117831D01*
X139132Y117891D01*
X139103Y117949D01*
X139071Y118006D01*
X139036Y118060D01*
X138998Y118112D01*
X138956Y118162D01*
X138912Y118209D01*
X138865Y118253D01*
X138815Y118295D01*
X138763Y118333D01*
X138709Y118368D01*
X138652Y118400D01*
X138594Y118429D01*
X138534Y118453D01*
X138473Y118474D01*
X138411Y118492D01*
X138347Y118505D01*
X138283Y118515D01*
X138219Y118521D01*
X138154Y118523D01*
X137081Y118523D01*
X134625Y117451D02*
X133285Y118523D01*
X133285Y113697D01*
X134625Y113697D02*
X131944Y113697D01*
X129139Y113697D02*
X127530Y113697D01*
X127465Y113699D01*
X127401Y113705D01*
X127337Y113715D01*
X127273Y113728D01*
X127211Y113746D01*
X127150Y113767D01*
X127090Y113791D01*
X127032Y113820D01*
X126975Y113852D01*
X126921Y113887D01*
X126869Y113925D01*
X126819Y113967D01*
X126772Y114011D01*
X126728Y114058D01*
X126686Y114108D01*
X126648Y114160D01*
X126613Y114214D01*
X126581Y114271D01*
X126552Y114329D01*
X126528Y114389D01*
X126507Y114450D01*
X126489Y114512D01*
X126476Y114576D01*
X126466Y114640D01*
X126460Y114704D01*
X126458Y114769D01*
X126458Y115306D01*
X126460Y115371D01*
X126466Y115435D01*
X126476Y115499D01*
X126489Y115563D01*
X126507Y115625D01*
X126528Y115686D01*
X126552Y115746D01*
X126581Y115804D01*
X126613Y115861D01*
X126648Y115915D01*
X126686Y115967D01*
X126728Y116017D01*
X126772Y116064D01*
X126819Y116108D01*
X126869Y116150D01*
X126921Y116188D01*
X126975Y116223D01*
X127032Y116255D01*
X127090Y116284D01*
X127150Y116308D01*
X127211Y116329D01*
X127273Y116347D01*
X127337Y116360D01*
X127401Y116370D01*
X127465Y116376D01*
X127530Y116378D01*
X129139Y116378D01*
X129139Y118523D01*
X126458Y118523D01*
X127429Y113697D02*
X128502Y113697D01*
X128567Y113699D01*
X128631Y113705D01*
X128695Y113715D01*
X128759Y113728D01*
X128821Y113746D01*
X128882Y113767D01*
X128942Y113791D01*
X129000Y113820D01*
X129057Y113852D01*
X129111Y113887D01*
X129163Y113925D01*
X129213Y113967D01*
X129260Y114011D01*
X129304Y114058D01*
X129346Y114108D01*
X129384Y114160D01*
X129419Y114214D01*
X129451Y114271D01*
X129480Y114329D01*
X129504Y114389D01*
X129525Y114450D01*
X129543Y114512D01*
X129556Y114576D01*
X129566Y114640D01*
X129572Y114704D01*
X129574Y114769D01*
X129574Y117451D01*
X129572Y117516D01*
X129566Y117580D01*
X129556Y117644D01*
X129543Y117708D01*
X129525Y117770D01*
X129504Y117831D01*
X129480Y117891D01*
X129451Y117949D01*
X129419Y118006D01*
X129384Y118060D01*
X129346Y118112D01*
X129304Y118162D01*
X129260Y118209D01*
X129213Y118253D01*
X129163Y118295D01*
X129111Y118333D01*
X129057Y118368D01*
X129000Y118400D01*
X128942Y118429D01*
X128882Y118453D01*
X128821Y118474D01*
X128759Y118492D01*
X128695Y118505D01*
X128631Y118515D01*
X128567Y118521D01*
X128502Y118523D01*
X127429Y118523D01*
X124973Y117451D02*
X123633Y118523D01*
X123633Y113697D01*
X124973Y113697D02*
X122292Y113697D01*
X119487Y116378D02*
X117878Y116378D01*
X117813Y116376D01*
X117749Y116370D01*
X117685Y116360D01*
X117621Y116347D01*
X117559Y116329D01*
X117498Y116308D01*
X117438Y116284D01*
X117380Y116255D01*
X117323Y116223D01*
X117269Y116188D01*
X117217Y116150D01*
X117167Y116108D01*
X117120Y116064D01*
X117076Y116017D01*
X117034Y115967D01*
X116996Y115915D01*
X116961Y115861D01*
X116929Y115804D01*
X116900Y115746D01*
X116876Y115686D01*
X116855Y115625D01*
X116837Y115563D01*
X116824Y115499D01*
X116814Y115435D01*
X116808Y115371D01*
X116806Y115306D01*
X116806Y115038D01*
X116805Y115038D02*
X116807Y114967D01*
X116813Y114895D01*
X116822Y114825D01*
X116835Y114755D01*
X116852Y114685D01*
X116873Y114617D01*
X116897Y114550D01*
X116925Y114484D01*
X116956Y114420D01*
X116991Y114357D01*
X117029Y114297D01*
X117070Y114238D01*
X117114Y114182D01*
X117161Y114128D01*
X117210Y114077D01*
X117263Y114029D01*
X117318Y113983D01*
X117375Y113941D01*
X117435Y113901D01*
X117496Y113865D01*
X117560Y113832D01*
X117625Y113803D01*
X117691Y113777D01*
X117759Y113754D01*
X117828Y113735D01*
X117898Y113720D01*
X117968Y113709D01*
X118039Y113701D01*
X118110Y113697D01*
X118182Y113697D01*
X118253Y113701D01*
X118324Y113709D01*
X118394Y113720D01*
X118464Y113735D01*
X118533Y113754D01*
X118601Y113777D01*
X118667Y113803D01*
X118732Y113832D01*
X118796Y113865D01*
X118857Y113901D01*
X118917Y113941D01*
X118974Y113983D01*
X119029Y114029D01*
X119082Y114077D01*
X119131Y114128D01*
X119178Y114182D01*
X119222Y114238D01*
X119263Y114297D01*
X119301Y114357D01*
X119336Y114420D01*
X119367Y114484D01*
X119395Y114550D01*
X119419Y114617D01*
X119440Y114685D01*
X119457Y114755D01*
X119470Y114825D01*
X119479Y114895D01*
X119485Y114967D01*
X119487Y115038D01*
X119487Y116378D01*
X119485Y116469D01*
X119479Y116560D01*
X119470Y116650D01*
X119456Y116741D01*
X119439Y116830D01*
X119418Y116918D01*
X119393Y117006D01*
X119364Y117093D01*
X119332Y117178D01*
X119297Y117262D01*
X119257Y117344D01*
X119215Y117424D01*
X119169Y117503D01*
X119119Y117579D01*
X119067Y117653D01*
X119011Y117726D01*
X118952Y117795D01*
X118891Y117862D01*
X118826Y117927D01*
X118759Y117988D01*
X118690Y118047D01*
X118617Y118103D01*
X118543Y118155D01*
X118467Y118205D01*
X118388Y118251D01*
X118308Y118293D01*
X118226Y118333D01*
X118142Y118368D01*
X118057Y118400D01*
X117970Y118429D01*
X117882Y118454D01*
X117794Y118475D01*
X117705Y118492D01*
X117614Y118506D01*
X117524Y118515D01*
X117433Y118521D01*
X117342Y118523D01*
X240713Y59849D02*
X241786Y59849D01*
X241851Y59851D01*
X241915Y59857D01*
X241979Y59867D01*
X242043Y59880D01*
X242105Y59898D01*
X242166Y59919D01*
X242226Y59943D01*
X242284Y59972D01*
X242341Y60004D01*
X242395Y60039D01*
X242447Y60077D01*
X242497Y60119D01*
X242544Y60163D01*
X242588Y60210D01*
X242630Y60260D01*
X242668Y60312D01*
X242703Y60366D01*
X242735Y60423D01*
X242764Y60481D01*
X242788Y60541D01*
X242809Y60602D01*
X242827Y60664D01*
X242840Y60728D01*
X242850Y60792D01*
X242856Y60856D01*
X242858Y60921D01*
X242858Y63603D01*
X242856Y63668D01*
X242850Y63732D01*
X242840Y63796D01*
X242827Y63860D01*
X242809Y63922D01*
X242788Y63983D01*
X242764Y64043D01*
X242735Y64101D01*
X242703Y64158D01*
X242668Y64212D01*
X242630Y64264D01*
X242588Y64314D01*
X242544Y64361D01*
X242497Y64405D01*
X242447Y64447D01*
X242395Y64485D01*
X242341Y64520D01*
X242284Y64552D01*
X242226Y64581D01*
X242166Y64605D01*
X242105Y64626D01*
X242043Y64644D01*
X241979Y64657D01*
X241915Y64667D01*
X241851Y64673D01*
X241786Y64675D01*
X240713Y64675D01*
X238257Y63603D02*
X236917Y64675D01*
X236917Y59849D01*
X238257Y59849D02*
X235576Y59849D01*
X232771Y64139D02*
X232771Y64675D01*
X230090Y64675D01*
X231431Y59849D01*
X255699Y60103D02*
X256772Y60103D01*
X256837Y60105D01*
X256901Y60111D01*
X256965Y60121D01*
X257029Y60134D01*
X257091Y60152D01*
X257152Y60173D01*
X257212Y60197D01*
X257270Y60226D01*
X257327Y60258D01*
X257381Y60293D01*
X257433Y60331D01*
X257483Y60373D01*
X257530Y60417D01*
X257574Y60464D01*
X257616Y60514D01*
X257654Y60566D01*
X257689Y60620D01*
X257721Y60677D01*
X257750Y60735D01*
X257774Y60795D01*
X257795Y60856D01*
X257813Y60918D01*
X257826Y60982D01*
X257836Y61046D01*
X257842Y61110D01*
X257844Y61175D01*
X257844Y63857D01*
X257842Y63922D01*
X257836Y63986D01*
X257826Y64050D01*
X257813Y64114D01*
X257795Y64176D01*
X257774Y64237D01*
X257750Y64297D01*
X257721Y64355D01*
X257689Y64412D01*
X257654Y64466D01*
X257616Y64518D01*
X257574Y64568D01*
X257530Y64615D01*
X257483Y64659D01*
X257433Y64701D01*
X257381Y64739D01*
X257327Y64774D01*
X257270Y64806D01*
X257212Y64835D01*
X257152Y64859D01*
X257091Y64880D01*
X257029Y64898D01*
X256965Y64911D01*
X256901Y64921D01*
X256837Y64927D01*
X256772Y64929D01*
X255699Y64929D01*
X253243Y63857D02*
X251903Y64929D01*
X251903Y60103D01*
X253243Y60103D02*
X250562Y60103D01*
X247757Y61444D02*
X247755Y61515D01*
X247749Y61587D01*
X247740Y61657D01*
X247727Y61727D01*
X247710Y61797D01*
X247689Y61865D01*
X247665Y61932D01*
X247637Y61998D01*
X247606Y62062D01*
X247571Y62125D01*
X247533Y62185D01*
X247492Y62244D01*
X247448Y62300D01*
X247401Y62354D01*
X247352Y62405D01*
X247299Y62453D01*
X247244Y62499D01*
X247187Y62541D01*
X247127Y62581D01*
X247066Y62617D01*
X247002Y62650D01*
X246937Y62679D01*
X246871Y62705D01*
X246803Y62728D01*
X246734Y62747D01*
X246664Y62762D01*
X246594Y62773D01*
X246523Y62781D01*
X246452Y62785D01*
X246380Y62785D01*
X246309Y62781D01*
X246238Y62773D01*
X246168Y62762D01*
X246098Y62747D01*
X246029Y62728D01*
X245961Y62705D01*
X245895Y62679D01*
X245830Y62650D01*
X245766Y62617D01*
X245705Y62581D01*
X245645Y62541D01*
X245588Y62499D01*
X245533Y62453D01*
X245480Y62405D01*
X245431Y62354D01*
X245384Y62300D01*
X245340Y62244D01*
X245299Y62185D01*
X245261Y62125D01*
X245226Y62062D01*
X245195Y61998D01*
X245167Y61932D01*
X245143Y61865D01*
X245122Y61797D01*
X245105Y61727D01*
X245092Y61657D01*
X245083Y61587D01*
X245077Y61515D01*
X245075Y61444D01*
X245077Y61373D01*
X245083Y61301D01*
X245092Y61231D01*
X245105Y61161D01*
X245122Y61091D01*
X245143Y61023D01*
X245167Y60956D01*
X245195Y60890D01*
X245226Y60826D01*
X245261Y60763D01*
X245299Y60703D01*
X245340Y60644D01*
X245384Y60588D01*
X245431Y60534D01*
X245480Y60483D01*
X245533Y60435D01*
X245588Y60389D01*
X245645Y60347D01*
X245705Y60307D01*
X245766Y60271D01*
X245830Y60238D01*
X245895Y60209D01*
X245961Y60183D01*
X246029Y60160D01*
X246098Y60141D01*
X246168Y60126D01*
X246238Y60115D01*
X246309Y60107D01*
X246380Y60103D01*
X246452Y60103D01*
X246523Y60107D01*
X246594Y60115D01*
X246664Y60126D01*
X246734Y60141D01*
X246803Y60160D01*
X246871Y60183D01*
X246937Y60209D01*
X247002Y60238D01*
X247066Y60271D01*
X247127Y60307D01*
X247187Y60347D01*
X247244Y60389D01*
X247299Y60435D01*
X247352Y60483D01*
X247401Y60534D01*
X247448Y60588D01*
X247492Y60644D01*
X247533Y60703D01*
X247571Y60763D01*
X247606Y60826D01*
X247637Y60890D01*
X247665Y60956D01*
X247689Y61023D01*
X247710Y61091D01*
X247727Y61161D01*
X247740Y61231D01*
X247749Y61301D01*
X247755Y61373D01*
X247757Y61444D01*
X247488Y63857D02*
X247486Y63922D01*
X247480Y63986D01*
X247470Y64050D01*
X247457Y64114D01*
X247439Y64176D01*
X247418Y64237D01*
X247394Y64297D01*
X247365Y64355D01*
X247333Y64412D01*
X247298Y64466D01*
X247260Y64518D01*
X247218Y64568D01*
X247174Y64615D01*
X247127Y64659D01*
X247077Y64701D01*
X247025Y64739D01*
X246971Y64774D01*
X246914Y64806D01*
X246856Y64835D01*
X246796Y64859D01*
X246735Y64880D01*
X246673Y64898D01*
X246609Y64911D01*
X246545Y64921D01*
X246481Y64927D01*
X246416Y64929D01*
X246351Y64927D01*
X246287Y64921D01*
X246223Y64911D01*
X246159Y64898D01*
X246097Y64880D01*
X246036Y64859D01*
X245976Y64835D01*
X245918Y64806D01*
X245861Y64774D01*
X245807Y64739D01*
X245755Y64701D01*
X245705Y64659D01*
X245658Y64615D01*
X245614Y64568D01*
X245572Y64518D01*
X245534Y64466D01*
X245499Y64412D01*
X245467Y64355D01*
X245438Y64297D01*
X245414Y64237D01*
X245393Y64176D01*
X245375Y64114D01*
X245362Y64050D01*
X245352Y63986D01*
X245346Y63922D01*
X245344Y63857D01*
X245346Y63792D01*
X245352Y63728D01*
X245362Y63664D01*
X245375Y63600D01*
X245393Y63538D01*
X245414Y63477D01*
X245438Y63417D01*
X245467Y63359D01*
X245499Y63302D01*
X245534Y63248D01*
X245572Y63196D01*
X245614Y63146D01*
X245658Y63099D01*
X245705Y63055D01*
X245755Y63013D01*
X245807Y62975D01*
X245861Y62940D01*
X245918Y62908D01*
X245976Y62879D01*
X246036Y62855D01*
X246097Y62834D01*
X246159Y62816D01*
X246223Y62803D01*
X246287Y62793D01*
X246351Y62787D01*
X246416Y62785D01*
X246481Y62787D01*
X246545Y62793D01*
X246609Y62803D01*
X246673Y62816D01*
X246735Y62834D01*
X246796Y62855D01*
X246856Y62879D01*
X246914Y62908D01*
X246971Y62940D01*
X247025Y62975D01*
X247077Y63013D01*
X247127Y63055D01*
X247174Y63099D01*
X247218Y63146D01*
X247260Y63196D01*
X247298Y63248D01*
X247333Y63302D01*
X247365Y63359D01*
X247394Y63417D01*
X247418Y63477D01*
X247439Y63538D01*
X247457Y63600D01*
X247470Y63664D01*
X247480Y63728D01*
X247486Y63792D01*
X247488Y63857D01*
X541703Y245523D02*
X542776Y245523D01*
X542841Y245525D01*
X542905Y245531D01*
X542969Y245541D01*
X543033Y245554D01*
X543095Y245572D01*
X543156Y245593D01*
X543216Y245617D01*
X543274Y245646D01*
X543331Y245678D01*
X543385Y245713D01*
X543437Y245751D01*
X543487Y245793D01*
X543534Y245837D01*
X543578Y245884D01*
X543620Y245934D01*
X543658Y245986D01*
X543693Y246040D01*
X543725Y246097D01*
X543754Y246155D01*
X543778Y246215D01*
X543799Y246276D01*
X543817Y246338D01*
X543830Y246402D01*
X543840Y246466D01*
X543846Y246530D01*
X543848Y246595D01*
X543848Y249277D01*
X543846Y249342D01*
X543840Y249406D01*
X543830Y249470D01*
X543817Y249534D01*
X543799Y249596D01*
X543778Y249657D01*
X543754Y249717D01*
X543725Y249775D01*
X543693Y249832D01*
X543658Y249886D01*
X543620Y249938D01*
X543578Y249988D01*
X543534Y250035D01*
X543487Y250079D01*
X543437Y250121D01*
X543385Y250159D01*
X543331Y250194D01*
X543274Y250226D01*
X543216Y250255D01*
X543156Y250279D01*
X543095Y250300D01*
X543033Y250318D01*
X542969Y250331D01*
X542905Y250341D01*
X542841Y250347D01*
X542776Y250349D01*
X541703Y250349D01*
X537773Y250349D02*
X537705Y250347D01*
X537638Y250341D01*
X537571Y250332D01*
X537504Y250319D01*
X537439Y250302D01*
X537374Y250281D01*
X537311Y250257D01*
X537249Y250229D01*
X537189Y250198D01*
X537131Y250164D01*
X537075Y250126D01*
X537020Y250086D01*
X536969Y250042D01*
X536920Y249995D01*
X536873Y249946D01*
X536829Y249895D01*
X536789Y249840D01*
X536751Y249784D01*
X536717Y249726D01*
X536686Y249666D01*
X536658Y249604D01*
X536634Y249541D01*
X536613Y249476D01*
X536596Y249411D01*
X536583Y249344D01*
X536574Y249277D01*
X536568Y249210D01*
X536566Y249142D01*
X537773Y250349D02*
X537851Y250347D01*
X537929Y250341D01*
X538006Y250331D01*
X538083Y250318D01*
X538159Y250300D01*
X538234Y250279D01*
X538308Y250254D01*
X538380Y250225D01*
X538451Y250193D01*
X538520Y250157D01*
X538588Y250118D01*
X538653Y250075D01*
X538716Y250029D01*
X538777Y249980D01*
X538835Y249928D01*
X538890Y249873D01*
X538943Y249816D01*
X538992Y249756D01*
X539039Y249693D01*
X539082Y249628D01*
X539122Y249562D01*
X539159Y249493D01*
X539192Y249422D01*
X539222Y249350D01*
X539248Y249276D01*
X536968Y248204D02*
X536919Y248253D01*
X536872Y248305D01*
X536829Y248360D01*
X536788Y248417D01*
X536750Y248476D01*
X536716Y248537D01*
X536685Y248600D01*
X536657Y248664D01*
X536633Y248730D01*
X536613Y248796D01*
X536596Y248864D01*
X536583Y248933D01*
X536574Y249002D01*
X536568Y249072D01*
X536566Y249142D01*
X536968Y248204D02*
X539247Y245523D01*
X536566Y245523D01*
X533761Y245523D02*
X532152Y245523D01*
X532087Y245525D01*
X532023Y245531D01*
X531959Y245541D01*
X531895Y245554D01*
X531833Y245572D01*
X531772Y245593D01*
X531712Y245617D01*
X531654Y245646D01*
X531597Y245678D01*
X531543Y245713D01*
X531491Y245751D01*
X531441Y245793D01*
X531394Y245837D01*
X531350Y245884D01*
X531308Y245934D01*
X531270Y245986D01*
X531235Y246040D01*
X531203Y246097D01*
X531174Y246155D01*
X531150Y246215D01*
X531129Y246276D01*
X531111Y246338D01*
X531098Y246402D01*
X531088Y246466D01*
X531082Y246530D01*
X531080Y246595D01*
X531080Y247132D01*
X531082Y247197D01*
X531088Y247261D01*
X531098Y247325D01*
X531111Y247389D01*
X531129Y247451D01*
X531150Y247512D01*
X531174Y247572D01*
X531203Y247630D01*
X531235Y247687D01*
X531270Y247741D01*
X531308Y247793D01*
X531350Y247843D01*
X531394Y247890D01*
X531441Y247934D01*
X531491Y247976D01*
X531543Y248014D01*
X531597Y248049D01*
X531654Y248081D01*
X531712Y248110D01*
X531772Y248134D01*
X531833Y248155D01*
X531895Y248173D01*
X531959Y248186D01*
X532023Y248196D01*
X532087Y248202D01*
X532152Y248204D01*
X533761Y248204D01*
X533761Y250349D01*
X531080Y250349D01*
X527028Y245777D02*
X525955Y245777D01*
X527028Y245777D02*
X527093Y245779D01*
X527157Y245785D01*
X527221Y245795D01*
X527285Y245808D01*
X527347Y245826D01*
X527408Y245847D01*
X527468Y245871D01*
X527526Y245900D01*
X527583Y245932D01*
X527637Y245967D01*
X527689Y246005D01*
X527739Y246047D01*
X527786Y246091D01*
X527830Y246138D01*
X527872Y246188D01*
X527910Y246240D01*
X527945Y246294D01*
X527977Y246351D01*
X528006Y246409D01*
X528030Y246469D01*
X528051Y246530D01*
X528069Y246592D01*
X528082Y246656D01*
X528092Y246720D01*
X528098Y246784D01*
X528100Y246849D01*
X528100Y249531D01*
X528098Y249596D01*
X528092Y249660D01*
X528082Y249724D01*
X528069Y249788D01*
X528051Y249850D01*
X528030Y249911D01*
X528006Y249971D01*
X527977Y250029D01*
X527945Y250086D01*
X527910Y250140D01*
X527872Y250192D01*
X527830Y250242D01*
X527786Y250289D01*
X527739Y250333D01*
X527689Y250375D01*
X527637Y250413D01*
X527583Y250448D01*
X527526Y250480D01*
X527468Y250509D01*
X527408Y250533D01*
X527347Y250554D01*
X527285Y250572D01*
X527221Y250585D01*
X527157Y250595D01*
X527093Y250601D01*
X527028Y250603D01*
X525955Y250603D01*
X522025Y250603D02*
X521957Y250601D01*
X521890Y250595D01*
X521823Y250586D01*
X521756Y250573D01*
X521691Y250556D01*
X521626Y250535D01*
X521563Y250511D01*
X521501Y250483D01*
X521441Y250452D01*
X521383Y250418D01*
X521327Y250380D01*
X521272Y250340D01*
X521221Y250296D01*
X521172Y250249D01*
X521125Y250200D01*
X521081Y250149D01*
X521041Y250094D01*
X521003Y250038D01*
X520969Y249980D01*
X520938Y249920D01*
X520910Y249858D01*
X520886Y249795D01*
X520865Y249730D01*
X520848Y249665D01*
X520835Y249598D01*
X520826Y249531D01*
X520820Y249464D01*
X520818Y249396D01*
X522025Y250603D02*
X522103Y250601D01*
X522181Y250595D01*
X522258Y250585D01*
X522335Y250572D01*
X522411Y250554D01*
X522486Y250533D01*
X522560Y250508D01*
X522632Y250479D01*
X522703Y250447D01*
X522772Y250411D01*
X522840Y250372D01*
X522905Y250329D01*
X522968Y250283D01*
X523029Y250234D01*
X523087Y250182D01*
X523142Y250127D01*
X523195Y250070D01*
X523244Y250010D01*
X523291Y249947D01*
X523334Y249882D01*
X523374Y249816D01*
X523411Y249747D01*
X523444Y249676D01*
X523474Y249604D01*
X523500Y249530D01*
X521220Y248458D02*
X521171Y248507D01*
X521124Y248559D01*
X521081Y248614D01*
X521040Y248671D01*
X521002Y248730D01*
X520968Y248791D01*
X520937Y248854D01*
X520909Y248918D01*
X520885Y248984D01*
X520865Y249050D01*
X520848Y249118D01*
X520835Y249187D01*
X520826Y249256D01*
X520820Y249326D01*
X520818Y249396D01*
X521220Y248458D02*
X523499Y245777D01*
X520818Y245777D01*
X518013Y248458D02*
X516404Y248458D01*
X516339Y248456D01*
X516275Y248450D01*
X516211Y248440D01*
X516147Y248427D01*
X516085Y248409D01*
X516024Y248388D01*
X515964Y248364D01*
X515906Y248335D01*
X515849Y248303D01*
X515795Y248268D01*
X515743Y248230D01*
X515693Y248188D01*
X515646Y248144D01*
X515602Y248097D01*
X515560Y248047D01*
X515522Y247995D01*
X515487Y247941D01*
X515455Y247884D01*
X515426Y247826D01*
X515402Y247766D01*
X515381Y247705D01*
X515363Y247643D01*
X515350Y247579D01*
X515340Y247515D01*
X515334Y247451D01*
X515332Y247386D01*
X515332Y247118D01*
X515331Y247118D02*
X515333Y247047D01*
X515339Y246975D01*
X515348Y246905D01*
X515361Y246835D01*
X515378Y246765D01*
X515399Y246697D01*
X515423Y246630D01*
X515451Y246564D01*
X515482Y246500D01*
X515517Y246437D01*
X515555Y246377D01*
X515596Y246318D01*
X515640Y246262D01*
X515687Y246208D01*
X515736Y246157D01*
X515789Y246109D01*
X515844Y246063D01*
X515901Y246021D01*
X515961Y245981D01*
X516022Y245945D01*
X516086Y245912D01*
X516151Y245883D01*
X516217Y245857D01*
X516285Y245834D01*
X516354Y245815D01*
X516424Y245800D01*
X516494Y245789D01*
X516565Y245781D01*
X516636Y245777D01*
X516708Y245777D01*
X516779Y245781D01*
X516850Y245789D01*
X516920Y245800D01*
X516990Y245815D01*
X517059Y245834D01*
X517127Y245857D01*
X517193Y245883D01*
X517258Y245912D01*
X517322Y245945D01*
X517383Y245981D01*
X517443Y246021D01*
X517500Y246063D01*
X517555Y246109D01*
X517608Y246157D01*
X517657Y246208D01*
X517704Y246262D01*
X517748Y246318D01*
X517789Y246377D01*
X517827Y246437D01*
X517862Y246500D01*
X517893Y246564D01*
X517921Y246630D01*
X517945Y246697D01*
X517966Y246765D01*
X517983Y246835D01*
X517996Y246905D01*
X518005Y246975D01*
X518011Y247047D01*
X518013Y247118D01*
X518013Y248458D01*
X518011Y248549D01*
X518005Y248640D01*
X517996Y248730D01*
X517982Y248821D01*
X517965Y248910D01*
X517944Y248998D01*
X517919Y249086D01*
X517890Y249173D01*
X517858Y249258D01*
X517823Y249342D01*
X517783Y249424D01*
X517741Y249504D01*
X517695Y249583D01*
X517645Y249659D01*
X517593Y249733D01*
X517537Y249806D01*
X517478Y249875D01*
X517417Y249942D01*
X517352Y250007D01*
X517285Y250068D01*
X517216Y250127D01*
X517143Y250183D01*
X517069Y250235D01*
X516993Y250285D01*
X516914Y250331D01*
X516834Y250373D01*
X516752Y250413D01*
X516668Y250448D01*
X516583Y250480D01*
X516496Y250509D01*
X516408Y250534D01*
X516320Y250555D01*
X516231Y250572D01*
X516140Y250586D01*
X516050Y250595D01*
X515959Y250601D01*
X515868Y250603D01*
X542465Y177197D02*
X543538Y177197D01*
X543603Y177199D01*
X543667Y177205D01*
X543731Y177215D01*
X543795Y177228D01*
X543857Y177246D01*
X543918Y177267D01*
X543978Y177291D01*
X544036Y177320D01*
X544093Y177352D01*
X544147Y177387D01*
X544199Y177425D01*
X544249Y177467D01*
X544296Y177511D01*
X544340Y177558D01*
X544382Y177608D01*
X544420Y177660D01*
X544455Y177714D01*
X544487Y177771D01*
X544516Y177829D01*
X544540Y177889D01*
X544561Y177950D01*
X544579Y178012D01*
X544592Y178076D01*
X544602Y178140D01*
X544608Y178204D01*
X544610Y178269D01*
X544610Y180951D01*
X544608Y181016D01*
X544602Y181080D01*
X544592Y181144D01*
X544579Y181208D01*
X544561Y181270D01*
X544540Y181331D01*
X544516Y181391D01*
X544487Y181449D01*
X544455Y181506D01*
X544420Y181560D01*
X544382Y181612D01*
X544340Y181662D01*
X544296Y181709D01*
X544249Y181753D01*
X544199Y181795D01*
X544147Y181833D01*
X544093Y181868D01*
X544036Y181900D01*
X543978Y181929D01*
X543918Y181953D01*
X543857Y181974D01*
X543795Y181992D01*
X543731Y182005D01*
X543667Y182015D01*
X543603Y182021D01*
X543538Y182023D01*
X542465Y182023D01*
X538535Y182023D02*
X538467Y182021D01*
X538400Y182015D01*
X538333Y182006D01*
X538266Y181993D01*
X538201Y181976D01*
X538136Y181955D01*
X538073Y181931D01*
X538011Y181903D01*
X537951Y181872D01*
X537893Y181838D01*
X537837Y181800D01*
X537782Y181760D01*
X537731Y181716D01*
X537682Y181669D01*
X537635Y181620D01*
X537591Y181569D01*
X537551Y181514D01*
X537513Y181458D01*
X537479Y181400D01*
X537448Y181340D01*
X537420Y181278D01*
X537396Y181215D01*
X537375Y181150D01*
X537358Y181085D01*
X537345Y181018D01*
X537336Y180951D01*
X537330Y180884D01*
X537328Y180816D01*
X538535Y182023D02*
X538613Y182021D01*
X538691Y182015D01*
X538768Y182005D01*
X538845Y181992D01*
X538921Y181974D01*
X538996Y181953D01*
X539070Y181928D01*
X539142Y181899D01*
X539213Y181867D01*
X539282Y181831D01*
X539350Y181792D01*
X539415Y181749D01*
X539478Y181703D01*
X539539Y181654D01*
X539597Y181602D01*
X539652Y181547D01*
X539705Y181490D01*
X539754Y181430D01*
X539801Y181367D01*
X539844Y181302D01*
X539884Y181236D01*
X539921Y181167D01*
X539954Y181096D01*
X539984Y181024D01*
X540010Y180950D01*
X537730Y179878D02*
X537681Y179927D01*
X537634Y179979D01*
X537591Y180034D01*
X537550Y180091D01*
X537512Y180150D01*
X537478Y180211D01*
X537447Y180274D01*
X537419Y180338D01*
X537395Y180404D01*
X537375Y180470D01*
X537358Y180538D01*
X537345Y180607D01*
X537336Y180676D01*
X537330Y180746D01*
X537328Y180816D01*
X537730Y179878D02*
X540009Y177197D01*
X537328Y177197D01*
X534523Y181487D02*
X534523Y182023D01*
X531842Y182023D01*
X533183Y177197D01*
X529314Y177451D02*
X528241Y177451D01*
X529314Y177451D02*
X529379Y177453D01*
X529443Y177459D01*
X529507Y177469D01*
X529571Y177482D01*
X529633Y177500D01*
X529694Y177521D01*
X529754Y177545D01*
X529812Y177574D01*
X529869Y177606D01*
X529923Y177641D01*
X529975Y177679D01*
X530025Y177721D01*
X530072Y177765D01*
X530116Y177812D01*
X530158Y177862D01*
X530196Y177914D01*
X530231Y177968D01*
X530263Y178025D01*
X530292Y178083D01*
X530316Y178143D01*
X530337Y178204D01*
X530355Y178266D01*
X530368Y178330D01*
X530378Y178394D01*
X530384Y178458D01*
X530386Y178523D01*
X530386Y181205D01*
X530384Y181270D01*
X530378Y181334D01*
X530368Y181398D01*
X530355Y181462D01*
X530337Y181524D01*
X530316Y181585D01*
X530292Y181645D01*
X530263Y181703D01*
X530231Y181760D01*
X530196Y181814D01*
X530158Y181866D01*
X530116Y181916D01*
X530072Y181963D01*
X530025Y182007D01*
X529975Y182049D01*
X529923Y182087D01*
X529869Y182122D01*
X529812Y182154D01*
X529754Y182183D01*
X529694Y182207D01*
X529633Y182228D01*
X529571Y182246D01*
X529507Y182259D01*
X529443Y182269D01*
X529379Y182275D01*
X529314Y182277D01*
X528241Y182277D01*
X524311Y182277D02*
X524243Y182275D01*
X524176Y182269D01*
X524109Y182260D01*
X524042Y182247D01*
X523977Y182230D01*
X523912Y182209D01*
X523849Y182185D01*
X523787Y182157D01*
X523727Y182126D01*
X523669Y182092D01*
X523613Y182054D01*
X523558Y182014D01*
X523507Y181970D01*
X523458Y181923D01*
X523411Y181874D01*
X523367Y181823D01*
X523327Y181768D01*
X523289Y181712D01*
X523255Y181654D01*
X523224Y181594D01*
X523196Y181532D01*
X523172Y181469D01*
X523151Y181404D01*
X523134Y181339D01*
X523121Y181272D01*
X523112Y181205D01*
X523106Y181138D01*
X523104Y181070D01*
X524311Y182277D02*
X524389Y182275D01*
X524467Y182269D01*
X524544Y182259D01*
X524621Y182246D01*
X524697Y182228D01*
X524772Y182207D01*
X524846Y182182D01*
X524918Y182153D01*
X524989Y182121D01*
X525058Y182085D01*
X525126Y182046D01*
X525191Y182003D01*
X525254Y181957D01*
X525315Y181908D01*
X525373Y181856D01*
X525428Y181801D01*
X525481Y181744D01*
X525530Y181684D01*
X525577Y181621D01*
X525620Y181556D01*
X525660Y181490D01*
X525697Y181421D01*
X525730Y181350D01*
X525760Y181278D01*
X525786Y181205D01*
X523506Y180132D02*
X523457Y180181D01*
X523410Y180233D01*
X523367Y180288D01*
X523326Y180345D01*
X523288Y180404D01*
X523254Y180465D01*
X523223Y180528D01*
X523195Y180592D01*
X523171Y180658D01*
X523151Y180724D01*
X523134Y180792D01*
X523121Y180861D01*
X523112Y180930D01*
X523106Y181000D01*
X523104Y181070D01*
X523506Y180132D02*
X525785Y177451D01*
X523104Y177451D01*
X520299Y178792D02*
X520297Y178863D01*
X520291Y178935D01*
X520282Y179005D01*
X520269Y179075D01*
X520252Y179145D01*
X520231Y179213D01*
X520207Y179280D01*
X520179Y179346D01*
X520148Y179410D01*
X520113Y179473D01*
X520075Y179533D01*
X520034Y179592D01*
X519990Y179648D01*
X519943Y179702D01*
X519894Y179753D01*
X519841Y179801D01*
X519786Y179847D01*
X519729Y179889D01*
X519669Y179929D01*
X519608Y179965D01*
X519544Y179998D01*
X519479Y180027D01*
X519413Y180053D01*
X519345Y180076D01*
X519276Y180095D01*
X519206Y180110D01*
X519136Y180121D01*
X519065Y180129D01*
X518994Y180133D01*
X518922Y180133D01*
X518851Y180129D01*
X518780Y180121D01*
X518710Y180110D01*
X518640Y180095D01*
X518571Y180076D01*
X518503Y180053D01*
X518437Y180027D01*
X518372Y179998D01*
X518308Y179965D01*
X518247Y179929D01*
X518187Y179889D01*
X518130Y179847D01*
X518075Y179801D01*
X518022Y179753D01*
X517973Y179702D01*
X517926Y179648D01*
X517882Y179592D01*
X517841Y179533D01*
X517803Y179473D01*
X517768Y179410D01*
X517737Y179346D01*
X517709Y179280D01*
X517685Y179213D01*
X517664Y179145D01*
X517647Y179075D01*
X517634Y179005D01*
X517625Y178935D01*
X517619Y178863D01*
X517617Y178792D01*
X517619Y178721D01*
X517625Y178649D01*
X517634Y178579D01*
X517647Y178509D01*
X517664Y178439D01*
X517685Y178371D01*
X517709Y178304D01*
X517737Y178238D01*
X517768Y178174D01*
X517803Y178111D01*
X517841Y178051D01*
X517882Y177992D01*
X517926Y177936D01*
X517973Y177882D01*
X518022Y177831D01*
X518075Y177783D01*
X518130Y177737D01*
X518187Y177695D01*
X518247Y177655D01*
X518308Y177619D01*
X518372Y177586D01*
X518437Y177557D01*
X518503Y177531D01*
X518571Y177508D01*
X518640Y177489D01*
X518710Y177474D01*
X518780Y177463D01*
X518851Y177455D01*
X518922Y177451D01*
X518994Y177451D01*
X519065Y177455D01*
X519136Y177463D01*
X519206Y177474D01*
X519276Y177489D01*
X519345Y177508D01*
X519413Y177531D01*
X519479Y177557D01*
X519544Y177586D01*
X519608Y177619D01*
X519669Y177655D01*
X519729Y177695D01*
X519786Y177737D01*
X519841Y177783D01*
X519894Y177831D01*
X519943Y177882D01*
X519990Y177936D01*
X520034Y177992D01*
X520075Y178051D01*
X520113Y178111D01*
X520148Y178174D01*
X520179Y178238D01*
X520207Y178304D01*
X520231Y178371D01*
X520252Y178439D01*
X520269Y178509D01*
X520282Y178579D01*
X520291Y178649D01*
X520297Y178721D01*
X520299Y178792D01*
X520030Y181205D02*
X520028Y181270D01*
X520022Y181334D01*
X520012Y181398D01*
X519999Y181462D01*
X519981Y181524D01*
X519960Y181585D01*
X519936Y181645D01*
X519907Y181703D01*
X519875Y181760D01*
X519840Y181814D01*
X519802Y181866D01*
X519760Y181916D01*
X519716Y181963D01*
X519669Y182007D01*
X519619Y182049D01*
X519567Y182087D01*
X519513Y182122D01*
X519456Y182154D01*
X519398Y182183D01*
X519338Y182207D01*
X519277Y182228D01*
X519215Y182246D01*
X519151Y182259D01*
X519087Y182269D01*
X519023Y182275D01*
X518958Y182277D01*
X518893Y182275D01*
X518829Y182269D01*
X518765Y182259D01*
X518701Y182246D01*
X518639Y182228D01*
X518578Y182207D01*
X518518Y182183D01*
X518460Y182154D01*
X518403Y182122D01*
X518349Y182087D01*
X518297Y182049D01*
X518247Y182007D01*
X518200Y181963D01*
X518156Y181916D01*
X518114Y181866D01*
X518076Y181814D01*
X518041Y181760D01*
X518009Y181703D01*
X517980Y181645D01*
X517956Y181585D01*
X517935Y181524D01*
X517917Y181462D01*
X517904Y181398D01*
X517894Y181334D01*
X517888Y181270D01*
X517886Y181205D01*
X517888Y181140D01*
X517894Y181076D01*
X517904Y181012D01*
X517917Y180948D01*
X517935Y180886D01*
X517956Y180825D01*
X517980Y180765D01*
X518009Y180707D01*
X518041Y180650D01*
X518076Y180596D01*
X518114Y180544D01*
X518156Y180494D01*
X518200Y180447D01*
X518247Y180403D01*
X518297Y180361D01*
X518349Y180323D01*
X518403Y180288D01*
X518460Y180256D01*
X518518Y180227D01*
X518578Y180203D01*
X518639Y180182D01*
X518701Y180164D01*
X518765Y180151D01*
X518829Y180141D01*
X518893Y180135D01*
X518958Y180133D01*
X519023Y180135D01*
X519087Y180141D01*
X519151Y180151D01*
X519215Y180164D01*
X519277Y180182D01*
X519338Y180203D01*
X519398Y180227D01*
X519456Y180256D01*
X519513Y180288D01*
X519567Y180323D01*
X519619Y180361D01*
X519669Y180403D01*
X519716Y180447D01*
X519760Y180494D01*
X519802Y180544D01*
X519840Y180596D01*
X519875Y180650D01*
X519907Y180707D01*
X519936Y180765D01*
X519960Y180825D01*
X519981Y180886D01*
X519999Y180948D01*
X520012Y181012D01*
X520022Y181076D01*
X520028Y181140D01*
X520030Y181205D01*
X241278Y114967D02*
X240205Y114967D01*
X241278Y114967D02*
X241343Y114969D01*
X241407Y114975D01*
X241471Y114985D01*
X241535Y114998D01*
X241597Y115016D01*
X241658Y115037D01*
X241718Y115061D01*
X241776Y115090D01*
X241833Y115122D01*
X241887Y115157D01*
X241939Y115195D01*
X241989Y115237D01*
X242036Y115281D01*
X242080Y115328D01*
X242122Y115378D01*
X242160Y115430D01*
X242195Y115484D01*
X242227Y115541D01*
X242256Y115599D01*
X242280Y115659D01*
X242301Y115720D01*
X242319Y115782D01*
X242332Y115846D01*
X242342Y115910D01*
X242348Y115974D01*
X242350Y116039D01*
X242350Y118721D01*
X242348Y118786D01*
X242342Y118850D01*
X242332Y118914D01*
X242319Y118978D01*
X242301Y119040D01*
X242280Y119101D01*
X242256Y119161D01*
X242227Y119219D01*
X242195Y119276D01*
X242160Y119330D01*
X242122Y119382D01*
X242080Y119432D01*
X242036Y119479D01*
X241989Y119523D01*
X241939Y119565D01*
X241887Y119603D01*
X241833Y119638D01*
X241776Y119670D01*
X241718Y119699D01*
X241658Y119723D01*
X241597Y119744D01*
X241535Y119762D01*
X241471Y119775D01*
X241407Y119785D01*
X241343Y119791D01*
X241278Y119793D01*
X240205Y119793D01*
X236275Y119793D02*
X236207Y119791D01*
X236140Y119785D01*
X236073Y119776D01*
X236006Y119763D01*
X235941Y119746D01*
X235876Y119725D01*
X235813Y119701D01*
X235751Y119673D01*
X235691Y119642D01*
X235633Y119608D01*
X235577Y119570D01*
X235522Y119530D01*
X235471Y119486D01*
X235422Y119439D01*
X235375Y119390D01*
X235331Y119339D01*
X235291Y119284D01*
X235253Y119228D01*
X235219Y119170D01*
X235188Y119110D01*
X235160Y119048D01*
X235136Y118985D01*
X235115Y118920D01*
X235098Y118855D01*
X235085Y118788D01*
X235076Y118721D01*
X235070Y118654D01*
X235068Y118586D01*
X236275Y119793D02*
X236353Y119791D01*
X236431Y119785D01*
X236508Y119775D01*
X236585Y119762D01*
X236661Y119744D01*
X236736Y119723D01*
X236810Y119698D01*
X236882Y119669D01*
X236953Y119637D01*
X237022Y119601D01*
X237090Y119562D01*
X237155Y119519D01*
X237218Y119473D01*
X237279Y119424D01*
X237337Y119372D01*
X237392Y119317D01*
X237445Y119260D01*
X237494Y119200D01*
X237541Y119137D01*
X237584Y119072D01*
X237624Y119006D01*
X237661Y118937D01*
X237694Y118866D01*
X237724Y118794D01*
X237750Y118720D01*
X235470Y117648D02*
X235421Y117697D01*
X235374Y117749D01*
X235331Y117804D01*
X235290Y117861D01*
X235252Y117920D01*
X235218Y117981D01*
X235187Y118044D01*
X235159Y118108D01*
X235135Y118174D01*
X235115Y118240D01*
X235098Y118308D01*
X235085Y118377D01*
X235076Y118446D01*
X235070Y118516D01*
X235068Y118586D01*
X235470Y117648D02*
X237749Y114967D01*
X235068Y114967D01*
X231191Y117112D02*
X229582Y117112D01*
X231191Y117112D02*
X231256Y117114D01*
X231320Y117120D01*
X231384Y117130D01*
X231448Y117143D01*
X231510Y117161D01*
X231571Y117182D01*
X231631Y117206D01*
X231689Y117235D01*
X231746Y117267D01*
X231800Y117302D01*
X231852Y117340D01*
X231902Y117382D01*
X231949Y117426D01*
X231993Y117473D01*
X232035Y117523D01*
X232073Y117575D01*
X232108Y117629D01*
X232140Y117686D01*
X232169Y117744D01*
X232193Y117804D01*
X232214Y117865D01*
X232232Y117927D01*
X232245Y117991D01*
X232255Y118055D01*
X232261Y118119D01*
X232263Y118184D01*
X232263Y118452D01*
X232261Y118523D01*
X232255Y118595D01*
X232246Y118665D01*
X232233Y118735D01*
X232216Y118805D01*
X232195Y118873D01*
X232171Y118940D01*
X232143Y119006D01*
X232112Y119070D01*
X232077Y119133D01*
X232039Y119193D01*
X231998Y119252D01*
X231954Y119308D01*
X231907Y119362D01*
X231858Y119413D01*
X231805Y119461D01*
X231750Y119507D01*
X231693Y119549D01*
X231633Y119589D01*
X231572Y119625D01*
X231508Y119658D01*
X231443Y119687D01*
X231377Y119713D01*
X231309Y119736D01*
X231240Y119755D01*
X231170Y119770D01*
X231100Y119781D01*
X231029Y119789D01*
X230958Y119793D01*
X230886Y119793D01*
X230815Y119789D01*
X230744Y119781D01*
X230674Y119770D01*
X230604Y119755D01*
X230535Y119736D01*
X230467Y119713D01*
X230401Y119687D01*
X230336Y119658D01*
X230272Y119625D01*
X230211Y119589D01*
X230151Y119549D01*
X230094Y119507D01*
X230039Y119461D01*
X229986Y119413D01*
X229937Y119362D01*
X229890Y119308D01*
X229846Y119252D01*
X229805Y119193D01*
X229767Y119133D01*
X229732Y119070D01*
X229701Y119006D01*
X229673Y118940D01*
X229649Y118873D01*
X229628Y118805D01*
X229611Y118735D01*
X229598Y118665D01*
X229589Y118595D01*
X229583Y118523D01*
X229581Y118452D01*
X229582Y118452D02*
X229582Y117112D01*
X229584Y117021D01*
X229590Y116930D01*
X229599Y116840D01*
X229613Y116749D01*
X229630Y116660D01*
X229651Y116572D01*
X229676Y116484D01*
X229705Y116397D01*
X229737Y116312D01*
X229772Y116228D01*
X229812Y116146D01*
X229854Y116066D01*
X229900Y115987D01*
X229950Y115911D01*
X230002Y115837D01*
X230058Y115764D01*
X230117Y115695D01*
X230178Y115628D01*
X230243Y115563D01*
X230310Y115502D01*
X230379Y115443D01*
X230452Y115387D01*
X230526Y115335D01*
X230602Y115285D01*
X230681Y115239D01*
X230761Y115197D01*
X230843Y115157D01*
X230927Y115122D01*
X231012Y115090D01*
X231099Y115061D01*
X231187Y115036D01*
X231275Y115015D01*
X231364Y114998D01*
X231455Y114984D01*
X231545Y114975D01*
X231636Y114969D01*
X231727Y114967D01*
X254683Y114713D02*
X255756Y114713D01*
X255821Y114715D01*
X255885Y114721D01*
X255949Y114731D01*
X256013Y114744D01*
X256075Y114762D01*
X256136Y114783D01*
X256196Y114807D01*
X256254Y114836D01*
X256311Y114868D01*
X256365Y114903D01*
X256417Y114941D01*
X256467Y114983D01*
X256514Y115027D01*
X256558Y115074D01*
X256600Y115124D01*
X256638Y115176D01*
X256673Y115230D01*
X256705Y115287D01*
X256734Y115345D01*
X256758Y115405D01*
X256779Y115466D01*
X256797Y115528D01*
X256810Y115592D01*
X256820Y115656D01*
X256826Y115720D01*
X256828Y115785D01*
X256828Y118467D01*
X256826Y118532D01*
X256820Y118596D01*
X256810Y118660D01*
X256797Y118724D01*
X256779Y118786D01*
X256758Y118847D01*
X256734Y118907D01*
X256705Y118965D01*
X256673Y119022D01*
X256638Y119076D01*
X256600Y119128D01*
X256558Y119178D01*
X256514Y119225D01*
X256467Y119269D01*
X256417Y119311D01*
X256365Y119349D01*
X256311Y119384D01*
X256254Y119416D01*
X256196Y119445D01*
X256136Y119469D01*
X256075Y119490D01*
X256013Y119508D01*
X255949Y119521D01*
X255885Y119531D01*
X255821Y119537D01*
X255756Y119539D01*
X254683Y119539D01*
X252227Y114713D02*
X250887Y114713D01*
X250816Y114715D01*
X250744Y114721D01*
X250674Y114730D01*
X250604Y114743D01*
X250534Y114760D01*
X250466Y114781D01*
X250399Y114805D01*
X250333Y114833D01*
X250269Y114864D01*
X250206Y114899D01*
X250146Y114937D01*
X250087Y114978D01*
X250031Y115022D01*
X249977Y115069D01*
X249926Y115118D01*
X249878Y115171D01*
X249832Y115226D01*
X249790Y115283D01*
X249750Y115343D01*
X249714Y115404D01*
X249681Y115468D01*
X249652Y115533D01*
X249626Y115599D01*
X249603Y115667D01*
X249584Y115736D01*
X249569Y115806D01*
X249558Y115876D01*
X249550Y115947D01*
X249546Y116018D01*
X249546Y116090D01*
X249550Y116161D01*
X249558Y116232D01*
X249569Y116302D01*
X249584Y116372D01*
X249603Y116441D01*
X249626Y116509D01*
X249652Y116575D01*
X249681Y116640D01*
X249714Y116704D01*
X249750Y116765D01*
X249790Y116825D01*
X249832Y116882D01*
X249878Y116937D01*
X249926Y116990D01*
X249977Y117039D01*
X250031Y117086D01*
X250087Y117130D01*
X250146Y117171D01*
X250206Y117209D01*
X250269Y117244D01*
X250333Y117275D01*
X250399Y117303D01*
X250466Y117327D01*
X250534Y117348D01*
X250604Y117365D01*
X250674Y117378D01*
X250744Y117387D01*
X250816Y117393D01*
X250887Y117395D01*
X250619Y119539D02*
X252227Y119539D01*
X250619Y119539D02*
X250554Y119537D01*
X250490Y119531D01*
X250426Y119521D01*
X250362Y119508D01*
X250300Y119490D01*
X250239Y119469D01*
X250179Y119445D01*
X250121Y119416D01*
X250064Y119384D01*
X250010Y119349D01*
X249958Y119311D01*
X249908Y119269D01*
X249861Y119225D01*
X249817Y119178D01*
X249775Y119128D01*
X249737Y119076D01*
X249702Y119022D01*
X249670Y118965D01*
X249641Y118907D01*
X249617Y118847D01*
X249596Y118786D01*
X249578Y118724D01*
X249565Y118660D01*
X249555Y118596D01*
X249549Y118532D01*
X249547Y118467D01*
X249549Y118402D01*
X249555Y118338D01*
X249565Y118274D01*
X249578Y118210D01*
X249596Y118148D01*
X249617Y118087D01*
X249641Y118027D01*
X249670Y117969D01*
X249702Y117912D01*
X249737Y117858D01*
X249775Y117806D01*
X249817Y117756D01*
X249861Y117709D01*
X249908Y117665D01*
X249958Y117623D01*
X250010Y117585D01*
X250064Y117550D01*
X250121Y117518D01*
X250179Y117489D01*
X250239Y117465D01*
X250300Y117444D01*
X250362Y117426D01*
X250426Y117413D01*
X250490Y117403D01*
X250554Y117397D01*
X250619Y117395D01*
X250619Y117394D02*
X251691Y117394D01*
X246741Y117126D02*
X246739Y117246D01*
X246734Y117366D01*
X246725Y117486D01*
X246712Y117606D01*
X246696Y117725D01*
X246676Y117844D01*
X246652Y117962D01*
X246625Y118079D01*
X246595Y118195D01*
X246561Y118310D01*
X246523Y118425D01*
X246482Y118538D01*
X246438Y118649D01*
X246390Y118760D01*
X246339Y118869D01*
X246318Y118926D01*
X246292Y118982D01*
X246264Y119037D01*
X246232Y119089D01*
X246196Y119140D01*
X246158Y119188D01*
X246117Y119234D01*
X246073Y119277D01*
X246027Y119317D01*
X245978Y119354D01*
X245926Y119388D01*
X245873Y119419D01*
X245818Y119447D01*
X245762Y119471D01*
X245704Y119492D01*
X245645Y119509D01*
X245585Y119522D01*
X245524Y119531D01*
X245462Y119537D01*
X245401Y119539D01*
X245340Y119537D01*
X245278Y119531D01*
X245217Y119522D01*
X245157Y119509D01*
X245098Y119492D01*
X245040Y119471D01*
X244984Y119447D01*
X244929Y119419D01*
X244876Y119388D01*
X244824Y119354D01*
X244776Y119317D01*
X244729Y119277D01*
X244685Y119234D01*
X244644Y119188D01*
X244606Y119140D01*
X244570Y119089D01*
X244538Y119037D01*
X244510Y118982D01*
X244484Y118926D01*
X244463Y118869D01*
X244462Y118869D02*
X244411Y118760D01*
X244363Y118649D01*
X244319Y118538D01*
X244278Y118425D01*
X244240Y118310D01*
X244206Y118195D01*
X244176Y118079D01*
X244149Y117962D01*
X244125Y117844D01*
X244105Y117725D01*
X244089Y117606D01*
X244076Y117486D01*
X244067Y117366D01*
X244062Y117246D01*
X244060Y117126D01*
X246741Y117126D02*
X246739Y117006D01*
X246734Y116886D01*
X246725Y116766D01*
X246712Y116646D01*
X246696Y116527D01*
X246676Y116408D01*
X246652Y116290D01*
X246625Y116173D01*
X246595Y116057D01*
X246561Y115942D01*
X246523Y115827D01*
X246482Y115714D01*
X246438Y115603D01*
X246390Y115492D01*
X246339Y115383D01*
X246318Y115326D01*
X246292Y115270D01*
X246264Y115215D01*
X246232Y115163D01*
X246196Y115112D01*
X246158Y115064D01*
X246117Y115018D01*
X246073Y114975D01*
X246027Y114935D01*
X245978Y114898D01*
X245926Y114864D01*
X245873Y114833D01*
X245818Y114805D01*
X245762Y114781D01*
X245704Y114760D01*
X245645Y114743D01*
X245585Y114730D01*
X245524Y114721D01*
X245462Y114715D01*
X245401Y114713D01*
X244462Y115383D02*
X244411Y115492D01*
X244363Y115603D01*
X244319Y115714D01*
X244278Y115827D01*
X244240Y115942D01*
X244206Y116057D01*
X244176Y116173D01*
X244149Y116290D01*
X244125Y116408D01*
X244105Y116527D01*
X244089Y116646D01*
X244076Y116766D01*
X244067Y116886D01*
X244062Y117006D01*
X244060Y117126D01*
X244463Y115383D02*
X244484Y115326D01*
X244510Y115270D01*
X244538Y115215D01*
X244570Y115163D01*
X244606Y115112D01*
X244644Y115064D01*
X244685Y115018D01*
X244729Y114975D01*
X244776Y114935D01*
X244824Y114898D01*
X244876Y114864D01*
X244929Y114833D01*
X244984Y114805D01*
X245040Y114781D01*
X245098Y114760D01*
X245157Y114743D01*
X245217Y114730D01*
X245278Y114721D01*
X245340Y114715D01*
X245401Y114713D01*
X246473Y115785D02*
X244328Y118467D01*
M02*
