G04 EAGLE Gerber RS-274X export*
G75*
%MOMM*%
%FSLAX34Y34*%
%LPD*%
%INSolderpaste Top*%
%IPPOS*%
%AMOC8*
5,1,8,0,0,1.08239X$1,22.5*%
G01*
%ADD10R,3.429000X4.495800*%
%ADD11R,1.250000X0.250000*%
%ADD12R,2.050000X1.650000*%
%ADD13R,1.676400X0.279400*%
%ADD14R,0.600000X0.600000*%


D10*
X207391Y-68707D03*
X93853Y-68707D03*
X695579Y-70739D03*
X205613Y312293D03*
D11*
X100318Y212120D03*
X100318Y207120D03*
X100318Y202120D03*
X100318Y197120D03*
X100318Y192120D03*
X100318Y187120D03*
X100318Y182120D03*
X100318Y177120D03*
X100318Y172120D03*
X100318Y167120D03*
X100318Y162120D03*
X100318Y157120D03*
X100318Y152120D03*
X100318Y147120D03*
X100318Y142120D03*
X100318Y137120D03*
X100318Y132120D03*
X100318Y127120D03*
X100318Y122120D03*
X100318Y117120D03*
X100318Y112120D03*
X100318Y107120D03*
X100318Y102120D03*
X100318Y97120D03*
X100318Y92120D03*
X100318Y87120D03*
X100318Y82120D03*
X100318Y77120D03*
X100318Y72120D03*
X100318Y67120D03*
X100318Y62120D03*
X100318Y57120D03*
D12*
X67818Y38120D03*
X67818Y231120D03*
D11*
X692670Y53564D03*
X692670Y58564D03*
X692670Y63564D03*
X692670Y68564D03*
X692670Y73564D03*
X692670Y78564D03*
X692670Y83564D03*
X692670Y88564D03*
X692670Y93564D03*
X692670Y98564D03*
X692670Y103564D03*
X692670Y108564D03*
X692670Y113564D03*
X692670Y118564D03*
X692670Y123564D03*
X692670Y128564D03*
X692670Y133564D03*
X692670Y138564D03*
X692670Y143564D03*
X692670Y148564D03*
X692670Y153564D03*
X692670Y158564D03*
X692670Y163564D03*
X692670Y168564D03*
X692670Y173564D03*
X692670Y178564D03*
X692670Y183564D03*
X692670Y188564D03*
X692670Y193564D03*
X692670Y198564D03*
X692670Y203564D03*
X692670Y208564D03*
D12*
X725170Y227564D03*
X725170Y34564D03*
D13*
X627761Y143414D03*
X627761Y148414D03*
X627761Y153414D03*
X627761Y158414D03*
X627761Y163414D03*
X627761Y168414D03*
X627761Y173414D03*
X627761Y178414D03*
X627761Y183414D03*
X627761Y188414D03*
X627761Y193414D03*
X627761Y198414D03*
X627761Y203414D03*
X627761Y208414D03*
X627761Y213414D03*
X627761Y218414D03*
X627761Y223414D03*
X627761Y228414D03*
X627761Y233414D03*
X627761Y238414D03*
X627761Y243414D03*
X627761Y248414D03*
X627761Y253414D03*
X627761Y258414D03*
X554355Y258414D03*
X554355Y253414D03*
X554355Y248414D03*
X554355Y243414D03*
X554355Y238414D03*
X554355Y233414D03*
X554355Y228414D03*
X554355Y223414D03*
X554355Y218414D03*
X554355Y213414D03*
X554355Y208414D03*
X554355Y203414D03*
X554355Y198414D03*
X554355Y193414D03*
X554355Y188414D03*
X554355Y183414D03*
X554355Y178414D03*
X554355Y173414D03*
X554355Y168414D03*
X554355Y163414D03*
X554355Y158414D03*
X554355Y153414D03*
X554355Y148414D03*
X554355Y143414D03*
X149987Y258160D03*
X149987Y253160D03*
X149987Y248160D03*
X149987Y243160D03*
X149987Y238160D03*
X149987Y233160D03*
X149987Y228160D03*
X149987Y223160D03*
X149987Y218160D03*
X149987Y213160D03*
X149987Y208160D03*
X149987Y203160D03*
X149987Y198160D03*
X149987Y193160D03*
X149987Y188160D03*
X149987Y183160D03*
X149987Y178160D03*
X149987Y173160D03*
X149987Y168160D03*
X149987Y163160D03*
X149987Y158160D03*
X149987Y153160D03*
X149987Y148160D03*
X149987Y143160D03*
X223393Y143160D03*
X223393Y148160D03*
X223393Y153160D03*
X223393Y158160D03*
X223393Y163160D03*
X223393Y168160D03*
X223393Y173160D03*
X223393Y178160D03*
X223393Y183160D03*
X223393Y188160D03*
X223393Y193160D03*
X223393Y198160D03*
X223393Y203160D03*
X223393Y208160D03*
X223393Y213160D03*
X223393Y218160D03*
X223393Y223160D03*
X223393Y228160D03*
X223393Y233160D03*
X223393Y238160D03*
X223393Y243160D03*
X223393Y248160D03*
X223393Y253160D03*
X223393Y258160D03*
X627761Y11588D03*
X627761Y16588D03*
X627761Y21588D03*
X627761Y26588D03*
X627761Y31588D03*
X627761Y36588D03*
X627761Y41588D03*
X627761Y46588D03*
X627761Y51588D03*
X627761Y56588D03*
X627761Y61588D03*
X627761Y66588D03*
X627761Y71588D03*
X627761Y76588D03*
X627761Y81588D03*
X627761Y86588D03*
X627761Y91588D03*
X627761Y96588D03*
X627761Y101588D03*
X627761Y106588D03*
X627761Y111588D03*
X627761Y116588D03*
X627761Y121588D03*
X627761Y126588D03*
X554355Y126588D03*
X554355Y121588D03*
X554355Y116588D03*
X554355Y111588D03*
X554355Y106588D03*
X554355Y101588D03*
X554355Y96588D03*
X554355Y91588D03*
X554355Y86588D03*
X554355Y81588D03*
X554355Y76588D03*
X554355Y71588D03*
X554355Y66588D03*
X554355Y61588D03*
X554355Y56588D03*
X554355Y51588D03*
X554355Y46588D03*
X554355Y41588D03*
X554355Y36588D03*
X554355Y31588D03*
X554355Y26588D03*
X554355Y21588D03*
X554355Y16588D03*
X554355Y11588D03*
X149987Y126334D03*
X149987Y121334D03*
X149987Y116334D03*
X149987Y111334D03*
X149987Y106334D03*
X149987Y101334D03*
X149987Y96334D03*
X149987Y91334D03*
X149987Y86334D03*
X149987Y81334D03*
X149987Y76334D03*
X149987Y71334D03*
X149987Y66334D03*
X149987Y61334D03*
X149987Y56334D03*
X149987Y51334D03*
X149987Y46334D03*
X149987Y41334D03*
X149987Y36334D03*
X149987Y31334D03*
X149987Y26334D03*
X149987Y21334D03*
X149987Y16334D03*
X149987Y11334D03*
X223393Y11334D03*
X223393Y16334D03*
X223393Y21334D03*
X223393Y26334D03*
X223393Y31334D03*
X223393Y36334D03*
X223393Y41334D03*
X223393Y46334D03*
X223393Y51334D03*
X223393Y56334D03*
X223393Y61334D03*
X223393Y66334D03*
X223393Y71334D03*
X223393Y76334D03*
X223393Y81334D03*
X223393Y86334D03*
X223393Y91334D03*
X223393Y96334D03*
X223393Y101334D03*
X223393Y106334D03*
X223393Y111334D03*
X223393Y116334D03*
X223393Y121334D03*
X223393Y126334D03*
D14*
X524764Y23956D03*
X524764Y33956D03*
X514858Y23956D03*
X514858Y33956D03*
X237490Y240712D03*
X237490Y230712D03*
X247142Y240712D03*
X247142Y230712D03*
X238506Y160608D03*
X238506Y170608D03*
X248412Y160608D03*
X248412Y170608D03*
X531368Y107616D03*
X531368Y97616D03*
X521716Y107616D03*
X521716Y97616D03*
M02*
