G04 EAGLE Gerber RS-274X export*
G75*
%MOMM*%
%FSLAX34Y34*%
%LPD*%
%INSolderpaste Bottom*%
%IPPOS*%
%AMOC8*
5,1,8,0,0,1.08239X$1,22.5*%
G01*
%ADD10R,3.429000X4.495800*%
%ADD11R,0.600000X0.600000*%


D10*
X205613Y312293D03*
D11*
X650494Y108886D03*
X650494Y98886D03*
X659892Y108886D03*
X659892Y98886D03*
X651002Y54530D03*
X651002Y44530D03*
X660654Y54530D03*
X660654Y44530D03*
X642874Y160354D03*
X642874Y170354D03*
X652526Y160354D03*
X652526Y170354D03*
X135382Y53768D03*
X135382Y43768D03*
X125730Y53768D03*
X125730Y43768D03*
X135382Y240712D03*
X135382Y230712D03*
X125730Y240712D03*
X125730Y230712D03*
X135636Y160608D03*
X135636Y170608D03*
X125984Y160608D03*
X125984Y170608D03*
X642366Y240712D03*
X642366Y230712D03*
X652018Y240712D03*
X652018Y230712D03*
X135382Y107870D03*
X135382Y97870D03*
X125984Y107870D03*
X125984Y97870D03*
X237490Y53768D03*
X237490Y43768D03*
X247142Y53768D03*
X247142Y43768D03*
X534924Y239696D03*
X534924Y229696D03*
X525272Y239696D03*
X525272Y229696D03*
X536448Y161624D03*
X536448Y171624D03*
X526796Y161624D03*
X526796Y171624D03*
X237744Y108632D03*
X237744Y98632D03*
X247396Y108632D03*
X247396Y98632D03*
M02*
