G04 EAGLE Gerber RS-274X export*
G75*
%MOMM*%
%FSLAX34Y34*%
%LPD*%
%INSoldermask Top*%
%IPPOS*%
%AMOC8*
5,1,8,0,0,1.08239X$1,22.5*%
G01*
%ADD10P,1.869504X8X292.500000*%
%ADD11P,1.869504X8X112.500000*%
%ADD12R,1.400000X0.400000*%
%ADD13R,2.350000X1.900000*%
%ADD14R,1.879600X0.482600*%
%ADD15R,0.803200X0.803200*%
%ADD16C,0.959600*%


D10*
X334518Y322580D03*
X334518Y297180D03*
X334518Y271780D03*
X334518Y246380D03*
X334518Y220980D03*
X334518Y195580D03*
X359918Y322580D03*
X359918Y297180D03*
X359918Y271780D03*
X359918Y246380D03*
X359918Y220980D03*
X359918Y195580D03*
X334518Y170180D03*
X359918Y170180D03*
X334518Y144780D03*
X334518Y119380D03*
X334518Y93980D03*
X334518Y68580D03*
X334518Y43180D03*
X334518Y17780D03*
X359918Y144780D03*
X359918Y119380D03*
X359918Y93980D03*
X359918Y68580D03*
X359918Y43180D03*
X359918Y17780D03*
X334518Y-7620D03*
X359918Y-7620D03*
X334518Y-33020D03*
X334518Y-58420D03*
X334518Y-83820D03*
X359918Y-33020D03*
X359918Y-58420D03*
X359918Y-83820D03*
X334518Y-109220D03*
X359918Y-109220D03*
D11*
X433578Y-108712D03*
X433578Y-83312D03*
X433578Y-57912D03*
X433578Y-32512D03*
X433578Y-7112D03*
X433578Y18288D03*
X408178Y-108712D03*
X408178Y-83312D03*
X408178Y-57912D03*
X408178Y-32512D03*
X408178Y-7112D03*
X408178Y18288D03*
X433578Y43688D03*
X408178Y43688D03*
X433578Y69088D03*
X433578Y94488D03*
X433578Y119888D03*
X433578Y145288D03*
X433578Y170688D03*
X433578Y196088D03*
X408178Y69088D03*
X408178Y94488D03*
X408178Y119888D03*
X408178Y145288D03*
X408178Y170688D03*
X408178Y196088D03*
X433578Y221488D03*
X408178Y221488D03*
X433578Y246888D03*
X433578Y272288D03*
X433578Y297688D03*
X408178Y246888D03*
X408178Y272288D03*
X408178Y297688D03*
X433578Y323088D03*
X408178Y323088D03*
D12*
X100318Y212120D03*
X100318Y207120D03*
X100318Y202120D03*
X100318Y197120D03*
X100318Y192120D03*
X100318Y187120D03*
X100318Y182120D03*
X100318Y177120D03*
X100318Y172120D03*
X100318Y167120D03*
X100318Y162120D03*
X100318Y157120D03*
X100318Y152120D03*
X100318Y147120D03*
X100318Y142120D03*
X100318Y137120D03*
X100318Y132120D03*
X100318Y127120D03*
X100318Y122120D03*
X100318Y117120D03*
X100318Y112120D03*
X100318Y107120D03*
X100318Y102120D03*
X100318Y97120D03*
X100318Y92120D03*
X100318Y87120D03*
X100318Y82120D03*
X100318Y77120D03*
X100318Y72120D03*
X100318Y67120D03*
X100318Y62120D03*
X100318Y57120D03*
D13*
X67818Y38120D03*
X67818Y231120D03*
D12*
X692670Y53564D03*
X692670Y58564D03*
X692670Y63564D03*
X692670Y68564D03*
X692670Y73564D03*
X692670Y78564D03*
X692670Y83564D03*
X692670Y88564D03*
X692670Y93564D03*
X692670Y98564D03*
X692670Y103564D03*
X692670Y108564D03*
X692670Y113564D03*
X692670Y118564D03*
X692670Y123564D03*
X692670Y128564D03*
X692670Y133564D03*
X692670Y138564D03*
X692670Y143564D03*
X692670Y148564D03*
X692670Y153564D03*
X692670Y158564D03*
X692670Y163564D03*
X692670Y168564D03*
X692670Y173564D03*
X692670Y178564D03*
X692670Y183564D03*
X692670Y188564D03*
X692670Y193564D03*
X692670Y198564D03*
X692670Y203564D03*
X692670Y208564D03*
D13*
X725170Y227564D03*
X725170Y34564D03*
D14*
X627761Y143414D03*
X627761Y148414D03*
X627761Y153414D03*
X627761Y158414D03*
X627761Y163414D03*
X627761Y168414D03*
X627761Y173414D03*
X627761Y178414D03*
X627761Y183414D03*
X627761Y188414D03*
X627761Y193414D03*
X627761Y198414D03*
X627761Y203414D03*
X627761Y208414D03*
X627761Y213414D03*
X627761Y218414D03*
X627761Y223414D03*
X627761Y228414D03*
X627761Y233414D03*
X627761Y238414D03*
X627761Y243414D03*
X627761Y248414D03*
X627761Y253414D03*
X627761Y258414D03*
X554355Y258414D03*
X554355Y253414D03*
X554355Y248414D03*
X554355Y243414D03*
X554355Y238414D03*
X554355Y233414D03*
X554355Y228414D03*
X554355Y223414D03*
X554355Y218414D03*
X554355Y213414D03*
X554355Y208414D03*
X554355Y203414D03*
X554355Y198414D03*
X554355Y193414D03*
X554355Y188414D03*
X554355Y183414D03*
X554355Y178414D03*
X554355Y173414D03*
X554355Y168414D03*
X554355Y163414D03*
X554355Y158414D03*
X554355Y153414D03*
X554355Y148414D03*
X554355Y143414D03*
X149987Y258160D03*
X149987Y253160D03*
X149987Y248160D03*
X149987Y243160D03*
X149987Y238160D03*
X149987Y233160D03*
X149987Y228160D03*
X149987Y223160D03*
X149987Y218160D03*
X149987Y213160D03*
X149987Y208160D03*
X149987Y203160D03*
X149987Y198160D03*
X149987Y193160D03*
X149987Y188160D03*
X149987Y183160D03*
X149987Y178160D03*
X149987Y173160D03*
X149987Y168160D03*
X149987Y163160D03*
X149987Y158160D03*
X149987Y153160D03*
X149987Y148160D03*
X149987Y143160D03*
X223393Y143160D03*
X223393Y148160D03*
X223393Y153160D03*
X223393Y158160D03*
X223393Y163160D03*
X223393Y168160D03*
X223393Y173160D03*
X223393Y178160D03*
X223393Y183160D03*
X223393Y188160D03*
X223393Y193160D03*
X223393Y198160D03*
X223393Y203160D03*
X223393Y208160D03*
X223393Y213160D03*
X223393Y218160D03*
X223393Y223160D03*
X223393Y228160D03*
X223393Y233160D03*
X223393Y238160D03*
X223393Y243160D03*
X223393Y248160D03*
X223393Y253160D03*
X223393Y258160D03*
X627761Y11588D03*
X627761Y16588D03*
X627761Y21588D03*
X627761Y26588D03*
X627761Y31588D03*
X627761Y36588D03*
X627761Y41588D03*
X627761Y46588D03*
X627761Y51588D03*
X627761Y56588D03*
X627761Y61588D03*
X627761Y66588D03*
X627761Y71588D03*
X627761Y76588D03*
X627761Y81588D03*
X627761Y86588D03*
X627761Y91588D03*
X627761Y96588D03*
X627761Y101588D03*
X627761Y106588D03*
X627761Y111588D03*
X627761Y116588D03*
X627761Y121588D03*
X627761Y126588D03*
X554355Y126588D03*
X554355Y121588D03*
X554355Y116588D03*
X554355Y111588D03*
X554355Y106588D03*
X554355Y101588D03*
X554355Y96588D03*
X554355Y91588D03*
X554355Y86588D03*
X554355Y81588D03*
X554355Y76588D03*
X554355Y71588D03*
X554355Y66588D03*
X554355Y61588D03*
X554355Y56588D03*
X554355Y51588D03*
X554355Y46588D03*
X554355Y41588D03*
X554355Y36588D03*
X554355Y31588D03*
X554355Y26588D03*
X554355Y21588D03*
X554355Y16588D03*
X554355Y11588D03*
X149987Y126334D03*
X149987Y121334D03*
X149987Y116334D03*
X149987Y111334D03*
X149987Y106334D03*
X149987Y101334D03*
X149987Y96334D03*
X149987Y91334D03*
X149987Y86334D03*
X149987Y81334D03*
X149987Y76334D03*
X149987Y71334D03*
X149987Y66334D03*
X149987Y61334D03*
X149987Y56334D03*
X149987Y51334D03*
X149987Y46334D03*
X149987Y41334D03*
X149987Y36334D03*
X149987Y31334D03*
X149987Y26334D03*
X149987Y21334D03*
X149987Y16334D03*
X149987Y11334D03*
X223393Y11334D03*
X223393Y16334D03*
X223393Y21334D03*
X223393Y26334D03*
X223393Y31334D03*
X223393Y36334D03*
X223393Y41334D03*
X223393Y46334D03*
X223393Y51334D03*
X223393Y56334D03*
X223393Y61334D03*
X223393Y66334D03*
X223393Y71334D03*
X223393Y76334D03*
X223393Y81334D03*
X223393Y86334D03*
X223393Y91334D03*
X223393Y96334D03*
X223393Y101334D03*
X223393Y106334D03*
X223393Y111334D03*
X223393Y116334D03*
X223393Y121334D03*
X223393Y126334D03*
D15*
X524764Y23956D03*
X524764Y33956D03*
X514858Y23956D03*
X514858Y33956D03*
X237490Y240712D03*
X237490Y230712D03*
X247142Y240712D03*
X247142Y230712D03*
X238506Y160608D03*
X238506Y170608D03*
X248412Y160608D03*
X248412Y170608D03*
X531368Y107616D03*
X531368Y97616D03*
X521716Y107616D03*
X521716Y97616D03*
D16*
X641604Y111252D03*
X641604Y56896D03*
X568960Y158414D03*
X568960Y243414D03*
X613664Y158414D03*
X613410Y243332D03*
X208788Y111252D03*
X208788Y56388D03*
X164338Y111252D03*
X164592Y56388D03*
X164592Y158242D03*
X164338Y243078D03*
X533146Y422D03*
X533400Y9510D03*
X534162Y21900D03*
X534416Y30988D03*
X533608Y43226D03*
X522806Y49340D03*
X537210Y55408D03*
X530172Y61476D03*
X536956Y67544D03*
X536778Y76632D03*
X531721Y84427D03*
X538480Y90520D03*
X641604Y127508D03*
X568960Y174498D03*
X568960Y228346D03*
X208788Y96520D03*
X208788Y41402D03*
X195326Y180340D03*
X206502Y219456D03*
X164846Y11430D03*
X164338Y257810D03*
X179578Y143510D03*
X179578Y126238D03*
X568706Y41656D03*
X568706Y91440D03*
X606552Y143510D03*
X613410Y258572D03*
X606552Y126492D03*
X613664Y11430D03*
X213360Y327914D03*
X203200Y317754D03*
X196850Y304038D03*
X568297Y102020D03*
X577342Y105520D03*
X528728Y126392D03*
X540004Y123698D03*
X641858Y95758D03*
X641604Y41402D03*
X613664Y173736D03*
X613410Y228600D03*
X164338Y96012D03*
X164592Y41402D03*
X164592Y172974D03*
X164338Y228092D03*
X613410Y41402D03*
X613410Y96266D03*
X172720Y19050D03*
X600456Y19558D03*
X249936Y144780D03*
X241554Y151384D03*
X208788Y162092D03*
X200406Y166878D03*
X207772Y181864D03*
X238575Y182187D03*
X237573Y191770D03*
X246661Y193321D03*
X245364Y203200D03*
X240538Y211836D03*
X284480Y207264D03*
X284480Y222504D03*
X201422Y228600D03*
X207518Y236982D03*
X246126Y252250D03*
X238252Y258318D03*
M02*
